<?xml version="1.0" encoding="UTF-8"?>
<svg id="svg845" enable-background="new 0 0 750 500" version="1.1" viewBox="0 0 750 500" xml:space="preserve" xmlns="http://www.w3.org/2000/svg">

<g id="Background_Simple" display="none" fill="#F5F5F5">
	<path id="path110" d="m555.44 99.569-1.647-3.466c-13.882-29.216-42.37-48.884-74.397-50.124-4.117-0.159-8.247-0.022-12.353 0.428-29.566 3.236-56.977 22.542-70.277 49.497-7.821 15.853-11.475 34.651-24.459 46.542-16.897 15.475-42.684 13.379-65.236 10.362-22.552-3.018-48.363-5.048-65.193 10.501-10.54 9.738-15.098 24.653-15.802 39.066-1.863 38.158 21.114 74.795 53.022 95.1s71.351 25.863 108.92 22.205c52.626-5.124 104.58-28.657 138.56-69.733 33.982-41.078 47.581-100.38 28.862-150.38z" display="inline"/>
	
		<ellipse id="ellipse110" transform="matrix(.1408 -.99 .99 .1408 460.51 733.43)" cx="652.8" cy="101.41" rx="38.694" ry="38.694" display="inline"/>
	
		<ellipse id="ellipse111" transform="matrix(.8023 -.5969 .5969 .8023 -24.162 90.377)" cx="124.36" cy="81.664" rx="38.694" ry="38.694" display="inline"/>
</g>






<rect id="rect1" x="95.812" y="67.943" width="145.9" height="241.5" fill="#e0e0e0" stroke-width="1.0569"/><rect id="rect2" x="90.96" y="67.943" width="145.9" height="241.5" fill="#ebebeb" stroke-width="1.0569"/><rect id="rect3" x="97.172" y="72.839" width="133.47" height="231.7" fill="#ffffff" stroke-width="1.0569"/><rect id="rect4" x="122.58" y="102.95" width="82.073" height="171.49" fill="#ebebeb" stroke-width="1.0569"/><path id="path4" d="m122.58 213.75c-0.19024-16.02 14.213-31.658 30.077-33.894 7.5643-1.0664 15.601 0.43439 22.67-2.4636 12.615-5.1736 16.63-21.935 29.327-26.907l0.57918 123.95h-82.652v-60.684z" fill="#e0e0e0" stroke-width="1.0569"/><polygon id="polygon7" transform="matrix(1.0569 0 0 1.0569 -21.34 11.745)" points="492.37 189.19 485.75 62.164 676.1 61.27 676.1 189.19" fill="#e0e0e0"/><rect id="rect8" transform="rotate(-90)" x="-211.42" y="492.05" width="133.97" height="194.19" fill="#f5f5f5" stroke-width="1.0569"/><rect id="rect9" x="513.08" y="94.092" width="152.13" height="100.68" fill="#ffffff" stroke-width="1.0569"/><path id="path10" d="m665.21 94.092s-0.26211 0.01691-0.7504 0.02537c-0.51471 0.0063-1.2313 0.0148-2.1635 0.02642-1.9278 0.01268-4.7254 0.02959-8.3548 0.05285-7.3074 0.02748-17.931 0.06764-31.349 0.11837-26.827 0.05284-64.8 0.12789-109.51 0.21667l0.43968-0.43967c0.0127 30.762 0.0254 64.846 0.0402 100.67v0.0116l-0.47984-0.47984c57.386 0.037 110.29 0.0708 152.13 0.0972l-0.3826 0.3826c0.0846-30.64 0.15326-55.761 0.20082-73.256 0.0423-8.7438 0.075-15.575 0.0972-20.258 0.019-2.3136 0.0328-4.0892 0.0423-5.3236 0.0148-1.2038 0.0423-1.8454 0.0423-1.8454s0.0275 0.58553 0.0412 1.7671c0.01 1.2165 0.0243 2.9688 0.0423 5.2518 0.0222 4.6631 0.055 11.465 0.0972 20.171 0.0476 17.551 0.11731 42.754 0.20081 73.494l1e-3 0.3826h-0.38365c-41.831 0.0264-94.74 0.0602-152.13 0.0972h-0.47984v-0.49144c0.0137-35.825 0.0275-69.909 0.0402-100.67v-0.44073l0.43968 0.0011c44.827 0.08878 82.9 0.16382 109.8 0.21666 13.375 0.05073 23.965 0.09089 31.25 0.11837 3.5903 0.02325 6.3594 0.04122 8.2671 0.05285 0.91105 0.01163 1.6097 0.02008 2.1138 0.02642 0.47138 0.0074 0.69861 0.02431 0.69861 0.02431z" fill="#e0e0e0" stroke-width="1.0569"/><path id="path13" d="m492.05 77.07c0.0814-0.10463 1.3518 0.72821 3.3388 2.1624 1.9859 1.4353 4.6916 3.4688 7.6129 5.8066 2.9213 2.3389 5.4906 4.55 7.3 6.2062 1.8094 1.6572 2.8663 2.749 2.7807 2.8462-0.18073 0.20398-4.8491-3.6474-10.68-8.3041-5.8362-4.6504-10.524-8.4986-10.352-8.7174z" fill="#e0e0e0" stroke-width="1.0569"/><path id="path15" d="m686.24 77.447c0.16488 0.20821-4.4105 4.1029-10.218 8.6983-5.8088 4.5975-10.649 8.154-10.814 7.9469-0.16488-0.20821 4.4094-4.1019 10.219-8.6994 5.8077-4.5954 10.649-8.153 10.813-7.9458z" fill="#e0e0e0" stroke-width="1.0569"/><path id="path17" d="m686.09 211.44c-7.2176-5.85-14.434-11.699-21.652-17.549" fill="#ffffff" stroke-width="1.0569"/><path id="path18" d="m664.43 193.89c0.16699-0.2061 5.1492 3.5565 11.127 8.4014 5.98 4.847 10.691 8.9414 10.524 9.1475-0.167 0.2061-5.1482-3.5554-11.128-8.4024-5.9768-4.8459-10.69-8.9414-10.523-9.1465z" fill="#e0e0e0" stroke-width="1.0569"/><path id="path21" d="m492.05 211.42c-0.16488-0.20821 4.3629-4.0617 10.11-8.6085 5.7496-4.5468 10.543-8.0642 10.706-7.856 0.16488 0.20716-4.3618 4.0617-10.111 8.6085-5.7475 4.5458-10.542 8.0642-10.705 7.856z" fill="#e0e0e0" stroke-width="1.0569"/><rect id="rect23" transform="rotate(-90)" x="-159.17" y="543.97" width="33.713" height="95.72" fill="#e0e0e0" stroke-width="1.0569"/><rect id="rect25" x="320.94" y="77.816" width="107.74" height="112.31" fill="#e0e0e0" stroke-width="1.0569"/><rect id="rect33" x="313.64" y="77.816" width="107.74" height="112.31" fill="#fafafa" stroke-width="1.0569"/><path id="path40" d="m421.42 190.16h-107.81v-112.38h107.81zm-107.74-0.06659h107.67v-112.24h-107.67z" fill="#e0e0e0" stroke-width="1.0569"/><rect id="rect48" x="328.13" y="92.914" width="78.773" height="82.114" fill="#ffffff" stroke-width="1.0569"/><path id="path56" d="m328.13 175.57c0.0624 0.074-0.68593 0.93219-1.9436 2.2597-1.2577 1.3275-3.0259 3.1242-5.0076 5.0763-1.9828 1.9532-3.8038 3.6918-5.1461 4.9262-1.3433 1.2345-2.2089 1.9648-2.2766 1.8961-0.0676-0.0687 0.67537-0.92268 1.9331-2.2512 1.2577-1.3275 3.0302-3.1284 5.0182-5.0858 1.987-1.9574 3.8123-3.7002 5.1556-4.9347 1.3433-1.2345 2.2047-1.9595 2.2671-1.8866z" fill="#e0e0e0" stroke-width="1.0569"/><path id="path65" d="m406.9 175.37c0.074-0.0624 0.93219 0.68593 2.2607 1.9436 1.3275 1.2588 3.1242 3.0259 5.0763 5.0076 1.9521 1.9817 3.6918 3.8038 4.9262 5.1461 1.2345 1.3433 1.9648 2.2089 1.8961 2.2766-0.0687 0.0676-0.92268-0.67536-2.2512-1.9331-1.3275-1.2588-3.1284-3.0312-5.0869-5.0192-1.9574-1.987-3.7002-3.8123-4.9347-5.1556s-1.9606-2.2047-1.8866-2.266z" fill="#e0e0e0" stroke-width="1.0569"/><path id="path74" d="m406.68 93.133c-0.0623-0.07398 0.68593-0.93219 1.9436-2.2597s3.0259-3.1242 5.0076-5.0763c1.9817-1.9532 3.8027-3.6918 5.1461-4.9262 1.3433-1.2345 2.2079-1.9648 2.2766-1.8961 0.0676 0.0687-0.67536 0.92268-1.9331 2.2502s-3.0312 3.1284-5.0192 5.0869c-1.987 1.9574-3.8123 3.7002-5.1556 4.9347-1.3433 1.2345-2.2036 1.9606-2.266 1.8866z" fill="#e0e0e0" stroke-width="1.0569"/><path id="path83" d="m327.91 93.335c-0.074 0.06236-0.93219-0.68593-2.2597-1.9437-1.3275-1.2577-3.1242-3.0259-5.0763-5.0076-1.9532-1.9828-3.6918-3.8027-4.9252-5.1461-1.2345-1.3433-1.9648-2.2089-1.8961-2.2766 0.0676-0.0687 0.92268 0.67536 2.2502 1.9331 1.3275 1.2577 3.1284 3.0312 5.0858 5.0192 1.9574 1.987 3.7002 3.8123 4.9347 5.1556 1.2345 1.3423 1.9595 2.2026 1.8866 2.266z" fill="#e0e0e0" stroke-width="1.0569"/><path id="path92" d="m406.68 175.03c-5e-3 -5e-3 -0.0116-0.14056-0.0169-0.39951-4e-3 -0.28008-0.01-0.65739-0.0169-1.1457-8e-3 -1.0294-0.0201-2.5102-0.0359-4.4327-0.018-3.8894-0.0454-9.5492-0.0793-16.735-0.037-14.382-0.0909-34.869-0.15431-59.401l0.30439 0.30333c-22.932 0.01268-49.863 0.02854-78.55 0.04545h-7e-3l0.34878-0.34878c-0.018 30.139-0.0349 58.335-0.0486 82.114l-0.30016-0.2991c23.539 0.0634 43.14 0.11626 56.881 0.15325 6.8657 0.0338 12.266 0.0602 15.977 0.0782 1.8327 0.0148 3.2447 0.0264 4.2266 0.0349 0.46504 7e-3 0.82439 0.0127 1.0918 0.0169 0.24626 4e-3 0.3752 0.01 0.38048 0.0159 6e-3 5e-3 -0.11097 0.0116-0.34666 0.0169-0.26 4e-3 -0.60878 0.01-1.0601 0.0169-0.96918 7e-3 -2.3611 0.019-4.1695 0.0349-3.6949 0.018-9.0725 0.0444-15.91 0.0782-13.787 0.037-33.452 0.0898-57.072 0.15326l-0.29911 1e-3v-0.30122c-0.0137-23.779-0.0317-51.974-0.0497-82.114v-0.34878h0.35578c28.688 0.01585 55.618 0.03171 78.55 0.04439h0.30439l-1e-3 0.30439c-0.0645 24.612-0.11731 45.167-0.1543 59.596-0.0349 7.1563-0.0613 12.793-0.0803 16.666-0.0148 1.8972-0.0275 3.3578-0.0359 4.3745-7e-3 0.47455-0.0127 0.8413-0.0169 1.1129-4e-3 0.24732-0.0106 0.36992-0.0159 0.36463z" fill="#e0e0e0" stroke-width="1.0569"/><rect id="rect101" x="354.37" y="120.83" width="26.285" height="26.285" fill="#ebebeb" stroke-width="1.0569"/><path id="path111" d="m739.65 484.62c0 0.15219-163.27 0.27479-364.63 0.27479-201.43 0-364.67-0.12365-364.67-0.27479s163.24-0.2748 364.67-0.2748c201.36 0 364.63 0.1226 364.63 0.2748z" fill="#263238" stroke-width="1.0569"/><path id="path112" d="m660.91 252.26c1.3349-7.4512 4.8924-14.59 10.694-20.36 15.124-15.045 39.711-15.108 54.915-0.14163 15.204 14.967 15.268 39.297 0.14374 54.343-15.124 15.045-39.711 15.11-54.915 0.14162-6.4006-6.3002-10.107-14.262-11.138-22.49l-10.188-6.5486z" fill="#ffffff" stroke-width="1.0569"/><path id="path113" d="m660.91 252.26s-0.25577 0.0909-0.72081 0.29488c-0.49675 0.22195-1.1742 0.52634-2.0441 0.91634-1.8168 0.8339-4.4327 2.0345-7.7968 3.5776l-0.28008 0.12788 0.26 0.16911c2.786 1.8136 6.2114 4.0416 10.151 6.6046l-0.10781-0.17016c0.68065 5.6618 2.7976 12.243 7.3064 18.265 1.1203 1.5008 2.3728 2.9688 3.7732 4.3587 1.4807 1.3032 2.9118 2.7437 4.6409 3.8915 3.343 2.4129 7.2028 4.5088 11.519 5.7675 8.5578 2.619 18.8 2.3685 27.994-1.8644 9.1676-4.1462 17.069-12.297 20.592-22.537 1.4554-4.1769 2.1709-8.543 2.1762-12.849-0.038-4.309-0.81805-8.5314-2.1825-12.468-1.3528-3.9412-3.3229-7.6097-5.8236-10.762-2.4636-3.1697-5.3014-5.9789-8.4922-8.1456l-1.1679-0.84235c-0.40269-0.25683-0.82439-0.48512-1.2334-0.72715-0.82968-0.4661-1.6287-0.97658-2.4689-1.3962-1.7132-0.77577-3.38-1.5959-5.1397-2.117-1.709-0.66479-3.4941-0.97764-5.2148-1.4088-0.87406-0.14691-1.7502-0.24943-2.6148-0.37415l-1.2926-0.17439-1.2926-0.055c-3.4339-0.28959-6.7515 0.15114-9.8905 0.64366-3.102 0.71235-6.055 1.5632-8.6793 2.8357-5.3226 2.4066-9.4487 5.8109-12.61 9.1348-3.1052 3.4064-5.144 6.8488-6.4958 9.769-1.337 2.9382-2.0229 5.3543-2.4024 7.001-0.19024 0.82967-0.31178 1.4522-0.37203 1.876-0.0697 0.42276-0.10146 0.64894-0.0898 0.65845 0.0116 8e-3 0.0666-0.19975 0.16593-0.62357 0.093-0.42805 0.2452-1.0622 0.4587-1.8728 0.43016-1.6266 1.1626-4.0131 2.5334-6.9058 1.3856-2.8758 3.4445-6.2569 6.5454-9.5935 3.158-3.2553 7.2536-6.5792 12.511-8.9161 2.5926-1.2366 5.5054-2.0546 8.5588-2.7416 3.0914-0.4661 6.3541-0.88675 9.7267-0.58553l1.2693 0.0592 1.2694 0.1765c0.84869 0.12683 1.708 0.23041 2.5662 0.37732 1.6868 0.43227 3.4381 0.743 5.1133 1.4025 1.7249 0.51577 3.3567 1.3285 5.0351 2.0927 0.82228 0.41325 1.6044 0.91845 2.4161 1.3772 0.40057 0.23886 0.81382 0.46186 1.208 0.71552l1.1425 0.82967c3.1242 2.1307 5.8986 4.8945 8.3052 8.0029 2.4446 3.0936 4.365 6.6892 5.6851 10.55 1.3306 3.8556 2.0916 7.9902 2.1254 12.209-0.01 4.216-0.7113 8.4891-2.136 12.577-3.4466 10.019-11.175 18.008-20.145 22.081-8.9953 4.16-19.033 4.4327-27.439 1.8929-4.2403-1.2197-8.0357-3.2627-11.331-5.6185-1.7048-1.1182-3.1168-2.5302-4.5806-3.8028-1.3846-1.3602-2.6243-2.7976-3.7351-4.2678-4.4707-5.8996-6.6067-12.369-7.3307-17.955l-0.0148-0.11098-0.093-0.0592c-3.9687-2.5197-7.4174-4.7096-10.225-6.4915l-0.0201 0.29699c3.3557-1.6234 5.9652-2.8864 7.7767-3.7626 0.84552-0.41854 1.504-0.74512 1.987-0.98398 0.44285-0.22301 0.66268-0.34138 0.65106-0.34984z" fill="#263238" stroke-width="1.0569"/><path id="path115" d="m682.27 256.62c0.15643-2.1043 1.1013-4.1071 2.4552-5.7369 1.3275-1.597 3.0925-2.8843 5.1133-3.4064 2.1476-0.55382 4.5193-0.19236 6.3985 0.97658 1.1172 0.69544 2.0504 1.6688 2.7131 2.7976 0.56227-1.0474 1.3507-1.9764 2.3104-2.6877 1.7767-1.3158 4.1114-1.8676 6.297-1.4881 2.0578 0.35724 3.9232 1.4987 5.3765 2.9826 1.4839 1.5146 2.5915 3.435 2.9202 5.5202 0.41114 2.6116 0.0169 5.5044-1.2651 7.8222-1.3539 2.4488-3.6199 4.4739-5.9747 6.0106-3.9592 2.5831-9.1782 5.8288-9.1782 5.8288s-4.6557-3.1612-8.8136-5.4166c-2.4732-1.3412-4.8988-3.1771-6.4492-5.5086-1.468-2.2068-2.099-5.0584-1.9035-7.6943z" fill="#ff725e" stroke-width="1.0569"/><path id="path119" d="m187.93 200.06 14.947-3.268c5.6175 4.5458 12.534 7.6594 20.255 8.6846 22.201 2.9456 42.612-12.477 45.589-34.446 2.9762-21.97-12.608-42.168-34.809-45.114s-42.612 12.477-45.589 34.447c-1.2429 9.174 0.75886 18.033 5.1197 25.462l-0.0159-0.0159z" fill="#ffffff" stroke-width="1.0569"/><path id="path120" d="m187.93 200.06s0.14268-0.33081 0.39106-0.94911c0.25788-0.64365 0.62146-1.5526 1.0939-2.7353 0.9565-2.4119 2.3548-5.9335 4.1695-10.508l-0.27902 0.0581 0.0159 0.0159c0.0655 0.0666 0.17333 0.0666 0.23992 2e-3 0.056-0.055 0.0645-0.14057 0.0275-0.20504-2.6888-4.6662-5.2771-11.291-5.3638-19.375-0.14269-7.9976 2.3907-17.452 8.8252-25.425 3.1972-3.9655 7.3349-7.5051 12.226-10.144 4.8818-2.6423 10.518-4.3714 16.454-4.7941 5.9314-0.36781 12.129 0.5591 17.922 2.8917 2.9318 1.0918 5.6576 2.7268 8.2956 4.4961 0.65634 0.44919 1.2535 0.98187 1.8855 1.4702 0.60878 0.51577 1.2863 0.95756 1.8358 1.5441 1.1383 1.1288 2.358 2.192 3.3546 3.4698 0.51789 0.62252 1.0643 1.2197 1.5558 1.858l1.3803 1.9775 0.68804 0.98503 0.5887 1.0432 1.1732 2.0789c0.36569 0.70285 0.65316 1.4427 0.98292 2.1593 0.2991 0.72927 0.68804 1.4226 0.89837 2.1815 0.46609 1.4966 1.0601 2.9509 1.3296 4.4834 1.4268 6.0402 1.3719 12.253 0.0592 18-1.2852 5.7654-3.9507 11.001-7.3518 15.364-3.4138 4.3692-7.6108 7.8528-12.078 10.352-4.4707 2.5091-9.2057 4.0342-13.78 4.7328-4.5849 0.77154-8.9996 0.45764-13.008-0.12683-8.0494-1.3867-14.262-4.9231-18.476-8.3009-0.0402-0.0338-0.0962-0.0444-0.14374-0.0338-4.8047 1.0981-8.5039 1.9447-11.037 2.5228-1.2429 0.28748-2.1973 0.50837-2.8737 0.66585-0.65211 0.15325-1.0009 0.24415-1.0009 0.24415s0.30228-0.0518 0.93431-0.18073c0.66796-0.1374 1.6118-0.33082 2.8378-0.58342 2.5736-0.5369 6.3309-1.3222 11.211-2.34l-0.14268-0.0338c4.2107 3.4519 10.461 7.0792 18.603 8.5314 4.0532 0.61723 8.5261 0.9565 13.18 0.19658 4.643-0.68698 9.4561-2.2153 14.006-4.7487 4.5468-2.5239 8.8231-6.0508 12.306-10.486 3.4698-4.4274 6.1935-9.7521 7.5114-15.617 1.3454-5.8458 1.411-12.17-0.038-18.324-0.2748-1.561-0.87618-3.0428-1.3518-4.5669-0.21561-0.7726-0.60878-1.4797-0.91317-2.2227-0.33504-0.73032-0.62886-1.4828-1.0009-2.1994l-1.1932-2.118-0.60032-1.0622-0.69967-1.0041-1.4057-2.0134c-0.49992-0.65-1.0558-1.2588-1.5832-1.8929-1.0157-1.3-2.2565-2.3844-3.417-3.5322-0.56122-0.5961-1.2503-1.0474-1.8707-1.5727-0.64365-0.4978-1.2524-1.0379-1.9214-1.4955-2.6867-1.8031-5.4653-3.4645-8.451-4.5754-5.9028-2.3717-12.21-3.3071-18.247-2.9224-6.0413 0.43862-11.774 2.211-16.731 4.9093-4.9675 2.6962-9.1623 6.3055-12.394 10.344-6.5095 8.1213-9.0292 17.726-8.8357 25.822 0.13846 8.1857 2.8124 14.861 5.5741 19.536l0.26739-0.20293-0.0159-0.0159c-0.0655-0.0655-0.17228-0.0666-0.23886-3e-3 -0.018 0.0169-0.0317 0.0402-0.0402 0.0613-1.746 4.6588-3.0904 8.2481-4.011 10.704-0.43545 1.1721-0.76943 2.0736-1.0062 2.712-0.223 0.60349-0.32024 0.8952-0.32024 0.8952z" fill="#263238" stroke-width="1.0569"/><path id="path126" d="m244.35 159.85c0.0412-8.6561-7.0158-15.707-15.763-15.748-8.747-0.0412-15.873 6.9428-15.914 15.599-0.0296 6.2674 3.6622 11.69 9.0218 14.223-8e-3 1.857-0.019 3.9539-0.019 3.9539l13.881 0.0655s0.0941-2.2184 0.13529-4.1991c5.1133-2.5799 8.6286-7.8232 8.6571-13.894z" fill="#ff725e" stroke-width="1.0569"/><path id="path129" d="m230.54 177.86s2e-3 -0.0655 0.0169-0.19342c0.0159-0.13528 0.038-0.32235 0.0677-0.56544 0.0634-0.49569 0.15642-1.2281 0.30016-2.1677 0.14479-0.93959 0.33821-2.0874 0.64577-3.4043 0.31496-1.3127 0.74195-2.8029 1.4585-4.3544 0.35829-0.77577 0.7726-1.5684 1.3137-2.3389 0.27797-0.37731 0.62463-0.74406 1.0876-0.95756 0.46187-0.2156 1.0379-0.21349 1.504 0.056 0.2304 0.13317 0.42487 0.35724 0.49886 0.62252 0.0824 0.26211 0.0539 0.5591-0.0698 0.8043-0.24731 0.49464-0.71552 0.83813-1.2281 1.0379-1.0474 0.35723-2.2523 0.26105-3.2912-0.24626-1.0421-0.50626-1.8728-1.4754-2.2237-2.6254-0.16805-0.57178-0.25789-1.1975-0.0846-1.8084 0.15219-0.60667 0.75251-1.1489 1.4448-1.0823 0.34244 0.0264 0.65317 0.26 0.80325 0.55699 0.15748 0.29488 0.19552 0.64366 0.1226 0.96707-0.15642 0.65317-0.6352 1.1404-1.1214 1.5526-1.002 0.8117-2.3643 1.2588-3.6971 1.0421-1.3243-0.21561-2.5102-1.0886-3.0513-2.2734-0.2843-0.58235-0.34983-1.2894-0.0983-1.8993 0.12683-0.30122 0.36992-0.5813 0.69756-0.69016 0.32341-0.12154 0.68804-0.0613 0.97447 0.093 0.29065 0.15325 0.52528 0.40479 0.66479 0.69122 0.14585 0.28536 0.21138 0.59715 0.2378 0.90365 0.0423 0.61406-0.0497 1.225-0.24943 1.7904-0.39211 1.1341-1.2165 2.0895-2.2449 2.618-1.0242 0.53479-2.2121 0.67219-3.2796 0.43016-0.5274-0.11838-1.0664-0.3287-1.4226-0.75463-0.34878-0.41537-0.4439-1.0717-0.0803-1.5103 0.18074-0.21033 0.4513-0.32236 0.71342-0.34138 0.26317-0.0169 0.52528 0.037 0.75463 0.14902 0.46926 0.23252 0.75463 0.66479 0.9639 1.0802 0.39422 0.85187 0.70918 1.6794 1.0294 2.47 1.2514 3.1654 2.1371 5.7718 2.731 7.5791 0.29593 0.90366 0.51471 1.6086 0.66162 2.0874 0.0698 0.23358 0.12366 0.41537 0.16277 0.54537 0.0359 0.12366 0.0486 0.18813 0.0486 0.18813s-0.0264-0.0602-0.0676-0.18179c-0.0433-0.12894-0.10358-0.30862-0.18073-0.54008-0.16171-0.48195-0.39634-1.1806-0.6965-2.0758-0.61512-1.7978-1.5209-4.3967-2.7871-7.5516-0.3213-0.78422-0.64683-1.6213-1.0358-2.4531-0.20398-0.40268-0.48195-0.80642-0.89837-1.0072-0.40374-0.19976-0.9713-0.20081-1.2767 0.15642-0.30017 0.35406-0.22513 0.93853 0.0856 1.3021 0.31813 0.38049 0.82228 0.58341 1.3317 0.69439 1.0273 0.2304 2.174 0.0951 3.158-0.42277 0.98715-0.50942 1.7777-1.4289 2.1529-2.5207 0.1913-0.54325 0.27797-1.133 0.23675-1.7154-0.0391-0.57284-0.27903-1.1732-0.80431-1.4437-0.25154-0.13423-0.55487-0.18179-0.82016-0.0814-0.26951 0.0898-0.47138 0.31813-0.58552 0.58658-0.22407 0.54748-0.17228 1.1975 0.0972 1.746 0.51155 1.1214 1.6477 1.9595 2.9065 2.1624 1.2683 0.20715 2.5799-0.22089 3.5428-1.0009 0.47033-0.39528 0.92163-0.86772 1.0558-1.4458 0.0645-0.28219 0.0296-0.58552-0.10463-0.83707-0.13-0.25154-0.3752-0.43439-0.65422-0.45764-0.27797-0.0285-0.56651 0.0729-0.78846 0.24732-0.22512 0.17227-0.37414 0.42593-0.45447 0.69967-0.15959 0.55276-0.0793 1.1552 0.0824 1.7027 0.33398 1.1024 1.1298 2.0345 2.1254 2.5197 0.99138 0.48935 2.1635 0.5813 3.1506 0.24626 0.48089-0.18284 0.92162-0.5126 1.1393-0.9491 0.23147-0.43439 0.056-0.99138-0.36146-1.2197-0.40796-0.23992-0.93959-0.24732-1.355-0.0518-0.42699 0.19447-0.75992 0.53902-1.0326 0.90577-0.53162 0.7504-0.95122 1.5431-1.3095 2.3083-0.71869 1.5367-1.1541 3.0175-1.4776 4.3228-0.31813 1.3095-0.52106 2.4541-0.67748 3.3906-0.14479 0.9322-0.25894 1.6594-0.33715 2.1614-0.037 0.24097-0.0655 0.42805-0.0867 0.56227-0.019 0.12577-0.0349 0.18919-0.0349 0.18919z" fill="#263238" stroke-width="1.0569"/><path id="path133" d="m234.48 180.48-11.919-0.056c-0.49357-2e-3 -0.89308-0.40057-0.88991-0.88886 2e-3 -0.48934 0.40479-0.88357 0.89837-0.88146l11.919 0.056c0.49357 2e-3 0.89309 0.40057 0.88991 0.88991-2e-3 0.4883-0.40479 0.88252-0.89837 0.88041z" fill="#263238" stroke-width="1.0569"/><path id="path136" d="m234.47 181.26-11.919-0.056c-0.49357-2e-3 -0.89625 0.39211-0.89837 0.8804-2e-3 0.48829 0.39634 0.88675 0.88992 0.88886l1.3084 6e-3 1.7206 3.2775c0.19659 0.3752 0.58764 0.61089 1.0146 0.61301l4.2593 0.0201c0.43122 2e-3 0.82756-0.23464 1.0252-0.61407l1.7027-3.251 0.88991 4e-3c0.49358 2e-3 0.89626-0.39211 0.89838-0.88146 1e-3 -0.48724-0.3974-0.88569-0.89203-0.8878z" fill="#263238" stroke-width="1.0569"/><path id="path140" d="m215.59 153.49c-0.71235 1.5198-1.0622 3.0957-1.1298 4.5257-0.0708 1.4332 0.11626 2.7184 0.41854 3.7467 0.30121 1.0294 0.68487 1.8094 1.0231 2.303 0.33715 0.49463 0.60032 0.71658 0.71553 0.65845 0.26422-0.13105-0.17862-1.3116-0.38895-3.2257-0.223-1.894-0.1004-4.6018 1.1224-7.188 1.2302-2.581 3.2584-4.4031 4.8755-5.441 1.6234-1.0622 2.8251-1.4776 2.7585-1.7629-0.0285-0.12471-0.36886-0.1839-0.96918-0.12471-0.59927 0.0571-1.4511 0.26211-2.4446 0.69016-0.99244 0.42487-2.1117 1.1034-3.1813 2.0715 0-2e-3 -2.0937 1.8316-2.7998 3.7467z" fill="#ffffff" opacity=".2" stroke-width="1.0569"/><path id="path144" d="m230.79 147.02c0.0486-0.26-0.13317-0.54114-0.49252-0.76309-0.35723-0.22195-0.89309-0.37837-1.4924-0.38471-0.60033-5e-3 -1.1383 0.14057-1.4998 0.35618-0.36358 0.21561-0.55065 0.49252-0.50732 0.75357 0.10041 0.52634 0.98504 0.80219 1.9891 0.81593-1e-3 -1e-3 1.561-0.16487 2.0028-0.77788z" fill="#ffffff" opacity=".2" stroke-width="1.0569"/><path id="path148" d="m231.65 186.55c-0.0148 0.0296-0.31284-0.10781-0.81805-0.25366-0.50308-0.14691-1.2218-0.27902-2.0208-0.26211-0.80008 0.0211-1.5103 0.18707-2.006 0.35829-0.49675 0.1691-0.78845 0.32024-0.8043 0.2917-0.0106-0.018 0.25894-0.21243 0.75568-0.41959 0.49358-0.20821 1.225-0.40162 2.0493-0.42276 0.82545-0.018 1.5642 0.14057 2.0673 0.32447 0.50732 0.1839 0.78634 0.36569 0.77683 0.38366z" fill="#455a64" stroke-width="1.0569"/><path id="path152" d="m233.6 183.06c0 0.0528-2.155 0.0856-4.8132 0.074-2.6581-0.0127-4.8121-0.0655-4.8121-0.11837 0-0.0529 2.155-0.0867 4.8132-0.074 2.6571 0.0127 4.8121 0.0655 4.8121 0.11837z" fill="#455a64" stroke-width="1.0569"/><path id="path156" d="m232.85 184.46c1e-3 0.0264-0.44707 0.0708-1.1742 0.11309-0.72715 0.0423-1.7323 0.0782-2.8431 0.0888s-2.117-7e-3 -2.8441-0.0359c-0.72716-0.0285-1.1763-0.0645-1.1763-0.0909 1e-3 -0.0264 0.4513-0.0391 1.1784-0.0454 0.78528-5e-3 1.7619-0.0127 2.841-0.0201 1.0791-0.0127 2.0546-0.0232 2.8399-0.0328 0.7261-7e-3 1.1763-4e-3 1.1784 0.0233z" fill="#455a64" stroke-width="1.0569"/><path id="path162" d="m438.3 189.43 14.251-3.1158c5.3564 4.3344 11.95 7.3032 19.311 8.2798 21.168 2.8082 40.627-11.895 43.466-32.842 2.8378-20.947-12.02-40.205-33.188-43.013s-40.627 11.895-43.465 32.842c-1.1848 8.7459 0.72398 17.194 4.8808 24.276l-0.0159-0.0148z" fill="#ffffff" stroke-width="1.0569"/><path id="path163" d="m438.3 189.43s0.13634-0.31496 0.37308-0.90471c0.24521-0.61406 0.59187-1.4807 1.0432-2.6074 0.91211-2.2998 2.2449-5.6576 3.975-10.018l-0.26529 0.056 0.0148 0.0148c0.0624 0.0634 0.16488 0.0634 0.22829 1e-3 0.0528-0.0518 0.0613-0.13317 0.0254-0.19553-2.563-4.4496-5.0309-10.765-5.1144-18.473-0.13529-7.6256 2.2797-16.639 8.4151-24.241 3.0481-3.7806 6.9936-7.1553 11.658-9.6718 4.6546-2.5197 10.029-4.1684 15.688-4.5711 5.6555-0.3509 11.564 0.53268 17.088 2.7575 2.7955 1.0411 5.3934 2.6 7.9088 4.2868 0.62569 0.42804 1.1943 0.93642 1.7978 1.4014 0.58024 0.49252 1.2271 0.91317 1.7513 1.4723 1.0854 1.0759 2.248 2.0895 3.1982 3.3081 0.49358 0.59293 1.0146 1.1637 1.4828 1.7714l1.3158 1.8855 0.65634 0.93959 0.56122 0.99455 1.1182 1.9828c0.34878 0.67008 0.62252 1.375 0.93642 2.0589 0.28537 0.69544 0.65529 1.3571 0.8561 2.08 0.44495 1.4268 1.0104 2.8135 1.2683 4.2752 1.3602 5.7591 1.3074 11.682 0.056 17.162-1.225 5.497-3.7668 10.49-7.0094 14.649-3.2553 4.1653-7.2567 7.4871-11.516 9.8704-4.2625 2.3928-8.7766 3.8461-13.138 4.513-4.3714 0.73561-8.581 0.4365-12.402-0.12049-7.6742-1.3222-13.598-4.6937-17.615-7.9141-0.0391-0.0317-0.0909-0.0423-0.1374-0.0328-4.5806 1.0474-8.1086 1.8538-10.524 2.4055-1.1848 0.2748-2.0948 0.48512-2.7406 0.63415-0.62041 0.14373-0.95333 0.2304-0.95333 0.2304s0.28853-0.0497 0.89097-0.17228c0.63731-0.13105 1.5367-0.31601 2.7057-0.55593 2.4531-0.5126 6.036-1.2598 10.688-2.2311l-0.13634-0.0317c4.0141 3.2902 9.9751 6.7494 17.736 8.134 3.864 0.58764 8.1287 0.91211 12.567 0.18707 4.4274-0.65528 9.0154-2.1128 13.354-4.5278 4.3344-2.4066 8.4119-5.7696 11.733-9.9973 3.3081-4.2202 5.9049-9.2976 7.1616-14.89 1.2831-5.5731 1.3454-11.604-0.0359-17.471-0.26211-1.4881-0.83495-2.9012-1.2884-4.3545-0.20504-0.73666-0.58024-1.4099-0.87089-2.1191-0.31918-0.6965-0.59926-1.4141-0.95438-2.0969l-1.1372-2.0197-0.57179-1.0125-0.66691-0.95756-1.3402-1.9193c-0.47666-0.61935-1.0072-1.2006-1.5093-1.8041-0.96812-1.2398-2.1519-2.2734-3.2574-3.3684-0.5348-0.56861-1.1922-0.99878-1.783-1.4998-0.61407-0.47455-1.1943-0.99032-1.8316-1.4258-2.5619-1.7196-5.2106-3.3028-8.0579-4.3619-5.628-2.2618-11.642-3.1528-17.398-2.786-5.7601 0.41853-11.225 2.1075-15.952 4.681-4.736 2.5704-8.7353 6.0117-11.817 9.863-6.2062 7.7429-8.6085 16.901-8.4235 24.62 0.13211 7.8042 2.6814 14.169 5.3141 18.626l0.25472-0.19341-0.0148-0.0148c-0.0624-0.0624-0.16382-0.0645-0.22723-2e-3 -0.0169 0.0159-0.0306 0.038-0.038 0.0581-1.6646 4.4422-2.9467 7.8634-3.8239 10.207-0.41431 1.1182-0.73349 1.9775-0.95967 2.5862-0.21667 0.5739-0.30967 0.85081-0.30967 0.85081z" fill="#263238" stroke-width="1.0569"/><path id="path168" d="m465.76 156.56c-0.0148 2.6402-2.1899 4.7688-4.8576 4.754-2.6676-0.0148-4.8184-2.1667-4.8036-4.8068s2.1899-4.7688 4.8575-4.754c2.6687 0.0148 4.8184 2.1667 4.8036 4.8068z" fill="#ff725e" stroke-width="1.0569"/><path id="path174" d="m481.87 156.65c-0.0148 2.6402-2.1888 4.7688-4.8575 4.754-2.6676-0.0148-4.8184-2.1667-4.8036-4.8068 0.0148-2.6402 2.1899-4.7677 4.8576-4.7529 2.6676 0.0148 4.8195 2.1656 4.8036 4.8058z" fill="#ff725e" stroke-width="1.0569"/><path id="path180" d="m497.98 156.74c-0.0148 2.6402-2.1899 4.7688-4.8575 4.754s-4.8184-2.1667-4.8036-4.8068 2.1899-4.7677 4.8575-4.7529c2.6676 0.0137 4.8184 2.1656 4.8036 4.8058z" fill="#ff725e" stroke-width="1.0569"/><path id="path188" d="m388.76 137.36c-1.7238-3.4593-5.8595-5.5688-9.7077-4.9506-4.4274-3.6199-11.458-3.6305-15.898-0.0254-3.3546-2.0599-7.8074-2.2354-11.315-0.44495-3.5089 1.7904-5.9472 5.4811-6.1966 9.38-3.9349-0.70179-8.2132 1.3264-10.126 4.8005s-1.3148 8.1318 1.4141 11.024c-4.3259 1.2936-7.2493 6.0941-6.3837 10.482 0.8656 4.3893 5.3976 7.7503 9.8979 7.3392l46.373-26.971c2.8399-2.6433 3.6664-7.1732 1.9426-10.634z" fill="#263238" stroke-width="1.0569"/><path id="path195" d="m339.08 176.22c2.0567-20.075 19.349-35.218 39.734-34.802l2.0261 0.0412c21.816 1.708 32.538 20.996 30.208 42.53l-4.662 71.912-3.1824 8.9911-37.583 46.603-9.473-41.982-0.18073-19.493s-20.931-3.659-20.758-24.439c0.0845-10.037 1.9563-30.69 3.8693-49.362z" fill="#ffbf9d" stroke-width="1.0569"/><path id="path205" d="m355.99 250.04s13.191 1.0083 27.475-7.4702c0 0-6.7431 14.859-27.453 12.625z" fill="#ff9a6c" stroke-width="1.0569"/><path id="path217" d="m343.99 194.86c-0.0898 1.5653 1.1784 2.9308 2.8283 3.0524 1.6477 0.12048 3.0576-1.0463 3.1464-2.6116 0.0877-1.5653-1.1774-2.9329-2.8251-3.0545-1.6509-0.12154-3.0619 1.0484-3.1496 2.6137z" fill="#263238" stroke-width="1.0569"/><g id="g233" transform="matrix(1.0569 0 0 1.0569 -21.34 11.745)">
																					<path id="path232" d="m344.84 166.31c0.344 0.373 2.525-1.157 5.578-1.087 3.05 0.027 5.258 1.626 5.596 1.264 0.167-0.161-0.178-0.829-1.139-1.551-0.945-0.72-2.569-1.433-4.471-1.464-1.901-0.028-3.515 0.632-4.449 1.322-0.954 0.693-1.285 1.349-1.115 1.516z" fill="#263238"/>
																				</g><path id="path248" d="m372.87 196.46c-0.0888 1.5653 1.1784 2.9297 2.8283 3.0513 1.6477 0.12154 3.0576-1.0453 3.1464-2.6116 0.0888-1.5653-1.1784-2.9319-2.8262-3.0534-1.6498-0.1226-3.0598 1.0484-3.1485 2.6137z" fill="#263238" stroke-width="1.0569"/><g id="g264" transform="matrix(1.0569 0 0 1.0569 -21.34 11.745)">
																					<path id="path263" d="m374.05 166.49c0.345 0.373 2.529-1.156 5.579-1.086 3.049 0.027 5.258 1.626 5.596 1.263 0.166-0.16-0.175-0.828-1.14-1.551-0.945-0.72-2.568-1.433-4.47-1.465-1.901-0.028-3.515 0.632-4.45 1.322-0.95 0.694-1.284 1.35-1.115 1.517z" fill="#263238"/>
																				</g><path id="path279" d="m362.88 211.15c0.019-0.18179-1.9796-0.56545-5.2201-1.0432-0.82227-0.1004-1.598-0.27796-1.7259-0.83812-0.18179-0.59293 0.18073-1.4649 0.60032-2.4055 0.81594-1.9563 1.6689-4.0078 2.5651-6.1575 3.567-8.7692 6.167-15.987 5.8098-16.126-0.35935-0.13845-3.5406 6.8562-7.1077 15.625-0.85926 2.1624-1.6826 4.2244-2.4636 6.1977-0.33082 0.92056-0.88886 1.9595-0.49358 3.1908 0.20927 0.61406 0.80431 1.0685 1.3296 1.2197 0.52528 0.17016 0.98821 0.18812 1.3951 0.22089 3.2669 0.24097 5.2951 0.29699 5.311 0.11626z" fill="#263238" stroke-width="1.0569"/><path id="path294" d="m374.15 178.59c0.36674 0.83601 3.1602 0.14902 6.5359 0.27268 3.3768 0.0476 6.1723 0.87618 6.537 0.0581 0.1596-0.39-0.38894-1.1573-1.5589-1.8876-1.1594-0.72926-2.9572-1.356-4.9812-1.4088-2.024-0.0486-3.8186 0.48512-4.977 1.1562-1.17 0.6722-1.7175 1.411-1.5558 1.8094z" fill="#263238" stroke-width="1.0569"/><path id="path305" d="m344.04 178.78c0.48935 0.77894 2.7786 0.25577 5.441 0.49146 2.6708 0.14374 4.8607 0.98504 5.4568 0.28431 0.26528-0.3435-0.0137-1.1024-0.92585-1.8855-0.89837-0.77894-2.4615-1.5008-4.2953-1.6329-1.8327-0.12895-3.4836 0.36357-4.4866 1.0083-1.0167 0.64577-1.4025 1.3581-1.1901 1.7344z" fill="#263238" stroke-width="1.0569"/><path id="path316" d="m341.3 166.73s5.8077-12.897 12.21-15.804c7.7514-3.5184 10.882 4.885 18.238 3.0111 7.3561-1.8739 14.757-5.2518 22.115 0.49569 8.0536 6.2907 4.1314 10.509 4.4443 19.737 1.2714 37.414 7.9479 48.123 10.276 30.559 0.25471-1.9236 5.6957-3.3472 6.667-11.479 1.2598-10.545 1.9362-23.366-0.28959-30.912-1.8771-6.3615-5.4272-10.802-11.857-15.749-10.149-7.8095-24.305-8.2618-33.94-7.4998-9.6337 0.76203-28.399 11.333-27.863 27.641z" fill="#263238" stroke-width="1.0569"/><path id="path326" d="m407.26 204.14c0.19869-3.2035 3.0439-5.6788 6.2653-5.3088 3.9074 0.44813 8.2185 2.7374 7.7936 10.739-0.75357 14.193-14.999 10.516-15.002 10.108-2e-3 -0.27797 0.5739-9.6009 0.94276-15.539z" fill="#ffbf9d" stroke-width="1.0569"/><path id="path336" d="m409.72 214.5c0.0655-0.0423 0.24098 0.18601 0.65317 0.39951 0.40162 0.20715 1.1024 0.37309 1.8654 0.13528 1.5452-0.47138 2.9466-2.786 3.1528-5.3406 0.10463-1.2894-0.10358-2.5334-0.51154-3.5755-0.3826-1.0611-1.022-1.8221-1.7777-1.9954-0.74935-0.21349-1.3137 0.21033-1.5103 0.60138-0.21349 0.38683-0.1374 0.67431-0.21455 0.69544-0.0423 0.0338-0.29488-0.25471-0.14902-0.83495 0.074-0.27902 0.25999-0.60455 0.61194-0.85927 0.35935-0.25999 0.87301-0.37414 1.4015-0.28959 1.1024 0.13317 2.0441 1.1922 2.4932 2.3358 0.50943 1.152 0.77366 2.5524 0.65634 4.0014-0.24414 2.8558-1.8654 5.4547-3.9708 5.9398-1.0231 0.20821-1.8485-0.13635-2.266-0.49358-0.42699-0.37626-0.48512-0.69756-0.43439-0.71975z" fill="#ff9a6c" stroke-width="1.0569"/><path id="path347" d="m407.55 176.61c-1.8898 1.2207-3.8862 2.4795-6.1374 2.6539s-4.7931-1.1552-5.126-3.3641c-0.14902-0.99244 0.11837-2.1339-0.52211-2.9118-0.76414-0.92796-2.2163-0.67113-3.4223-0.56967-4.1822 0.35301-8.394-2.655-9.3737-6.6934-1.0971 1.5558-3.5797 1.4363-5.1683 0.37626-1.5896-1.0601-2.5915-2.7628-3.8218-4.2171-1.2302-1.4543-2.9731-2.768-4.8755-2.5397-1.0643 0.12683-2.0705 0.73243-3.1358 0.61617-1.8824-0.20398-2.7564-2.4066-3.0027-4.2646-0.24732-1.857-0.42382-4.0215-1.9986-5.0605-1.4596-0.96284-3.3884-0.46292-5.1292-0.2452-1.7397 0.21772-3.9718-0.23146-4.3819-1.9193-0.21455-0.88569 0.18601-1.8041 0.69544-2.563 2.3072-3.436 7.2134-4.884 11.046-3.2584 1.5019-4.6641 6.0138-8.227 10.943-8.6392 4.9294-0.41325 9.9825 2.3463 12.256 6.6955 3.0904-2.6624 7.522-3.715 11.497-2.7321 3.975 0.98293 7.3846 3.975 8.8474 7.7619 3.51-0.83707 7.4618 0.57919 9.6147 3.4487 2.1529 2.8684 2.3812 7.0221 0.55699 10.106 2.5503 1.5103 4.7064 4.0923 4.698 7.0337-7e-3 2.9414-2.9625 5.8109-5.813 4.9791 1.1108 2.3125 0.10357 5.4008-2.1646 6.6332-2.2681 1.2334-5.442 0.41959-6.8192-1.7481" fill="#263238" stroke-width="1.0569"/><path id="path356" d="m416.85 171.29c0.0507-0.037 0.23992 1.1996-0.95121 2.712-0.5887 0.71658-1.5854 1.4554-2.9118 1.6382-1.2968 0.18813-2.8758-0.15854-4.067-1.2609l0.60877-0.0772c-0.7356 1.208-1.6984 2.4351-2.9392 3.4836-0.79797 0.66797-1.6805 1.2324-2.6486 1.5558-0.9491 0.35195-2.0219 0.36569-2.8949 0.20715-1.8147-0.23569-3.3821-1.2345-4.0923-2.4362-0.74089-1.1753-0.96073-2.2576-1.1002-2.9794-0.13105-0.72926-0.13634-1.1404-0.0867-1.1499 0.0623-0.0127 0.17544 0.38048 0.39951 1.0738 0.22829 0.68382 0.53902 1.709 1.2693 2.7279 1.318 2.0652 5.7284 3.195 8.6201 0.37626 1.152-0.97341 2.0832-2.1318 2.8008-3.2637l0.26106-0.41325 0.34772 0.3361c0.96601 0.93113 2.3157 1.282 3.4381 1.1615 1.1404-0.10992 2.0409-0.69439 2.6254-1.3021 1.1806-1.2694 1.1964-2.4288 1.3211-2.3897z" fill="#455a64" stroke-width="1.0569"/><path id="path364" d="m390.4 138.3c7e-3 0.0497-0.37626 0.0919-1.0231 0.34773-0.63098 0.25788-1.5663 0.77365-2.2681 1.8295l-0.17756 0.2674-0.19341-0.2674c-1.3042-1.8073-3.5058-4.1431-6.8234-5.702-1.6498-0.76414-3.5713-1.3042-5.6259-1.3423-2.0441-0.0518-4.197 0.48829-6.1132 1.5949-1.4913 0.85821-2.7532 2.0155-3.6897 3.3208-0.91633 1.3201-1.4902 2.7934-1.6678 4.2498l-0.055 0.44813-0.43228-0.12683c-2.1455-0.63097-4.3502-0.26-5.98 0.59715-1.6541 0.85715-2.7226 2.1941-3.3345 3.3937-1.2102 2.4753-0.83602 4.2118-0.98293 4.1896-0.0328 5e-3 -0.14268-0.3974-0.14902-1.1647 1e-3 -0.76097 0.12154-1.9098 0.71341-3.2214 0.58341-1.2936 1.6784-2.7754 3.4487-3.752 1.7397-0.9713 4.1198-1.4289 6.501-0.76415l-0.48724 0.32025c0.17017-1.5864 0.78-3.1972 1.7598-4.625 0.99878-1.4141 2.3474-2.6549 3.9391-3.5713 2.042-1.1816 4.3629-1.7524 6.5486-1.6784 2.1867 0.0581 4.2086 0.65845 5.9187 1.4881 3.4413 1.6932 5.6386 4.1801 6.8826 6.0984h-0.36991c0.83178-1.1256 1.8728-1.6012 2.5598-1.802 0.70602-0.1987 1.1002-0.15959 1.1013-0.12789z" fill="#455a64" stroke-width="1.0569"/><path id="path372" d="m371.39 216.15s4.141 8.5567-4.7265 10.611c-0.76943 0.17862-1.5811 0.12472-2.3294-0.12788-1.3708-0.46187-2.4161-1.5748-2.7797-2.9615l-1.2239-4.6578c0.41748 0.11203 11.059-2.8642 11.059-2.8642z" fill="#ff9a6c" stroke-width="1.0569"/><path id="path374" d="m363.4 226.74c0.0127-0.0476 0.41537 0.0581 1.1489 0.10675 0.73032 0.0391 1.8126-6e-3 3.0397-0.45447 1.2133-0.43968 2.5788-1.3296 3.4783-2.7786 0.8878-1.4384 1.2535-3.4244 0.74512-5.3247-0.1913-0.7335-0.5052-1.4194-0.90577-2.0039l0.29699 0.10675c-3.4265 0.86983-6.4524 1.6118-8.6244 2.1202-0.99984 0.22407-1.8517 0.41431-2.5619 0.57285-0.6035 0.12366-0.93642 0.17544-0.94488 0.14162-7e-3 -0.0338 0.31073-0.14902 0.89943-0.33187 0.69967-0.20292 1.5378-0.44707 2.5207-0.73243 2.1466-0.60138 5.1492-1.4067 8.5641-2.2946l0.18813-0.0486 0.10886 0.15642c0.44179 0.63414 0.78423 1.3793 0.99138 2.173 0.54959 2.0546 0.13951 4.1896-0.84658 5.7337-1.002 1.5579-2.4869 2.4626-3.7806 2.878-1.3095 0.42276-2.4425 0.40691-3.1887 0.30016-0.75358-0.11837-1.1372-0.29593-1.1288-0.32024z" fill="#263238" stroke-width="1.0569"/><path id="path376" d="m300.38 280.23s-15.02 8.0441-18.078 29.107c-2.6264 18.094-18.442 115.1-18.442 115.1l-14.108 59.708h36.552l19.879-105.97z" fill="#4c6371" stroke-width="1.0569"/><polygon id="polygon376" transform="matrix(1.0569 0 0 1.0569 -21.34 11.745)" points="350.94 232.29 356.62 228.36 360.72 245.64 366.2 265.18 381.2 246.33 404.89 227.97 405.44 237.03 416.81 270.29 407.38 357.07 407.38 446.96 314.54 447.15 333.98 271.1" fill="#dbe2e6"/><path id="path378" d="m356 484.14c0.0127 0 0.0296-0.16699 0.0497-0.49357 0.018-0.36358 0.0412-0.84342 0.0719-1.4501 0.0486-1.319 0.11732-3.1897 0.2061-5.5773 0.16593-4.8882 0.4048-11.884 0.69862-20.511 0.60666-17.318 1.5695-41.239 2.9466-67.643 1.3846-26.413 2.9224-50.306 4.1251-67.594 0.60772-8.6117 1.1002-15.595 1.4437-20.472 0.16171-2.3833 0.28748-4.2509 0.37732-5.5678 0.0338-0.60666 0.0592-1.0854 0.0793-1.449 0.0137-0.32658 0.0148-0.49463 2e-3 -0.49569-0.0127-1e-3 -0.038 0.16488-0.0772 0.48935-0.038 0.36252-0.0877 0.83918-0.15219 1.4437-0.12155 1.3137-0.29382 3.1781-0.51366 5.5572-0.43439 4.8269-1.0104 11.817-1.6762 20.457-1.3349 17.281-2.9551 41.175-4.3397 67.593-1.3772 26.41-2.2586 50.339-2.7332 67.665-0.23992 8.6624-0.39634 15.674-0.46715 20.521-0.0296 2.3886-0.0528 4.2614-0.0687 5.5805v1.4522c6e-3 0.32658 0.0148 0.49463 0.0275 0.49463z" fill="#263238" stroke-width="1.0569"/><path id="path381" d="m439.66 383.58 28.785-89.106-50.93-27.376-10.641-11.518s-2.2628 47.802-2.618 60.462c-0.35512 12.661-5.9314 60.654-8.4193 89.843-1.3285 15.596-0.47455 41.644 0.30439 56.326 0.89414 16.842 0.7113 22.409 0.7113 22.409l49.829-0.27691-16.484-65.613z" fill="#4c6371" stroke-width="1.0569"/><path id="path382" d="m335.1 266.88-34.723 13.351-5.387 129.11-13.409 75 38.295 0.71552c0.35512-9.1433 10.099-85.319 10.099-85.319l12.794-119.22 9.9878-25.471z" fill="#4c6371" stroke-width="1.0569"/><path id="path383" d="m335.74 266.17c-0.0159-0.0127-0.23358 0.22935-0.63732 0.70812-0.43333 0.52529-1.0167 1.2324-1.7555 2.1286-1.5515 1.9236-3.7552 4.6546-6.52 8.0822l-0.13951 0.17227 0.18073 0.13529c1.6498 1.2398 3.5132 2.6402 5.5244 4.1515l0.0772-0.45235c-2.0155 0.63097-4.1917 1.3127-6.4841 2.0303l-0.20504 0.0645 2e-3 0.21455c0.12366 11.437 0.27903 25.836 0.44708 41.444 0.28113 19.053 0.53479 36.295 0.71975 48.847 0.12683 6.2051 0.22935 11.247 0.30227 14.801 0.0507 1.7027 0.0898 3.046 0.11943 4.0236 0.0201 0.42487 0.0359 0.76837 0.0497 1.0463 0.0148 0.23569 0.0296 0.35618 0.0423 0.35618s0.0232-0.12154 0.0328-0.35723c6e-3 -0.27797 0.0137-0.62252 0.0233-1.0474 4e-3 -0.97764 0.0106-2.322 0.018-4.0258-0.0169-3.5554-0.0412-8.5979-0.0698-14.804-0.13-12.552-0.30861-29.796-0.50625-48.849-0.22407-15.608-0.43017-30.007-0.59399-41.443l-0.20187 0.27797c2.285-0.73772 4.4559-1.4395 6.4651-2.0884l0.48195-0.15536-0.4048-0.29699c-2.0293-1.4871-3.9095-2.8663-5.5741-4.086l0.0412 0.30756c2.6972-3.4804 4.8459-6.2527 6.3594-8.2058 0.70178-0.92585 1.2545-1.6562 1.6657-2.1984 0.37097-0.50203 0.55593-0.76837 0.54008-0.78105z" fill="#263238" stroke-width="1.0569"/><path id="path385" d="m398.94 390.94c0.0116 3e-3 0.0571-0.11309 0.13634-0.34349 0.0898-0.27057 0.20081-0.60773 0.33821-1.0252 0.31284-0.95439 0.74512-2.2713 1.2926-3.9412 1.1351-3.4191 2.8188-8.3517 4.9791-14.42 1.0971-3.0344 2.2956-6.351 3.5819-9.9096 1.3338-3.5438 2.5598-7.4343 3.6432-11.558 2.1085-8.2724 3.7171-17.516 5.0922-27.248 1.7598-12.678 2.897-24.63 3.5892-34.914l0.01-0.1448-0.10569-0.10041c-1.9595-1.8707-3.8186-3.6442-5.5868-5.331l-0.0275 0.4365c1.8781-1.4141 3.6368-2.7384 5.2972-3.9888l0.20715-0.15537-0.15219-0.20504c-4.0131-5.3839-7.2715-9.7563-9.565-12.833-1.1161-1.4702-1.9954-2.6296-2.6317-3.4666-0.28536-0.36357-0.51577-0.65634-0.69967-0.89097-0.16065-0.1987-0.24837-0.29593-0.25894-0.28854-0.0106 7e-3 0.0571 0.12049 0.19764 0.33293 0.16805 0.2452 0.37837 0.55276 0.63943 0.93325 0.60877 0.85715 1.4501 2.043 2.5186 3.548 2.248 3.1094 5.442 7.5284 9.3748 12.969l0.0539-0.35935c-1.671 1.2366-3.4413 2.545-5.3321 3.9433l-0.27162 0.20081 0.24414 0.23569c1.7566 1.6995 3.603 3.4857 5.5509 5.368l-0.0951-0.2452c-0.75146 10.258-1.9225 22.201-3.6791 34.855-1.3719 9.714-2.9583 18.941-5.0214 27.184-1.0632 4.1177-2.2491 7.9585-3.5607 11.519-1.2567 3.5702-2.4288 6.8995-3.5005 9.9444-2.1001 6.0941-3.7108 11.055-4.7624 14.503-0.52634 1.7238-0.91422 3.0692-1.1626 3.9845-0.10992 0.42594-0.1987 0.76943-0.26951 1.0453-0.055 0.23992-0.0761 0.36358-0.0634 0.36675z" fill="#263238" stroke-width="1.0569"/><polygon id="polygon388" transform="matrix(1.0569 0 0 1.0569 -21.34 11.745)" points="406.07 404.67 434.27 413.71 436.18 421.32 410.08 431.44 408.34 425.69 395.41 436.36 394.7 420.44" opacity=".3"/><path id="path390" d="m488.1 427.88c2.9688-1.8295 4.8079-4.9981 4.9368-8.4563 0.11415-3.0925-0.0264-7.6964-0.84024-14.408-1.9701-16.241-23.754-110.55-23.754-110.55l-32.097 73.494 9.2765 31.998-47.275 22.4 13.162 36.758c-1e-3 -1e-3 62.814-22.748 76.592-31.237z" fill="#4c6371" stroke-width="1.0569"/><path id="path392" d="m455.87 316.21c-0.0243-6e-3 -0.12683 0.27797-0.30016 0.82439-0.18708 0.62252-0.42699 1.4173-0.72293 2.4002-0.62463 2.1804-1.485 5.1852-2.5366 8.859-2.1096 7.4892-5.0034 17.842-7.9437 29.346-2.9371 11.51-5.2666 22.011-6.7314 29.654-0.73455 3.8207-1.2873 6.9206-1.6202 9.0704-0.15326 1.0136-0.27797 1.8348-0.37521 2.4774-0.0772 0.56756-0.10674 0.86772-0.0814 0.87195 0.0243 4e-3 0.10252-0.28748 0.22618-0.84658 0.13211-0.6352 0.30122-1.448 0.50943-2.452 0.45447-2.2195 1.0802-5.2792 1.8464-9.0196 1.5928-7.6087 3.9983-18.077 6.9333-29.578 2.9382-11.495 5.7517-21.866 7.7344-29.389 0.95967-3.6992 1.7439-6.724 2.3125-8.9192 0.24203-0.99667 0.43756-1.8041 0.59081-2.4351 0.12789-0.56121 0.18285-0.85715 0.15854-0.86349z" fill="#263238" stroke-width="1.0569"/><path id="path395" d="m472.44 435.43c-4e-3 -0.01-0.1078 0.0201-0.30756 0.0867-0.23146 0.0814-0.52211 0.1839-0.88357 0.31178-0.81593 0.30228-1.9532 0.72398-3.4043 1.263-3.0058 1.1425-7.3127 2.7797-12.704 4.829-10.87 4.1906-26.107 10.065-43.764 16.871l0.45764 0.20609c-2.7501-7.6943-5.7284-16.03-8.8146-24.664-1.4754-4.1177-2.9266-8.1678-4.3354-12.098l-0.1839 0.44179c18.132-8.6624 34.349-16.411 46.727-22.324l-0.0328 0.0127c3.9528-1.2398 7.7598-1.5769 11.036-1.2493 3.288 0.28854 6.0265 1.1742 8.1667 2.0536 2.1434 0.89837 3.6928 1.8369 4.7413 2.4679 0.48723 0.31707 0.873 0.56756 1.1679 0.75991 0.26528 0.16911 0.40479 0.25155 0.41219 0.24098 7e-3 -0.01-0.11732-0.11203-0.36886-0.30122-0.28536-0.20821-0.65845-0.47878-1.1298-0.82122-1.0263-0.67219-2.5609-1.6572-4.7085-2.6042-2.1434-0.92797-4.9051-1.8654-8.2396-2.1973-3.3229-0.37098-7.2028-0.0655-11.233 1.1647l-0.0169 5e-3 -0.018 8e-3c-12.401 5.8648-28.648 13.548-46.816 22.14l-0.29276 0.13846 0.10886 0.30333c1.4067 3.9317 2.8547 7.9818 4.328 12.101 3.0957 8.6307 6.0846 16.962 8.8431 24.653l0.12154 0.33821 0.3361-0.13212c17.62-6.9037 32.823-12.86 43.669-17.111 5.3606-2.1297 9.6422-3.8302 12.63-5.0171 1.4342-0.58342 2.5566-1.04 3.3631-1.3676 0.35301-0.15008 0.63732-0.27057 0.86244-0.36675 0.19024-0.0845 0.28642-0.13317 0.28219-0.14268z" fill="#263238" stroke-width="1.0569"/><path id="path398" d="m366.29 291.28c0.0306 0.0296 0.4978-0.39105 1.3306-1.1922 0.90577-0.89097 2.0863-2.0525 3.5248-3.4677 3.0481-3.0819 7.1764-7.2546 11.903-12.033l-0.51683-0.0169c1.4934 1.7249 2.5577 4.011 3.0703 6.464 0.27268 1.2778 0.36463 2.5704 0.29382 3.7795l-0.0476 0.81382 0.63309-0.50838c6.0212-4.829 10.898-9.5661 14.547-12.8 1.8105-1.6319 3.2764-2.9297 4.2974-3.8112 1.0178-0.88569 1.5769-1.3708 1.5462-1.4099-0.0264-0.0328-0.64154 0.38366-1.7143 1.2091-1.0749 0.82121-2.5947 2.0662-4.4506 3.6537-3.7383 3.1411-8.6888 7.8243-14.675 12.596l0.58553 0.30545c0.0793-1.282-0.0169-2.637-0.30122-3.9729-0.53691-2.563-1.6477-4.9453-3.2521-6.7801l-0.25471-0.29065-0.26317 0.27374c-4.6557 4.8501-8.7205 9.0841-11.722 12.212-1.3782 1.4754-2.5091 2.6856-3.3768 3.6136-0.77788 0.85398-1.1869 1.3328-1.1573 1.3624z" fill="#263238" stroke-width="1.0569"/><path id="path400" d="m350.36 264.96c-0.038 1e-3 -0.0613 0.39-0.0581 1.1087 5e-3 0.71869 0.0423 1.7682 0.14585 3.0883 0.20292 2.638 0.69016 6.3657 1.764 10.622l0.21984 0.87195 0.41642-0.80219c1.1129-2.1424 2.656-4.3344 4.6134-6.2981 0.52739-0.53057 1.0717-1.0316 1.6012-1.4828l-0.59081-0.19553c1.2831 5.6819 2.9361 10.607 4.3048 14.068 0.68171 1.7323 1.281 3.1052 1.7206 4.0395 0.43968 0.93431 0.70919 1.4342 0.75146 1.4163 0.0455-0.019-0.14162-0.55488-0.50414-1.5188-0.40268-1.0981-0.90577-2.47-1.5072-4.1071-1.2419-3.4899-2.7997-8.4077-4.0575-14.055l-0.13-0.58553-0.46081 0.39c-0.54642 0.46292-1.1076 0.97764-1.6498 1.523-2.0124 2.0198-3.5861 4.2847-4.7032 6.4979l0.63626 0.0698c-1.1129-4.2012-1.6879-7.8835-2.0081-10.495-0.31602-2.6127-0.41642-4.16-0.50414-4.1558z" fill="#263238" stroke-width="1.0569"/><path id="path402" d="m326.07 283.4-3.9571 5.3987s1.1045 81.863 5.3078 102.19z" opacity=".3" stroke-width="1.0569"/><path id="path403" d="m281.59 484.34c-8e-3 -1e-3 8e-3 -0.13423 0.0486-0.39212 0.0476-0.28113 0.11309-0.65951 0.19447-1.1415 0.18813-1.0305 0.45659-2.5038 0.80114-4.3925 0.72398-3.845 1.7661-9.3758 3.0587-16.24 2.6465-13.786 6.3203-32.926 10.454-54.461l-5e-3 0.055c-0.0328-2.8875-0.0666-5.9483-0.10146-9.0471-0.23358-24.031-0.44496-45.782-0.59821-61.557-0.0497-7.8549-0.0898-14.221-0.11837-18.653-2e-3 -2.1804-3e-3 -3.8831-4e-3 -5.071 5e-3 -0.5591 0.01-0.99666 0.0127-1.319 6e-3 -0.29699 0.0137-0.44918 0.0233-0.44918 0.01 0 0.0201 0.15219 0.0328 0.44918 0.0106 0.32236 0.0243 0.75992 0.0423 1.319 0.0254 1.188 0.0613 2.8917 0.10781 5.071 0.0697 4.4327 0.17016 10.798 0.29276 18.653 0.19447 15.774 0.46293 37.524 0.75886 61.552 0.0338 3.0988 0.0666 6.1596 0.0983 9.0461v0.0285l-5e-3 0.0275c-4.2033 21.522-7.9384 40.65-10.629 54.428-1.3624 6.8519-2.4605 12.372-3.2236 16.209-0.38577 1.8813-0.68594 3.3483-0.89626 4.3735-0.10358 0.47772-0.18496 0.85292-0.2452 1.1319-0.056 0.25366-0.0898 0.3826-0.0983 0.38155z" fill="#263238" stroke-width="1.0569"/><path id="path404" d="m286.1 404.68c-0.0169 0.16382-2.7501-0.0719-6.1036 0.16804-3.3557 0.2209-6.0307 0.82862-6.0698 0.66797-0.0423-0.13211 2.6148-0.99138 6.0328-1.2165 3.4149-0.24415 6.1649 0.24309 6.1406 0.38049z" fill="#263238" stroke-width="1.0569"/><path id="path406" d="m398.84 424.82s-26.654 5.5625-30.615 6.4292c-3.9613 0.86667-19.608 12.613-21.157 13.48-1.5505 0.86666-6.0709 3.7383-6.0709 3.7383s2.9128 4.7751 8.08 3.0418c5.1672-1.7333 8.5747-4.6958 8.5747-4.6958l-11.024 10.055-12.548 7.6657c-1.5368 0.93854-2.2787 2.8769-1.5706 4.5405 0.40057 0.94171 1.1721 1.6488 2.6296 1.3909 3.566-0.63414 15.137-5.1471 15.137-5.1471s0.54325 6.984 6.9164 7.8507c0 0 1.3708 5.999 6.9153 4.7201 0 0 5.4536 4.4654 10.283 1.9141 4.829-2.5503 17.365-7.6774 19.949-12.878 2.5831-5.201 5.8563-9.7088 5.8563-9.7088l9.6548-1.6752z" fill="#ffbf9d" stroke-width="1.0569"/><path id="path407" d="m350.28 465.31c0.0898 0.18707 3.4233-1.1552 7.3138-3.3081 3.9084-2.1434 6.667-4.5373 6.519-4.7117-0.14057-0.1765-3.0566 1.876-6.9153 3.9919-3.8503 2.1307-7.0263 3.807-6.9174 4.0279z" fill="#ff9a6c" stroke-width="1.0569"/><path id="path410" d="m370.61 464.28c-0.12154-0.21349-3.4223 1.6393-7.2102 4.3016-3.788 2.6571-6.89 4.7339-6.7853 4.9231 0.11414 0.20821 3.4497-1.5801 7.2472-4.2445 3.789-2.6623 6.8509-4.7973 6.7484-4.9801z" fill="#ff9a6c" stroke-width="1.0569"/><path id="path414" d="m375.6 469.64c-0.15219-0.14903-2.5672 1.8824-5.8119 4.0754-3.231 2.2132-5.8119 4.1092-5.6745 4.3111 0.11943 0.17227 2.8811-1.4025 6.1396-3.6336 3.2796-2.2163 5.5234-4.5859 5.3469-4.7529z" fill="#ff9a6c" stroke-width="1.0569"/><path id="path418" d="m372.38 435.75c-0.019-0.093-1.1172 0.0233-2.7945 0.60667-1.6763 0.57496-3.8947 1.7058-6.0254 3.3895-2.1307 1.6858-3.7689 3.5311-4.8417 4.9347-1.0706 1.4089-1.6065 2.3664-1.522 2.4277 0.21878 0.17756 2.7289-3.4233 6.8667-6.7135 4.1251-3.3557 8.395-4.4073 8.3168-4.6451z" fill="#ff9a6c" stroke-width="1.0569"/><path id="path424" d="m512.41 332.28c0.14691 1.2123-10.934 31.307-10.934 31.307l-15.464-56.131-21.385 4.4739s5.7982 77.564 9.5502 88.052c4.0046 11.195 27.417 19.564 40.504 4.3893 3.7446-4.3428 15.699-32.059 15.699-32.059z" fill="#a26760" stroke-width="1.0569"/><path id="path426" d="m486.02 307.45s2.5979-6.9566 0.53902-12.977c-2.0588-6.0191-9.044-10.683-8.6096-14.298s-3.2754-12.277-6.6205-11.595c-3.3462 0.68171-5.8172 3.9476-2.9879 9.5122 2.8293 5.5657 4.4654 11.317 4.4654 11.317s-34.829-17.954-37.673-18.343c-2.8441-0.38894-5.6893-0.77788-6.427 1.4659-0.73772 2.2428 6.2146 5.1186 6.2146 5.1186l9.3483 12.054s2.4763 7.5812 6.4989 12.959c4.0226 5.3786 11.934 8.9795 11.934 8.9795l10.155 12.094s15.399-5.2063 13.164-16.288z" fill="#a26760" stroke-width="1.0569"/><path id="path428" d="m435.51 278.13c0.0571 0.0507 0.30862-0.20398 0.85609-0.46292 0.5422-0.2526 1.4184-0.48406 2.4742-0.29911 2.1117 0.38049 4.8026 2.1836 7.0115 4.7128 2.2322 2.5567 3.6558 5.3437 4.7043 7.3318 1.0315 2.006 1.6858 3.2532 1.8115 3.1971 0.11521-0.0507-0.31601-1.3846-1.1985-3.4804-0.90048-2.0747-2.2565-4.9865-4.5944-7.6689-2.3347-2.6539-5.1989-4.4876-7.6488-4.7561-1.226-0.12049-2.2068 0.26-2.7501 0.64577-0.55065 0.39634-0.70918 0.74934-0.66585 0.77999z" fill="#7b4b45" stroke-width="1.0569"/><path id="path430" d="m448.27 282.64c-0.13105 0.22724 2.1138 1.7439 5.014 3.3874 2.9012 1.6445 5.3585 2.7934 5.4906 2.5662 0.13105-0.22617-2.1128-1.7428-5.015-3.3874-2.9002-1.6446-5.3585-2.7934-5.4896-2.5662z" fill="#7b4b45" stroke-width="1.0569"/><path id="path432" d="m466.73 290.39c0.11203-0.22195-2.6306-1.1457-5.8542-0.0539-3.2373 1.0558-4.8607 3.4307-4.6356 3.5406 0.2061 0.19553 1.9944-1.6953 4.94-2.6423 2.9255-1.0041 5.5044-0.56438 5.5498-0.84446z" fill="#7b4b45" stroke-width="1.0569"/><path id="path435" d="m552.14 278.78 12.067-5.2148 41.521 1.0802 15.582 6.5518 3.1475 39.867s-59.044 21.01-59.28 21.01-35.143-34.254-35.143-34.254z" fill="#a26760" stroke-width="1.0569"/><path id="path436" d="m538.1 302.3c0.43438 0.31074 4.5394 1.3 9.8451 2.4869 16.98 3.7985 34.706 2.7913 51.132-2.9128l16-5.5572s26.371 52.842 26.898 54.668c0.5274 1.8263-22.98 133.72-22.98 133.72h-94l2.2946-75.802s-1.5822-69.66-1.318-70.442c0.26422-0.78211 12.128-36.163 12.128-36.163z" fill="#e2dbe3" stroke-width="1.0569"/><path id="path437" d="m563.1 268.65-12.201 8.6148c-9.3832 2.9784-26.064 8.6751-31.126 13.685-7.6457 7.5664-17.668 58.415-17.668 58.415s-1.7545-4.3661-5.7411-4.3661l-27.316 42.867s2.7702 22.395 9.3621 24.743c6.5909 2.3484 24.72 1.058 24.983 1.058h11.336l-4.1906 70.95 22.031 0.0941 0.87829-78.872 4.1114-49.163 11.381-45.784z" fill="#a793ac" stroke-width="1.0569"/><path id="path438" d="m517.32 321.06c0.0211-1e-3 0.0507 0.32975 0.0856 0.95861 0.0306 0.68593 0.0719 1.6023 0.12366 2.7522 0.0983 2.3907 0.19235 5.851 0.26634 10.127 0.15113 8.5535 0.15642 20.375-0.23252 33.424-0.39529 13.053-1.1098 24.854-1.7746 33.383-0.33081 4.2646-0.63203 7.7133-0.87406 10.093-0.12049 1.1446-0.21667 2.0567-0.28854 2.7395-0.0729 0.62568-0.12154 0.95332-0.14268 0.95121-0.0211-2e-3 -0.0148-0.33292 0.0169-0.96178 0.0433-0.68488 0.10041-1.6002 0.17122-2.749 0.16382-2.4488 0.39317-5.8848 0.67537-10.104 0.5517-8.5324 1.1964-20.329 1.5906-33.372 0.38894-13.039 0.45447-24.851 0.41536-33.401-0.0285-4.2287-0.0518-7.6721-0.0676-10.126-2e-3 -1.151-4e-3 -2.0673-6e-3 -2.7543 6e-3 -0.62886 0.019-0.96072 0.0412-0.96072z" fill="#263238" stroke-width="1.0569"/><path id="path440" d="m517.04 317.36c-0.16805 0.0391-0.93853-2.581-1.7228-5.8521-0.78422-3.2722-1.2831-5.9557-1.115-5.9948 0.16805-0.0391 0.93853 2.581 1.7228 5.8532 0.78317 3.2701 1.282 5.9536 1.115 5.9937z" fill="#263238" stroke-width="1.0569"/><path id="path442" d="m517.41 323.26c-0.11521 0.55805-0.22935 1.1161-0.34138 1.6752-5.5456 27.689-5.888 60.727-2.3432 88.736 1.0569 0.14057 4.8744-86.138 2.5683-89.853" opacity=".3" stroke-width="1.0569"/><path id="path444" d="m670.5 310.49c-2.6824-10.884-8.9678-16.065-8.9678-16.065l-27.436 35.656 10.323 154.54h39.649l-4.5373-78.457c-1e-3 -1e-3 -6.3478-84.788-9.0302-95.672z" fill="#a793ac" stroke-width="1.0569"/><path id="path445" d="m658.61 303.48 5.3775-6.7484s-10.891-11.315-26.749-17.31c-7.7366-2.9255-19.578-8.2671-19.578-8.2671l-8.507-10.488-2.061 30.287s-1.5029 66.913-2.5619 79.038c-1.0136 11.609-13.259 64.724-13.099 114.71l59.34-0.0951-13.195-77.739s5.3955-49.547 5.7327-51.163c0.33609-1.616 15.302-52.228 15.302-52.228z" fill="#a793ac" stroke-width="1.0569"/><path id="path446" d="m661.53 303.07c0.13106 0.11098-4.1674 5.2835-9.5999 11.552-5.4346 6.2706-9.9444 11.262-10.074 11.151-0.13105-0.11098 4.1674-5.2824 9.6009-11.553 5.4325-6.2696 9.9434-11.261 10.073-11.15z" fill="#263238" stroke-width="1.0569"/><path id="path448" d="m541.82 320.2c-0.0169 1e-3 -0.0497-0.1765-0.0951-0.52-0.0454-0.40162-0.10357-0.90154-0.17439-1.5167-0.13739-1.4004-0.32552-3.3218-0.5591-5.7094l0.32658 0.1078c-2.9234 3.3419-6.7483 8.2312-10.271 14.462l-0.6574 1.1636 0.10992-1.3296c0.33398-4.0501 0.93959-8.4732 1.987-13.003 2.396-10.49 6.8466-19.273 10.366-25.321 1.7566-3.0428 3.2944-5.4346 4.3661-7.0802 0.52-0.77154 0.93854-1.3941 1.263-1.876 0.29487-0.42488 0.45764-0.6426 0.47666-0.63097 0.019 0.0116-0.10992 0.25154-0.36992 0.69756-0.2991 0.4978-0.68487 1.1404-1.1636 1.9362-1.0072 1.6826-2.4848 4.1061-4.1875 7.1669-3.4138 6.091-7.7662 14.839-10.142 25.246-1.04 4.495-1.6541 8.8865-2.0102 12.912l-0.54854-0.16594c3.5829-6.2537 7.4935-11.129 10.501-14.423l0.29805-0.32659 0.0296 0.43334c0.16171 2.3939 0.29171 4.3185 0.38578 5.7231 0.0317 0.61829 0.0571 1.1214 0.0771 1.5251 0.0116 0.34666 0.01 0.5274-8e-3 0.52845z" fill="#263238" stroke-width="1.0569"/><path id="path452" d="m492.04 408.26c-0.0169-8e-3 0.0634-0.21138 0.2304-0.58869 0.19765-0.42805 0.44813-0.97024 0.75569-1.6372 0.34033-0.70496 0.74723-1.5706 1.1732-2.5968 0.43227-1.0231 0.96812-2.1688 1.4532-3.4804 0.51366-1.3 1.0717-2.7247 1.5885-4.2847 0.56651-1.5431 1.0558-3.2288 1.5959-4.9939 1.0051-3.5533 1.9468-7.5062 2.6507-11.709 0.67431-4.2097 1.0463-8.2576 1.2281-11.946 0.0497-1.8454 0.12577-3.5998 0.0803-5.2433 8e-3 -1.6435-0.0655-3.1718-0.13845-4.568-0.0423-1.3983-0.18285-2.655-0.2674-3.7626-0.0772-1.1087-0.18707-2.0588-0.28536-2.8346-0.0793-0.72927-0.14374-1.3232-0.19447-1.7925-0.038-0.41114-0.0497-0.62781-0.0307-0.63098 0.019-3e-3 0.0666 0.20821 0.14056 0.61407 0.0782 0.46609 0.17651 1.0558 0.297 1.7809 0.13105 0.77366 0.27162 1.7228 0.37837 2.8314 0.11414 1.1076 0.28325 2.3675 0.34983 3.7689 0.0983 1.3994 0.19553 2.934 0.2061 4.5849 0.0645 1.6498 6e-3 3.4138-0.0307 5.2697-0.15431 3.7087-0.5126 7.7809-1.1911 12.015-0.70707 4.2276-1.6689 8.1995-2.7067 11.763-0.55699 1.7703-1.0654 3.4603-1.6519 5.0034-0.53691 1.561-1.1193 2.9836-1.6583 4.2794-0.51049 1.3074-1.0728 2.4467-1.5336 3.4614-0.45447 1.0178-0.89097 1.8718-1.2609 2.5641-0.34561 0.64894-0.62675 1.1763-0.8487 1.5938-0.19975 0.36252-0.31284 0.54748-0.32975 0.53902z" fill="#263238" stroke-width="1.0569"/><path id="path453" d="m617.66 271.16c0.019 0 0.0402 0.30016 0.0624 0.873 0.0169 0.62252 0.0402 1.4564 0.0698 2.5028 0.0349 2.2301 0.0835 5.3617 0.14268 9.2078 0.0856 7.7757 0.17439 18.517 0.1226 30.382-0.0285 2.6592-0.0571 5.2623-0.0835 7.7862-0.0254 1.263-0.0529 2.5049-0.11521 3.7288-0.0169 0.3065-0.0349 0.61089-0.0676 0.92268l-0.0338 0.24309c-8e-3 0.0423-0.018 0.0898-0.038 0.15113-8e-3 0.0243-0.0243 0.055-0.0391 0.0803l-0.0127 0.0201c-0.018 0.0233-0.0433 0.0476-0.074 0.0676-0.0486 0.0412-0.16699 0.0528-0.15854 0.0465-0.0444-7e-3 -0.0909-0.018-0.13422-0.0338-0.2452-0.11943-0.31285-0.21244-0.44707-0.31813-0.45764-0.41537-0.86455-0.84447-1.2704-1.2715-3.1961-3.4445-5.9525-6.7114-8.3443-9.5227l0.36675-0.10463c-0.72927 4.5859-1.3254 8.3305-1.7481 10.989-0.21349 1.2598-0.3826 2.2597-0.50837 2.9963-0.0592 0.31179-0.1078 0.56756-0.14797 0.77894-0.037 0.17545-0.0602 0.26423-0.0708 0.26212-0.0106-2e-3 -7e-3 -0.0941 0.01-0.27163 0.0243-0.21349 0.0529-0.47244 0.0877-0.78739 0.0972-0.7409 0.2304-1.7471 0.39739-3.0132 0.37838-2.6645 0.91211-6.4186 1.5653-11.016l0.0645-0.45235 0.30228 0.34772c2.4182 2.7797 5.2063 6.0307 8.3992 9.4392 0.40268 0.41959 0.81382 0.84658 1.2429 1.2334 0.0941 0.0856 0.24838 0.20081 0.27269 0.21455 0-0.0444-0.0444 0.0814-0.0317 0.19236 0.0264 0.11309-0.11309-0.0645-0.21561-0.055l0.0148-0.0676 0.0275-0.20504c0.0296-0.28854 0.0465-0.59081 0.0613-0.89309 0.0571-1.2102 0.0803-2.452 0.10357-3.7118 0.0243-2.5218 0.0497-5.1228 0.075-7.7799 0.0148-11.838 0.0285-22.554 0.038-30.378 0.0137-3.8471 0.0243-6.9788 0.0328-9.2088 0.0137-1.0474 0.0254-1.8813 0.0338-2.5038 0.0137-0.56967 0.0296-0.87089 0.0486-0.87089z" fill="#263238" stroke-width="1.0569"/><path id="path454" d="m641.85 333.72c0.01 0 0.0106 0.1226 4e-3 0.36041-0.0106 0.26528-0.0232 0.61406-0.0402 1.058-0.0486 0.96179-0.11732 2.3262-0.20504 4.0702-0.20399 3.5702-0.49569 8.6909-0.85715 15.031-0.77789 12.755-1.8549 30.411-3.0598 50.167l-3e-3 -0.0634c0.29065 1.6752 0.60138 3.4656 0.91528 5.2718 3.5618 20.719 6.7864 39.471 9.1264 53.082 1.1372 6.7727 2.0599 12.264 2.7036 16.097 0.30333 1.8781 0.54113 3.3472 0.70707 4.3809 0.0719 0.47984 0.12788 0.85715 0.17016 1.1415 0.0349 0.25789 0.0486 0.39106 0.0391 0.39211-0.01 2e-3 -0.0412-0.12788-0.0951-0.3826-0.056-0.28219-0.13-0.65634-0.22406-1.1319-0.1913-1.0294-0.46293-2.4932-0.80959-4.364-0.68488-3.8249-1.6657-9.3061-2.8758-16.067-2.3802-13.603-5.6608-32.347-9.2849-53.055-0.31284-1.8063-0.62357-3.5967-0.91422-5.2718l-5e-3 -0.0317 2e-3 -0.0317c1.2725-19.751 2.4108-37.404 3.232-50.155 0.43333-6.3362 0.78317-11.454 1.0273-15.021 0.13-1.7418 0.23252-3.1041 0.30439-4.0638 0.0391-0.44179 0.0687-0.78951 0.0919-1.0537 0.0254-0.23886 0.0412-0.3604 0.0507-0.35935z" fill="#263238" stroke-width="1.0569"/><path id="path456" d="m550.11 169.4c-9.4392 0.20187-17.544 14.083-16.141 21.902 0.6817 3.7985 2.4161 8.1561-0.6891 10.969-3.0735 2.7828-9.5407 2.545-12.472 5.4145 0 0-3.7541 3.695-3.3462 8.4901 0.40691 4.7952-0.37943 11.175-4.2371 12.875l19.162 6.8012c1.9796-1.9796 2.7702-5.1006 4.7508-7.0802-2.265 2.0747-4.4633 9.4773 5.7918 10.315l6.3795-5.5625c17.437 4.4454 35.754 9.9698 49.694 2.4732" fill="#263238" stroke-width="1.0569"/><path id="path459" d="m638.91 210.99c-1.2577-3.5914-3.3218-6.9058-4.1917-10.608-1.8697-7.9585 1.8993-17.023-2.1476-24.145-2.8811-5.0689-8.8664-7.4702-14.513-9.082s-11.043-2.564-15.304-6.5687c-3.1263-2.9371-4.9484-7.0263-8.0642-9.974-4.4401-4.2001-10.907-5.535-17.044-5.7992-6.3023-0.27057-12.8 0.4439-18.412 3.2944-5.6122 2.8505-10.22 8.0959-11.118 14.276-0.43756 3.0122-8e-3 6.1544-0.91211 9.063-0.99455 3.1993-3.474 5.7179-4.9759 8.7174-3.1739 6.3372-1.2387 14.76 4.3925 19.114l44.222 54.476c9.1412 3.2331 19.095-8.2576 25.992-15.018 6.8963-6.761 25.255-18.669 22.076-27.746z" fill="#263238" stroke-width="1.0569"/><path id="path462" d="m547.64 192.82c1.5536-12.574 10.924-27.567 23.553-25.498l39.092 12.235c3.8366 0.62886 5.8901 3.6664 5.5858 7.503l-8.061 93.385c0.093 0.0264-0.97659 1.4998-0.88358 1.5251 0 0-10.568 26.203-36.329 16.574-5.108-1.9098-7.4226-0.13845-8.1234-5.9874-1.1161-0.43756-6.4323-2.2808-6.4027-2.9372l7.0316-20.976c0.36357-7.6499 0.58869-9.973 0.57918-9.9022 0 0-16.135-3.0354-18.26-24.269-1.058-10.558 0.49252-27.682 2.2184-41.653z" fill="#a26760" stroke-width="1.0569"/><g id="g475" transform="matrix(1.0569 0 0 1.0569 -21.34 11.745)">
																					<g id="g474">
																						<g id="g473">
																							<g id="g472">
																								<g id="g471">
																									<g id="g470">
																										<g id="g469">
																											<path id="path468" d="m567.54 188.45c-0.128 1.345 0.917 2.562 2.334 2.72 1.414 0.158 2.668-0.801 2.796-2.147 0.128-1.345-0.917-2.563-2.331-2.722-1.418-0.157-2.671 0.804-2.799 2.149z" fill="#263238"/>
																										</g>
																									</g>
																								</g>
																							</g>
																						</g>
																					</g>
																				</g><g id="g491" transform="matrix(1.0569 0 0 1.0569 -21.34 11.745)">
																					<g id="g490">
																						<g id="g489">
																							<g id="g488">
																								<g id="g487">
																									<g id="g486">
																										<g id="g485">
																											<path id="path484" d="m541.82 187.79c-0.128 1.345 0.917 2.562 2.335 2.72 1.414 0.158 2.667-0.801 2.796-2.147 0.128-1.345-0.917-2.563-2.331-2.722-1.418-0.158-2.671 0.803-2.8 2.149z" fill="#263238"/>
																										</g>
																									</g>
																								</g>
																							</g>
																						</g>
																					</g>
																				</g><g id="g508" transform="matrix(1.0569 0 0 1.0569 -21.34 11.745)">
																					<g id="g507">
																						<g id="g506">
																							<g id="g505">
																								<g id="g504">
																									<g id="g503">
																										<g id="g502">
																											<g id="g501">
																												<path id="path500" d="m540.71 179.87c0.288 0.463 2.659-1.08 5.667-0.701 3.011 0.329 4.971 2.381 5.357 1.998 0.187-0.168-0.061-0.969-0.91-1.892-0.834-0.918-2.34-1.896-4.215-2.118-1.876-0.219-3.564 0.381-4.583 1.082-1.041 0.702-1.46 1.422-1.316 1.631z" fill="#263238"/>
																											</g>
																										</g>
																									</g>
																								</g>
																							</g>
																						</g>
																					</g>
																				</g><g id="g526" transform="matrix(1.0569 0 0 1.0569 -21.34 11.745)">
																					<g id="g525">
																						<g id="g524">
																							<g id="g523">
																								<g id="g522">
																									<g id="g521">
																										<g id="g520">
																											<g id="g519">
																												<path id="path518" d="m568.23 182.38c0.362 0.423 2.69-1.312 5.919-1.233 3.229 0.029 5.551 1.843 5.913 1.431 0.177-0.183-0.177-0.939-1.191-1.759-0.994-0.816-2.705-1.625-4.719-1.66-2.013-0.031-3.728 0.718-4.725 1.501-1.014 0.786-1.374 1.53-1.197 1.72z" fill="#263238"/>
																											</g>
																										</g>
																									</g>
																								</g>
																							</g>
																						</g>
																					</g>
																				</g><g id="g544" transform="matrix(1.0569 0 0 1.0569 -21.34 11.745)">
																					<g id="g543">
																						<g id="g542">
																							<g id="g541">
																								<g id="g540">
																									<g id="g539">
																										<g id="g538">
																											<g id="g537">
																												<path id="path536" d="m557.37 201.31c0.022-0.155-1.686-0.551-4.461-1.067-0.704-0.114-1.367-0.292-1.458-0.778-0.137-0.517 0.204-1.255 0.597-2.052 0.768-1.658 1.571-3.397 2.414-5.219 3.363-7.435 5.842-13.566 5.538-13.697-0.304-0.132-3.277 5.789-6.639 13.224-0.812 1.835-1.589 3.583-2.327 5.257-0.316 0.781-0.831 1.659-0.531 2.732 0.16 0.535 0.657 0.946 1.105 1.094 0.446 0.163 0.845 0.194 1.194 0.236 2.803 0.312 4.548 0.426 4.568 0.27z" fill="#263238"/>
																											</g>
																										</g>
																									</g>
																								</g>
																							</g>
																						</g>
																					</g>
																				</g><g id="g561" transform="matrix(1.0569 0 0 1.0569 -21.34 11.745)">
																					<g id="g560">
																						<g id="g559">
																							<g id="g558">
																								<g id="g557">
																									<g id="g556">
																										<g id="g555">
																											<path id="path554" d="m553.52 233.7s13.481 1.652 27.361-5.543c0 0-7.632 14.181-27.653 11.147z" fill="#7b4b45"/>
																										</g>
																									</g>
																								</g>
																							</g>
																						</g>
																					</g>
																				</g><g id="g578" transform="matrix(1.0569 0 0 1.0569 -21.34 11.745)">
																					<g id="g577">
																						<g id="g576">
																							<g id="g575">
																								<path id="path574" d="m568.32 173.03c0.229 0.763 3.022 0.57 6.255 1.149 3.246 0.513 5.816 1.61 6.288 0.965 0.212-0.309-0.204-1.038-1.223-1.823-1.009-0.783-2.648-1.567-4.59-1.897-1.943-0.325-3.751-0.122-4.966 0.286-1.224 0.407-1.861 0.959-1.764 1.32z" fill="#263238"/>
																							</g>
																						</g>
																					</g>
																				</g><g id="g595" transform="matrix(1.0569 0 0 1.0569 -21.34 11.745)">
																					<g id="g594">
																						<g id="g593">
																							<g id="g592">
																								<path id="path591" d="m541.57 169.96c0.521 0.656 2.745 0.136 5.375 0.259 2.633 0.043 4.829 0.702 5.38 0.079 0.243-0.304-0.07-0.949-1.007-1.597-0.923-0.644-2.497-1.219-4.307-1.276-1.808-0.055-3.406 0.419-4.358 1.005-0.968 0.587-1.311 1.211-1.083 1.53z" fill="#263238"/>
																							</g>
																						</g>
																					</g>
																				</g><path id="path610" d="m651.49 206.96c-2.0113-3.6728 1.8644-7.7693-1.2165-11.158-2.8114-3.0904-10.219-3.2003-12.858-6.3499-2.062-2.4594-2.1487-3.1084-2.2174-5.4145-0.0856-2.8885-1.4036-15.028-19.307-17.494l-2.4848 11.031c-1.1172-0.51894-2.2766-0.96707-3.4202-1.3814-14.576-5.274-29.789-8.821-45.211-10.543-1.8591 3.1602-0.0106 7.3825 2.9224 9.6062 2.9329 2.2237 6.6638 3.0566 10.147 4.2762 3.4836 1.2197 7.0665 3.1295 8.5525 6.4757 1.5811 3.5607 0.37837 7.8306 1.7767 11.464 2.4055 6.2526 11.317 8.1244 13.687 14.39 1.7914 4.7392-0.90789 9.8662-1.5146 14.891-0.68805 5.6936 1.5462 11.66 5.8172 15.533 3.3684 3.0555 9.0978 8.599 9.4921 7.4871l47.926-29.662c2.7522-6.6574-9.3388-8.1255-12.092-13.152z" fill="#263238" stroke-width="1.0569"/><path id="path614" d="m546.36 242.91c6e-3 0.0127-0.1617 0.0983-0.4904 0.24732-0.32236 0.16488-0.82122 0.34984-1.4776 0.55593-1.3095 0.40057-3.324 0.72398-5.7813 0.4122-2.4256-0.34139-5.3353-1.356-7.7577-3.5776-1.2038-1.1013-2.2438-2.5038-2.9815-4.1135-0.72292-1.616-1.152-3.4244-1.2345-5.2951-0.16065-3.7467 1.1922-7.337 3.4159-9.732 2.21-2.4224 5.0161-3.7256 7.4269-4.197 2.433-0.47561 4.4676-0.23252 5.7918 0.1078 0.6648 0.17862 1.171 0.34033 1.5019 0.49041 0.33398 0.13422 0.50625 0.21138 0.50097 0.22512-5e-3 0.0137-0.18919-0.037-0.53057-0.1448-0.33715-0.1226-0.84764-0.25788-1.5093-0.40902-1.319-0.28748-3.3197-0.47772-5.6914 0.0243-2.3506 0.4978-5.0658 1.7978-7.1954 4.1632-2.1381 2.3347-3.4371 5.8119-3.2817 9.454 0.0803 1.8168 0.49357 3.5734 1.189 5.1418 0.71129 1.5632 1.708 2.9224 2.8684 3.9972 2.3326 2.1709 5.1588 3.195 7.5305 3.566 2.4024 0.34244 4.3862 0.0729 5.6936-0.27374 0.65528-0.17862 1.1584-0.33715 1.4892-0.47561 0.3361-0.12048 0.51683-0.17967 0.52317-0.16699z" fill="#e0e0e0" stroke-width="1.0569"/><path id="path618" d="m641.15 233.4c-6e-3 -3e-3 0.0328-0.11414 0.11732-0.32658 0.0803-0.21349 0.2304-0.51894 0.33081-0.95227 0.2452-0.84341 0.45236-2.1698 0.15748-3.826-0.28959-1.634-1.1235-3.6368-2.8875-5.2592-0.87723-0.80642-2.006-1.4532-3.3123-1.8179-1.3095-0.3678-2.7754-0.48935-4.2498-0.99138-0.7335-0.24943-1.4606-0.63308-2.0652-1.1932-0.60983-0.55382-1.0632-1.281-1.3803-2.0631-0.62463-1.5822-0.71341-3.361-0.61829-5.1408 0.10041-1.7777 0.32553-3.6125 0.0698-5.4621-0.13529-0.91739-0.40585-1.8316-0.90049-2.6402-0.53162-0.77683-1.1668-1.5251-2.0208-2.0272-1.6625-1.0675-3.7023-1.5431-5.7443-2.043-2.0367-0.50626-4.216-0.99032-6.1015-2.2385-0.94699-0.6035-1.7418-1.467-2.3178-2.4467-0.57707-0.98821-0.9026-2.0969-1.1224-3.2098-0.43227-2.2364-0.43333-4.5331-0.85926-6.7758-0.81699-4.4982-4.2202-8.2079-8.2587-9.7066-2.0229-0.78951-4.1949-0.83813-6.3044-1.0453-1.0558-0.10569-2.1128-0.25155-3.12-0.57919-1.0062-0.31495-1.9595-0.83284-2.6951-1.5727-1.4945-1.4998-2.0102-3.5026-2.6624-5.2486-0.60455-1.7862-1.5632-3.3567-2.7532-4.661-2.4172-2.581-5.608-4.0448-8.6043-4.3629-3.0175-0.35512-5.7675 0.47984-7.8306 1.6752-2.0821 1.2102-3.5248 2.7554-4.5003 4.1219-0.95122 1.393-1.4702 2.6127-1.7291 3.4603-0.15959 0.41536-0.20927 0.75357-0.28008 0.97024-0.0602 0.21983-0.0941 0.33187-0.10146 0.33081 0 0 0.0539-0.46715 0.29804-1.3264 0.23358-0.86138 0.73244-2.1032 1.6731-3.528 0.96601-1.3972 2.4097-2.9826 4.5162-4.234 2.0853-1.2355 4.8935-2.1138 7.987-1.7693 3.0692 0.30756 6.3393 1.7841 8.8326 4.4232 1.225 1.3254 2.228 2.9636 2.8452 4.7719 0.65951 1.764 1.1869 3.7108 2.5862 5.0985 1.3941 1.4067 3.5121 1.838 5.5773 2.025 2.0789 0.20082 4.3101 0.24415 6.4122 1.059 4.1727 1.5441 7.6826 5.3638 8.5314 10.016 0.43439 2.2956 0.43439 4.5933 0.85715 6.7748 0.2135 1.0854 0.5274 2.1498 1.0717 3.083 0.54537 0.92585 1.2852 1.7344 2.1857 2.3104 3.6537 2.3506 8.2999 2.0578 11.827 4.2984 0.89414 0.52951 1.5769 1.3275 2.136 2.1571 0.52529 0.86455 0.80537 1.8316 0.94277 2.7839 0.25682 1.9183 0.0169 3.7721-0.0888 5.534-0.10252 1.7524-0.018 3.4899 0.57072 5.0002 0.29911 0.74617 0.72081 1.4321 1.2894 1.9542 0.56333 0.52634 1.2429 0.89414 1.9489 1.1393 1.4173 0.49569 2.8843 0.62992 4.2213 1.0146 1.3423 0.38472 2.5102 1.0664 3.4011 1.9035 1.7967 1.6847 2.619 3.7383 2.8885 5.4061 0.27479 1.691 0.0359 3.0333-0.23886 3.8788-0.1152 0.43439-0.28008 0.73667-0.37415 0.94593-0.093 0.21033-0.14691 0.31391-0.15325 0.31073z" fill="#455a64" stroke-width="1.0569"/><path id="path623" d="m578.07 228.84c-0.19764-0.25365-0.43333-0.50414-0.74406-0.59186-0.36569-0.10252-0.75146 0.0391-1.1055 0.17861-2.898 1.1446-5.7961 2.2903-8.6952 3.436 0.23147 4.8216 3.287 6.687 5.5784 6.7293 2.2903 0.0423 4.55-1.3063 5.5815-3.3314 1.0315-2.024 0.78211-4.6229-0.61512-6.4207z" fill="#7b4b45" stroke-width="1.0569"/><path id="path624" d="m571.94 238.42c-0.01-0.1152 1.5537 0.31602 3.7636-0.60666 1.0537-0.46081 2.3231-1.2947 2.8642-2.7194 0.55594-1.4289 0.59398-3.2331-0.0476-4.8903-0.26105-0.67113-0.62146-1.2862-1.0484-1.8084l0.31073 0.0782c-2.9519 1.1848-5.6079 2.08-7.5273 2.655-1.9193 0.57601-3.0988 0.84869-3.1168 0.78633-0.0201-0.0687 1.1224-0.45975 3.0058-1.1256s4.5045-1.6192 7.4343-2.8188l0.1839-0.075 0.12789 0.15325c0.46821 0.56333 0.86137 1.2302 1.1436 1.9563 0.69333 1.7915 0.63414 3.7362 6e-3 5.274-0.65317 1.6107-2.0641 2.4552-3.1897 2.8949-1.1626 0.45025-2.1878 0.49675-2.8684 0.46081-0.68804-0.0528-1.0484-0.18812-1.0421-0.21455z" fill="#263238" stroke-width="1.0569"/><path id="path626" d="m191.67 370.46 14.623-4.2139 18.143-6.8551 14.399-7.8074s1.2577-1.244-0.50731-2.7966c-1.765-1.5526-9.5967 2.7839-9.5967 2.7839l-6.1998 2.3114s-5.2274 0.43016-4.9358-0.0602c0.29171-0.49041 8.3992-4.4115 8.3992-4.4115l13.838-7.5294s3.9053-2.0208 2.693-4.6071c-0.57707-1.2324-2.0155-1.9616-4.6726-0.94276-2.656 1.0189-6.8392 3.6453-8.3369 4.2593-1.4976 0.61406-10.046 4.4549-10.046 4.4549l17.706-12.133s5.7718-3.4413 3.9222-5.8743c-1.8496-2.4341-5.3649 0.24943-7.3857 1.0305-2.0208 0.78211-13.136 7.8803-17.467 9.8514-3.714 1.691-2.8188 0.28643-2.8188 0.28643s5.8785-3.6315 10.514-6.4947c4.6345-2.8632 8.154-5.7062 5.1355-7.5896-1.969-1.2281-10.859 3.5153-10.859 3.5153l-13.127 7.3328-6.2558 2.767 5.2137-4.6694s3.9201-2.6993 5.702-7.1014c1.8284-4.5162-1.8728-4.6673-1.8728-4.6673l-21.417 14.65c-3.3324 2.9107-7.2599 16.926-7.2599 16.926l-41.312 16.523 17.145 25.086z" fill="#ffbf9d" stroke-width="1.0569"/><path id="path637" d="m198.3 337.22c0.0264-0.0201 0.2674 0.23569 0.6426 0.74724 0.3752 0.51048 0.86243 1.2947 1.3402 2.3284 0.96178 2.0451 1.7735 5.2275 1.2947 8.7121-0.4809 3.4846-2.117 6.3319-3.5914 8.0441-0.73667 0.86772-1.4152 1.4934-1.913 1.8855-0.4978 0.39317-0.79691 0.57602-0.81805 0.54959-0.0676-0.0782 1.0622-0.9195 2.4277-2.6792 1.3645-1.7365 2.8854-4.5151 3.3493-7.875 0.46081-3.3588-0.25788-6.445-1.1076-8.4827-0.84446-2.061-1.7101-3.1718-1.6245-3.2299z" fill="#ff9a6c" stroke-width="1.0569"/><path id="path639" d="m197.16 280.11c0.32447-1.504 1.8591-2.3897 3.1295-3.2997 4.55-3.2574 7.0052-9.0852 6.1205-14.527-0.88463-5.441-5.0689-10.252-10.432-11.992-1.3232-0.4291-2.7511-0.70707-3.8376-1.56-2.7046-2.1233-1.8348-6.278-2.8621-9.5111-2.1751-6.8466-12.191-8.1952-15.781-14.453-2.1888-3.8165-1.4575-8.4975-1.263-12.864s-0.64683-9.4593-4.5331-11.641c-2.0916-1.1742-4.7011-1.2493-6.7441-2.5038-4.2128-2.5873-4.0332-8.4732-5.59-13.083-2.4531-7.262-10.809-12.125-18.521-10.778 0 0 3.0693-6.5803-5.0584-9.9455-9.8113-4.0617-10.439 2.8124-14.957-1.4702-4.8026-4.5521-13.025-5.1239-18.429-1.281-1.6837 1.1975-3.1073 2.7575-4.9527 3.7045-2.2512 1.1541-4.8871 1.2778-7.3709 1.8126-9.4731 2.043-16.849 11.035-16.815 20.499l61.982 105.49c2.1476 10.034-4.1304 14.53 4.6567 20.163 1.8432 1.1816 15.044 4.6694 17.217 5.0372 2.712 0.4587 9.231 0.69122 11.746-0.39422 5.4621-2.359 13.698-5.9366 15.88-11.36 5.8732 2.5651 13.389 0.87723 17.51-3.9317 4.1209-4.8089 4.4897-12.324 0.85927-17.506-0.99244-1.4152-2.3157-2.9319-1.9542-4.6092z" fill="#263238" stroke-width="1.0569"/><path id="path642" d="m70.409 203.01-0.85926-7.2261 43.772-12.377c13.608-2.6845 29.795 9.3843 31.988 22.758 2.4362 14.86 4.8089 33.096 4.0902 44.418-1.4458 22.765-18.792 27.243-18.792 27.243l4.0099 38.714-0.68593 9.9561-43.319-37.873z" fill="#ffbf9d" stroke-width="1.0569"/><g id="g659" transform="matrix(1.0569 0 0 1.0569 -21.34 11.745)">
																					<g id="g658">
																						<g id="g657">
																							<g id="g656">
																								<g id="g655">
																									<g id="g654">
																										<path id="path653" d="m153.46 201.58c0.193 1.432-0.891 2.771-2.421 2.993-1.527 0.222-2.924-0.756-3.117-2.189-0.193-1.432 0.89-2.773 2.417-2.995 1.529-0.222 2.927 0.758 3.121 2.191z" fill="#263238"/>
																									</g>
																								</g>
																							</g>
																						</g>
																					</g>
																				</g><g id="g679" transform="matrix(1.0569 0 0 1.0569 -21.34 11.745)">
																					<g id="g678">
																						<g id="g677">
																							<g id="g676">
																								<g id="g675">
																									<g id="g674">
																										<g id="g673">
																											<path id="path672" d="m153.96 193.39c-0.311 0.386-2.576-0.945-5.577-0.661-3.003 0.242-5.059 1.952-5.42 1.623-0.176-0.144 0.114-0.817 1.006-1.587 0.878-0.765 2.424-1.574 4.296-1.738 1.871-0.162 3.511 0.364 4.482 0.969 0.992 0.606 1.368 1.219 1.213 1.394z" fill="#263238"/>
																										</g>
																									</g>
																								</g>
																							</g>
																						</g>
																					</g>
																				</g><g id="g698" transform="matrix(1.0569 0 0 1.0569 -21.34 11.745)">
																					<g id="g697">
																						<g id="g696">
																							<g id="g695">
																								<g id="g694">
																									<g id="g693">
																										<path id="path692" d="m126.01 204.2c0.194 1.432-0.891 2.771-2.421 2.993-1.527 0.222-2.924-0.756-3.118-2.188s0.89-2.773 2.418-2.995c1.53-0.223 2.927 0.758 3.121 2.19z" fill="#263238"/>
																									</g>
																								</g>
																							</g>
																						</g>
																					</g>
																				</g><g id="g718" transform="matrix(1.0569 0 0 1.0569 -21.34 11.745)">
																					<g id="g717">
																						<g id="g716">
																							<g id="g715">
																								<g id="g714">
																									<g id="g713">
																										<g id="g712">
																											<path id="path711" d="m124.5 196.66c-0.312 0.386-2.578-0.944-5.578-0.66-3.003 0.242-5.058 1.951-5.42 1.622-0.175-0.144 0.111-0.816 1.007-1.586 0.878-0.766 2.424-1.574 4.295-1.738 1.872-0.163 3.511 0.365 4.484 0.968 0.988 0.606 1.366 1.219 1.212 1.394z" fill="#263238"/>
																										</g>
																									</g>
																								</g>
																							</g>
																						</g>
																					</g>
																				</g><g id="g737" transform="matrix(1.0569 0 0 1.0569 -21.34 11.745)">
																					<g id="g736">
																						<g id="g735">
																							<g id="g734">
																								<g id="g733">
																									<g id="g732">
																										<path id="path731" d="m137.53 217.37c-0.03-0.165 1.806-0.651 4.793-1.307 0.759-0.148 1.471-0.363 1.55-0.885 0.127-0.557-0.273-1.334-0.73-2.17-0.899-1.743-1.84-3.57-2.828-5.485-3.947-7.818-6.882-14.275-6.558-14.426 0.324-0.152 3.786 6.061 7.733 13.88 0.954 1.929 1.867 3.768 2.735 5.528 0.374 0.823 0.968 1.741 0.687 2.898-0.152 0.578-0.675 1.035-1.154 1.21-0.477 0.191-0.907 0.239-1.285 0.296-3.028 0.439-4.915 0.627-4.943 0.461z" fill="#263238"/>
																									</g>
																								</g>
																							</g>
																						</g>
																					</g>
																				</g><g id="g755" transform="matrix(1.0569 0 0 1.0569 -21.34 11.745)">
																					<g id="g754">
																						<g id="g753">
																							<g id="g752">
																								<g id="g751">
																									<path id="path750" d="m143.76 251.81s-15.295 2.294-30.634-4.872c0 0 8.938 14.909 31.267 10.892z" fill="#ff9a6c"/>
																								</g>
																							</g>
																						</g>
																					</g>
																				</g><g id="g770" transform="matrix(1.0569 0 0 1.0569 -21.34 11.745)">
																					<g id="g769">
																						<path id="path768" d="m124.15 185.11c-0.218 0.824-3.253 0.722-6.735 1.46-3.498 0.671-6.24 1.938-6.777 1.267-0.242-0.323 0.179-1.117 1.252-1.994 1.062-0.875 2.808-1.773 4.9-2.198 2.093-0.42 4.062-0.27 5.395 0.12 1.342 0.389 2.054 0.955 1.965 1.345z" fill="#263238"/>
																					</g>
																				</g><g id="g785" transform="matrix(1.0569 0 0 1.0569 -21.34 11.745)">
																					<g id="g784">
																						<path id="path783" d="m152.02 185.02c-0.463 0.713-2.6 0.214-5.09 0.41-2.498 0.111-4.55 0.87-5.104 0.219-0.245-0.319 0.021-1.015 0.88-1.73 0.845-0.711 2.312-1.364 4.026-1.47 1.714-0.105 3.255 0.362 4.187 0.963 0.946 0.603 1.303 1.261 1.101 1.608z" fill="#263238"/>
																					</g>
																				</g><path id="path802" d="m146.17 189.51c-5.5318-6.0719-13.317-10.363-21.716-11.968l-37.058 5.8637-9.8863 6.0857c-0.81699-2.1424-1.3412-3.4762-1.3412-3.4762-3.6379-2.3389-13.537-7.0548-21.558 1.4659-2.8938 3.0735-5.0224 11.024-4.8734 15.106 0.05602 1.5452 0.31602 3.4202-1.0347 4.3259-0.47244 0.31707-1.0611 0.43756-1.6255 0.57707-9.3822 2.3083-15.595 12.317-13.03 20.993 0.1691 0.57179 0.37309 1.1573 0.29805 1.745-0.11732 0.92691-0.88357 1.6456-1.5399 2.3527-4.2784 4.6028-4.9928 11.753-1.7037 17.036 1.0146 1.6308 2.3886 3.138 2.8093 4.977 0.75357 3.2902-1.7069 6.3531-3.5871 9.2204-5.6365 8.599-6.2918 20.782 1.2588 28.088 1.8358 1.7766 4.161 3.3324 4.9389 5.6788 0.38049 1.1468 0.34138 2.3675 0.3974 3.5639 0.28008 6.0666 4.104 12.71 10.587 13.726 3.5988 0.56333 7.8729-0.54219 10.536 1.7724 1.1605 1.0083 1.7058 2.4615 2.4795 3.7478 2.953 4.9072 9.9656 7.3561 15.663 5.4705 5.6978-1.8866 9.3959-7.8814 8.2587-13.389 6.8826-2.6412 11.452-9.6696 10.754-16.542 0 0-4.0701-21.19-2.3051-27.048 1.765-5.8584-3.0576-17.972-5.7506-23.84-2.693-5.868-0.61089-19.875-0.27268-25.423 0.05919-0.96812-0.23358-2.6328-0.74935-4.7043l0.0042 4e-3c-0.0021-5e-3 -0.0042-0.0106-0.0063-0.0159-0.33187-1.3317-0.75357-2.8293-1.2408-4.4337-0.22724-1.504-0.3213-3.0323-0.37203-4.4432-0.18919-5.2243 5.2888-9.1972 10.732-7.7535 1.3158 0.34878 2.6845 0.52423 4.0522 0.50309 4.4126-0.0687 8.7216-2.1825 11.245-5.517 5.3236 4.774 13.604 6.5042 20.597 4.3016 3.0788 3.5966 6.2083 7.2377 10.195 9.9687 3.9867 2.73 9.0048 4.4876 13.891 3.7784-0.27056-7.912-3.5142-15.727-9.0471-21.8z" fill="#263238" stroke-width="1.0569"/><path id="path805" d="m142.59 196.81c-0.0676-2e-3 1e-3 -0.82016-0.19553-2.284-0.20398-1.4501-0.73138-3.5882-2.1984-5.8436-1.4416-2.2311-3.918-4.587-7.4311-5.6534-3.4476-1.0876-7.8486-0.92056-11.564 1.2239l-0.26317 0.1522-0.20715-0.22195c-1.468-1.5822-3.268-2.9868-5.293-4.1071-4.5056-2.4372-9.6274-3.2024-14.01-2.4415-4.4189 0.71447-8.0092 2.8272-10.518 5.0129-2.5292 2.2132-4.0268 4.5183-4.9125 6.1512-0.86561 1.6551-1.1785 2.6486-1.2524 2.6232-0.02537-7e-3 0.04016-0.25894 0.18813-0.73138 0.13423-0.47772 0.40902-1.1573 0.79902-2.0187 0.81593-1.6953 2.2723-4.0934 4.8153-6.4112 2.5228-2.2871 6.1871-4.5183 10.76-5.2983 4.5341-0.82438 9.8366-0.056 14.501 2.4679 2.098 1.1605 3.9613 2.6201 5.4801 4.2678l-0.46927-0.0698c3.9423-2.2544 8.5514-2.3833 12.148-1.2059 3.6717 1.1626 6.2167 3.6759 7.6446 6.0106 1.4585 2.3654 1.9193 4.5796 2.0462 6.0656 0.0645 0.74829 0.0571 1.3306 0.018 1.7206-0.0338 0.39105-0.0624 0.59292-0.0856 0.59081z" fill="#455a64" stroke-width="1.0569"/><path id="path809" d="m36.279 231.82c-0.02008-0.17862 3.5258 0.0106 8.8949-1.5188 5.3025-1.4828 12.48-5.0774 17.712-11.659 0.26951-0.34455 0.53796-0.68699 0.7874-1.0051l0.10992-0.14056 0.17122-0.0137c4.0511-0.31708 7.707-1.9236 10.462-4.0194 2.7839-2.0884 4.7476-4.5828 5.9641-6.8688 2.4848-4.6219 2.211-8.0262 2.4277-7.9712 0.02537 1e-3 0.03488 0.20187 0.02854 0.58658-0.02642 0.38154 0.01902 0.95862-0.10886 1.6826-0.15854 1.4575-0.68065 3.5618-1.8802 5.9377-1.1869 2.3749-3.1602 4.978-6.0085 7.1648-2.8177 2.1931-6.6014 3.8915-10.832 4.2266l0.28114-0.15325c-0.25472 0.32553-0.52951 0.67642-0.80536 1.0294-2.6581 3.3419-5.8701 5.9694-9.064 7.8708-3.1834 1.9384-6.3774 3.1084-9.1 3.8366-2.7342 0.71341-5.0192 0.97552-6.594 1.0484-0.78634 0.056-1.4025 0.018-1.8158 0.019-0.41325-0.0106-0.62992-0.0275-0.62992-0.0528z" fill="#455a64" stroke-width="1.0569"/><path id="path813" d="m41.54 295.75c0.02748-0.0317 0.41325 0.42382 1.3645 0.97446 0.47666 0.27163 1.1055 0.53691 1.8802 0.73667 0.77894 0.17756 1.7069 0.27479 2.7363 0.16699 1.021-0.11309 2.1624-0.40691 3.2162-1.0759 0.53585-0.31813 1.0252-0.74935 1.4765-1.2419 0.41854-0.51788 0.82333-1.0928 1.077-1.7661 0.54959-1.3254 0.68488-2.9149 0.34349-4.4982-0.36569-1.5663-1.2429-3.1559-2.711-4.198l-0.4048-0.28748 0.49992-3e-3c2.5482-0.0169 5.2602-0.75569 7.7249-2.2237 2.4425-1.5019 4.6715-3.6336 6.389-6.2569 0.4587-0.63626 0.8191-1.3433 1.2239-2.0303 0.33927-0.72081 0.73032-1.4279 1.0072-2.191 0.63203-1.4955 1.0675-3.0925 1.3592-4.7381 0.60032-3.2965 0.59927-6.779 0.21667-10.275-0.58764-5.3173-1.9711-10.352-3.2288-15.047l-0.03594-0.13317 0.1152-0.0803c5.4388-3.7658 9.4477-8.6698 11.978-13.559 1.3317-2.4203 2.2206-4.8776 2.9583-7.1753 0.29593-1.171 0.67008-2.2787 0.84341-3.381 0.10675-0.54748 0.21032-1.0823 0.31284-1.6054 0.10146-0.52317 0.13528-1.0442 0.20398-1.5462 0.47984-4.0342 0.2748-7.2958-0.02854-9.4974-0.11626-1.1076-0.3435-1.9415-0.42699-2.5176-0.04756-0.27163-0.08561-0.48724-0.11415-0.65106-0.02325-0.14691-0.03276-0.22301-0.02748-0.22406 0 0 0.33293 1.17 0.70284 3.3736 0.34666 2.2036 0.59398 5.4811 0.1448 9.546-0.06447 0.50626-0.09512 1.0315-0.19236 1.5589-0.09829 0.52739-0.19976 1.0675-0.30228 1.6192-0.16699 1.1119-0.53585 2.229-0.82756 3.4106-0.72821 2.3199-1.6118 4.8005-2.9445 7.2472-2.5302 4.941-6.5613 9.9074-12.057 13.726l0.07927-0.21243c1.2651 4.6948 2.6602 9.7447 3.2532 15.105 0.38577 3.5248 0.38577 7.0474-0.22618 10.388-0.29805 1.6689-0.74512 3.2976-1.3898 4.8153-0.28325 0.77577-0.68065 1.4934-1.0284 2.2248-0.41219 0.69755-0.78105 1.4141-1.2482 2.061-1.7513 2.6613-4.0268 4.8269-6.5264 6.351-2.5218 1.4902-5.3057 2.2364-7.912 2.2396l0.09407-0.29065c1.542 1.1066 2.4415 2.7712 2.8103 4.3967 0.34244 1.6424 0.1913 3.287-0.39 4.6578-0.26951 0.6965-0.69439 1.2915-1.1351 1.8253-0.47349 0.50837-0.98504 0.9491-1.541 1.2725-1.095 0.67959-2.2702 0.96707-3.3155 1.0685-1.0537 0.0962-1.9986-0.0169-2.7881-0.21244-0.78528-0.21772-1.4184-0.50097-1.894-0.79056-0.47244-0.29171-0.8117-0.55065-1.0115-0.75358-0.2061-0.19447-0.30333-0.30227-0.30333-0.30227z" fill="#455a64" stroke-width="1.0569"/><path id="path815" d="m168.63 308.73c-3e-3 -5e-3 0.0719-0.0581 0.22301-0.15537 0.16593-0.10569 0.38788-0.24732 0.67219-0.42699 0.30122-0.18073 0.66585-0.41431 1.0749-0.72609 0.41537-0.30122 0.90366-0.63838 1.4057-1.0812 2.0419-1.6889 4.8301-4.55 6.8583-8.9499 1.003-2.1899 1.7915-4.7518 2.1159-7.5886 0.30756-2.8314 0.0972-5.9462-0.84553-9.0492-0.9269-3.1031-2.5408-6.2062-4.8512-8.9435-2.2766-2.7638-5.3141-5.1038-8.8357-6.6849l-0.26529-0.11943 0.20504-0.20398c3.0386-3.0249 5.2792-7.076 6.1575-11.531 0.30545-1.43 0.43862-2.8811 0.45024-4.3164 0.0243-1.4363-0.11732-2.861-0.39-4.2424-0.25365-1.3867-0.67747-2.7247-1.2049-3.9993-0.51049-1.2841-1.1763-2.4848-1.9014-3.621-2.9287-4.5574-7.3159-7.7355-11.797-9.2532l-0.19236-0.0645 0.0877-0.18074c2.2787-4.7275 2.4203-9.8113 1.3306-13.903-1.0844-4.1367-3.3821-7.2684-5.6111-9.3674-2.247-2.1254-4.439-3.2849-5.9504-3.9581-0.76203-0.33292-1.3602-0.5591-1.7703-0.69016-0.19236-0.0666-0.34349-0.11943-0.46187-0.16065-0.10357-0.037-0.15536-0.0592-0.15325-0.0634 0 0 0.88146 0.17862 2.4309 0.81276 1.5336 0.64471 3.7594 1.783 6.0508 3.9074 2.2723 2.0958 4.6261 5.2518 5.7517 9.4445 1.1298 4.1441 1.0136 9.3071-1.2926 14.131l-0.10463-0.24626c4.5648 1.5283 9.0302 4.7476 12.017 9.3779 0.7409 1.1541 1.4184 2.3759 1.9405 3.6823 0.53797 1.2979 0.9713 2.6613 1.2313 4.0744 0.27902 1.4078 0.42276 2.86 0.39951 4.3228-0.0116 1.4617-0.14691 2.9382-0.45764 4.3936-0.89414 4.532-3.175 8.654-6.2759 11.734l-0.0602-0.32341c3.5829 1.6139 6.6638 3.9993 8.9668 6.8075 2.3379 2.7839 3.9655 5.9366 4.8945 9.0873 0.94488 3.1517 1.1436 6.315 0.81699 9.1814-0.34349 2.8716-1.1584 5.4568-2.1878 7.6626-2.0821 4.4306-4.9252 7.2852-7.0062 8.9509-0.51154 0.4365-1.0083 0.76731-1.4332 1.0601-0.41748 0.30333-0.79057 0.52845-1.0981 0.69967-0.29276 0.16805-0.52105 0.2991-0.69227 0.39739-0.15748 0.0867-0.23886 0.12895-0.24203 0.12261z" fill="#455a64" stroke-width="1.0569"/><path id="path817" d="m115.48 246.86c2.9562 0.43227 5.8584 1.2207 8.6233 2.3421l0.0275 0.074c-0.25894 1.9954-0.7652 4.1949-2.452 5.3184-1.2546 0.83601-2.9815 0.84869-4.3154 0.14479-1.3338-0.7039-2.2153-1.857-2.5176-3.3229-0.30227-1.4659 0.21033-3.1591 0.63415-4.5563z" fill="#ff9a6c" stroke-width="1.0569"/><path id="path818" d="m119.91 255c0.0201 0.0518-0.23464 0.23569-0.7874 0.32764-0.54325 0.0888-1.4036 0.0296-2.2924-0.45552-0.88146-0.45765-1.8062-1.3846-2.2269-2.6592-0.44179-1.2609-0.41642-2.7543-0.038-4.1811 0.12049-0.39106 0.15114-0.63415 0.39106-1.1161 0.0941-0.28325 0.68381-0.53268 0.93641-0.42382 0.25789 0.0529 0.36041 0.093 0.54008 0.13952 0.63098 0.17756 1.2482 0.35089 1.8623 0.52317 1.0643 0.31918 2.1054 0.63097 3.139 0.9417 1.7798 0.56333 2.8621 0.97764 2.8272 1.1087-0.0349 0.13106-1.1827-0.0465-3.008-0.43861-1.0516-0.24309-2.1117-0.48829-3.194-0.73878-0.61934-0.15431-1.2419-0.30967-1.8781-0.46821l-0.4439-0.10992c-0.0285 0.0729-0.0275-0.18918-0.0391-0.15853-0.0338-7e-3 0.16065 0.1543 0.10252 0.12894-0.0687 0.13317-0.20081 0.57496-0.27691 0.85926-0.34243 1.2915-0.37942 2.5873-0.0518 3.658 0.30967 1.0791 1.0009 1.8665 1.7185 2.341 1.4786 0.98293 2.7057 0.55805 2.7194 0.72187z" fill="#263238" stroke-width="1.0569"/><path id="path820" d="m56.954 484.62h126.03l-2.9752-50.178-4.4612-60.17c-0.84024-11.332-4.8015-22.219-11.454-31.48l-9.5809-13.338-11.849-15.882-7.2979-14.296-45.245-18.491-5.5868 11.535s-6.5835 4.7318-10.807 8.3369c-8.2016 7.002-12.997 16.225-15.731 26.596-0.02642 0.10147-0.05285 0.20293-0.07927 0.30439-2.6444 10.182-0.58341 24.89-0.58341 24.89l15.045 72.342c-5.2253 10.581-9.0915 21.77-11.406 33.321-0.64471 3.2119-2.6697 16.025-4.0173 26.508z" fill="#a793ac" stroke-width="1.0569"/><path id="path821" d="m137.37 306.83c-0.0602 0.0275-0.42382-0.60667-1.0358-1.7904-0.68487-1.3814-1.5262-3.0767-2.5249-5.0922l0.63625-0.0116c-1.3645 3.3588-3.0618 7.5336-4.9601 12.203l-0.18179 0.44813-0.45764-0.18602c-2.2523-0.91317-4.6631-1.8898-7.1552-2.9012-7.3614-3.0058-14.003-5.7781-18.791-7.8317-2.2301-0.9787-4.1177-1.8073-5.6502-2.4795-1.3254-0.60666-2.0451-0.97129-2.0187-1.0358 0.02642-0.0645 0.79796 0.17861 2.1698 0.6743 1.5653 0.59187 3.4941 1.3222 5.7739 2.1836 4.8586 1.8845 11.544 4.5532 18.905 7.559 2.488 1.022 4.8935 2.0113 7.1415 2.935l-0.63943 0.26212c1.9997-4.6282 3.7869-8.766 5.2243-12.095l0.3213-0.74406 0.31391 0.73349c0.88568 2.0662 1.6319 3.8049 2.2396 5.2211 0.50309 1.2334 0.7504 1.9204 0.6891 1.9479z" fill="#263238" stroke-width="1.0569"/><path id="path822" d="m134.22 453.1c-0.018 0.0676-0.79056-0.0761-2.174-0.39317-1.3856-0.30968-3.3694-0.83813-5.8024-1.561-4.8649-1.4395-11.493-3.7784-18.534-7.002-7.039-3.2341-13.127-6.7272-17.381-9.4699-2.1286-1.3698-3.8197-2.526-4.9527-3.3726-1.1393-0.83918-1.7481-1.3296-1.708-1.3867 0.04016-0.0571 0.72609 0.32447 1.9299 1.0622 1.3941 0.84341 3.101 1.876 5.1112 3.0925 4.3333 2.5767 10.435 5.9472 17.429 9.1613 6.9957 3.2024 13.538 5.6312 18.326 7.2377 2.2375 0.73244 4.1378 1.3539 5.6883 1.8612 1.3476 0.43228 2.0853 0.70284 2.0673 0.77049z" fill="#263238" stroke-width="1.0569"/><path id="path824" d="m62.353 353.41s23.224 63.734 30.862 75.279c7.6383 11.545 11.42 14.82 23.08 12.821s62.842-18.818 62.842-18.818l-0.74828-10.439-47.383 10.016-27.342-5.6164-24.965-38.441z" opacity=".3" stroke-width="1.0569"/><path id="path825" d="m161.95 378.21-2.5788-4.2065-12.515 2.9752-18.923 4.2287s-10.988-64.031-26.858-74.299c-15.871-10.269-27.469-8.4574-37.236 9.6654-9.7669 18.122-4.5077 28.68-4.5077 28.68s25.261 70.572 41.743 84.975c16.481 14.404 70.808-12.779 70.808-12.779l11.013-9.1401z" fill="#a793ac" stroke-width="1.0569"/><path id="path826" d="m161.95 378.21c0.0116-7e-3 0.14162 0.15642 0.38683 0.48617 0.26316 0.36252 0.61829 0.84976 1.078 1.4818 0.96073 1.3497 2.3453 3.2965 4.1388 5.8172 3.6199 5.1471 8.8875 12.636 15.579 22.153l0.14903 0.21243-0.20081 0.16805c-3.3208 2.7744-7.0232 5.8658-10.983 9.175l-0.0307 0.0254-0.0338 0.0169c-8.4183 4.1019-18.13 8.2502-29.111 11.833-5.498 1.7524-11.321 3.3694-17.504 4.3999-3.0925 0.49674-6.2748 0.85609-9.5333 0.89203-3.2479 0.0243-6.6131-0.25683-9.8409-1.3655-0.78951-0.31918-1.6181-0.55487-2.358-1.0072l-1.1404-0.613c-0.3604-0.23887-0.70073-0.51049-1.0527-0.76626-0.74511-0.47878-1.2873-1.1404-1.8908-1.7524l-1.7893-1.8676c-1.1098-1.3127-2.0884-2.7342-3.1485-4.1103-1.04-1.3909-1.8993-2.9054-2.8674-4.3682-3.6812-5.9557-7.0475-12.287-10.198-18.87-6.3763-13.138-12.202-27.17-17.848-41.689-1.7016-4.401-3.3578-8.7755-4.8977-13.04l0.02325 0.0539c-1.6181-3.9634-1.6424-8.117-1.2292-12.112 0.4978-3.9993 1.6329-7.8496 3.1337-11.485 1.4945-3.6432 3.3536-7.0813 5.5086-10.288 2.1593-3.1897 4.7032-6.1702 7.9014-8.3178 3.1697-2.1635 7.0475-3.2891 10.812-3.0598 3.7689 0.2283 7.3022 1.468 10.538 3.0143 1.5917 0.83284 3.1739 1.6551 4.6557 2.6116 1.5441 0.82544 2.935 2.0705 4.1452 3.3113 2.34 2.6158 4.0881 5.5625 5.6365 8.5081 3.0344 5.9345 5.2338 11.957 7.1584 17.762 1.8982 5.8183 3.4836 11.451 4.8554 16.832 2.7437 10.765 4.7423 20.493 6.2252 28.908l-0.34772-0.23041c7.5717-1.6604 14.037-3.0777 19.326-4.2371 5.2338-1.2028 9.3018-2.1371 12.15-2.7924l0.0793-0.018 0.0402 0.0666c0.82756 1.3941 1.4522 2.4478 1.8908 3.1876 0.41325 0.70601 0.59504 1.0728 0.59504 1.0728s-0.24309-0.32659-0.68805-1.0168c-0.45975-0.72715-1.1161-1.7629-1.9838-3.1348l0.11837 0.0486c-2.8388 0.69756-6.8921 1.6932-12.109 2.9741-5.2792 1.2049-11.733 2.6782-19.291 4.4031l-0.29382 0.0666-0.055-0.29805c-1.5388-8.3813-3.5935-18.093-6.3795-28.82-1.3941-5.3627-2.9995-10.975-4.9104-16.764-1.9362-5.7739-4.1484-11.761-7.1637-17.614-1.5336-2.9012-3.269-5.795-5.5244-8.302-1.1932-1.2006-2.4013-2.3072-3.9602-3.1432-1.4638-0.93959-3.0164-1.7418-4.5785-2.5556-3.1675-1.5061-6.5962-2.6909-10.178-2.9002-3.5776-0.20504-7.1965 0.85186-10.217 2.9139-3.0439 2.0483-5.516 4.9379-7.6256 8.0642-2.1064 3.1411-3.9412 6.5422-5.4029 10.118-1.4712 3.5702-2.5757 7.3381-3.0576 11.225-0.41748 3.845-0.32658 7.9818 1.1372 11.553l0.02325 0.055c1.5346 4.2477 3.1919 8.6222 4.8903 13.016 5.6386 14.499 11.449 28.516 17.793 41.624 3.1337 6.5697 6.4799 12.879 10.121 18.794 0.95544 1.4469 1.8084 2.9583 2.8304 4.328 1.04 1.3539 2.005 2.7638 3.0862 4.0469l1.7302 1.8105c0.58024 0.59398 1.114 1.2472 1.801 1.6815 0.3287 0.23886 0.64366 0.49463 0.97976 0.71869l1.0728 0.57708c0.69121 0.4291 1.485 0.65211 2.2322 0.95967 3.0724 1.0654 6.3478 1.355 9.5322 1.338 3.195-0.0275 6.3362-0.37203 9.397-0.85398 6.1227-1.002 11.918-2.5884 17.396-4.3132 10.94-3.5248 20.661-7.6235 29.061-11.657l-0.0634 0.0412c3.9814-3.2838 7.7027-6.352 11.042-9.1063l-0.0518 0.37943c-6.5983-9.583-11.792-17.125-15.361-22.309-1.7397-2.5567-3.083-4.5299-4.0152-5.8996-0.43122-0.64894-0.7652-1.151-1.0125-1.523-0.22406-0.34138-0.33187-0.52-0.32024-0.52634z" fill="#263238" stroke-width="1.0569"/><path id="path827" d="m118.97 413.46c-0.12049 5e-3 -0.3583-1.8845-0.28854-4.959 0.0655-3.0693 0.5274-7.3222 1.7259-11.873 1.2091-4.5489 2.9118-8.4806 4.3745-11.189 1.4606-2.7141 2.6042-4.2456 2.7067-4.1822 0.1374 0.0814-0.78211 1.7376-2.061 4.4971-1.281 2.7564-2.8473 6.6585-4.0353 11.13-1.1774 4.4728-1.7439 8.6328-1.9923 11.657-0.2526 3.0259-0.26951 4.9157-0.43016 4.9199z" fill="#263238" stroke-width="1.0569"/><path id="path828" d="m171.88 417.45c-0.0518 0.0465-0.5443-0.40374-1.3909-1.2598-0.84869-0.85293-2.0345-2.1265-3.4561-3.7393-2.8399-3.2246-6.6099-7.8433-10.154-13.38-3.5406-5.5424-6.0381-10.988-7.3793-15.074-0.68065-2.0388-1.1404-3.7182-1.3645-4.8988-0.24098-1.1763-0.34033-1.8316-0.27163-1.8464 0.17333-0.0402 0.79479 2.5324 2.3136 6.5053 1.4998 3.9792 4.0596 9.2913 7.5632 14.776 3.5068 5.479 7.1563 10.133 9.8451 13.462 2.6951 3.3261 4.4084 5.3553 4.2942 5.4558z" fill="#263238" stroke-width="1.0569"/><path id="path831" d="m215.73 379.27 14.623-4.2139 18.143-6.854 14.399-7.8074s1.2577-1.244-0.50731-2.7966c-1.765-1.5526-9.5967 2.7839-9.5967 2.7839l-6.1998 2.3114s-5.2275 0.43016-4.9358-0.0602c0.29171-0.49041 8.3992-4.4115 8.3992-4.4115l13.838-7.5294s3.9042-2.0208 2.693-4.6071c-0.57707-1.2324-2.0155-1.9616-4.6726-0.94276-2.656 1.0189-6.8392 3.6453-8.3369 4.2593-1.4976 0.61406-10.046 4.4549-10.046 4.4549l17.706-12.133s5.7718-3.4413 3.9222-5.8743c-1.8496-2.433-5.3649 0.24943-7.3857 1.0305-2.0208 0.78211-13.136 7.8803-17.467 9.8514-3.714 1.691-2.8188 0.28642-2.8188 0.28642s5.8785-3.6315 10.514-6.4947c4.6345-2.8632 8.154-5.7062 5.1355-7.5896-1.969-1.2281-10.859 3.5153-10.859 3.5153l-13.128 7.3339-6.2558 2.767 5.2137-4.6694s3.9201-2.6993 5.702-7.1003c1.8284-4.5162-1.8728-4.6673-1.8728-4.6673l-21.417 14.65c-3.3324 2.9107-7.2599 16.925-7.2599 16.925l-41.313 15.916 17.573 25.412z" fill="#ffbf9d" stroke-width="1.0569"/><path id="path832" d="m215.73 379.27s-0.20292 0.15114-0.60983 0.42699c-0.41854 0.28008-1.0241 0.68593-1.8179 1.2186-1.6171 1.0717-3.9919 2.6465-7.076 4.6906-6.1966 4.0849-15.229 10.038-26.616 17.545l-0.13317 0.0877-0.0919-0.13211c-5.1873-7.4797-11.089-15.99-17.607-25.388l-0.14903-0.21561 0.2452-0.0941c12.35-4.7698 26.266-10.145 41.299-15.951l-0.14691 0.1617c0.80748-2.8082 1.7407-5.6936 2.8336-8.6096 0.55699-1.4532 1.1446-2.9192 1.8348-4.3587 0.71659-1.4236 1.4395-2.8885 2.6592-4.0828l7e-3 -7e-3 0.0169-0.0116c6.7927-4.6504 14.007-9.5893 21.411-14.658l0.0782-0.0539 0.0824 7e-3c0.66902 0.0602 1.3042 0.28325 1.8263 0.74512 0.51789 0.4661 0.78528 1.1742 0.79691 1.8422 0.0328 1.3592-0.54219 2.5746-1.1193 3.7298-1.2313 2.3104-3.0354 4.3249-5.1915 5.9398l0.0264-0.0211c-1.6308 1.4617-3.417 3.0618-5.2127 4.6705l-0.2917-0.45129c1.9616-0.86772 4.1029-1.8158 6.2558-2.768l-0.0222 0.0116c3.6093-2.0176 7.3222-4.0913 11.099-6.2019 1.8707-1.078 3.8271-2.0958 5.8436-2.9762 1.0104-0.44284 2.0335-0.86561 3.0904-1.2239 1.0611-0.34032 2.1328-0.6965 3.3335-0.68065 0.27797 0.0264 0.57073 0.0486 0.85821 0.21878 0.23358 0.16594 0.4587 0.30439 0.6574 0.50943 0.42487 0.36463 0.68699 1.0041 0.61089 1.5864-0.0666 0.58552-0.34772 1.0876-0.66797 1.504-0.31284 0.43438-0.68593 0.80007-1.0622 1.1541-1.5357 1.3846-3.2606 2.4689-4.9706 3.5301-3.4202 2.1128-6.8139 4.2086-10.178 6.2865l0.0867-0.0856c-0.38788 0.23781 0.56439 0.10041 1.114-0.12577 0.61195-0.22195 1.2228-0.47983 1.8136-0.77365 1.188-0.57813 2.3527-1.2165 3.5036-1.8665 2.3051-1.301 4.5669-2.6507 6.8192-3.9845 1.1288-0.66479 2.2533-1.3275 3.3736-1.988 1.1351-0.6426 2.2332-1.3211 3.4582-1.8496 1.1531-0.48935 2.2681-1.1848 3.5121-1.6224 0.6204-0.21667 1.282-0.38789 1.9775-0.3583 0.69333 0.019 1.4046 0.3361 1.8676 0.85716 0.49358 0.48723 0.75886 1.2968 0.55699 1.988-0.16487 0.69438-0.56967 1.245-0.98398 1.7439-0.84764 0.99772-1.8718 1.7735-2.9223 2.4848-2.0916 1.3909-4.123 2.8114-6.1596 4.197-4.0638 2.7818-8.0579 5.516-11.975 8.1974l-0.24732-0.43967c2.638-1.1679 5.2444-2.322 7.8179-3.4614 1.2905-0.59187 2.5746-1.0833 3.7753-1.7598 1.2197-0.66585 2.4298-1.3264 3.6336-1.9828 1.2197-0.6352 2.4309-1.2693 3.752-1.7027 0.66268-0.20187 1.3624-0.33716 2.0789-0.28325 0.71025 0.0497 1.4469 0.35829 1.9194 0.92902 0.46821 0.55699 0.70495 1.3021 0.62569 2.0293-0.0835 0.73243-0.47667 1.3592-0.92585 1.8654-0.45659 0.51154-0.98398 0.93536-1.542 1.3021-0.57073 0.36781-1.152 0.64366-1.7154 0.96179-4.55 2.4573-8.9287 4.8787-13.209 7.1426-2.1698 1.0601-4.3016 2.1075-6.3478 3.2024-0.48407 0.26951-1.0685 0.57496-1.4194 0.84764-0.0243 5e-3 -0.0338 0.056-0.0148-0.0507 5e-3 -0.0307-0.0243-0.0898-0.0391-0.0962 0-5e-3 -0.01-7e-3 -0.01-7e-3 0.0306 0.0116 0.0877 0.0296 0.15113 0.0402 0.12472 0.0232 0.26529 0.0338 0.40268 0.0423 0.27797 0.0159 0.56122 0.018 0.84447 0.0159 1.132-0.0137 2.2607-0.0846 3.3715-0.1691l-0.0539 0.0116c2.2153-0.82333 4.2297-1.5716 6.2019-2.304l-0.0264 0.0116c2.1307-1.1319 4.2403-2.1276 6.4218-2.7733 0.54748-0.15431 1.1013-0.28219 1.6699-0.3361 0.55699-0.037 1.189-0.055 1.709 0.35407 0.42487 0.36991 0.80219 0.8339 0.95544 1.412 0.14374 0.58447-0.0243 1.2112-0.43439 1.652l-0.0148 0.0159-0.0243 0.0137c-5.256 2.8378-10.059 5.4314-14.413 7.782l-0.01 5e-3 -0.01 3e-3c-7.4184 2.7818-13.387 5.0203-18.16 6.8096l-4e-3 2e-3 -3e-3 1e-3c-4.8005 1.3613-8.4552 2.3981-10.924 3.0978-1.2228 0.34138-2.1487 0.59927-2.7828 0.77577-0.62357 0.17122-0.94382 0.24626-0.94382 0.24626s0.30651-0.10569 0.92268-0.29276c0.62992-0.18708 1.5505-0.46187 2.7649-0.82333 2.4647-0.72187 6.1142-1.7904 10.907-3.194l-7e-3 2e-3c4.7635-1.8136 10.721-4.0807 18.126-6.8995l-0.018 8e-3c4.3471-2.3664 9.1401-4.977 14.386-7.8327l-0.0402 0.0296c0.30862-0.33715 0.45658-0.85609 0.33504-1.3158-0.12472-0.46715-0.4513-0.88569-0.84553-1.2239-0.353-0.28748-0.9195-0.30861-1.4395-0.26317-0.53268 0.0528-1.0685 0.17651-1.6012 0.3287-2.1276 0.63626-4.234 1.634-6.3351 2.7575l-0.0137 7e-3 -0.0127 4e-3c-1.9701 0.73772-3.9835 1.4902-6.1966 2.3188l-0.0264 0.01-0.0275 2e-3c-1.1203 0.0877-2.2491 0.16065-3.4001 0.17756-0.28853 3e-3 -0.57707 1e-3 -0.87194-0.0148-0.14797-0.01-0.29488-0.019-0.45342-0.0476-0.0782-0.0137-0.1617-0.0317-0.26317-0.0772-0.0317-0.018-0.0676-0.0433-0.0983-0.0687-0.0359-0.0317-0.0867-0.12682-0.0835-0.18918 0.0222-0.18602 0.0782-0.17651 0.10674-0.21984 0.54642-0.4513 1.0199-0.64894 1.5441-0.9565 2.0578-1.1066 4.1864-2.1571 6.3584-3.2236 4.2593-2.2639 8.6434-4.6969 13.184-7.1595 0.56122-0.31707 1.1541-0.60243 1.6773-0.94276 0.52845-0.34878 1.0273-0.75251 1.4437-1.2218 0.4143-0.4661 0.74723-1.0189 0.80959-1.6128 0.0645-0.58236-0.13106-1.2059-0.51895-1.6657-0.38577-0.46187-0.97446-0.71447-1.5959-0.76098-0.62464-0.0476-1.2725 0.074-1.8972 0.26634-1.2482 0.41114-2.4615 1.0421-3.6675 1.6731-1.2006 0.65739-2.4097 1.319-3.6262 1.9859-1.2207 0.68911-2.5535 1.2038-3.8176 1.7851-2.5683 1.1404-5.1693 2.2956-7.8021 3.4645l-0.24732-0.44073c3.9169-2.6867 7.912-5.4272 11.976-8.2153 2.0356-1.3867 4.0765-2.8156 6.1554-4.2012 1.0189-0.68804 2.0198-1.4543 2.8082-2.3865 0.38683-0.46187 0.74618-0.97341 0.87195-1.5262 0.14691-0.55276-0.0296-1.0844-0.4291-1.5008-0.78-0.91-2.136-0.79374-3.2775-0.36041-1.1816 0.41431-2.2671 1.0939-3.4899 1.616-2.2861 1.0675-4.5024 2.5006-6.7589 3.8059-2.2523 1.3349-4.5151 2.6867-6.8276 3.993-1.1562 0.65317-2.3252 1.2947-3.5354 1.8845-0.60349 0.30016-1.2239 0.56333-1.8697 0.79796-0.32236 0.11626-0.65634 0.21561-1.0294 0.2674-0.18919 4e-3 -0.39846 0.0687-0.69439-0.14057-0.15431-0.11732-0.18919-0.35089-0.15959-0.47032 0.0232-0.14057 0.0624-0.23041 0.12788-0.34138l0.0296-0.0507 0.0571-0.0359c3.3631-2.0779 6.7568-4.1748 10.177-6.2875 1.7006-1.0548 3.4096-2.136 4.8861-3.4666 0.35935-0.33715 0.71341-0.68699 0.99349-1.077 0.29593-0.37837 0.51789-0.80959 0.56333-1.2334 0.0455-0.41959-0.10357-0.83389-0.45235-1.1414-0.15008-0.16171-0.36992-0.29382-0.54431-0.42277-0.15325-0.0983-0.38789-0.12577-0.61089-0.14479-1.0252-0.018-2.1032 0.31601-3.1284 0.65211-1.0336 0.34983-2.0462 0.76731-3.0449 1.2059-2.006 0.87723-3.9243 1.8739-5.8024 2.9551-3.7753 2.1085-7.4871 4.1811-11.095 6.1966l-0.0116 6e-3 -0.0116 5e-3c-2.1529 0.95121-4.2953 1.8982-6.2569 2.7659l-1.5727 0.69544 1.281-1.1467c1.7967-1.6076 3.5829-3.2077 5.2148-4.6684l7e-3 -6e-3 0.0201-0.0148c2.061-1.541 3.8461-3.5269 5.0235-5.7453 0.56227-1.1087 1.095-2.2956 1.059-3.455-0.0137-0.5739-0.22407-1.1066-0.62146-1.4712-0.39423-0.3604-0.96707-0.56121-1.4902-0.60772l0.16065-0.0465c-7.4089 5.0626-14.627 9.9952-21.423 14.64l0.0232-0.018c-1.096 1.0675-1.8422 2.5218-2.5387 3.918-0.68276 1.4194-1.2672 2.8737-1.8221 4.3175-1.0897 2.8959-2.025 5.776-2.8304 8.5641l-0.0338 0.11837-0.11309 0.0433c-15.043 5.7802-28.968 11.131-41.326 15.88l0.0951-0.30967c6.4926 9.416 12.371 17.942 17.538 25.437l-0.22512-0.0444c11.43-7.4554 20.497-13.369 26.716-17.426 3.101-2.0113 5.4906-3.5607 7.1162-4.6155 0.80219-0.51471 1.4141-0.90683 1.8369-1.1784 0.41536-0.26 0.63097-0.3826 0.63097-0.3826z" fill="#ff9a6c" stroke-width="1.0569"/>
</svg>
