<?xml version="1.0" encoding="utf-8"?>
<!-- Generator: Adobe Illustrator 27.5.0, SVG Export Plug-In . SVG Version: 6.00 Build 0)  -->
<svg version="1.1" xmlns="http://www.w3.org/2000/svg" xmlns:xlink="http://www.w3.org/1999/xlink" x="0px" y="0px"
	 viewBox="0 0 750 500" style="enable-background:new 0 0 750 500;" xml:space="preserve">
<g id="Background_Complete">
	<g>
		<g>
			<g>
				<path style="fill:#E0E0E0;" d="M622.76,159.583c2.18-1.318,4.502-2.317,6.896-2.997l1.42-6.826l11.532-0.202l1.66,6.771
					c2.417,0.596,4.772,1.512,6.997,2.753l5.828-3.821l8.298,8.012l-3.612,5.958c1.318,2.181,2.317,4.503,2.997,6.897l6.825,1.42
					l0.203,11.532l-6.771,1.66c-0.595,2.416-1.512,4.771-2.753,6.996l3.82,5.829l-8.011,8.298l-5.958-3.613
					c-2.181,1.318-4.503,2.317-6.897,2.997l-1.421,6.826l-11.532,0.202l-1.66-6.771c-2.416-0.596-4.771-1.513-6.997-2.753
					l-5.828,3.82l-8.298-8.012l3.613-5.958c-1.318-2.181-2.317-4.502-2.997-6.897l-6.825-1.421l-0.202-11.532l6.771-1.66
					c0.596-2.416,1.513-4.771,2.753-6.997l-3.82-5.829l8.011-8.298L622.76,159.583L622.76,159.583z M628.907,174.945
					c-4.747,4.917-4.609,12.749,0.307,17.496c4.916,4.746,12.749,4.609,17.495-0.308c4.746-4.916,4.609-12.749-0.307-17.495
					C641.486,169.892,633.654,170.029,628.907,174.945z"/>
			</g>
		</g>
	</g>
	<g>
		<g>
			<g>
				<path style="fill:#EBEBEB;" d="M382.288,117.25c1.901-1.149,3.925-2.02,6.012-2.613l1.238-5.951l10.055-0.176l1.447,5.903
					c2.107,0.519,4.161,1.319,6.101,2.4l5.082-3.331l7.235,6.985l-3.15,5.195c1.149,1.902,2.02,3.926,2.613,6.014l5.951,1.238
					l0.177,10.055l-5.904,1.447c-0.519,2.107-1.319,4.16-2.4,6.1l3.33,5.082l-6.984,7.235l-5.195-3.15
					c-1.902,1.149-3.926,2.02-6.013,2.613l-1.239,5.951l-10.055,0.176l-1.447-5.904c-2.107-0.519-4.16-1.319-6.1-2.4l-5.082,3.331
					l-7.235-6.985l3.15-5.195c-1.149-1.901-2.021-3.925-2.613-6.013l-5.951-1.238l-0.176-10.055l5.904-1.448
					c0.519-2.107,1.319-4.16,2.4-6.1l-3.331-5.082l6.985-7.235L382.288,117.25L382.288,117.25z M387.648,130.644
					c-4.139,4.287-4.019,11.116,0.268,15.254c4.286,4.138,11.116,4.018,15.254-0.268c4.138-4.286,4.018-11.116-0.268-15.254
					C398.615,126.238,391.786,126.358,387.648,130.644z"/>
			</g>
		</g>
	</g>
	<g>
		<g>
			<g>
				<path style="fill:#E0E0E0;" d="M173.841,265.03c2.385-1.441,4.924-2.534,7.543-3.279l1.554-7.467l12.615-0.221l1.816,7.407
					c2.644,0.651,5.22,1.654,7.655,3.011l6.376-4.179l9.077,8.764l-3.952,6.517c1.442,2.386,2.535,4.926,3.278,7.545l7.466,1.554
					l0.222,12.615l-7.407,1.816c-0.651,2.643-1.655,5.219-3.011,7.654l4.178,6.376l-8.763,9.077l-6.518-3.952
					c-2.386,1.442-4.925,2.534-7.545,3.278l-1.554,7.467l-12.615,0.221l-1.816-7.407c-2.643-0.651-5.219-1.655-7.654-3.011
					l-6.376,4.179l-9.077-8.764l3.952-6.518c-1.442-2.386-2.535-4.925-3.279-7.545l-7.466-1.554L152.319,286l7.407-1.816
					c0.651-2.643,1.655-5.219,3.011-7.654l-4.179-6.376l8.763-9.077L173.841,265.03L173.841,265.03z M180.566,281.836
					c-5.192,5.378-5.042,13.947,0.336,19.139c5.378,5.192,13.947,5.041,19.138-0.337c5.192-5.378,5.042-13.947-0.336-19.139
					C194.327,276.307,185.758,276.458,180.566,281.836z"/>
			</g>
		</g>
	</g>
	<g>
		<g>
			<g>
				<path style="fill:#E0E0E0;" d="M634.722,384.439c2.385-1.441,4.924-2.534,7.543-3.278l1.554-7.467l12.615-0.221l1.815,7.407
					c2.644,0.651,5.22,1.654,7.655,3.011l6.376-4.179l9.077,8.764l-3.952,6.517c1.442,2.386,2.535,4.926,3.278,7.545l7.466,1.554
					l0.222,12.615l-7.407,1.816c-0.651,2.643-1.655,5.219-3.011,7.654l4.178,6.376l-8.763,9.077l-6.518-3.952
					c-2.386,1.442-4.925,2.534-7.545,3.278l-1.554,7.467l-12.615,0.221l-1.816-7.407c-2.643-0.652-5.219-1.655-7.654-3.011
					l-6.376,4.179l-9.077-8.764l3.952-6.518c-1.442-2.386-2.535-4.925-3.279-7.545l-7.466-1.554L613.2,405.41l7.407-1.816
					c0.651-2.643,1.655-5.219,3.011-7.654l-4.179-6.376l8.763-9.077L634.722,384.439L634.722,384.439z M641.447,401.245
					c-5.192,5.378-5.042,13.947,0.336,19.139c5.378,5.192,13.947,5.041,19.138-0.337c5.192-5.378,5.042-13.947-0.336-19.139
					C655.208,395.716,646.639,395.867,641.447,401.245z"/>
			</g>
		</g>
	</g>
	<g>
		<g>
			<g>
				<path style="fill:#F5F5F5;" d="M667.05,325.141c1.331-0.804,2.747-1.414,4.208-1.829l0.867-4.165l7.037-0.123l1.013,4.132
					c1.475,0.363,2.912,0.923,4.27,1.68l3.557-2.331l5.063,4.889l-2.204,3.636c0.804,1.331,1.414,2.748,1.829,4.209l4.165,0.867
					l0.124,7.037l-4.132,1.013c-0.363,1.474-0.923,2.911-1.68,4.269l2.331,3.557l-4.888,5.063l-3.636-2.205
					c-1.331,0.804-2.747,1.414-4.208,1.829l-0.867,4.165l-7.037,0.123l-1.013-4.132c-1.475-0.363-2.911-0.923-4.27-1.68
					l-3.557,2.331l-5.063-4.889l2.204-3.636c-0.804-1.331-1.414-2.747-1.829-4.209l-4.165-0.867l-0.124-7.037l4.132-1.013
					c0.363-1.474,0.923-2.911,1.68-4.269L658.525,328l4.888-5.064L667.05,325.141L667.05,325.141z M670.802,334.515
					c-2.896,3-2.813,7.78,0.188,10.676c3,2.896,7.78,2.812,10.676-0.188c2.896-3,2.813-7.78-0.188-10.676
					C678.477,331.431,673.698,331.516,670.802,334.515z"/>
			</g>
		</g>
	</g>
	<g>
		<g>
			<g>
				<path style="fill:#F5F5F5;" d="M560.668,314.13c1.331-0.804,2.747-1.414,4.208-1.829l0.867-4.165l7.037-0.123l1.013,4.132
					c1.475,0.363,2.912,0.923,4.27,1.68l3.557-2.331l5.063,4.889l-2.204,3.636c0.804,1.331,1.414,2.748,1.829,4.209l4.165,0.867
					l0.124,7.037l-4.132,1.013c-0.363,1.474-0.923,2.911-1.68,4.269l2.331,3.557l-4.888,5.064l-3.636-2.205
					c-1.331,0.804-2.747,1.414-4.209,1.828l-0.867,4.165l-7.037,0.123l-1.013-4.132c-1.475-0.364-2.912-0.923-4.27-1.68
					l-3.557,2.331l-5.063-4.889l2.204-3.636c-0.804-1.331-1.414-2.747-1.829-4.209l-4.165-0.867l-0.123-7.037l4.132-1.013
					c0.363-1.474,0.923-2.911,1.68-4.269l-2.331-3.557l4.888-5.064L560.668,314.13L560.668,314.13z M564.419,323.504
					c-2.896,3-2.813,7.78,0.188,10.676c3,2.896,7.78,2.812,10.676-0.188c2.896-3,2.812-7.78-0.188-10.676
					C572.095,320.421,567.316,320.504,564.419,323.504z"/>
			</g>
		</g>
	</g>
	<g>
		<g>
			<g>
				<path style="fill:#EBEBEB;" d="M538.464,124.069c1.098-0.664,2.267-1.167,3.473-1.51l0.715-3.438l5.809-0.102l0.836,3.41
					c1.217,0.3,2.404,0.762,3.525,1.386l2.936-1.924l4.18,4.035l-1.82,3.001c0.664,1.099,1.167,2.268,1.509,3.474l3.438,0.715
					l0.102,5.809l-3.41,0.836c-0.3,1.217-0.762,2.403-1.387,3.524l1.924,2.936l-4.035,4.18l-3.001-1.82
					c-1.099,0.664-2.268,1.167-3.474,1.509l-0.716,3.438l-5.809,0.102l-0.836-3.411c-1.217-0.3-2.403-0.762-3.524-1.387
					l-2.936,1.924l-4.18-4.036l1.82-3.001c-0.664-1.098-1.167-2.268-1.51-3.474l-3.438-0.715l-0.102-5.809l3.411-0.836
					c0.3-1.217,0.762-2.403,1.387-3.524l-1.924-2.936l4.035-4.18L538.464,124.069L538.464,124.069z M541.56,131.807
					c-2.391,2.476-2.322,6.422,0.155,8.812c2.476,2.391,6.422,2.321,8.812-0.155c2.391-2.476,2.321-6.422-0.155-8.812
					C547.896,129.262,543.951,129.331,541.56,131.807z"/>
			</g>
		</g>
	</g>
	<g>
		<g>
			<g>
				<path style="fill:#F5F5F5;" d="M357.737,74.465c1.098-0.664,2.267-1.167,3.473-1.51l0.716-3.438l5.809-0.102l0.836,3.41
					c1.217,0.3,2.404,0.762,3.525,1.387l2.936-1.924l4.18,4.036l-1.82,3.001c0.664,1.099,1.167,2.268,1.509,3.474l3.438,0.715
					l0.102,5.809l-3.411,0.836c-0.3,1.217-0.762,2.403-1.387,3.524l1.924,2.936l-4.035,4.18l-3.001-1.82
					c-1.098,0.664-2.268,1.167-3.474,1.509l-0.716,3.438l-5.809,0.102l-0.836-3.411c-1.217-0.3-2.403-0.762-3.524-1.386
					l-2.936,1.924l-4.18-4.035l1.82-3.001c-0.664-1.099-1.167-2.268-1.51-3.474l-3.438-0.715l-0.102-5.809l3.411-0.836
					c0.3-1.217,0.762-2.403,1.387-3.524l-1.924-2.936l4.035-4.18L357.737,74.465L357.737,74.465z M360.834,82.203
					c-2.391,2.476-2.322,6.422,0.155,8.813c2.476,2.391,6.422,2.321,8.812-0.155c2.391-2.476,2.322-6.422-0.155-8.812
					C367.17,79.658,363.225,79.727,360.834,82.203z"/>
			</g>
		</g>
	</g>
	<g>
		<g>
			<g>
				<path style="fill:#F5F5F5;" d="M377.934,203.413c1.098-0.664,2.267-1.167,3.473-1.51l0.716-3.438l5.809-0.102l0.836,3.41
					c1.217,0.3,2.404,0.762,3.525,1.387l2.936-1.924l4.18,4.036l-1.82,3.001c0.664,1.099,1.167,2.268,1.509,3.474l3.438,0.715
					l0.102,5.809l-3.411,0.836c-0.3,1.217-0.762,2.403-1.387,3.524l1.924,2.936l-4.035,4.18l-3.001-1.82
					c-1.099,0.664-2.268,1.167-3.474,1.509l-0.716,3.438l-5.809,0.102l-0.836-3.411c-1.217-0.3-2.403-0.762-3.524-1.387
					l-2.936,1.924l-4.18-4.036l1.82-3.001c-0.664-1.099-1.167-2.268-1.51-3.474l-3.438-0.715l-0.102-5.809l3.411-0.836
					c0.3-1.217,0.762-2.403,1.387-3.524l-1.924-2.936l4.035-4.18L377.934,203.413L377.934,203.413z M381.031,211.152
					c-2.391,2.476-2.322,6.422,0.155,8.813c2.476,2.391,6.422,2.321,8.812-0.155c2.391-2.476,2.322-6.422-0.155-8.812
					C387.367,208.606,383.421,208.675,381.031,211.152z"/>
			</g>
		</g>
	</g>
	<g>
		<g>
			<g>
				<path style="fill:#F5F5F5;" d="M41.161,327.733c1.098-0.664,2.267-1.167,3.473-1.51l0.715-3.438l5.809-0.102l0.836,3.411
					c1.217,0.3,2.404,0.762,3.525,1.386l2.936-1.924l4.18,4.035l-1.82,3.001c0.664,1.099,1.167,2.268,1.509,3.474l3.438,0.715
					l0.102,5.809l-3.411,0.836c-0.3,1.217-0.762,2.403-1.387,3.524l1.924,2.936l-4.035,4.18l-3.001-1.82
					c-1.098,0.664-2.268,1.167-3.474,1.509l-0.716,3.438l-5.809,0.102l-0.836-3.411c-1.217-0.3-2.403-0.762-3.524-1.387
					l-2.936,1.924l-4.18-4.035l1.82-3.001c-0.664-1.099-1.167-2.268-1.51-3.474l-3.438-0.716l-0.102-5.809l3.411-0.836
					c0.3-1.217,0.762-2.403,1.386-3.524l-1.924-2.936l4.035-4.18L41.161,327.733L41.161,327.733z M44.258,335.471
					c-2.391,2.476-2.322,6.422,0.155,8.813c2.476,2.391,6.422,2.321,8.812-0.155c2.391-2.476,2.322-6.422-0.155-8.812
					C50.594,332.925,46.648,332.995,44.258,335.471z"/>
			</g>
		</g>
	</g>
	<g>
		<g>
			<g>
				<path style="fill:#EBEBEB;" d="M145.247,148.724c0.954-0.576,1.969-1.014,3.017-1.311l0.621-2.986l5.046-0.089l0.726,2.962
					c1.057,0.261,2.088,0.662,3.061,1.204l2.55-1.671l3.63,3.505l-1.581,2.607c0.577,0.954,1.014,1.97,1.311,3.018l2.986,0.621
					l0.089,5.046l-2.962,0.726c-0.26,1.057-0.662,2.087-1.204,3.061l1.671,2.55l-3.505,3.63l-2.607-1.581
					c-0.954,0.577-1.97,1.014-3.018,1.311l-0.622,2.986l-5.045,0.089l-0.726-2.963c-1.057-0.26-2.088-0.662-3.061-1.204l-2.55,1.672
					l-3.63-3.505l1.581-2.607c-0.577-0.954-1.014-1.97-1.311-3.018l-2.986-0.621l-0.089-5.045l2.962-0.727
					c0.26-1.057,0.662-2.087,1.204-3.061l-1.671-2.55l3.505-3.63L145.247,148.724L145.247,148.724z M147.937,155.446
					c-2.077,2.151-2.017,5.578,0.134,7.654c2.151,2.077,5.578,2.016,7.654-0.135c2.076-2.151,2.016-5.578-0.134-7.654
					C153.441,153.235,150.014,153.295,147.937,155.446z"/>
			</g>
		</g>
	</g>
	<g>
		<g>
			<g>
				<path style="fill:#E0E0E0;" d="M89.779,154.783c1.966-1.188,4.06-2.09,6.219-2.703l1.281-6.156l10.401-0.182l1.497,6.107
					c2.18,0.537,4.304,1.364,6.311,2.483l5.257-3.446l7.484,7.226l-3.258,5.373c1.189,1.967,2.09,4.062,2.703,6.221l6.155,1.281
					l0.183,10.401l-6.107,1.497c-0.537,2.179-1.364,4.303-2.483,6.31l3.445,5.257l-7.225,7.484l-5.374-3.258
					c-1.967,1.188-4.061,2.089-6.22,2.703l-1.281,6.156l-10.401,0.183l-1.497-6.107c-2.179-0.537-4.303-1.364-6.31-2.483
					l-5.257,3.446l-7.484-7.226l3.258-5.374c-1.189-1.967-2.09-4.061-2.703-6.22l-6.156-1.281l-0.182-10.401l6.107-1.497
					c0.537-2.179,1.365-4.303,2.483-6.31l-3.445-5.257l7.225-7.484L89.779,154.783L89.779,154.783z M95.324,168.639
					c-4.281,4.434-4.157,11.499,0.277,15.779c4.434,4.281,11.499,4.156,15.779-0.278c4.281-4.434,4.157-11.499-0.277-15.779
					C106.669,164.081,99.604,164.205,95.324,168.639z"/>
			</g>
		</g>
	</g>
</g>
<g id="Background_Simple" style="display:none;">
	<g style="display:inline;">
		<path style="fill:#F5F5F5;" d="M80.468,66.753l1.557-0.317c13.122-2.671,26.717,1.866,35.093,12.158
			c1.077,1.323,2.058,2.724,2.931,4.195c6.282,10.591,6.709,24.465,1.095,35.57c-3.302,6.531-8.615,12.416-9.322,19.67
			c-0.92,9.441,6.187,17.455,12.795,24.169c6.607,6.714,13.699,14.752,12.738,24.189c-0.602,5.91-4.405,11.128-9,14.946
			c-12.166,10.106-30.007,11.613-44.663,6.102c-14.656-5.511-26.305-17.184-34.437-30.527
			c-11.392-18.693-16.524-41.741-11.38-63.204C43.018,92.241,59.265,72.991,80.468,66.753z"/>
	</g>
	<g style="display:inline;">
		<path style="fill:#F5F5F5;" d="M676.683,66.202l-1.498-0.305c-12.627-2.57-25.708,1.796-33.767,11.699
			c-1.036,1.273-1.981,2.621-2.82,4.036c-6.045,10.19-6.456,23.54-1.054,34.226c3.177,6.285,8.29,11.947,8.97,18.927
			c0.885,9.084-5.953,16.796-12.311,23.256c-6.358,6.46-13.181,14.195-12.256,23.275c0.579,5.687,4.238,10.708,8.66,14.381
			c11.707,9.724,28.873,11.174,42.976,5.871c14.102-5.303,25.311-16.535,33.136-29.374c10.962-17.987,15.9-40.164,10.95-60.816
			C712.718,90.727,697.085,72.205,676.683,66.202z"/>
	</g>
	<g style="display:inline;">
		<circle style="fill:#F5F5F5;" cx="389.254" cy="89.42" r="33.222"/>
	</g>
	<g style="display:inline;">
		
			<ellipse transform="matrix(0.7071 -0.7071 0.7071 0.7071 -38.3901 585.6644)" style="fill:#F5F5F5;" cx="687.764" cy="339.173" rx="27.844" ry="27.844"/>
	</g>
</g>
<g id="Table">
	<g>
		<g>
			<path style="fill:#263238;" d="M717.749,468.475c0,0.144-153.466,0.26-342.733,0.26c-189.332,0-342.766-0.117-342.766-0.26
				c0-0.144,153.433-0.26,342.766-0.26C564.283,468.215,717.749,468.331,717.749,468.475z"/>
		</g>
	</g>
</g>
<g id="Speech_Bubble_2">
	<g>
		<g>
			<g>
				<g>
					<g>
						<g>
							<g>
								<g>
									<g>
										<g>
											<g>
												<g>
													<g>
														<g>
															<path style="fill:#FFFFFF;" d="M539.172,105.9l11.809-1.552c4.836,4.771,11.01,8.308,18.116,9.945
																c20.436,4.709,40.82-8.04,45.529-28.476c4.71-20.436-8.039-40.82-28.476-45.53
																c-20.436-4.709-40.82,8.04-45.53,28.476c-1.966,8.533-0.88,17.053,2.531,24.431l-0.014-0.016L539.172,105.9z"/>
														</g>
													</g>
												</g>
											</g>
										</g>
									</g>
								</g>
								<g>
									<g>
										<g>
											<g>
												<g>
													<g>
														<g>
															<g>
																<path style="fill:#263238;" d="M539.172,105.9c0,0,0.102-0.29,0.281-0.841c0.183-0.565,0.444-1.376,0.787-2.438
																	c0.688-2.148,1.697-5.303,3.01-9.407l-0.204,0.04l0.013,0.016c0.042,0.051,0.116,0.058,0.167,0.017
																	c0.042-0.035,0.054-0.094,0.032-0.142c-2.048-4.508-3.879-10.854-3.34-18.407c0.132-1.878,0.403-3.821,0.86-5.792
																	c0.551-1.946,1.051-3.983,1.932-5.956c1.633-3.98,4.056-7.934,7.335-11.43c3.269-3.495,7.387-6.525,12.143-8.653
																	c4.747-2.132,10.134-3.349,15.705-3.314c11.125-0.035,22.943,5.51,30.131,15.448
																	c3.636,5.053,6.099,10.865,6.884,16.81c0.854,5.93,0.264,11.896-1.495,17.292c-1.74,5.414-4.757,10.184-8.386,14.03
																	c-3.643,3.853-7.944,6.769-12.394,8.707c-4.454,1.947-9.05,2.916-13.392,3.113c-0.544,0.015-1.084,0.03-1.62,0.044
																	c-0.536,0.024-1.067,0.031-1.592-0.027c-1.052-0.077-2.086-0.153-3.102-0.228c-2.003-0.37-3.961-0.624-5.773-1.179
																	c-7.311-2.083-12.631-5.944-16.095-9.336c-0.025-0.025-0.061-0.036-0.094-0.032
																	c-3.806,0.531-6.738,0.94-8.737,1.219c-0.988,0.141-1.742,0.248-2.271,0.324
																	C539.445,105.853,539.172,105.9,539.172,105.9s0.242-0.021,0.743-0.08c0.523-0.063,1.269-0.153,2.245-0.27
																	c2.022-0.249,4.987-0.615,8.836-1.09l-0.094-0.031c3.452,3.444,8.789,7.373,16.157,9.513
																	c1.826,0.569,3.8,0.836,5.822,1.217c1.026,0.08,2.071,0.161,3.132,0.244c0.531,0.061,1.067,0.056,1.609,0.034
																	c0.541-0.013,1.087-0.025,1.637-0.038c4.39-0.182,9.042-1.147,13.555-3.105c4.508-1.949,8.869-4.891,12.567-8.785
																	c3.684-3.889,6.75-8.718,8.521-14.204c1.789-5.466,2.394-11.515,1.531-17.529c-0.793-6.03-3.287-11.926-6.975-17.05
																	c-0.417-0.654-0.93-1.232-1.428-1.819l-1.493-1.756l-1.644-1.602c-0.541-0.538-1.085-1.071-1.696-1.525
																	c-0.593-0.475-1.185-0.948-1.774-1.42c-0.578-0.49-1.249-0.846-1.867-1.273c-0.636-0.4-1.244-0.843-1.899-1.203
																	c-0.664-0.344-1.326-0.687-1.986-1.029c-5.316-2.663-11.126-4.021-16.771-4.019
																	c-5.648-0.028-11.105,1.214-15.909,3.383c-4.813,2.165-8.976,5.242-12.273,8.789
																	c-3.309,3.547-5.747,7.555-7.383,11.584c-0.883,1.997-1.382,4.057-1.928,6.025
																	c-0.453,1.993-0.719,3.956-0.843,5.853c-0.507,7.628,1.382,14.013,3.482,18.53l0.199-0.125l-0.013-0.016
																	c-0.041-0.05-0.116-0.058-0.166-0.017c-0.018,0.015-0.032,0.036-0.039,0.057c-1.263,4.159-2.233,7.356-2.894,9.533
																	c-0.317,1.055-0.559,1.859-0.728,2.421C539.242,105.636,539.172,105.9,539.172,105.9z"/>
															</g>
														</g>
													</g>
												</g>
											</g>
										</g>
									</g>
								</g>
							</g>
						</g>
					</g>
				</g>
			</g>
		</g>
		<g>
			<g>
				<g>
					<g>
						<path style="fill:#263238;" d="M562.923,63.942h29.626l0.048,9.923h-1.417c-0.465-3.55-1.794-5.952-3.988-7.205
							c-1.234-0.691-3.075-1.068-5.527-1.132V91.45c0,1.812,0.316,3.014,0.949,3.607c0.633,0.593,1.95,0.89,3.953,0.89v1.249h-17.54
							v-1.249c1.922,0,3.199-0.301,3.832-0.902c0.633-0.601,0.949-1.799,0.949-3.595V65.527c-2.403,0.065-4.245,0.442-5.526,1.132
							c-2.355,1.285-3.685,3.687-3.989,7.205h-1.417L562.923,63.942z"/>
					</g>
				</g>
			</g>
		</g>
	</g>
</g>
<g id="Speech_Bubble_1">
	<g>
		<g>
			<g>
				<g>
					<g>
						<g>
							<g>
								<g>
									<g>
										<g>
											<g>
												<g>
													<g>
														<g>
															<path style="fill:#FFFFFF;" d="M220.406,119.461l-12.471,0.63c-4.087,5.834-9.785,10.647-16.804,13.678
																c-20.186,8.716-43.615-0.582-52.331-20.768c-8.716-20.186,0.582-43.615,20.768-52.331
																c20.186-8.716,43.615,0.582,52.331,20.768c3.639,8.429,4.128,17.42,2.004,25.673l0.011-0.02L220.406,119.461z"/>
														</g>
													</g>
												</g>
											</g>
										</g>
									</g>
								</g>
								<g>
									<g>
										<g>
											<g>
												<g>
													<g>
														<g>
															<g>
																<path style="fill:#263238;" d="M220.406,119.461c0,0-0.16-0.28-0.449-0.814c-0.295-0.548-0.718-1.335-1.273-2.366
																	c-1.115-2.085-2.752-5.148-4.881-9.133l0.218,0.003l-0.011,0.019c-0.033,0.06-0.109,0.082-0.169,0.049
																	c-0.05-0.028-0.073-0.087-0.06-0.14c1.261-5.036,1.95-11.926-0.032-19.613c-0.491-1.912-1.137-3.864-1.981-5.811
																	c-0.935-1.902-1.836-3.909-3.117-5.777c-2.436-3.796-5.681-7.416-9.723-10.402c-4.031-2.987-8.85-5.334-14.157-6.63
																	c-5.298-1.302-11.084-1.54-16.822-0.452c-11.48,2.065-22.62,10.015-28.156,21.621
																	c-2.796,5.898-4.238,12.356-3.924,18.636c0.24,6.276,1.975,12.317,4.807,17.55
																	c2.817,5.255,6.829,9.604,11.298,12.886c4.485,3.285,9.471,5.48,14.426,6.639c4.961,1.167,9.884,1.298,14.399,0.681
																	c0.564-0.087,1.124-0.174,1.679-0.26c0.557-0.076,1.107-0.169,1.637-0.329c1.07-0.278,2.122-0.552,3.156-0.821
																	c1.996-0.76,3.967-1.392,5.731-2.307c7.146-3.529,11.904-8.516,14.835-12.667c0.021-0.031,0.057-0.048,0.091-0.05
																	c4.025-0.171,7.126-0.303,9.24-0.393c1.045-0.041,1.844-0.073,2.403-0.095
																	C220.115,119.464,220.406,119.461,220.406,119.461s-0.254,0.024-0.781,0.058c-0.551,0.034-1.337,0.082-2.367,0.145
																	c-2.133,0.125-5.259,0.307-9.318,0.544l0.09-0.05c-2.909,4.203-7.671,9.263-14.865,12.862
																	c-1.775,0.932-3.761,1.58-5.774,2.354c-1.043,0.277-2.105,0.558-3.184,0.843c-0.536,0.163-1.09,0.26-1.653,0.339
																	c-0.561,0.089-1.126,0.179-1.695,0.27c-4.562,0.641-9.541,0.525-14.565-0.642c-5.017-1.159-10.07-3.369-14.62-6.687
																	c-4.534-3.315-8.607-7.716-11.469-13.039c-2.877-5.299-4.643-11.423-4.89-17.788
																	c-0.32-6.368,1.138-12.919,3.974-18.9c0.307-0.753,0.726-1.446,1.13-2.146l1.209-2.093l1.393-1.962
																	c0.456-0.658,0.917-1.31,1.462-1.893c0.522-0.602,1.042-1.201,1.562-1.8c0.503-0.614,1.128-1.108,1.685-1.665
																	c0.581-0.532,1.124-1.104,1.731-1.599c0.62-0.48,1.238-0.959,1.854-1.436c4.98-3.75,10.715-6.248,16.536-7.313
																	c5.819-1.096,11.681-0.845,17.045,0.484c5.373,1.323,10.246,3.711,14.317,6.746
																	c4.082,3.033,7.353,6.706,9.802,10.552c1.288,1.893,2.191,3.923,3.126,5.849c0.844,1.97,1.488,3.944,1.975,5.877
																	c1.964,7.77,1.222,14.713-0.092,19.768l-0.229-0.092l0.011-0.019c0.033-0.06,0.108-0.082,0.168-0.049
																	c0.022,0.012,0.04,0.031,0.051,0.052c2.087,4.05,3.692,7.164,4.785,9.284c0.526,1.028,0.927,1.812,1.207,2.359
																	C220.284,119.203,220.406,119.461,220.406,119.461z"/>
															</g>
														</g>
													</g>
												</g>
											</g>
										</g>
									</g>
								</g>
							</g>
						</g>
					</g>
				</g>
			</g>
		</g>
		<g>
			<g>
				<g>
					<g>
						<path style="fill:#FF725E;" d="M194.199,92.702c-0.284-2.31-1.422-4.465-2.986-6.188c-1.533-1.687-3.526-3.012-5.757-3.478
							c-2.37-0.496-4.936,0.03-6.921,1.417c-1.181,0.825-2.145,1.948-2.807,3.227c-0.669-1.124-1.579-2.105-2.663-2.836
							c-2.007-1.354-4.582-1.838-6.943-1.303c-2.224,0.503-4.195,1.86-5.699,3.572c-1.536,1.748-2.639,3.922-2.885,6.236
							c-0.308,2.898,0.278,6.063,1.8,8.548c1.608,2.625,4.187,4.734,6.836,6.3c4.454,2.634,10.318,5.93,10.318,5.93
							s4.903-3.729,9.314-6.436c2.623-1.61,5.168-3.76,6.732-6.411C194.021,98.769,194.554,95.595,194.199,92.702z"/>
					</g>
				</g>
			</g>
		</g>
	</g>
</g>
<g id="Character_2">
	<g>
		<g>
			<g>
				<path style="fill:#263238;" d="M445.034,85.444c-4.074,0.577-8.347-2.31-9.331-6.304c-0.984-3.995,1.459-8.536,5.334-9.918
					c-2.613-2.535-3.366-6.789-1.782-10.067c1.583-3.278,5.383-5.333,8.993-4.862c0.052-3.594,2.103-7.095,5.214-8.896
					c3.11-1.801,7.167-1.838,10.31-0.094c3.875-3.51,10.27-3.813,14.458-0.684c3.471-0.74,7.327,1.014,9.05,4.117
					c1.724,3.103,1.175,7.303-1.288,9.859"/>
			</g>
			<g>
				<path style="fill:#AE7461;" d="M480.262,52.852l-1.844,0.052c-18.558,0.525-33.602,15.21-34.57,33.751
					c-0.901,17.244-1.674,36.307-1.299,45.533c0.777,19.105,19.976,21.536,19.976,21.536l-0.967,23.007l42.431-0.371l5.658-85.767
					C510.796,70.7,500.178,53.451,480.262,52.852z"/>
			</g>
			<g>
				<path style="fill:#6F4439;" d="M462.365,153.701c0,0,12.225,0.389,24.834-8.038c0,0-5.752,13.882-24.87,12.701L462.365,153.701z
					"/>
			</g>
			<g>
				<path style="fill:#263238;" d="M451.418,106.838c-0.011,1.443,1.203,2.641,2.709,2.679c1.504,0.038,2.734-1.097,2.743-2.54
					c0.01-1.443-1.203-2.642-2.706-2.681C452.658,104.258,451.428,105.396,451.418,106.838z"/>
			</g>
			<g>
				<path style="fill:#263238;" d="M448.221,95.889c0.348,0.347,2.372-1.242,5.309-1.318c2.933-0.118,5.131,1.333,5.439,0.964
					c0.152-0.164-0.211-0.797-1.168-1.453c-0.943-0.654-2.538-1.271-4.367-1.212c-1.829,0.062-3.348,0.779-4.214,1.493
					C448.336,95.082,448.049,95.734,448.221,95.889z"/>
			</g>
			<g>
				<path style="fill:#263238;" d="M477.162,106.123c-0.01,1.442,1.203,2.641,2.71,2.678c1.504,0.039,2.733-1.097,2.744-2.54
					c0.01-1.442-1.204-2.642-2.707-2.681C478.402,103.542,477.172,104.681,477.162,106.123z"/>
			</g>
			<g>
				<path style="fill:#263238;" d="M477.104,95.62c0.349,0.346,2.376-1.242,5.311-1.317c2.932-0.117,5.131,1.332,5.439,0.963
					c0.152-0.163-0.208-0.796-1.169-1.453c-0.943-0.654-2.537-1.271-4.366-1.212c-1.829,0.062-3.349,0.779-4.214,1.493
					C477.223,94.813,476.934,95.465,477.104,95.62z"/>
			</g>
			<g>
				<path style="fill:#263238;" d="M467.062,117.702c0.009-0.168-1.825-0.432-4.794-0.726c-0.752-0.056-1.466-0.185-1.607-0.693
					c-0.192-0.537,0.099-1.354,0.437-2.237c0.654-1.834,1.338-3.757,2.056-5.773c2.85-8.218,4.89-14.966,4.558-15.078
					c-0.332-0.111-2.911,6.458-5.761,14.676c-0.685,2.026-1.34,3.957-1.962,5.804c-0.26,0.86-0.721,1.841-0.306,2.954
					c0.218,0.555,0.78,0.946,1.264,1.062c0.485,0.133,0.907,0.129,1.278,0.141C465.208,117.907,467.055,117.868,467.062,117.702z"/>
			</g>
			<g>
				<path style="fill:#263238;" d="M474.237,84.392c0.409,0.734,2.902-0.145,5.999-0.332c3.091-0.258,5.719,0.252,5.98-0.53
					c0.111-0.372-0.458-1.025-1.591-1.59c-1.125-0.565-2.822-0.978-4.677-0.846c-1.854,0.136-3.449,0.785-4.448,1.503
					C474.49,83.316,474.054,84.042,474.237,84.392z"/>
			</g>
			<g>
				<path style="fill:#263238;" d="M447.735,83.783c0.638,0.65,3.042-0.112,5.956-0.227c2.91-0.2,5.396,0.296,5.944-0.418
					c0.24-0.346-0.168-1.003-1.264-1.604c-1.08-0.599-2.873-1.063-4.874-0.956c-2.001,0.11-3.72,0.764-4.715,1.475
					C447.772,82.769,447.453,83.465,447.735,83.783z"/>
			</g>
			<g>
				<path style="fill:#263238;" d="M445.438,77.838c0,0,4.702-12.111,10.394-15.068c6.891-3.578,10.116,4.005,16.721,1.955
					c6.606-2.049,13.183-5.482,20.133-0.528c7.607,5.423,4.23,9.474,4.93,17.94c2.838,34.326,9.392,43.871,10.719,27.627
					c0.146-1.779,5.029-3.33,5.547-10.846c0.671-9.746,0.711-21.559-1.654-28.395c-1.993-5.762-5.422-9.685-11.491-13.946
					c-9.581-6.725-22.474-6.511-31.202-5.382C460.807,52.325,444.216,62.875,445.438,77.838z"/>
			</g>
			<g>
				<path style="fill:#AE7461;" d="M507.102,109.28c0.037-2.953,2.513-5.354,5.46-5.158c3.573,0.238,7.597,2.149,7.57,9.521
					c-0.048,13.077-13.168,10.332-13.189,9.957C506.929,123.346,507.033,114.752,507.102,109.28z"/>
			</g>
			<g>
				<path style="fill:#6F4439;" d="M509.806,118.691c0.058-0.041,0.228,0.161,0.612,0.338c0.374,0.173,1.02,0.294,1.702,0.041
					c1.384-0.502,2.555-2.69,2.627-5.048c0.037-1.189-0.208-2.324-0.626-3.264c-0.396-0.959-1.012-1.629-1.706-1.755
					c-0.692-0.163-1.186,0.252-1.347,0.619c-0.177,0.365-0.095,0.626-0.164,0.649c-0.037,0.033-0.28-0.221-0.173-0.76
					c0.055-0.259,0.209-0.567,0.517-0.817c0.315-0.254,0.777-0.383,1.261-0.328c1.008,0.073,1.912,1.004,2.372,2.036
					c0.515,1.037,0.819,2.311,0.777,3.648c-0.093,2.635-1.451,5.097-3.344,5.636c-0.921,0.237-1.687-0.044-2.083-0.353
					C509.829,119.007,509.761,118.715,509.806,118.691z"/>
			</g>
			<g>
				<path style="fill:#263238;" d="M506.13,83.973c-1.664,1.206-3.423,2.452-5.462,2.712c-2.039,0.26-4.41-0.848-4.812-2.864
					c-0.181-0.906,0.012-1.967-0.606-2.653c-0.737-0.818-2.046-0.518-3.138-0.371c-3.788,0.51-8.344-3.56-9.417-7.228
					c-0.927,1.478-3.037,1.977-4.53,1.073c-1.493-0.904-2.043-1.428-3.227-2.71c-1.185-1.281-2.828-2.411-4.548-2.117
					c-0.962,0.165-1.85,0.766-2.824,0.707c-1.72-0.104-2.615-2.089-2.923-3.785c-0.308-1.695-0.566-3.677-2.045-4.561
					c-1.371-0.82-3.102-0.275-4.675,0.003c-1.572,0.277-3.623-0.036-4.071-1.569c-0.235-0.804,0.088-1.667,0.518-2.386
					c1.944-3.26,6.34-4.809,9.898-3.486c1.156-4.354,5.099-7.828,9.563-8.427c4.465-0.599,9.184,1.712,11.447,5.607
					c2.691-2.584,6.674-3.749,10.332-3.022c3.659,0.726,6.895,3.324,8.394,6.74c3.155-0.926,6.812,0.201,8.899,2.741
					c2.087,2.541,2.481,6.347,0.961,9.262c2.386,1.275,4.463,3.552,4.588,6.255c0.125,2.703-2.433,5.472-5.063,4.834
					c1.114,2.076,0.337,4.958-1.67,6.192c-2.007,1.234-4.93,0.628-6.28-1.303"/>
			</g>
			<g>
				<path style="fill:#455A64;" d="M463.405,58.609c-0.011,0.001-0.008,0.082,0.009,0.239c0.022,0.157,0.038,0.394,0.103,0.696
					c0.137,0.6,0.405,1.487,1.02,2.491c0.618,0.989,1.565,2.124,2.985,3.007c1.391,0.894,3.284,1.55,5.395,1.375l-0.229-0.283
					c-0.374,1.129-0.225,2.467,0.364,3.6c0.56,1.154,1.42,2.165,2.327,3.15c0.464,0.472,0.87,1.03,1.504,1.458
					c0.617,0.41,1.348,0.637,2.093,0.71c1.478,0.146,3.129-0.356,4.163-1.626l-0.493-0.125c0.406,2.588,1.957,5.145,4.349,6.663
					c1.267,0.862,2.82,1.367,4.33,1.285c1.512-0.058,2.905-0.541,4.202-1.048l-0.354-0.144c0.748,1.604,1.866,2.959,3.206,3.945
					c1.315,0.985,3.047,1.535,4.587,1.111c3.065-0.74,5.039-3.363,5.383-5.789l-0.292,0.146c1.554,0.791,3.198,0.824,4.509,0.533
					c1.329-0.282,2.361-0.892,3.092-1.485c0.733-0.604,1.16-1.216,1.415-1.638c0.233-0.438,0.327-0.679,0.312-0.686
					c-0.067-0.052-0.405,1.005-1.864,2.151c-0.729,0.548-1.739,1.107-3.019,1.347c-1.262,0.253-2.82,0.184-4.256-0.576l-0.249-0.132
					l-0.044,0.278c-0.351,2.264-2.253,4.713-5.096,5.367c-1.396,0.37-2.918-0.124-4.165-1.055c-1.252-0.93-2.318-2.236-3.014-3.744
					l-0.11-0.239l-0.244,0.095c-1.277,0.495-2.622,0.949-4.019,0.998c-1.398,0.07-2.79-0.379-3.999-1.197
					c-2.259-1.436-3.715-3.829-4.112-6.278l-0.099-0.616l-0.393,0.49c-0.872,1.086-2.347,1.564-3.676,1.435
					c-0.667-0.061-1.316-0.26-1.854-0.614c-0.524-0.339-0.948-0.89-1.418-1.367c-0.906-0.967-1.741-1.941-2.274-3.013
					c-0.56-1.059-0.694-2.235-0.376-3.257l0.098-0.315l-0.327,0.031c-1.989,0.191-3.81-0.4-5.168-1.238
					c-1.385-0.823-2.33-1.9-2.962-2.842C463.498,59.961,463.498,58.576,463.405,58.609z"/>
			</g>
			<g>
				<path style="fill:#263238;" d="M467.987,127.733c0.059-0.489,3.292,0.091,6.089-2.258c2.803-2.343,3.066-5.855,3.522-5.798
					c0.211-0.008,0.489,0.881,0.264,2.343c-0.21,1.435-1.047,3.435-2.758,4.873c-1.714,1.432-3.723,1.817-5.068,1.686
					C468.662,128.457,467.928,127.951,467.987,127.733z"/>
			</g>
		</g>
		<g>
			<path style="fill:#FF725E;" d="M535.12,165.222c0,0,11.635,1.684,21.403,9.237s34.617,56.074,34.617,56.074l-53.482,10.805
				L535.12,165.222z"/>
		</g>
		<g>
			<g>
				<g>
					<g>
						<g>
							<path style="fill:#455A64;" d="M487.495,359.739l95.841-221.927l52.384,20.24l-99.174,223.176
								c-5.906,13.292-21.343,19.438-34.769,13.843l0,0C488.003,389.331,481.578,373.439,487.495,359.739z"/>
						</g>
					</g>
				</g>
			</g>
			<g>
				<g>
					<g>
						<g>
							<g>
								<g>
									<path style="fill:#AE7461;" d="M598.711,211.729c1.595-0.045,3.148,0.495,4.61,1.135c1.462,0.64,4.211,1.822,5.751,2.24
										l9.253,4.277c3.236,4.073-0.539,8.002-3.412,7.686c1.014,1.146,1.834,1.414,2.084,2.924c0.25,1.51-0.136,3.171-1.228,4.242
										c-1.093,1.072-2.932,1.396-4.21,0.553c1.104,2.084,0.735,4.852-0.877,6.574c-0.97,1.036-2.348,1.646-3.755,1.76
										c-0.708,0.057-1.412-0.019-2.095-0.212c-0.244-0.069-0.546-0.121-0.754-0.276c-0.102-0.076-0.172-0.175-0.238-0.283
										c-0.301-0.489-0.511-1.019-0.848-1.492c-0.127-0.178-0.26-0.351-0.4-0.52c-0.637-0.766-1.397-1.422-2.219-1.982
										c-0.377-0.257-0.847-0.454-1.18-0.765c-0.226-0.21-0.335-0.508-0.519-0.752c-1.171-1.547-3.09-2.469-4.754-3.37
										c-1.877-1.017-3.818-2.182-4.829-4.063c-1.011-1.88-0.636-4.665,1.299-5.568c-1.285-0.441-1.946-2.034-1.58-3.342
										c0.367-1.308,1.564-2.273,2.875-2.632c1.31-0.359,2.714-0.188,4.02,0.186c-1.423-0.722-1.812-2.768-1.027-4.157
										C595.462,212.503,597.115,211.773,598.711,211.729z"/>
								</g>
							</g>
						</g>
					</g>
					<g>
						<g>
							<g>
								<g>
									<g>
										<g>
											<g>
												<path style="fill:#AE7461;" d="M603.109,248.315c-0.623,1.16-1.58,2.261-2.87,2.524
													c-1.529,0.312-3.629-0.67-4.914-1.557c0.623-1.749,1.039-2.599,1.662-4.348c0.131-0.368,0.377-0.597,0.342-0.987
													c-0.092-1.028-1.898-1.925-2.57-2.709c-1.164-1.36-0.785-3.646,0.598-4.783c1.383-1.136,3.47-1.169,5.057-0.341
													c1.587,0.828,2.7,2.389,3.303,4.074C604.658,242.823,604.431,245.851,603.109,248.315z"/>
											</g>
										</g>
									</g>
								</g>
							</g>
						</g>
					</g>
					<g>
						<g>
							<g>
								<g>
									<g>
										<g>
											<g>
												<g>
													<path style="fill:#6F4439;" d="M612.027,235.032c0.157-0.304-4.558-3.055-10.531-6.145
														c-5.975-3.091-10.944-5.349-11.101-5.045c-0.157,0.303,4.557,3.055,10.532,6.145
														C606.9,233.077,611.87,235.336,612.027,235.032z"/>
												</g>
											</g>
										</g>
									</g>
								</g>
							</g>
						</g>
					</g>
					<g>
						<g>
							<g>
								<g>
									<g>
										<g>
											<g>
												<g>
													<path style="fill:#6F4439;" d="M615.255,227.209c0.178-0.275-3.89-3.165-9.437-5.784
														c-5.541-2.636-10.353-3.954-10.454-3.642c-0.116,0.337,4.457,2.16,9.923,4.761
														C610.76,225.127,615.068,227.512,615.255,227.209z"/>
												</g>
											</g>
										</g>
									</g>
								</g>
							</g>
						</g>
					</g>
				</g>
				<g>
					<g>
						<g>
							<g>
								<g>
									<g>
										<g>
											<g>
												<path style="fill:#6F4439;" d="M618.417,219.567c0.175-0.301-3.32-2.51-7.969-4.481c-4.64-1.97-8.474-3.316-8.611-3.022
													c-0.151,0.326,3.503,2.199,8.119,4.159C614.568,218.178,618.25,219.86,618.417,219.567z"/>
											</g>
										</g>
									</g>
								</g>
							</g>
						</g>
					</g>
				</g>
				<g>
					<g>
						<g>
							<g>
								<g>
									<g>
										<g>
											<g>
												<path style="fill:#6F4439;" d="M603.698,245.614c0.122,0.083,0.737-0.582,0.876-1.963
													c0.163-1.35-0.377-3.318-1.697-4.875c-1.34-1.558-2.673-2.589-3.917-3.252c-1.381-0.633-2.313,0.093-2.157,0.213
													c0.071,0.152,0.821-0.097,1.739,0.556c0.867,0.678,2.229,1.906,3.373,3.262c1.166,1.39,1.701,2.924,1.784,4.086
													C603.797,244.799,603.526,245.533,603.698,245.614z"/>
											</g>
										</g>
									</g>
								</g>
							</g>
						</g>
					</g>
				</g>
			</g>
			<g>
				<g>
					<g>
						<g>
							<path style="fill:#FF725E;" d="M635.72,158.052l-6.87-44.491c-0.638-4.135-5.462-6.088-8.797-3.561l-36.717,27.812
								L635.72,158.052z"/>
						</g>
					</g>
				</g>
			</g>
			<g>
				<g>
					<g>
						<g>
							<path style="fill:#263238;" d="M501.777,395.071L501.777,395.071c12.623,5.26,27.02,0.138,33.606-11.541l-48.762-21.448
								c-0.016,0.048-0.038,0.095-0.054,0.143l-0.064,0.202C482.447,375.457,488.895,389.703,501.777,395.071z"/>
						</g>
					</g>
				</g>
			</g>
			<g style="opacity:0.5;">
				<g>
					<g>
						<g>
							<path style="fill:#FFFFFF;" d="M635.72,158.052l-6.87-44.491c-0.638-4.135-5.462-6.088-8.797-3.561l-36.717,27.812
								L635.72,158.052z"/>
						</g>
					</g>
				</g>
			</g>
			<g>
				<g>
					<g>
						<g>
							<path style="fill:#FF725E;" d="M629.565,118.189l-0.89-5.638c-0.6-3.802-5.082-5.538-8.087-3.134l-4.119,3.296
								L629.565,118.189z"/>
						</g>
					</g>
				</g>
			</g>
		</g>
		<g>
			<path style="fill:#FF725E;" d="M537.678,230.966l-1.712-65.573l-30.856-6.022c-6.662,13.182-27.052,19.33-42.962,3.324
				l-32.518,4.604c0,0-4.955,59.331-3.203,104.424l-5.704,62.621c29.707,19.451,67.946,27.602,98.868,22.037
				c14.248-2.715-0.43-0.442,12.415-7.083L537.678,230.966z"/>
		</g>
		<g>
			<path style="fill:#FF725E;" d="M430.09,167.299c0,0-16.004,3.365-28.496,23.874c-12.619,20.717-22.311,31.672-22.311,31.672
				l46.164,21.69L430.09,167.299z"/>
		</g>
		<g>
			<g>
				<path style="fill:#263238;" d="M426.509,197.34c0.144,0,0.26,5.358,0.26,11.965c0,6.61-0.117,11.966-0.26,11.966
					c-0.144,0-0.26-5.357-0.26-11.966C426.249,202.698,426.365,197.34,426.509,197.34z"/>
			</g>
		</g>
		<g>
			<g>
				<path style="fill:#263238;" d="M537.678,203.96c0.144,0,0.26,8.295,0.26,18.525c0,10.234-0.117,18.527-0.26,18.527
					c-0.144,0-0.26-8.293-0.26-18.527C537.417,212.255,537.534,203.96,537.678,203.96z"/>
			</g>
		</g>
	</g>
</g>
<g id="Characters_1">
	<g>
		<g>
			<g>
				<g>
					<path style="fill:#263238;" d="M65.373,282.994c-4.183-2.27-6.598-7.402-5.68-12.072c0.918-4.67,5.094-8.507,9.825-9.026
						c-3.648-3.391-4.915-9.101-3.043-13.716c1.871-4.615,6.757-7.831,11.736-7.724c-3.234-2.758-4.121-7.671-2.726-11.685
						c1.395-4.015,4.743-7.138,8.556-9.016c10.399-5.12,24.493-0.484,29.822,9.81l-2.494,96.977
						c-3.95,3.95-9.975,5.695-15.425,4.469c-5.45-1.226-10.147-5.384-12.025-10.645c-3.457-0.318-6.982-0.653-10.167-2.034
						c-3.185-1.381-6.032-4.01-6.754-7.406c-0.722-3.396,1.31-7.41,4.717-8.078c-3.807-2.257-7.814-4.724-9.784-8.687
						C59.959,290.198,61.158,284.342,65.373,282.994z"/>
				</g>
			</g>
			<g>
				<path style="fill:#FFBF9D;" d="M177.839,382.879c0,0,12.102,51.396,33.12,56.773c21.018,5.376,72.185,4.751,72.185,4.751
					l1.274-20.042l-58.858-11.629l-23.185-51.485L177.839,382.879z"/>
			</g>
			<g>
				<path style="fill:#FF725E;" d="M205.695,372.259c0,0-12.726-24.423-15.877-29.759c-5.371-9.095-15.392-14.25-15.392-14.25
					l-25.661-5.936l-37.623,1.529c-0.116,0.048-24.133,6.984-29.087,9.073l2.104,68.522l12.111,43.6l-8.517,23.438h106.005
					c-1.471-10.881-9.492-31.057-8.812-51.506l0,0c2.95-7.163,4.784-14.755,5.218-22.49c0.286-5.091,0.146-8.943,0.146-8.943
					S201.79,381.59,205.695,372.259z"/>
			</g>
			<g>
				<g>
					<g>
						<g>
							<g>
								<g>
									<g>
										<path style="fill:#263238;" d="M177.848,335.112c-0.129,0.072,1.087,2.349,2.794,6.14
											c1.71,3.788,3.827,9.134,5.536,15.236c1.697,6.107,2.653,11.778,3.151,15.904c0.502,4.127,0.641,6.704,0.788,6.699
											c0.062-0.002,0.091-0.648,0.089-1.818c0.007-1.17-0.07-2.862-0.241-4.947c-0.337-4.169-1.202-9.915-2.916-16.081
											c-1.725-6.16-3.959-11.524-5.828-15.266c-0.932-1.873-1.742-3.36-2.354-4.358
											C178.261,335.62,177.902,335.082,177.848,335.112z"/>
									</g>
								</g>
							</g>
						</g>
					</g>
				</g>
				<g>
					<g>
						<g>
							<g>
								<g>
									<g>
										<path style="fill:#263238;" d="M135.634,409.629c0.025,0.057,0.555-0.141,1.5-0.551c0.477-0.196,1.05-0.461,1.677-0.839
											c0.631-0.369,1.38-0.747,2.119-1.301c1.544-1.014,3.234-2.439,4.94-4.191c1.665-1.789,3.32-3.927,4.733-6.375
											c1.381-2.467,2.372-4.983,3.059-7.329c0.634-2.362,0.995-4.544,1.076-6.389c0.098-0.918,0.04-1.756,0.034-2.487
											c0.005-0.732-0.061-1.359-0.136-1.869c-0.13-1.021-0.231-1.578-0.293-1.57c-0.179,0.016,0.115,2.274-0.242,5.875
											c-0.16,1.801-0.578,3.918-1.239,6.208c-0.713,2.275-1.701,4.712-3.045,7.115c-1.377,2.383-2.967,4.478-4.557,6.253
											c-1.63,1.738-3.236,3.18-4.701,4.239C137.647,408.565,135.556,409.468,135.634,409.629z"/>
									</g>
								</g>
							</g>
						</g>
					</g>
				</g>
			</g>
		</g>
		<g>
			<g>
				<path style="fill:#FFBF9D;" d="M332.33,223.68l7.96,25.079v-17.758l18.944-2.168c0,0,8.806,57.131-1.086,68.741
					c-5.795,6.802-13.955,4.928-19.198,1.741c-15.472-9.405-31.402-34.562-31.402-34.562l-1.573-27.158L332.33,223.68z"/>
			</g>
			<g>
				<g>
					<path style="fill:#263238;" d="M248.803,97.895c-12.846,25.25-13.339,56.016-2.995,82.389c0.812,2.071,1.792,4.237,3.661,5.443
						c2.491,1.608,5.762,1.032,8.615,0.222c8.388-2.382,16.267-6.278,24.549-9.005c8.282-2.727,17.334-4.255,25.689-1.76
						L248.803,97.895z"/>
				</g>
				<g>
					<path style="fill:#263238;" d="M367.475,175.353c-2.13-5.866-9.215-7.832-14.397-11.31
						c-7.867-5.281-11.779-14.826-13.534-24.138c-1.755-9.312-2.382-20.999-4.702-30.186s-7.204-25.142-15.901-28.904l-63.979,7.069
						c-9.482,14.055-16.275,28.298-12.471,44.821c2.381,10.341,10.664,31.916,10.174,43.3c-0.625,14.525-13.014,20.203-3.218,30.945
						c5.958,6.534,51.812-2.122,60.395,0.003s19.512-3.025,19.931-11.858c3.023,4.476,8.735,6.969,14.072,6.14
						c5.337-0.829,10.025-4.936,11.549-10.117C362.814,189.752,370.05,182.443,367.475,175.353z"/>
				</g>
				<g>
					<g>
						<path style="fill:#263238;" d="M259.776,82.773c10.68-9.224,23.583-13.356,37.523-11.161
							c7.865,1.239,10.826,3.435,16.207,5.944c5.382,2.509,9.949,6.428,12.483,11.798c3.011,6.378,5.263,13.324,4.815,20.363
							c-0.461,7.23-2.214,14.077-4.561,19.561c-2.85,6.661-9.47,16.448-14.668,21.494l-12.292-0.638
							c-10.06-1.404-20.256-2.845-29.601-6.826c-9.345-3.981-17.897-10.875-21.625-20.323
							C242.878,109.857,249.095,91.997,259.776,82.773z"/>
					</g>
					<g>
						<path style="fill:#FFBF9D;" d="M275.909,85.465l25.815-5.384l6.178,1.833c14.181,2.526,21.238,19.883,19.326,31.392
							c-2.124,12.786-5.222,28.313-8.893,37.371c-7.381,18.212-23.807,16.97-23.807,16.97s-1.429,10.142-2.416,16.518l-36.493-9.117
							l12.778-84.215C269.128,87.365,272.392,85.033,275.909,85.465z"/>
					</g>
					<g>
						<path style="fill:#FF9A6C;" d="M290.722,141.296c0.305-0.975,1.014-1.76,1.827-2.242c1.626-0.965,3.713-0.722,5.044,0.587
							c1.331,1.308,1.824,3.601,1.192,5.542l0,0c-1.053,1.02-2.49,1.581-3.951,1.455c-0.227-0.02-0.453-0.051-0.678-0.096
							c-1.086-0.218-2.132-0.781-2.824-1.73C290.639,143.862,290.345,142.498,290.722,141.296z"/>
					</g>
					<g>
						<path style="fill:#263238;" d="M315.649,127.645c-0.251,1.292-1.552,2.143-2.905,1.905c-1.35-0.237-2.245-1.474-1.993-2.765
							c0.251-1.291,1.552-2.144,2.902-1.907C315.006,125.116,315.9,126.355,315.649,127.645z"/>
					</g>
					<g>
						<path style="fill:#263238;" d="M321.789,118.935c-0.374,0.247-1.896-1.538-4.508-2.136c-2.599-0.634-4.825,0.265-5.034-0.12
							c-0.107-0.174,0.333-0.673,1.306-1.088c0.961-0.414,2.497-0.677,4.121-0.295c1.623,0.386,2.852,1.301,3.496,2.095
							C321.83,118.193,321.97,118.828,321.789,118.935z"/>
					</g>
					<g>
						<path style="fill:#263238;" d="M301.253,136.644c0.022-0.151,1.709-0.055,4.415,0.217c0.682,0.085,1.344,0.099,1.561-0.329
							c0.268-0.445,0.156-1.228,0.012-2.078c-0.253-1.758-0.517-3.6-0.796-5.531c-1.063-7.857-1.669-14.256-1.353-14.296
							c0.317-0.04,1.437,6.296,2.5,14.154c0.246,1.934,0.483,3.778,0.706,5.541c0.077,0.816,0.311,1.775-0.26,2.695
							c-0.295,0.457-0.868,0.704-1.321,0.721c-0.457,0.031-0.834-0.048-1.168-0.105
							C302.872,137.163,301.228,136.795,301.253,136.644z"/>
					</g>
					<g>
						<path style="fill:#FF9A6C;" d="M294.563,167.632c0,0-12.91-2.125-23.758-12.618c0,0,3.711,14.668,23.045,17.281
							L294.563,167.632z"/>
					</g>
					<g>
						<path style="fill:#263238;" d="M293.156,136.671c0.43,0.074-0.221,2.907,1.739,5.479c1.952,2.577,5.045,2.958,4.976,3.359
							c-0.002,0.187-0.8,0.395-2.082,0.134c-1.26-0.247-2.993-1.071-4.191-2.644c-1.194-1.575-1.449-3.368-1.276-4.552
							C292.487,137.238,292.966,136.61,293.156,136.671z"/>
					</g>
					<g>
						<path style="fill:#263238;" d="M322.501,109.552c-0.586,0.535-2.486-0.353-4.865-0.7c-2.368-0.423-4.456-0.18-4.837-0.872
							c-0.163-0.333,0.235-0.895,1.193-1.349c0.945-0.453,2.46-0.725,4.092-0.462c1.631,0.266,2.978,1,3.724,1.728
							C322.57,108.63,322.764,109.287,322.501,109.552z"/>
					</g>
					<g>
						<path style="fill:#263238;" d="M286.917,122.041c-0.294,1.282,0.549,2.588,1.882,2.92c1.33,0.331,2.649-0.436,2.944-1.718
							c0.294-1.282-0.549-2.59-1.879-2.92C288.53,119.99,287.211,120.759,286.917,122.041z"/>
					</g>
					<g>
						<path style="fill:#263238;" d="M286.311,111.695c0.242,0.377,2.357-0.637,4.986-0.124c2.633,0.475,4.303,2.2,4.65,1.932
							c0.168-0.116-0.031-0.75-0.753-1.524c-0.71-0.768-2.008-1.632-3.647-1.941c-1.64-0.306-3.135,0.032-4.046,0.496
							C286.575,111,286.19,111.523,286.311,111.695z"/>
					</g>
					<g>
						<path style="fill:#263238;" d="M289.368,103.53c0.403,0.697,2.552,0.468,4.997,0.908c2.459,0.364,4.429,1.269,5.025,0.735
							c0.267-0.263,0.056-0.924-0.737-1.663c-0.781-0.735-2.18-1.482-3.866-1.759c-1.686-0.275-3.243-0.014-4.209,0.435
							C289.597,102.633,289.196,103.195,289.368,103.53z"/>
					</g>
					<g>
						<path style="fill:#FFBF9D;" d="M266.079,123.487c0.323-1.409-0.536-5.105-1.877-5.645c-3.579-1.439-10.342-2.691-12.588,6.726
							c-3.07,12.872,10.487,13.299,10.598,12.936C262.298,137.219,264.965,128.351,266.079,123.487z"/>
					</g>
					<g>
						<path style="fill:#FF9A6C;" d="M259.782,131.954c-0.047-0.055-0.262,0.104-0.682,0.187c-0.41,0.08-1.074,0.046-1.685-0.365
							c-1.241-0.823-1.871-3.255-1.38-5.59c0.246-1.18,0.758-2.236,1.393-3.062c0.618-0.848,1.384-1.36,2.098-1.318
							c0.719,0.005,1.105,0.53,1.177,0.929c0.087,0.402-0.057,0.639,0.006,0.677c0.028,0.041,0.328-0.149,0.351-0.705
							c0.008-0.269-0.07-0.609-0.314-0.928c-0.249-0.324-0.672-0.561-1.162-0.623c-1.009-0.168-2.12,0.532-2.819,1.437
							c-0.753,0.897-1.356,2.078-1.633,3.402c-0.536,2.614,0.212,5.357,1.945,6.339c0.849,0.451,1.67,0.359,2.132,0.148
							C259.685,132.26,259.821,131.988,259.782,131.954z"/>
					</g>
					<g>
						<path style="fill:#263238;" d="M263.665,117.787l2.708,4.006c16.66-11.174,50.529-40.521,48.616-38.754
							c0,0-9.078-5.728-20.009-5.772c-10.931-0.044-31.992,1.757-33.868,14.331C259.237,104.171,263.665,117.787,263.665,117.787z"
							/>
					</g>
				</g>
			</g>
			<g>
				<g>
					<g>
						<g>
							<g>
								<g>
									<g>
										<g>
											<g>
												<polygon style="fill:#FFBF9D;" points="294.303,179.145 256.907,165.576 246.871,165.576 271.778,193.098 
													282.338,202.33 295.176,201.632 300.707,195.44 												"/>
											</g>
										</g>
									</g>
								</g>
							</g>
						</g>
					</g>
					<g>
						<g>
							<path style="fill:#455A64;" d="M203.882,284.829l1.249,28.671c16.977,12.507,48.122,21.068,76.31,20.463
								c1.703-0.037,4.171-25.141,12.477-43.046l11.125-15.22c4.453-6.093,7.949-12.85,10.155-20.067
								c1.452-4.75,2.213-8.427,2.213-8.427s17.642-1.409,23.502-9.331c0,0-7.441-25.474-9.185-31.254
								c-2.971-9.851-16.055-17.3-16.055-17.3l-21.689-10.958c0,0-1.61,8.213-15.609,5.594
								c-17.803-3.33-22.642-18.996-22.642-18.996s-33.078-0.21-39.182,0.758L203.882,284.829z"/>
						</g>
					</g>
				</g>
				<g>
					<g>
						<g>
							<g>
								<g>
									<g>
										<path style="fill:#263238;" d="M315.351,206.833c-0.138,0.038,0.483,2.475,1.218,6.457c0.739,3.98,1.501,9.53,1.702,15.7
											c0.188,6.172-0.223,11.759-0.709,15.778c-0.483,4.021-0.949,6.491-0.809,6.521c0.059,0.013,0.236-0.592,0.506-1.699
											c0.278-1.105,0.598-2.724,0.919-4.736c0.648-4.023,1.163-9.66,0.972-15.891c-0.203-6.229-1.072-11.822-1.972-15.796
											c-0.447-1.988-0.868-3.583-1.216-4.669C315.624,207.409,315.41,206.817,315.351,206.833z"/>
									</g>
								</g>
							</g>
						</g>
					</g>
				</g>
				<g>
					<g>
						<g>
							<g>
								<g>
									<g>
										<path style="fill:#263238;" d="M257,267.264c0.011,0.06,0.558-0.004,1.547-0.174c0.497-0.075,1.1-0.193,1.781-0.405
											c0.682-0.203,1.479-0.387,2.307-0.739c1.696-0.601,3.626-1.557,5.646-2.819c1.99-1.306,4.052-2.945,5.957-4.933
											c1.879-2.014,3.401-4.164,4.594-6.224c1.148-2.088,1.995-4.068,2.5-5.795c0.306-0.846,0.445-1.652,0.609-2.345
											c0.174-0.691,0.258-1.3,0.305-1.8c0.114-0.996,0.147-1.546,0.087-1.554c-0.173-0.027-0.419,2.178-1.592,5.502
											c-0.569,1.666-1.456,3.573-2.612,5.586c-1.202,1.987-2.702,4.064-4.532,6.025c-1.856,1.935-3.846,3.548-5.762,4.859
											c-1.946,1.266-3.799,2.258-5.431,2.919C259.151,266.724,256.964,267.094,257,267.264z"/>
									</g>
								</g>
							</g>
						</g>
					</g>
				</g>
				<g>
					<polygon style="fill:#455A64;" points="229.943,166.319 216.553,165.715 179.788,175.698 187.804,202.33 219.762,208.638 					
						"/>
				</g>
				<g>
					<g>
						<path style="fill:#263238;" d="M213.743,183.917c0.144-0.005,0.468,5.936,0.724,13.268c0.256,7.335,0.347,13.283,0.203,13.288
							c-0.144,0.005-0.468-5.935-0.724-13.27C213.691,189.871,213.6,183.922,213.743,183.917z"/>
					</g>
				</g>
			</g>
		</g>
		<g>
			<g>
				<g>
					<rect x="192.579" y="223.691" style="fill:#FFFFFF;" width="359.918" height="217.859"/>
				</g>
				<g>
					<g>
						<path style="fill:#263238;" d="M552.497,441.55c-0.001-1.642-0.079-84.423-0.203-217.859l0.203,0.203
							c-97.306,0.016-223.047,0.036-359.89,0.057h-0.028l0.26-0.26c-0.007,77.19-0.013,150.84-0.019,217.859l-0.241-0.241
							C403.797,441.45,550.316,441.548,552.497,441.55c-2.179,0.002-148.7,0.1-359.918,0.241l-0.241,0v-0.241
							c-0.006-67.019-0.012-140.669-0.019-217.859v-0.26h0.26h0.028c136.843,0.022,262.584,0.042,359.89,0.057l0.203,0l0,0.203
							C552.576,357.128,552.498,439.909,552.497,441.55z"/>
					</g>
				</g>
			</g>
			<g>
				<g>
					<g>
						<path style="fill:#E0E0E0;" d="M311.343,256.914h-74.141c-1.158,0-2.098-0.939-2.098-2.098v-1.623
							c0-1.159,0.939-2.098,2.098-2.098h74.141c1.159,0,2.098,0.939,2.098,2.098v1.623
							C313.441,255.975,312.502,256.914,311.343,256.914z"/>
					</g>
					<g>
						<path style="fill:#E0E0E0;" d="M311.343,279.21h-74.141c-1.158,0-2.098-0.939-2.098-2.098v-1.623
							c0-1.159,0.939-2.098,2.098-2.098h74.141c1.159,0,2.098,0.939,2.098,2.098v1.623
							C313.441,278.271,312.502,279.21,311.343,279.21z"/>
					</g>
					<g>
						<path style="fill:#E0E0E0;" d="M264.827,267.664h-27.625c-1.158,0-2.098-0.939-2.098-2.098v-1.624
							c0-1.159,0.939-2.098,2.098-2.098h27.625c1.159,0,2.098,0.939,2.098,2.098v1.624
							C266.924,266.725,265.985,267.664,264.827,267.664z"/>
					</g>
					<g>
						<path style="fill:#E0E0E0;" d="M311.343,267.664h-37.521c-1.158,0-2.098-0.939-2.098-2.098v-1.624
							c0-1.159,0.939-2.098,2.098-2.098h37.521c1.159,0,2.098,0.939,2.098,2.098v1.624
							C313.441,266.725,312.502,267.664,311.343,267.664z"/>
					</g>
				</g>
			</g>
			<g style="opacity:0.3;">
				<g>
					<path d="M396.234,294.066H286.696c-3.341,0-6.05-2.708-6.05-6.05v-31.482c0-3.341,2.708-6.05,6.05-6.05h109.538
						c3.341,0,6.05,2.709,6.05,6.05v31.482C402.283,291.358,399.575,294.066,396.234,294.066z"/>
				</g>
			</g>
			<g>
				<g>
					<g>
						<g>
							<path style="fill:#EBEBEB;" d="M392.204,290.036H282.666c-3.341,0-6.05-2.708-6.05-6.05v-31.482
								c0-3.341,2.708-6.05,6.05-6.05h109.538c3.341,0,6.05,2.709,6.05,6.05v31.482
								C398.253,287.328,395.545,290.036,392.204,290.036z"/>
						</g>
					</g>
					<g>
						<g>
							<g>
								<path style="fill:#263238;" d="M392.204,290.037c-0.001-0.022,0.282-0.018,0.818-0.099c0.533-0.078,1.34-0.267,2.239-0.822
									c0.895-0.536,1.884-1.49,2.456-2.919c0.623-1.427,0.35-3.268,0.396-5.285c-0.017-4.058-0.038-9.01-0.061-14.754
									c-0.009-2.877-0.018-5.952-0.028-9.212c-0.017-1.62,0.02-3.332-0.042-5.005c-0.152-1.649-1.085-3.246-2.52-4.226
									c-0.718-0.485-1.556-0.807-2.433-0.932c-0.862-0.111-1.831-0.044-2.77-0.06c-1.895,0.004-3.831,0.007-5.806,0.011
									c-3.952,0.007-8.063,0.014-12.319,0.021c-8.514,0.01-17.61,0.021-27.18,0.033c-19.146,0.009-40.19,0.018-62.28,0.028
									c-1.301,0.009-2.588,0.453-3.591,1.273c-0.999,0.819-1.712,1.973-1.979,3.228c-0.225,1.229-0.087,2.657-0.127,3.994
									c0,1.355-0.001,2.705-0.001,4.05c-0.002,5.38-0.004,10.682-0.005,15.891c-0.001,2.604-0.003,5.186-0.004,7.743
									c-0.042,1.306,0.037,2.471,0.612,3.557c0.532,1.069,1.412,1.949,2.459,2.495c1.07,0.572,2.21,0.692,3.469,0.648
									c1.239,0.001,2.472,0.002,3.697,0.003c2.451,0.002,4.874,0.004,7.267,0.006c19.141,0.029,36.379,0.055,50.866,0.077
									c14.459,0.048,26.169,0.088,34.292,0.115c4.027,0.029,7.164,0.052,9.323,0.068c1.047,0.015,1.851,0.027,2.425,0.036
									C391.924,290.012,392.204,290.037,392.204,290.037s-0.28,0.025-0.826,0.037c-0.573,0.009-1.378,0.02-2.425,0.036
									c-2.159,0.016-5.296,0.039-9.323,0.068c-8.124,0.027-19.833,0.066-34.292,0.115c-14.487,0.022-31.725,0.048-50.866,0.077
									c-2.393,0.002-4.816,0.004-7.267,0.006c-1.225,0.001-2.458,0.002-3.697,0.003c-1.207,0.053-2.631-0.08-3.787-0.72
									c-1.175-0.611-2.162-1.594-2.761-2.794c-0.648-1.171-0.738-2.638-0.692-3.87c-0.001-2.557-0.003-5.138-0.004-7.743
									c-0.002-5.209-0.004-10.511-0.005-15.891c0-1.345-0.001-2.695-0.001-4.05l0-2.035c-0.002-0.662-0.011-1.399,0.142-2.108
									c0.301-1.417,1.104-2.717,2.23-3.639c1.128-0.923,2.585-1.427,4.046-1.435c22.09,0.01,43.134,0.02,62.28,0.028
									c9.57,0.012,18.666,0.023,27.18,0.033c4.256,0.007,8.366,0.014,12.319,0.021c1.975,0.004,3.911,0.008,5.806,0.011
									c0.953,0.022,1.866-0.048,2.844,0.077c0.956,0.139,1.868,0.495,2.647,1.027c1.557,1.071,2.56,2.813,2.716,4.601
									c0.057,1.767,0.008,3.411,0.018,5.052c-0.01,3.26-0.019,6.335-0.028,9.212c-0.024,5.745-0.044,10.696-0.061,14.754
									c-0.069,1.998,0.191,3.871-0.478,5.365c-0.614,1.473-1.652,2.435-2.58,2.964c-0.934,0.547-1.761,0.715-2.304,0.77
									C392.485,290.068,392.204,290.037,392.204,290.037z"/>
							</g>
						</g>
					</g>
				</g>
				<g>
					<g>
						<path style="fill:#FF725E;" d="M311.8,287.408h-26.955c-2.876,0-5.208-2.332-5.208-5.208v-26.955
							c0-2.876,2.332-5.208,5.208-5.208H311.8c2.876,0,5.208,2.332,5.208,5.208V282.2
							C317.008,285.077,314.676,287.408,311.8,287.408z"/>
					</g>
				</g>
				<g>
					<g>
						<path style="fill:#FF725E;" d="M351.114,287.408h-27.696c-2.672,0-4.837-2.166-4.837-4.837v-27.697
							c0-2.672,2.166-4.837,4.837-4.837h27.696c2.672,0,4.837,2.166,4.837,4.837v27.697
							C355.952,285.242,353.786,287.408,351.114,287.408z"/>
					</g>
				</g>
				<g style="opacity:0.5;">
					<g>
						<path style="fill:#FFFFFF;" d="M351.114,287.408h-27.696c-2.672,0-4.837-2.166-4.837-4.837v-27.697
							c0-2.672,2.166-4.837,4.837-4.837h27.696c2.672,0,4.837,2.166,4.837,4.837v27.697
							C355.952,285.242,353.786,287.408,351.114,287.408z"/>
					</g>
				</g>
				<g>
					<g>
						<path style="fill:#455A64;" d="M390.34,287.408h-27.87c-2.624,0-4.751-2.127-4.751-4.751v-27.87
							c0-2.624,2.127-4.751,4.751-4.751h27.87c2.624,0,4.751,2.127,4.751,4.751v27.87
							C395.091,285.281,392.964,287.408,390.34,287.408z"/>
					</g>
				</g>
			</g>
			<g>
				<g>
					<path style="fill:#FF725E;" d="M282.705,343.872c1.753,2.296,2.631,5.121,2.631,8.474c0,4.747-1.845,8.396-5.533,10.95
						c-3.689,2.554-9.067,3.83-16.135,3.83h-28.013v-54.169h26.465c6.603,0,11.671,1.266,15.206,3.792
						c3.533,2.528,5.301,5.959,5.301,10.292c0,2.631-0.632,4.98-1.896,7.042c-1.265,2.064-3.031,3.689-5.301,4.875
						C278.526,339.939,280.951,341.578,282.705,343.872z M248.114,322.399v12.768h12.459c3.095,0,5.442-0.542,7.042-1.625
						c1.598-1.084,2.399-2.683,2.399-4.798c0-2.115-0.801-3.701-2.399-4.76c-1.6-1.057-3.947-1.586-7.042-1.586H248.114z
						 M270.208,356.061c1.676-1.084,2.515-2.76,2.515-5.03c0-4.488-3.328-6.732-9.983-6.732h-14.626v13.388h14.626
						C266.041,357.686,268.53,357.144,270.208,356.061z"/>
					<path style="fill:#FF725E;" d="M329.367,367.126l-10.447-15.09h-0.619H307.39v15.09h-12.536v-54.169h23.447
						c4.798,0,8.963,0.801,12.498,2.4c3.533,1.6,6.254,3.869,8.163,6.809c1.908,2.941,2.863,6.423,2.863,10.447
						c0,4.023-0.967,7.494-2.902,10.408c-1.935,2.915-4.682,5.146-8.241,6.693l12.149,17.411H329.367z M326.194,325.61
						c-1.961-1.625-4.824-2.438-8.589-2.438H307.39v18.882h10.215c3.765,0,6.628-0.824,8.589-2.476c1.96-1.65,2.94-3.972,2.94-6.964
						C329.135,329.57,328.154,327.235,326.194,325.61z"/>
					<path style="fill:#FF725E;" d="M387.404,355.519h-25.15l-4.797,11.607h-12.846l24.143-54.169h12.381l24.222,54.169h-13.155
						L387.404,355.519z M383.458,346l-8.59-20.738L366.278,346H383.458z"/>
					<path style="fill:#FF725E;" d="M460.686,312.957v54.169h-10.292l-27.007-32.888v32.888h-12.382v-54.169h10.369l26.93,32.889
						v-32.889H460.686z"/>
					<path style="fill:#FF725E;" d="M473.531,312.957h24.608c5.881,0,11.077,1.122,15.593,3.366
						c4.514,2.244,8.02,5.405,10.523,9.479c2.502,4.076,3.753,8.822,3.753,14.239s-1.251,10.164-3.753,14.238
						c-2.503,4.076-6.01,7.235-10.523,9.479c-4.516,2.244-9.712,3.366-15.593,3.366h-24.608V312.957z M497.52,356.834
						c5.416,0,9.736-1.509,12.961-4.527c3.224-3.018,4.837-7.105,4.837-12.265c0-5.158-1.613-9.248-4.837-12.266
						c-3.225-3.018-7.545-4.527-12.961-4.527h-11.453v33.585H497.52z"/>
				</g>
				<g>
					<g>
						<path style="fill:#263238;" d="M530.198,386.263c-0.002-1.22-0.06-31.104-0.162-84.269l0.161,0.161
							c-69.128,0.023-177.967,0.059-300.1,0.099h-0.018l0.26-0.26c-0.002,29.039-0.004,57.325-0.006,84.269l-0.254-0.254
							c85.913,0.047,160.909,0.087,214.434,0.116C498.034,386.211,528.957,386.261,530.198,386.263
							c-1.238,0.002-32.097,0.052-85.508,0.138c-53.569,0.029-128.627,0.069-214.611,0.116l-0.254,0v-0.254
							c-0.002-26.944-0.004-55.23-0.006-84.269v-0.26h0.26h0.018c122.133,0.04,230.972,0.076,300.1,0.099h0.162l0,0.162
							C530.258,355.159,530.2,385.044,530.198,386.263z"/>
					</g>
				</g>
				<g>
					<rect x="227.039" y="299.316" style="fill:#263238;" width="5.061" height="5.061"/>
				</g>
				<g>
					<rect x="528.315" y="343.433" style="fill:#263238;" width="5.061" height="5.061"/>
				</g>
				<g>
					<rect x="227.039" y="343.433" style="fill:#263238;" width="5.061" height="5.061"/>
				</g>
				<g>
					<rect x="527.667" y="299.316" style="fill:#263238;" width="5.061" height="5.061"/>
				</g>
				<g>
					<rect x="227.039" y="383.058" style="fill:#263238;" width="5.061" height="5.061"/>
				</g>
				<g>
					<rect x="527.667" y="383.058" style="fill:#263238;" width="5.061" height="5.061"/>
				</g>
				<g>
					<g>
						<path style="fill:#263238;" d="M530.181,367.698c0,0.144-66.929,0.26-149.47,0.26c-82.57,0-149.485-0.117-149.485-0.26
							s66.914-0.26,149.485-0.26C463.252,367.437,530.181,367.554,530.181,367.698z"/>
					</g>
				</g>
			</g>
			<g>
				<g>
					<path style="fill:#E0E0E0;" d="M513.598,403.219H264.91c-1.159,0-2.098-0.939-2.098-2.098v-1.624
						c0-1.159,0.939-2.098,2.098-2.098h248.688c1.159,0,2.098,0.939,2.098,2.098v1.624
						C515.696,402.28,514.757,403.219,513.598,403.219z"/>
				</g>
				<g>
					<path style="fill:#E0E0E0;" d="M292.535,413.968H264.91c-1.159,0-2.098-0.939-2.098-2.098v-1.624
						c0-1.158,0.939-2.098,2.098-2.098h27.625c1.159,0,2.098,0.939,2.098,2.098v1.624
						C294.633,413.029,293.694,413.968,292.535,413.968z"/>
				</g>
				<g>
					<path style="fill:#E0E0E0;" d="M489.782,413.968H301.531c-1.159,0-2.098-0.939-2.098-2.098v-1.624
						c0-1.158,0.939-2.098,2.098-2.098h188.251c1.159,0,2.098,0.939,2.098,2.098v1.624
						C491.88,413.029,490.941,413.968,489.782,413.968z"/>
				</g>
			</g>
			<g>
				<g>
					<g>
						<path style="fill:#E0E0E0;" d="M509.582,256.914h-83.251c-1.158,0-2.098-0.939-2.098-2.098v-1.623
							c0-1.159,0.939-2.098,2.098-2.098h83.251c1.159,0,2.098,0.939,2.098,2.098v1.623
							C511.68,255.975,510.74,256.914,509.582,256.914z"/>
					</g>
					<g>
						<path style="fill:#E0E0E0;" d="M509.582,279.21h-83.251c-1.158,0-2.098-0.939-2.098-2.098v-1.623
							c0-1.159,0.939-2.098,2.098-2.098h83.251c1.159,0,2.098,0.939,2.098,2.098v1.623C511.68,278.271,510.74,279.21,509.582,279.21
							z"/>
					</g>
					<g>
						<path style="fill:#E0E0E0;" d="M457.656,267.664h-31.325c-1.158,0-2.098-0.939-2.098-2.098v-1.624
							c0-1.159,0.939-2.098,2.098-2.098h31.325c1.158,0,2.098,0.939,2.098,2.098v1.624
							C459.754,266.725,458.815,267.664,457.656,267.664z"/>
					</g>
					<g>
						<path style="fill:#E0E0E0;" d="M509.582,267.664H467.21c-1.159,0-2.098-0.939-2.098-2.098v-1.624
							c0-1.159,0.939-2.098,2.098-2.098h42.372c1.159,0,2.098,0.939,2.098,2.098v1.624
							C511.68,266.725,510.74,267.664,509.582,267.664z"/>
					</g>
				</g>
				<g>
					<g>
						<path style="fill:#E0E0E0;" d="M470.6,296.225c-0.144,0-0.26-2.863-0.26-6.395c0-3.533,0.117-6.395,0.26-6.395
							s0.26,2.863,0.26,6.395C470.86,293.361,470.744,296.225,470.6,296.225z"/>
					</g>
				</g>
				<g>
					<path style="fill:#E0E0E0;" d="M472.387,295.914c0,0.918-0.8,1.661-1.787,1.661s-1.787-0.744-1.787-1.661
						c0-0.918,0.8-1.662,1.787-1.662S472.387,294.996,472.387,295.914z"/>
				</g>
			</g>
			<g>
				<path style="fill:#E0E0E0;" d="M245.92,397.005l1.617,3.277c0.273,0.553,0.801,0.937,1.412,1.026l3.617,0.526
					c1.538,0.223,2.152,2.113,1.039,3.198l-2.617,2.551c-0.442,0.431-0.643,1.051-0.539,1.659l0.618,3.602
					c0.263,1.532-1.345,2.7-2.72,1.977l-3.235-1.701c-0.546-0.287-1.199-0.287-1.745,0l-3.235,1.701
					c-1.376,0.723-2.983-0.445-2.721-1.977l0.618-3.602c0.104-0.608-0.097-1.229-0.539-1.659l-2.617-2.551
					c-1.113-1.085-0.499-2.975,1.039-3.198l3.617-0.526c0.611-0.089,1.139-0.472,1.412-1.026l1.618-3.277
					C243.245,395.612,245.233,395.612,245.92,397.005z"/>
			</g>
		</g>
		<g>
			<g style="opacity:0.3;">
				<path d="M87.097,403.384c0,0,11.495,29.875,29.743,39.755c3.451,1.869,14.017,2.581,17.106,2.165
					c23.409-3.151,51.225-73.188,51.225-73.188s-51.262,42.671-62.254,33.281c-4.902-4.187-3.403-18.547-3.564-18.464
					C116.779,388.246,87.097,403.384,87.097,403.384z"/>
			</g>
			<g>
				<g>
					<g>
						<path style="fill:#FFBF9D;" d="M124.692,403.542l54.297-44.077l11.105,16.134c0,0-37.624,47.738-46.122,57.075
							c-8.498,9.337-21.738,13.815-33.363,4.829c-9.369-7.243-31.386-48.708-31.386-48.708s33.35-19.629,31.536-19.626
							C110.479,369.17,124.692,403.542,124.692,403.542z"/>
					</g>
					<g>
						<g>
							<path style="fill:#FF9A6C;" d="M123.398,413.615c0.028,0.002,0.049,0.093,0.061,0.284l-0.16-0.011
								c-0.062-0.671-0.003-2.683,0.297-5.036c0.365-2.923,0.96-5.24,1.096-5.212c0.146,0.029-0.217,2.376-0.58,5.277
								c-0.298,2.336-0.507,4.323-0.654,4.981l-0.16-0.01C123.337,413.7,123.37,413.613,123.398,413.615z"/>
						</g>
					</g>
				</g>
				<g>
					<g>
						<path style="fill:#FFBF9D;" d="M206.915,325.288c-1.975,1.154-9.648,7.415-10.196,7.446c-0.549,0.031,4.613-7.071,5.746-10.08
							c0.906-2.406-0.048-3.382-2.316-3.022c-1.952,0.31-8.76,9.542-8.76,9.542l-2.112,2.424l-4.713,5.394
							c0,0-2.696,10.79-3.819,14.58c-1.123,3.789-3.717,19.235-3.717,19.235l13.903,4.456c2.874-4.262,7.432-3.799,8.902-13.47
							c0.759-4.991,2.504-15.975,2.504-15.975c4.822-8.934,8.285-9.613,9.824-12.157c1.991-3.292-2.086-3.352-2.086-3.352
							s1.134-1.567,1.422-3.245C211.979,324.242,208.89,324.134,206.915,325.288z"/>
					</g>
					<g>
						<g>
							<path style="fill:#FF9A6C;" d="M185.077,343.487c-0.071-0.013,0.042-0.895,0.283-2.312c0.139-0.771,0.289-1.6,0.449-2.484
								c0.158-0.965,0.614-1.965,1.121-2.934c1.041-1.95,2.157-3.598,2.991-4.77c0.837-1.17,1.409-1.854,1.467-1.813
								c0.141,0.093-1.913,3.007-3.996,6.824c-0.504,0.967-0.938,1.882-1.114,2.793c-0.198,0.874-0.384,1.694-0.557,2.455
								C185.389,342.642,185.148,343.5,185.077,343.487z"/>
						</g>
					</g>
					<g>
						<g>
							<path style="fill:#FF9A6C;" d="M197.713,341.462c-0.053-0.021,0.261-0.937,1.1-2.242c0.828-1.308,2.228-2.956,4.024-4.485
								c1.788-1.543,3.61-2.673,4.96-3.411c1.358-0.73,2.249-1.072,2.276-1.015c0.085,0.153-3.365,1.796-6.897,4.821
								c-1.764,1.502-3.172,3.07-4.06,4.298C198.219,340.652,197.792,341.5,197.713,341.462z"/>
						</g>
					</g>
					<g>
						<g>
							<path style="fill:#FF9A6C;" d="M196.718,332.734c0.097,0.095-1.226,1.672-2.323,3.961c-1.143,2.263-1.673,4.258-1.814,4.228
								c-0.143-0.018,0.175-2.136,1.348-4.46C195.055,334.113,196.618,332.616,196.718,332.734z"/>
						</g>
					</g>
				</g>
			</g>
			<g>
				<path style="fill:#FF725E;" d="M81.422,333.1c-11.016,5.271-16.296,16.182-12.737,33.259
					c2.619,12.566,10.985,41.364,10.985,41.364l42.372-17.635c0,0-5.511-15.296-13.821-29.377
					C98.728,344.624,86.601,330.622,81.422,333.1z"/>
			</g>
			<g>
				<g>
					<path style="fill:#263238;" d="M79.671,407.724c-0.007-0.017,0.252-0.143,0.751-0.369c0.545-0.24,1.275-0.561,2.193-0.966
						c1.961-0.838,4.717-2.015,8.103-3.462c6.902-2.894,16.36-6.859,26.808-11.24c1.513-0.629,3.006-1.25,4.418-1.837l-0.126,0.365
						c-2.497-4.487-4.531-8.887-6.27-12.893c-1.739-4.008-3.243-7.605-4.588-10.572c-1.337-2.971-2.493-5.32-3.309-6.93
						c-0.395-0.77-0.709-1.384-0.945-1.846c-0.213-0.423-0.317-0.648-0.302-0.656c0.015-0.008,0.147,0.201,0.388,0.609
						c0.238,0.41,0.595,1.012,1.027,1.805c0.868,1.585,2.075,3.916,3.457,6.873c2.83,5.881,6.014,14.424,10.995,23.358l0.141,0.254
						l-0.268,0.112c-1.412,0.588-2.904,1.21-4.417,1.84c-10.471,4.326-19.949,8.241-26.866,11.099
						c-3.412,1.383-6.19,2.508-8.166,3.309c-0.934,0.367-1.677,0.658-2.231,0.875C79.95,407.646,79.678,407.741,79.671,407.724z"/>
				</g>
			</g>
		</g>
		<g>
			<g>
				<g>
					<g>
						<path style="fill:#FFBF9D;" d="M250.895,214.132c3.097,1.007,9.257,3.235,13.647,9.857c4.697,7.085,7.703,10.498,12.81,13.742
							c5.107,3.244,11.988,5.15,10.52,8.076c-1.469,2.926-14.098-0.769-14.098-0.769s7.146,23.216,4.27,24.837
							c-0.967,0.545-3.616,0.099-4.571-2.472c-2.12-5.704-4.977-13.555-4.977-13.555s-5.117,13.669-8.939,15.159
							c-3.821,1.49-5.325-1.614-5.325-1.614s-2.504,1.715-4.997-0.329c-1.566-1.284-1.089-4.033-1.089-4.033
							s-3.38-0.635-2.791-4.824c0.556-3.957,3.766-15.665,3.766-15.665s-5.818-9.02-6.362-8.778
							c-0.544,0.241-12.209-1.088-12.209-1.088l6.572-21.501L250.895,214.132z"/>
					</g>
				</g>
				<g>
					<path style="fill:#FFBF9D;" d="M246.271,234.384l5.553-20.05l-64.208-13.8l-7.408-23.233c0,0-26.998,9.404-34.572,17.309
						c-10.992,11.473-2.592,25.787,4.675,28.039C157.578,224.901,246.271,234.384,246.271,234.384z"/>
				</g>
			</g>
			<g>
				<g>
					<path style="fill:#FF9A6C;" d="M162.442,196.445c0.001-0.036,0.369-0.061,1.035-0.074c0.666-0.016,1.631-0.005,2.821,0.039
						c2.381,0.085,5.67,0.342,9.267,0.903c3.597,0.565,6.808,1.343,9.088,2.041c1.141,0.346,2.055,0.656,2.676,0.9
						c0.622,0.24,0.96,0.388,0.948,0.422c-0.027,0.078-1.429-0.368-3.724-0.967c-2.294-0.604-5.493-1.319-9.069-1.881
						c-3.575-0.558-6.84-0.871-9.207-1.05C163.911,196.597,162.441,196.524,162.442,196.445z"/>
				</g>
			</g>
			<g>
				<g>
					<path style="fill:#FF9A6C;" d="M263.24,249.375c0.063,0.02-0.218,1.121-0.832,2.85c-0.611,1.729-1.575,4.077-2.822,6.583
						c-1.248,2.507-2.54,4.692-3.555,6.219c-1.012,1.53-1.726,2.414-1.78,2.376c-0.064-0.045,0.541-1,1.467-2.571
						c0.93-1.569,2.161-3.766,3.401-6.256c1.239-2.49,2.249-4.797,2.945-6.483C262.763,250.407,263.166,249.35,263.24,249.375z"/>
				</g>
			</g>
			<g>
				<g>
					<path style="fill:#FF9A6C;" d="M255.273,246.15c0.063,0.012-0.062,1.057-0.452,2.713c-0.387,1.654-1.072,3.911-2.092,6.301
						c-1.024,2.389-2.182,4.443-3.11,5.866c-0.928,1.425-1.597,2.238-1.649,2.201c-0.065-0.046,0.495-0.93,1.335-2.392
						c0.841-1.461,1.934-3.518,2.946-5.88c1.008-2.363,1.739-4.574,2.215-6.191C254.942,247.151,255.195,246.134,255.273,246.15z"/>
				</g>
			</g>
			<g>
				<g>
					<path style="fill:#FF9A6C;" d="M271.99,238.394c0.13-0.051,0.886,1.59,1.469,3.733c0.589,2.142,0.772,3.939,0.635,3.961
						c-0.146,0.025-0.556-1.71-1.137-3.824C272.381,240.15,271.851,238.447,271.99,238.394z"/>
				</g>
			</g>
		</g>
		<g>
			<g>
				<g>
					<g>
						<g>
							<g>
								<g>
									<g>
										<g>
											<g>
												<g>
													<path style="fill:#263238;" d="M88.976,259.155c-3.258-4.218-2.807-10.851,0.991-14.589
														c-2.089-2.616-1.346-6.656,0.769-9.251c2.114-2.595,5.259-4.086,8.295-5.495c1.656-7.665,10.25-13.067,17.875-11.237
														c3.962-5.843,12.421-6.772,19.202-4.807c1.656,0.48,3.311,1.101,5.036,1.091c1.265-0.007,2.501-0.355,3.754-0.526
														c6.894-0.938,13.746,3.906,16.444,10.319c0.432,1.025,0.786,2.106,1.469,2.984c0.896,1.152,2.254,1.828,3.411,2.718
														c2.502,1.923,4.094,4.983,4.231,8.136c0.116,2.678-0.732,5.521,0.4,7.951c0.567,1.218,1.59,2.201,2.032,3.469
														c1.281,3.677-2.792,7.444-2.031,11.263c0.156,0.779,0.508,1.504,0.725,2.269c0.444,1.563,0.297,3.286-0.407,4.751
														c-0.543,1.13-1.419,2.166-1.491,3.418c-0.055,0.95,0.37,1.854,0.562,2.785c0.469,2.279-4.438,11.079-6.405,12.322
														l-58.877,0.616c-4.457-0.901-8.092-4.934-8.528-9.46c-0.072-0.753-0.085-1.57-0.552-2.165
														c-0.398-0.507-1.041-0.738-1.609-1.042c-3.794-2.03-4.259-7.234-3.867-11.519c0.055-0.6,0.116-1.215-0.036-1.798
														C90.147,260.512,89.511,259.849,88.976,259.155z"/>
												</g>
											</g>
										</g>
									</g>
								</g>
							</g>
						</g>
					</g>
				</g>
				<g>
					<g>
						<path style="fill:#263238;" d="M94.204,239.887c8.234-11.584,19.863-18.721,34.025-19.917
							c7.99-0.675,11.413,0.763,17.278,1.926c5.866,1.163,11.273,3.901,15.04,8.545c4.475,5.516,8.343,11.77,9.593,18.762
							c1.283,7.182,1.211,14.3,0.231,20.227c-1.19,7.198-5.317,18.36-9.192,24.542l-12.176,2.325
							c-10.176,1.04-20.495,2.076-30.591,0.424c-10.095-1.652-20.114-6.344-26.027-14.691
							C84.173,270.432,85.97,251.471,94.204,239.887z"/>
					</g>
					<g>
						<path style="fill:#FFBF9D;" d="M110.63,238.651l23.958-11.459l6.483,0.311c14.477-0.931,25.542,14.354,26.433,26.07
							c0.989,13.016,1.684,28.946,0.266,38.686c-2.851,19.584-19.215,22.309-19.215,22.309l0.451,11.598
							c-3.033,10.384-27.784,11.328-37.644,0.376l-6.792-80.839C104.453,242.135,107.086,239.072,110.63,238.651z"/>
					</g>
					<g>
						<path style="fill:#FF9A6C;" d="M138.511,289.706c0.065-1.026,0.569-1.964,1.249-2.631c1.359-1.334,3.458-1.597,5.075-0.636
							c1.616,0.96,2.648,3.085,2.495,5.135l0,0c-0.785,1.25-2.057,2.144-3.515,2.371c-0.227,0.035-0.456,0.059-0.686,0.069
							c-1.115,0.047-2.272-0.253-3.178-1.015C139.045,292.236,138.431,290.973,138.511,289.706z"/>
					</g>
					<g>
						<g>
							<g>
								<g>
									<path style="fill:#263238;" d="M163.426,271.367c0.064,1.324-1.004,2.469-2.384,2.56c-1.378,0.092-2.549-0.903-2.613-2.226
										c-0.064-1.323,1.004-2.47,2.381-2.562C162.191,269.047,163.362,270.045,163.426,271.367z"/>
								</g>
							</g>
						</g>
					</g>
					<g>
						<g>
							<g>
								<g>
									<g>
										<path style="fill:#263238;" d="M163.534,260.383c-0.307,0.331-2.224-1.049-4.921-1.008
											c-2.695,0.003-4.656,1.417-4.953,1.09c-0.146-0.144,0.164-0.738,1.017-1.377c0.84-0.636,2.28-1.262,3.96-1.277
											c1.68-0.012,3.102,0.588,3.922,1.211C163.397,259.647,163.685,260.234,163.534,260.383z"/>
									</g>
								</g>
							</g>
						</g>
					</g>
					<g>
						<g>
							<g>
								<g>
									<path style="fill:#263238;" d="M147.695,282.63c-0.014-0.153,1.658-0.464,4.37-0.847c0.688-0.08,1.338-0.225,1.448-0.697
										c0.156-0.5-0.142-1.238-0.486-2.035c-0.669-1.659-1.37-3.397-2.105-5.219c-2.924-7.43-5.052-13.544-4.752-13.658
										c0.301-0.116,2.916,5.814,5.84,13.244c0.704,1.833,1.378,3.579,2.019,5.25c0.271,0.78,0.73,1.662,0.392,2.699
										c-0.179,0.517-0.68,0.897-1.12,1.022c-0.44,0.141-0.827,0.153-1.168,0.178C149.404,282.749,147.708,282.783,147.695,282.63
										z"/>
								</g>
							</g>
						</g>
					</g>
					<g>
						<g>
							<g>
								<path style="fill:#FF9A6C;" d="M148.585,314.544c0,0-13.137,1.018-26.265-6.643c0,0,6.9,13.971,26.438,11.889
									L148.585,314.544z"/>
							</g>
						</g>
					</g>
					<g>
						<g>
							<g>
								<g>
									<path style="fill:#263238;" d="M139.782,284.599c0.438-0.031,0.482,2.896,3.015,4.942c2.528,2.053,5.645,1.683,5.673,2.092
										c0.043,0.183-0.688,0.578-2.004,0.631c-1.292,0.061-3.184-0.33-4.734-1.581c-1.546-1.254-2.225-2.946-2.34-4.146
										C139.264,285.314,139.581,284.584,139.782,284.599z"/>
								</g>
							</g>
						</g>
					</g>
					<g>
						<g>
							<g>
								<g>
									<g>
										<g>
											<path style="fill:#263238;" d="M161.98,251.034c-0.445,0.665-2.516,0.251-4.926,0.483
												c-2.417,0.154-4.402,0.893-4.94,0.307c-0.24-0.287,0.015-0.932,0.843-1.605c0.815-0.67,2.232-1.299,3.892-1.433
												c1.659-0.131,3.153,0.264,4.057,0.797C161.826,250.115,162.173,250.712,161.98,251.034z"/>
										</g>
									</g>
								</g>
							</g>
						</g>
					</g>
					<g>
						<g>
							<g>
								<g>
									<path style="fill:#263238;" d="M135.904,272.091c0.02,1.325,1.157,2.4,2.541,2.404c1.381,0.005,2.487-1.062,2.467-2.387
										c-0.02-1.325-1.159-2.401-2.539-2.406C136.99,269.698,135.884,270.767,135.904,272.091z"/>
								</g>
							</g>
						</g>
					</g>
					<g>
						<g>
							<g>
								<g>
									<g>
										<path style="fill:#263238;" d="M127.097,261.811c0.327,0.311,2.153-1.188,4.848-1.317c2.689-0.167,4.737,1.12,5.012,0.774
											c0.136-0.153-0.21-0.726-1.102-1.31c-0.879-0.581-2.355-1.115-4.033-1.024c-1.678,0.094-3.058,0.783-3.838,1.456
											C127.188,261.068,126.936,261.672,127.097,261.811z"/>
									</g>
								</g>
							</g>
						</g>
					</g>
					<g>
						<g>
							<g>
								<g>
									<g>
										<g>
											<path style="fill:#263238;" d="M128.128,253.092c0.561,0.585,2.608-0.154,5.106-0.311
												c2.492-0.234,4.637,0.178,5.091-0.486c0.198-0.322-0.166-0.917-1.12-1.45c-0.94-0.531-2.488-0.926-4.203-0.793
												c-1.715,0.135-3.175,0.764-4.012,1.435C128.137,252.16,127.879,252.805,128.128,253.092z"/>
										</g>
									</g>
								</g>
							</g>
						</g>
					</g>
				</g>
				<g>
					<g>
						<g>
							<g>
								<g>
									<g>
										<g>
											<g>
												<g>
													<path style="fill:#263238;" d="M171.696,255.824c-2.697-1.718-4.407-4.038-4.212-7.23
														c-1.802,0.52-3.608-1.811-4.643-3.375c-1.035-1.564-2.314-2.361-2.217-4.234c0.019-0.37,0.046-0.761-0.125-1.09
														c-0.267-0.517-0.904-0.69-1.458-0.868c-2.853-0.917-5.154-3.387-5.867-6.298c-2.887,1.234-6.083,1.734-9.209,1.44
														c-1.407,2.003-3.88,3.207-6.325,3.079c-2.444-0.127-4.779-1.582-5.971-3.72c-0.826,1.672-2.577,2.735-4.388,3.178
														c-1.812,0.443-3.706,0.35-5.568,0.255c0.774,3.612-1.6,7.618-5.14,8.673c-0.478,0.143-1.032,0.283-1.255,0.729
														c-0.233,0.464,0.014,1.01,0.195,1.497c1.145,3.08-0.923,6.932-4.123,7.678c2.181,1.72,1.921,5.655-0.468,7.074
														c-0.49,0.291-1.131,0.64-1.06,1.206c0.027,0.215,0.161,0.4,0.29,0.574c0.988,1.336,1.971,2.794,2.079,4.453
														c0.107,1.659-1.028,3.509-2.689,3.567c0.865,0.783,1.67,1.787,1.68,2.954c0.01,1.167-1.18,2.344-2.265,1.915
														c-0.461-0.182-7.132-1.553-7.423-1.955c-3.753-5.187,1.071-10.841,1.501-17.229c0.43-6.388-1.707-13.713,1.533-19.235
														c1.36-2.316,7.323-3.392,9.242-5.271c2.187-2.142,4.811-3.775,7.424-5.37c3.409-2.081,6.914-4.156,10.809-5.04
														c7.256-1.646,14.758,1.048,21.486,4.226c2.559,1.209,5.109,2.513,7.253,4.36c2.565,2.21,4.442,5.106,6.074,8.073
														c2.358,4.287,4.307,8.906,4.741,13.779"/>
												</g>
											</g>
										</g>
									</g>
								</g>
							</g>
						</g>
					</g>
					<g>
						<g>
							<g>
								<g>
									<g>
										<g>
											<g>
												<g>
													<g>
														<path style="fill:#455A64;" d="M172.883,249.92c0,0-0.13-0.555-0.712-1.445c-0.281-0.449-0.679-0.971-1.053-1.64
															c-0.366-0.669-0.657-1.519-0.734-2.513c-0.1-0.991-0.011-2.103,0.083-3.319c0.094-1.212,0.194-2.564-0.076-3.985
															c-0.257-1.415-0.818-2.885-1.733-4.24c-0.457-0.677-1.002-1.325-1.636-1.912c-0.63-0.594-1.369-1.094-2.108-1.592
															c-0.734-0.504-1.477-1.044-2.026-1.774c-0.551-0.73-0.889-1.627-1.253-2.535c-0.731-1.833-1.798-3.627-3.222-5.212
															c-1.415-1.584-3.136-3.02-5.171-4.038c-0.999-0.545-2.1-0.912-3.222-1.238c-1.14-0.255-2.318-0.455-3.524-0.424
															c-0.601-0.008-1.205,0.072-1.809,0.131c-0.601,0.089-1.194,0.211-1.788,0.312c-1.187,0.227-2.387,0.253-3.586-0.022
															c-1.2-0.245-2.374-0.687-3.613-1.004c-1.23-0.348-2.507-0.555-3.799-0.699c-1.294-0.142-2.611-0.141-3.933-0.064
															c-1.322,0.1-2.643,0.335-3.941,0.697c-2.572,0.765-5.077,2.189-6.787,4.41c-0.168,0.22-0.336,0.44-0.502,0.657
															l0.215-0.083c-4.053-0.964-8.296,0.101-11.571,2.253c-3.298,2.146-5.749,5.471-6.539,9.14l0.107-0.134
															c-1.628,0.757-3.237,1.518-4.722,2.451c-1.481,0.929-2.84,2.042-3.864,3.409c-1.014,1.372-1.633,2.987-1.779,4.62
															c-0.152,1.626,0.252,3.307,1.251,4.545l0.013-0.224c-1.929,1.908-2.914,4.454-3.137,6.868
															c-0.226,2.426,0.267,4.794,1.35,6.678c0.246,0.485,0.581,0.907,0.882,1.335c0.324,0.409,0.656,0.792,0.916,1.204
															c0.261,0.412,0.434,0.855,0.468,1.319c0.042,0.464-0.011,0.93-0.047,1.393c-0.154,1.851-0.126,3.569,0.108,5.095
															c0.236,1.523,0.668,2.858,1.294,3.885c0.612,1.037,1.382,1.747,2.072,2.192c0.69,0.462,1.301,0.643,1.64,0.894
															c0.351,0.231,0.474,0.42,0.486,0.408c0,0-0.108-0.201-0.457-0.451c-0.337-0.27-0.948-0.47-1.613-0.936
															c-0.67-0.452-1.412-1.159-2-2.183c-0.601-1.014-1.012-2.332-1.231-3.838c-0.216-1.509-0.231-3.21-0.065-5.046
															c0.039-0.458,0.099-0.937,0.057-1.435c-0.033-0.501-0.224-1-0.497-1.432c-0.272-0.436-0.608-0.828-0.924-1.232
															c-0.291-0.42-0.615-0.83-0.851-1.305c-1.045-1.839-1.514-4.151-1.283-6.515c0.228-2.354,1.199-4.824,3.068-6.659
															l0.108-0.106l-0.095-0.118c-0.933-1.165-1.312-2.749-1.164-4.306c0.143-1.561,0.744-3.119,1.721-4.432
															c0.989-1.314,2.315-2.399,3.772-3.308c1.461-0.913,3.057-1.666,4.684-2.419l0.087-0.04l0.02-0.094
															c0.771-3.556,3.16-6.794,6.381-8.887c3.199-2.099,7.335-3.129,11.258-2.194l0.128,0.031l0.087-0.114
															c0.161-0.21,0.323-0.422,0.485-0.634c1.649-2.143,4.072-3.525,6.583-4.274c1.268-0.354,2.561-0.585,3.858-0.685
															c1.297-0.076,2.591-0.079,3.864,0.06c1.27,0.141,2.527,0.342,3.737,0.683c1.216,0.309,2.4,0.753,3.636,1.004
															c0.617,0.128,1.246,0.208,1.877,0.208c0.631-0.001,1.25-0.086,1.852-0.19c0.603-0.104,1.193-0.226,1.779-0.314
															c0.588-0.058,1.173-0.137,1.757-0.13c1.171-0.033,2.319,0.16,3.431,0.405c1.094,0.315,2.171,0.67,3.15,1.201
															c1.994,0.99,3.687,2.394,5.081,3.944c1.404,1.552,2.456,3.306,3.183,5.106c0.367,0.9,0.715,1.824,1.303,2.598
															c0.589,0.775,1.364,1.326,2.104,1.83c0.749,0.5,1.469,0.981,2.085,1.556c0.621,0.569,1.157,1.197,1.608,1.856
															c0.903,1.319,1.462,2.754,1.724,4.137c0.275,1.387,0.189,2.715,0.106,3.93c-0.082,1.216-0.161,2.34-0.048,3.349
															c0.09,1.009,0.401,1.881,0.785,2.556c0.392,0.673,0.8,1.187,1.09,1.626c0.298,0.435,0.491,0.787,0.608,1.03
															C172.829,249.792,172.873,249.924,172.883,249.92z"/>
													</g>
												</g>
											</g>
										</g>
									</g>
								</g>
							</g>
						</g>
					</g>
					<g>
						<g>
							<g>
								<g>
									<g>
										<g>
											<g>
												<g>
													<g>
														<path style="fill:#455A64;" d="M123.224,215.676c0.02,0.03,0.356-0.201,1.01-0.517
															c0.653-0.31,1.646-0.696,2.931-0.835c1.275-0.144,2.856-0.027,4.407,0.671c1.54,0.693,3.036,1.952,3.991,3.661
															c0.274,0.491,0.509,1.013,0.657,1.523c0.142,0.507,0.16,1.046-0.107,1.413l-0.33,0.454l0.542-0.15
															c1.491-0.411,3.021-0.117,4.147,0.521c1.145,0.636,1.867,1.619,2.26,2.498c0.398,0.889,0.491,1.681,0.51,2.214
															c0.015,0.538-0.03,0.833,0.001,0.837c0.012,0.002,0.033-0.07,0.063-0.21c0.032-0.14,0.06-0.351,0.073-0.626
															c0.023-0.547-0.031-1.372-0.414-2.314c-0.377-0.93-1.114-1.994-2.322-2.695c-1.186-0.699-2.809-1.036-4.422-0.604
															l0.212,0.305c0.376-0.523,0.326-1.197,0.175-1.749c-0.163-0.566-0.402-1.094-0.692-1.615
															c-1.002-1.792-2.574-3.099-4.193-3.805c-1.633-0.712-3.282-0.8-4.593-0.614c-1.323,0.18-2.326,0.619-2.969,0.978
															c-0.322,0.182-0.562,0.339-0.715,0.46C123.293,215.598,123.216,215.665,123.224,215.676z"/>
													</g>
												</g>
											</g>
										</g>
									</g>
								</g>
							</g>
						</g>
					</g>
					<g>
						<g>
							<g>
								<g>
									<g>
										<g>
											<g>
												<g>
													<g>
														<path style="fill:#455A64;" d="M94.179,243.343c-0.013,0.003-0.003,0.087,0.031,0.247
															c0.046,0.155,0.121,0.389,0.295,0.651c0.327,0.528,1.056,1.172,2.153,1.451c1.103,0.295,2.471,0.081,3.836-0.392
															c0.685-0.24,1.395-0.48,2.124-0.822c0.708-0.342,1.481-0.836,1.864-1.677c0.029-0.074,0.058-0.147,0.085-0.215
															l-0.317,0.094c1.286,1.019,2.612,1.905,3.965,2.415c1.344,0.529,2.697,0.62,3.766,0.413
															c1.078-0.196,1.872-0.647,2.329-1.041c0.234-0.193,0.393-0.367,0.489-0.494c0.097-0.126,0.142-0.195,0.131-0.204
															c-0.028-0.025-0.24,0.232-0.715,0.574c-0.47,0.343-1.246,0.733-2.28,0.884c-1.03,0.161-2.3,0.048-3.586-0.479
															c-1.292-0.509-2.576-1.378-3.849-2.387l-0.213-0.169l-0.104,0.263c-0.023,0.057-0.047,0.118-0.071,0.18
															c-0.313,0.697-0.991,1.155-1.668,1.485c-0.685,0.328-1.404,0.582-2.071,0.826c-1.332,0.483-2.62,0.704-3.649,0.466
															c-1.035-0.227-1.743-0.793-2.09-1.263C94.274,243.677,94.221,243.329,94.179,243.343z"/>
													</g>
												</g>
											</g>
										</g>
									</g>
								</g>
							</g>
						</g>
					</g>
				</g>
				<g>
					<g>
						<g>
							<path style="fill:#FFBF9D;" d="M110.135,278.198c-0.022-1.455-1.749-4.865-3.189-5.071
								c-3.846-0.548-10.761-0.151-10.699,9.598c0.085,13.326,13.447,10.493,13.468,10.111
								C109.732,292.537,110.212,283.223,110.135,278.198z"/>
						</g>
					</g>
					<g>
						<g>
							<g>
								<path style="fill:#FF9A6C;" d="M106.008,287.991c-0.059-0.043-0.231,0.164-0.622,0.346
									c-0.382,0.177-1.039,0.303-1.736,0.047c-1.411-0.508-2.611-2.735-2.69-5.137c-0.042-1.213,0.204-2.369,0.628-3.329
									c0.401-0.978,1.027-1.662,1.735-1.792c0.704-0.168,1.208,0.253,1.374,0.627c0.181,0.372,0.098,0.639,0.168,0.661
									c0.037,0.034,0.285-0.224,0.174-0.774c-0.057-0.265-0.215-0.578-0.53-0.833c-0.321-0.258-0.792-0.387-1.286-0.331
									c-1.027,0.078-1.946,1.029-2.412,2.082c-0.522,1.058-0.828,2.358-0.781,3.72c0.102,2.685,1.493,5.189,3.423,5.734
									c0.938,0.238,1.719-0.049,2.121-0.367C105.986,288.313,106.054,288.014,106.008,287.991z"/>
							</g>
						</g>
					</g>
				</g>
			</g>
			<g>
				<g style="opacity:0.3;">
					
						<ellipse transform="matrix(0.7071 -0.7071 0.7071 0.7071 -150.1632 173.6073)" style="fill:#FFFFFF;" cx="134.481" cy="268.067" rx="11.257" ry="11.257"/>
				</g>
				<g style="opacity:0.3;">
					
						<ellipse transform="matrix(0.7071 -0.7071 0.7071 0.7071 -142.1871 192.8633)" style="fill:#FFFFFF;" cx="161.713" cy="268.067" rx="11.257" ry="11.257"/>
				</g>
				<g>
					<g>
						<path style="fill:#455A64;" d="M150.091,266.405c-0.086,0.122-0.971-0.458-2.197-0.376c-1.229,0.046-2.048,0.717-2.146,0.604
							c-0.045-0.046,0.098-0.293,0.463-0.562c0.36-0.269,0.959-0.524,1.656-0.562c0.696-0.035,1.318,0.156,1.705,0.386
							C149.964,266.124,150.132,266.354,150.091,266.405z"/>
					</g>
				</g>
				<g>
					<g>
						<path style="fill:#455A64;" d="M123.669,267.17c0.025,0.067-0.847,0.465-2.278,1.052c-1.431,0.588-3.42,1.367-5.628,2.196
							c-2.209,0.83-4.219,1.554-5.683,2.054c-0.726,0.256-1.35,0.436-1.796,0.466c-0.445,0.036-0.688-0.03-0.685-0.061
							c0.002-0.04,0.242-0.045,0.653-0.139c0.414-0.089,0.983-0.309,1.697-0.611c1.431-0.588,3.42-1.367,5.629-2.197
							c2.208-0.83,4.218-1.554,5.682-2.053C122.726,267.378,123.644,267.102,123.669,267.17z"/>
					</g>
				</g>
			</g>
		</g>
		<g>
			<g>
				<g>
					<g>
						<g>
							<g>
								<path style="fill:#FFBF9D;" d="M297.495,429.614c0.665,1.205,0.865,2.608,0.952,3.98c0.087,1.373,0.268,3.947,0.556,5.292
									l0.379,8.779c-1.842,4.089-6.344,2.749-7.237,0.423c-0.477,1.23-0.358,1.964-1.416,2.752
									c-1.058,0.788-2.483,1.149-3.736,0.735c-1.253-0.414-2.228-1.695-2.087-3.007c-1.161,1.67-3.427,2.48-5.383,1.925
									c-1.177-0.334-2.189-1.148-2.832-2.181c-0.324-0.52-0.544-1.089-0.665-1.689c-0.043-0.214-0.123-0.466-0.087-0.687
									c0.018-0.108,0.066-0.201,0.123-0.294c0.255-0.424,0.579-0.794,0.808-1.24c0.087-0.168,0.166-0.338,0.24-0.512
									c0.335-0.79,0.537-1.633,0.642-2.483c0.048-0.391,0.013-0.828,0.12-1.207c0.072-0.256,0.257-0.457,0.371-0.695
									c0.723-1.509,0.67-3.343,0.704-4.974c0.037-1.84,0.163-3.788,1.204-5.306c1.041-1.518,3.323-2.331,4.779-1.205
									c-0.17-1.159,0.789-2.295,1.937-2.531c1.147-0.236,2.359,0.3,3.152,1.162c0.793,0.862,1.217,2.005,1.446,3.154
									c-0.009-1.375,1.405-2.482,2.78-2.429C295.617,427.43,296.83,428.409,297.495,429.614z"/>
							</g>
						</g>
					</g>
				</g>
				<g>
					<g>
						<g>
							<g>
								<g>
									<g>
										<g>
											<path style="fill:#FFBF9D;" d="M271.2,447.441c-1.135-0.019-2.357-0.317-3.068-1.202
												c-0.844-1.048-0.921-3.046-0.749-4.38c1.586-0.214,2.402-0.231,3.988-0.445c0.334-0.045,0.607,0.053,0.891-0.128
												c0.751-0.477,0.724-2.215,1.06-3.039c0.582-1.429,2.484-2.043,3.901-1.432c1.417,0.611,2.267,2.197,2.259,3.74
												c-0.007,1.543-0.764,3.012-1.817,4.141C276.02,446.457,273.611,447.48,271.2,447.441z"/>
										</g>
									</g>
								</g>
							</g>
						</g>
					</g>
				</g>
				<g>
					<g>
						<g>
							<g>
								<g>
									<g>
										<g>
											<g>
												<path style="fill:#FF9A6C;" d="M284.902,449.025c0.295,0,0.539-4.7,0.547-10.497c0.007-5.799-0.226-10.499-0.521-10.499
													c-0.294,0-0.539,4.699-0.547,10.498C284.374,444.324,284.607,449.025,284.902,449.025z"/>
											</g>
										</g>
									</g>
								</g>
							</g>
						</g>
					</g>
				</g>
				<g>
					<g>
						<g>
							<g>
								<g>
									<g>
										<g>
											<g>
												<path style="fill:#FF9A6C;" d="M292.172,448.407c0.281,0.028,0.888-4.231,0.702-9.516
													c-0.17-5.287-1.062-9.495-1.34-9.448c-0.304,0.045,0.106,4.268,0.273,9.484
													C291.991,444.14,291.865,448.383,292.172,448.407z"/>
											</g>
										</g>
									</g>
								</g>
							</g>
						</g>
					</g>
				</g>
			</g>
			<g>
				<g>
					<g>
						<g>
							<g>
								<g>
									<g>
										<g>
											<path style="fill:#FF9A6C;" d="M299.276,447.81c0.3,0.015,0.612-3.536,0.284-7.877c-0.324-4.334-0.807-7.803-1.087-7.792
												c-0.309,0.013-0.301,3.553,0.022,7.864C298.819,444.312,298.986,447.797,299.276,447.81z"/>
										</g>
									</g>
								</g>
							</g>
						</g>
					</g>
				</g>
			</g>
			<g>
				<g>
					<g>
						<g>
							<g>
								<g>
									<g>
										<g>
											<path style="fill:#FF9A6C;" d="M273.503,446.824c-0.015,0.126,0.738,0.335,1.85-0.105c1.099-0.408,2.393-1.6,3.065-3.227
												c0.664-1.642,0.927-3.071,0.944-4.286c-0.061-1.308-0.985-1.736-1.016-1.569c-0.089,0.114,0.398,0.591,0.261,1.552
												c-0.177,0.932-0.579,2.461-1.166,3.873c-0.605,1.443-1.568,2.459-2.426,2.981
												C274.167,446.578,273.497,446.661,273.503,446.824z"/>
										</g>
									</g>
								</g>
							</g>
						</g>
					</g>
				</g>
			</g>
		</g>
		<g>
			<g>
				<g>
					<g>
						<g>
							<g>
								<path style="fill:#FFBF9D;" d="M370.636,236.012c0.665-1.205,0.865-2.608,0.952-3.98c0.087-1.373,0.268-3.947,0.556-5.292
									l0.379-8.779c-1.842-4.089-6.344-2.749-7.237-0.423c-0.477-1.23-0.358-1.964-1.417-2.752
									c-1.058-0.788-2.483-1.149-3.736-0.735c-1.253,0.414-2.228,1.695-2.087,3.007c-1.16-1.67-3.427-2.48-5.383-1.925
									c-1.177,0.334-2.189,1.148-2.832,2.181c-0.324,0.52-0.544,1.09-0.665,1.689c-0.044,0.214-0.123,0.466-0.087,0.686
									c0.017,0.108,0.066,0.201,0.122,0.294c0.255,0.424,0.579,0.794,0.808,1.24c0.087,0.168,0.166,0.338,0.24,0.512
									c0.335,0.79,0.537,1.633,0.642,2.483c0.048,0.391,0.013,0.828,0.12,1.207c0.072,0.256,0.257,0.457,0.371,0.695
									c0.723,1.508,0.67,3.343,0.704,4.974c0.037,1.84,0.163,3.788,1.204,5.305c1.041,1.518,3.323,2.331,4.779,1.205
									c-0.17,1.159,0.789,2.295,1.937,2.531c1.147,0.236,2.36-0.3,3.152-1.162c0.793-0.862,1.217-2.005,1.446-3.154
									c-0.009,1.376,1.405,2.482,2.78,2.43C368.758,238.195,369.971,237.216,370.636,236.012z"/>
							</g>
						</g>
					</g>
				</g>
				<g>
					<g>
						<g>
							<g>
								<g>
									<g>
										<g>
											<path style="fill:#FFBF9D;" d="M344.342,218.185c-1.135,0.019-2.357,0.317-3.068,1.202
												c-0.844,1.048-0.921,3.045-0.749,4.38c1.586,0.214,2.402,0.231,3.988,0.445c0.334,0.045,0.607-0.053,0.891,0.128
												c0.751,0.477,0.725,2.215,1.06,3.039c0.582,1.429,2.484,2.043,3.901,1.432c1.417-0.611,2.267-2.197,2.259-3.74
												c-0.007-1.543-0.764-3.013-1.817-4.141C349.162,219.168,346.752,218.145,344.342,218.185z"/>
										</g>
									</g>
								</g>
							</g>
						</g>
					</g>
				</g>
				<g>
					<g>
						<g>
							<g>
								<g>
									<g>
										<g>
											<g>
												<path style="fill:#FF9A6C;" d="M358.043,216.6c0.295,0,0.539,4.7,0.547,10.497c0.007,5.799-0.226,10.499-0.521,10.499
													c-0.294,0-0.539-4.699-0.547-10.498C357.515,221.301,357.748,216.601,358.043,216.6z"/>
											</g>
										</g>
									</g>
								</g>
							</g>
						</g>
					</g>
				</g>
				<g>
					<g>
						<g>
							<g>
								<g>
									<g>
										<g>
											<g>
												<path style="fill:#FF9A6C;" d="M365.313,217.219c0.281-0.028,0.888,4.231,0.702,9.516
													c-0.17,5.287-1.062,9.495-1.34,9.449c-0.304-0.045,0.106-4.269,0.273-9.484
													C365.132,221.486,365.007,217.242,365.313,217.219z"/>
											</g>
										</g>
									</g>
								</g>
							</g>
						</g>
					</g>
				</g>
			</g>
			<g>
				<g>
					<g>
						<g>
							<g>
								<g>
									<g>
										<g>
											<path style="fill:#FF9A6C;" d="M372.417,217.815c0.3-0.015,0.611,3.536,0.284,7.877
												c-0.324,4.334-0.807,7.803-1.087,7.792c-0.309-0.013-0.3-3.553,0.022-7.864
												C371.961,221.313,372.127,217.828,372.417,217.815z"/>
										</g>
									</g>
								</g>
							</g>
						</g>
					</g>
				</g>
			</g>
			<g>
				<g>
					<g>
						<g>
							<g>
								<g>
									<g>
										<g>
											<path style="fill:#FF9A6C;" d="M346.645,218.801c-0.015-0.126,0.738-0.335,1.85,0.105c1.099,0.408,2.393,1.6,3.064,3.227
												c0.664,1.642,0.927,3.071,0.944,4.286c-0.061,1.308-0.985,1.736-1.016,1.568c-0.089-0.114,0.398-0.59,0.261-1.552
												c-0.177-0.932-0.579-2.461-1.166-3.873c-0.605-1.443-1.568-2.459-2.426-2.981
												C347.308,219.047,346.638,218.964,346.645,218.801z"/>
										</g>
									</g>
								</g>
							</g>
						</g>
					</g>
				</g>
			</g>
		</g>
	</g>
</g>
<g id="Character_3">
	<g>
		<g>
			<g>
				<path style="fill:#263238;" d="M661.961,257.206c-8-11.775-19.495-19.167-33.651-20.665c-7.987-0.845-11.445,0.522-17.343,1.563
					c-5.898,1.04-11.371,3.667-15.242,8.238c-4.598,5.429-8.604,11.61-10.004,18.586c-1.438,7.165-1.516,14.294-0.66,20.25
					c1.039,7.233,4.936,18.498,8.685,24.771l12.144,2.586c10.169,1.257,20.48,2.513,30.625,1.072
					c10.144-1.441,20.276-5.927,26.374-14.161C671.36,288.005,669.961,268.98,661.961,257.206z"/>
			</g>
			<g>
				<path style="fill:#FFC9BB;" d="M645.538,255.62l-23.749-11.982l-6.499,0.174c-14.477-1.239-25.882,13.833-27.022,25.547
					c-1.266,13.013-2.299,28.951-1.085,38.735c2.44,19.672,18.77,22.747,18.77,22.747s-1.254,10.256-1.955,16.725l37.938,0.638
					l9.521-85.395C651.65,259.24,649.078,256.116,645.538,255.62z"/>
			</g>
			<g>
				<path style="fill:#F2A191;" d="M616.538,306.156c-0.043-1.029-0.529-1.979-1.195-2.661c-1.333-1.364-3.43-1.672-5.068-0.745
					c-1.638,0.928-2.717,3.033-2.607,5.09l0,0c0.76,1.268,2.014,2.191,3.47,2.449c0.227,0.04,0.455,0.069,0.685,0.083
					c1.115,0.07,2.281-0.205,3.203-0.949C615.949,308.678,616.591,307.426,616.538,306.156z"/>
			</g>
			<g>
				<path style="fill:#263238;" d="M592.04,286.934c-0.092,1.324,0.953,2.493,2.334,2.614c1.378,0.121,2.572-0.85,2.664-2.174
					c0.092-1.324-0.953-2.494-2.33-2.616C593.326,284.636,592.132,285.61,592.04,286.934z"/>
			</g>
			<g>
				<path style="fill:#263238;" d="M592.099,276.262c0.3,0.338,2.249-1.004,4.949-0.905c2.698,0.06,4.633,1.517,4.937,1.196
					c0.149-0.141-0.148-0.743-0.989-1.4c-0.828-0.654-2.257-1.312-3.939-1.363c-1.682-0.048-3.119,0.523-3.953,1.129
					C592.253,275.528,591.951,276.11,592.099,276.262z"/>
			</g>
			<g>
				<path style="fill:#263238;" d="M607.49,298.876c0.018-0.153-1.651-0.5-4.358-0.941c-0.687-0.095-1.335-0.254-1.436-0.728
					c-0.145-0.504,0.168-1.237,0.53-2.028c0.705-1.647,1.443-3.373,2.219-5.182c3.086-7.379,5.346-13.456,5.048-13.577
					c-0.299-0.122-3.043,5.76-6.129,13.139c-0.744,1.82-1.456,3.555-2.133,5.215c-0.288,0.775-0.767,1.648-0.45,2.694
					c0.168,0.522,0.662,0.912,1.099,1.047c0.438,0.15,0.825,0.17,1.165,0.203C605.776,298.959,607.474,299.029,607.49,298.876z"/>
			</g>
			<g>
				<path style="fill:#F2A191;" d="M605.923,330.816c0,0,13.134,1.297,26.443-6.097c0,0-7.443,13.325-26.964,10.826L605.923,330.816
					z"/>
			</g>
			<g>
				<path style="fill:#263238;" d="M592.089,267.992c0.431,0.675,2.514,0.305,4.923,0.588c2.418,0.206,4.389,0.987,4.94,0.412
					c0.247-0.282,0.004-0.934-0.81-1.626c-0.802-0.689-2.208-1.348-3.867-1.518c-1.658-0.166-3.162,0.198-4.08,0.712
					C592.263,267.076,591.903,267.666,592.089,267.992z"/>
			</g>
			<g>
				<path style="fill:#263238;" d="M619.759,288.958c-0.048,1.326-1.21,2.378-2.596,2.353c-1.383-0.024-2.468-1.116-2.42-2.442
					c0.049-1.326,1.211-2.38,2.593-2.355C618.722,286.538,619.807,287.632,619.759,288.958z"/>
			</g>
			<g>
				<path style="fill:#263238;" d="M628.558,278.464c-0.334,0.304-2.131-1.235-4.826-1.422c-2.69-0.224-4.767,1.021-5.036,0.67
					c-0.133-0.156,0.226-0.723,1.131-1.289c0.893-0.563,2.382-1.067,4.06-0.94c1.678,0.13,3.046,0.849,3.812,1.539
					C628.483,277.718,628.721,278.328,628.558,278.464z"/>
			</g>
			<g>
				<path style="fill:#263238;" d="M625.003,268.942c-0.565,0.583-2.612-0.166-5.112-0.333c-2.495-0.245-4.645,0.159-5.098-0.508
					c-0.197-0.323,0.171-0.918,1.129-1.448c0.944-0.528,2.496-0.917,4.213-0.777c1.717,0.143,3.177,0.779,4.013,1.455
					C624.998,268.008,625.253,268.655,625.003,268.942z"/>
			</g>
			<g>
				<path style="fill:#FFC9BB;" d="M645.196,295.233c0.053-1.457,1.854-4.835,3.301-5.011c3.863-0.468,10.779,0.076,10.511,9.838
					c-0.367,13.344-13.688,10.223-13.702,9.84C645.297,309.6,645.013,300.263,645.196,295.233z"/>
			</g>
			<g>
				<path style="fill:#F2A191;" d="M649.122,305.126c0.06-0.041,0.228,0.169,0.616,0.36c0.379,0.186,1.034,0.326,1.737,0.084
					c1.424-0.478,2.672-2.684,2.803-5.087c0.067-1.214-0.155-2.377-0.558-3.347c-0.381-0.987-0.994-1.686-1.7-1.832
					c-0.701-0.183-1.215,0.228-1.389,0.598c-0.189,0.369-0.111,0.638-0.182,0.658c-0.039,0.033-0.281-0.231-0.158-0.779
					c0.063-0.264,0.228-0.575,0.549-0.823c0.327-0.251,0.801-0.371,1.294-0.304c1.027,0.1,1.927,1.072,2.372,2.136
					c0.5,1.07,0.779,2.379,0.703,3.742c-0.159,2.687-1.605,5.164-3.549,5.669c-0.945,0.218-1.721-0.086-2.116-0.412
					C649.137,305.45,649.076,305.149,649.122,305.126z"/>
			</g>
			<g>
				<path style="fill:#263238;" d="M649.036,290.308l-3.684,3.197c-21.241-13.972-42.839-52.002-37.261-50.447
					c0,0,10.341-3.213,21.003-0.404c10.662,2.809,30.715,10.059,29.262,22.8C656.903,278.196,649.036,290.308,649.036,290.308z"/>
			</g>
			<g>
				<path style="fill:#263238;" d="M655.275,236.966c-5.171,3.022-9.778,11.833-7.662,17.437
					c-0.955,5.859,1.305,12.142,5.774,16.051c4.469,3.908,10.997,5.312,16.677,3.585c3.924-1.193,7.414-3.828,9.524-7.345
					c2.502-4.169,2.972-9.337,2.079-14.117c-1.099-5.888-4.328-11.504-9.347-14.771C667.3,234.538,660.446,233.943,655.275,236.966z
					"/>
			</g>
			<g>
				<path style="fill:#455A64;" d="M656.447,290.34c-0.031,0.06-0.899-0.307-2.431-1.051c-1.532-0.743-3.721-1.877-6.367-3.391
					c-5.274-3.024-12.423-7.639-19.137-14.15c-6.723-6.507-11.392-13.738-13.846-19.335c-1.247-2.794-2.035-5.146-2.472-6.796
					c-0.441-1.65-0.597-2.582-0.539-2.596c0.191-0.058,1.024,3.642,3.658,9.089c2.588,5.449,7.27,12.492,13.903,18.914
					c6.627,6.426,13.64,11.093,18.797,14.26c2.585,1.584,4.715,2.809,6.187,3.658C655.673,289.79,656.481,290.276,656.447,290.34z"
					/>
			</g>
			<g>
				<path style="fill:#455A64;" d="M668.09,280.324c-0.183,0.007-0.261-2.486-1.006-6.404c-0.733-3.914-2.319-9.236-5.204-14.587
					c-2.907-5.342-6.499-9.578-9.377-12.33c-2.875-2.765-4.92-4.191-4.814-4.341c0.039-0.057,0.578,0.256,1.523,0.877
					c0.955,0.605,2.256,1.604,3.777,2.94c3.046,2.657,6.812,6.917,9.78,12.373c2.947,5.465,4.458,10.945,5.02,14.949
					c0.288,2.003,0.414,3.639,0.399,4.77C668.191,279.7,668.16,280.322,668.09,280.324z"/>
			</g>
			<g>
				<path style="fill:#263238;" d="M653.917,311.274c0,2.761-2.238,4.998-4.998,4.998c-2.76,0-4.998-2.238-4.998-4.998
					c0-2.76,2.238-4.998,4.998-4.998C651.68,306.276,653.917,308.514,653.917,311.274z"/>
			</g>
			<g>
				<path style="fill:#263238;" d="M606.862,308.273c0.055-0.472,3.175,0.071,5.86-2.208c2.691-2.274,2.927-5.66,3.367-5.608
					c0.203-0.009,0.475,0.848,0.266,2.258c-0.195,1.385-0.992,3.318-2.634,4.713c-1.646,1.389-3.581,1.77-4.879,1.651
					C607.516,308.968,606.805,308.484,606.862,308.273z"/>
			</g>
		</g>
		<g>
			<g>
				<path style="fill:#FF725E;" d="M642.493,343.205c0,0,13.955,7.204,12.726,30.202c-1.257,23.527-30.405,95.068-30.405,95.068
					h-71.558l-15.718,0.653l36.728-102.559l31.599-30.908L642.493,343.205z"/>
			</g>
			<g style="opacity:0.3;">
				<path d="M549.347,464.998c0,0,8.307,0.343,20.415-13.249c12.108-13.592,14.533-18.916,14.533-18.916l10.784,2.606l12.58-29.938
					l-23.364,8.112L549.347,464.998z"/>
			</g>
			<g>
				<g>
					<path style="fill:#FF725E;" d="M544.211,407.358c0,0,24.989-46.858,32.734-58.651c7.046-10.729,19.39-17.871,32.161-11.395
						c10.953,5.554,18.017,21.467,9.948,42.099c-8.445,21.594-24.718,51.568-24.718,51.568L544.211,407.358z"/>
				</g>
				<g>
					<path style="fill:#FFC9BB;" d="M551.534,410.936l-16.935,26.928l-56.612,1.639l-1.707,18.691c0,0,61.599,12.777,73.067,6.804
						c12.627-6.577,31.281-40.673,31.281-40.673L551.534,410.936z"/>
				</g>
				<g>
					<path style="fill:#FFC9BB;" d="M481.381,440.954c0,0-5.506-10.995-15.488-9.039c0,0-13.833-13.1-16.899-8.033
						c-2.213,3.658,1.972,5.369,5.838,10.457s7.165,11.556,7.165,11.556l13.905,2.265L481.381,440.954z"/>
				</g>
				<g>
					<path style="fill:#FFC9BB;" d="M429.172,442.582c0,0,20.83,12.138,24.446,12.315s24.938,4.041,24.938,4.041l1.796-19.668
						l-51.18,1.988"/>
				</g>
			</g>
			<g>
				<g>
					<path style="fill:#263238;" d="M614.741,387.76c-0.017-0.006,0.03-0.186,0.135-0.524c0.129-0.391,0.289-0.877,0.483-1.468
						c0.464-1.339,1.092-3.155,1.858-5.368c0.781-2.266,1.727-4.961,2.614-7.996c0.878-3.031,1.715-6.424,1.894-10.055
						c0.16-3.624-0.199-7.118-1.001-10.148c-0.838-3.032-2.307-5.506-3.825-7.337c-1.505-1.848-2.904-3.2-3.834-4.165
						c-0.432-0.448-0.786-0.816-1.072-1.113c-0.241-0.259-0.362-0.4-0.349-0.413c0.012-0.013,0.158,0.104,0.422,0.338
						c0.304,0.278,0.681,0.623,1.14,1.043c0.973,0.922,2.414,2.234,3.977,4.076c1.574,1.823,3.121,4.347,4.002,7.44
						c0.846,3.095,1.221,6.617,1.059,10.305c-0.182,3.694-1.046,7.124-1.954,10.165c-0.918,3.046-1.901,5.731-2.727,7.984
						c-0.833,2.25-1.526,4.064-2.014,5.313c-0.232,0.578-0.422,1.052-0.575,1.434C614.838,387.598,614.758,387.766,614.741,387.76z"
						/>
				</g>
			</g>
		</g>
	</g>
</g>
</svg>
