<?xml version="1.0" encoding="UTF-8"?>
<svg id="svg1087" enable-background="new 0 0 500 500" version="1.1" viewBox="0 0 500 500" xml:space="preserve" xmlns="http://www.w3.org/2000/svg">
<path id="path1" d="m285.24 311.71c1.369-0.828 2.827-1.455 4.331-1.882l0.892-4.287 7.243-0.127 1.042 4.252c1.518 0.374 2.997 0.95 4.395 1.729l3.66-2.399 5.211 5.032-2.269 3.742c0.828 1.37 1.455 2.828 1.882 4.332l4.286 0.892 0.127 7.242-4.252 1.043c-0.374 1.517-0.95 2.996-1.729 4.394l2.399 3.661-5.031 5.211-3.742-2.269c-1.37 0.828-2.828 1.455-4.331 1.882l-0.892 4.287-7.242 0.127-1.042-4.253c-1.518-0.374-2.996-0.95-4.394-1.729l-3.66 2.399-5.211-5.031 2.269-3.742c-0.828-1.37-1.455-2.827-1.882-4.331l-4.286-0.892-0.127-7.242 4.253-1.043c0.374-1.517 0.95-2.996 1.729-4.394l-2.399-3.661 5.031-5.211zm3.861 9.648c-2.981 3.088-2.895 8.007 0.193 10.988 3.087 2.981 8.007 2.894 10.987-0.193 2.981-3.087 2.894-8.007-0.193-10.987-3.087-2.982-8.006-2.895-10.987 0.192z" fill="#e0e0e0"/><path id="path3" d="m274.49 81.033c1.369-0.827 2.827-1.455 4.331-1.882l0.892-4.287 7.242-0.127 1.042 4.252c1.518 0.374 2.997 0.95 4.395 1.729l3.66-2.399 5.211 5.032-2.269 3.742c0.828 1.37 1.455 2.828 1.882 4.332l4.286 0.892 0.127 7.242-4.252 1.043c-0.374 1.517-0.95 2.996-1.729 4.394l2.399 3.661-5.031 5.211-3.742-2.269c-1.37 0.828-2.828 1.455-4.332 1.882l-0.892 4.287-7.242 0.127-1.042-4.253c-1.518-0.374-2.996-0.95-4.394-1.729l-3.66 2.399-5.211-5.031 2.269-3.742c-0.828-1.369-1.455-2.827-1.882-4.331l-4.286-0.892-0.127-7.242 4.253-1.043c0.374-1.517 0.95-2.996 1.729-4.394l-2.399-3.66 5.031-5.211zm3.86 9.648c-2.981 3.088-2.895 8.007 0.193 10.988 3.087 2.981 8.007 2.894 10.987-0.193 2.981-3.087 2.895-8.007-0.193-10.988-3.087-2.981-8.006-2.894-10.987 0.193z" fill="#e0e0e0"/><path id="path6" d="m98.014 73.295c1.369-0.828 2.827-1.455 4.331-1.882l0.892-4.287 7.243-0.127 1.042 4.252c1.518 0.374 2.997 0.95 4.394 1.729l3.66-2.399 5.211 5.032-2.269 3.742c0.828 1.37 1.455 2.828 1.882 4.332l4.286 0.892 0.127 7.242-4.252 1.043c-0.374 1.518-0.95 2.996-1.729 4.394l2.399 3.661-5.031 5.211-3.742-2.269c-1.37 0.828-2.828 1.455-4.331 1.882l-0.892 4.287-7.242 0.127-1.043-4.253c-1.518-0.374-2.996-0.95-4.394-1.729l-3.66 2.4-5.211-5.032 2.269-3.742c-0.828-1.369-1.455-2.827-1.882-4.331l-4.286-0.892-0.127-7.242 4.253-1.043c0.374-1.517 0.95-2.996 1.729-4.394l-2.399-3.66 5.031-5.211zm3.861 9.648c-2.981 3.088-2.895 8.007 0.193 10.988 3.087 2.981 8.007 2.894 10.987-0.193s2.894-8.007-0.193-10.988-8.006-2.894-10.987 0.193z" fill="#f5f5f5"/><path id="path9" d="m224.28 137.35c0.947-0.573 1.956-1.007 2.996-1.302l0.617-2.966 5.011-0.088 0.721 2.942c1.05 0.259 2.073 0.657 3.04 1.196l2.533-1.66 3.605 3.481-1.57 2.589c0.573 0.948 1.007 1.957 1.302 2.997l2.965 0.617 0.088 5.011-2.942 0.721c-0.259 1.05-0.657 2.073-1.196 3.04l1.66 2.533-3.481 3.606-2.589-1.57c-0.948 0.573-1.956 1.007-2.997 1.302l-0.617 2.966-5.011 0.088-0.721-2.942c-1.05-0.259-2.073-0.657-3.04-1.196l-2.533 1.66-3.606-3.481 1.57-2.589c-0.573-0.948-1.007-1.956-1.302-2.997l-2.966-0.617-0.088-5.011 2.942-0.721c0.259-1.05 0.658-2.073 1.196-3.04l-1.66-2.533 3.481-3.605zm2.671 6.676c-2.063 2.136-2.003 5.54 0.134 7.602 2.136 2.062 5.54 2.002 7.602-0.134s2.003-5.54-0.134-7.602c-2.136-2.062-5.54-2.003-7.602 0.134z" fill="#e0e0e0"/><path id="path12" d="m89.777 224.91c2.626-1.587 5.422-2.791 8.306-3.61l1.711-8.222 13.891-0.243 1.999 8.156c2.911 0.717 5.748 1.822 8.429 3.316l7.021-4.602 9.995 9.651-4.351 7.176c1.588 2.627 2.791 5.424 3.609 8.308l8.221 1.711 0.244 13.891-8.156 1.999c-0.717 2.91-1.822 5.747-3.316 8.428l4.601 7.021-9.649 9.995-7.177-4.352c-2.627 1.587-5.423 2.79-8.307 3.609l-1.711 8.222-13.89 0.244-1.999-8.157c-2.911-0.717-5.747-1.822-8.428-3.316l-7.021 4.602-9.995-9.65 4.351-7.177c-1.587-2.627-2.791-5.423-3.61-8.307l-8.221-1.711-0.244-13.891 8.156-2c0.717-2.91 1.823-5.747 3.316-8.427l-4.601-7.021 9.649-9.995zm7.405 18.504c-5.717 5.922-5.552 15.357 0.37 21.074s15.357 5.551 21.074-0.371 5.552-15.357-0.37-21.074c-5.922-5.716-15.357-5.55-21.074 0.371z" fill="#f5f5f5"/><path id="path18" d="m283.18 411.9c2.394-1.447 4.942-2.544 7.571-3.29l1.56-7.494 12.661-0.222 1.822 7.434c2.653 0.654 5.239 1.66 7.683 3.022l6.399-4.195 9.11 8.796-3.966 6.541c1.447 2.395 2.544 4.944 3.29 7.573l7.493 1.559 0.223 12.661-7.434 1.822c-0.654 2.653-1.661 5.238-3.022 7.682l4.194 6.399-8.795 9.11-6.542-3.967c-2.394 1.447-4.943 2.543-7.572 3.29l-1.56 7.494-12.661 0.222-1.823-7.434c-2.653-0.654-5.238-1.661-7.682-3.022l-6.399 4.195-9.11-8.796 3.966-6.541c-1.447-2.395-2.544-4.943-3.29-7.572l-7.493-1.56-0.222-12.661 7.434-1.823c0.654-2.653 1.661-5.238 3.022-7.681l-4.194-6.399 8.795-9.11zm6.749 16.867c-5.211 5.398-5.06 13.997 0.338 19.208 5.397 5.211 13.997 5.06 19.208-0.338 5.211-5.397 5.06-13.997-0.338-19.208-5.397-5.21-13.997-5.059-19.208 0.338z" fill="#f5f5f5"/><path id="path24" d="m360.49 366.9c1.458-0.881 3.01-1.549 4.61-2.004l0.95-4.564 7.71-0.135 1.11 4.527c1.616 0.398 3.19 1.011 4.678 1.84l3.897-2.554 5.548 5.357-2.415 3.983c0.881 1.458 1.549 3.011 2.004 4.612l4.563 0.949 0.135 7.71-4.527 1.11c-0.398 1.615-1.011 3.19-1.84 4.678l2.554 3.897-5.356 5.548-3.984-2.415c-1.458 0.881-3.01 1.549-4.611 2.003l-0.95 4.564-7.71 0.135-1.11-4.527c-1.616-0.398-3.19-1.011-4.678-1.84l-3.897 2.554-5.548-5.356 2.415-3.983c-0.881-1.458-1.549-3.01-2.004-4.611l-4.563-0.95-0.135-7.71 4.527-1.11c0.398-1.615 1.012-3.19 1.84-4.678l-2.554-3.897 5.356-5.548zm4.11 10.271c-3.173 3.287-3.081 8.524 0.206 11.697s8.524 3.081 11.697-0.206 3.081-8.524-0.206-11.697-8.524-3.081-11.697 0.206z" fill="#f5f5f5"/><path id="path30" d="m378.92 139.33c2.187-1.321 4.515-2.324 6.916-3.006l1.425-6.846 11.566-0.203 1.664 6.791c2.424 0.597 4.786 1.517 7.018 2.761l5.846-3.832 8.322 8.036-3.623 5.975c1.322 2.188 2.324 4.516 3.005 6.918l6.845 1.424 0.203 11.566-6.791 1.665c-0.597 2.423-1.517 4.785-2.761 7.017l3.831 5.846-8.034 8.322-5.976-3.624c-2.187 1.322-4.516 2.323-6.917 3.005l-1.425 6.846-11.566 0.203-1.665-6.791c-2.424-0.597-4.785-1.517-7.017-2.761l-5.846 3.832-8.322-8.035 3.623-5.976c-1.322-2.187-2.324-4.515-3.006-6.917l-6.845-1.424-0.203-11.566 6.791-1.665c0.597-2.423 1.518-4.785 2.761-7.017l-3.831-5.846 8.034-8.322zm6.166 15.408c-4.76 4.931-4.622 12.787 0.309 17.547s12.787 4.622 17.547-0.309 4.622-12.787-0.308-17.547c-4.932-4.759-12.788-4.621-17.548 0.309z" fill="#f5f5f5"/><path id="path36" d="m56.428 403.38c-3.481-2.186-7.469-3.559-11.558-3.978-1.889-0.194-3.952-0.139-5.467 1.005-0.322 0.243-0.635 0.602-0.563 0.998 0.053 0.292 0.299 0.503 0.535 0.683 4.702 3.588 11.815 4.041 17.053 1.292" fill="#e0e0e0"/><path id="path38" d="m56.131 403.05c-2.617-2.042-5.248-4.098-7.465-6.568s-4.018-5.403-4.68-8.656c-0.201-0.986-0.263-2.113 0.37-2.896 5.95 4.648 10.625 10.658 11.775 18.12" fill="#e0e0e0"/><path id="path40" d="m56.366 403.33c-0.448-3.255-0.609-6.601 0.138-9.801 0.748-3.2 2.488-6.262 5.221-8.088 1.028 2.404 0.586 5.172-0.138 7.684-1.12 3.882-2.876 7.579-5.177 10.899" fill="#e0e0e0"/><path id="path42" d="m62.2 413.78c-3.541 0.43-6.625 2.297-9.269 4.691s-4.524 5.621-5.302 9.102c3.473-0.215 6.42-2.664 8.557-5.41s3.618-5.76 5.966-8.329" fill="#e0e0e0"/><path id="path44" d="m63.467 415.46c-2.852-7.026-1.819-15.492 2.64-21.625 2.017 7.177 1.276 15.282-2.64 21.625" fill="#e0e0e0"/><path id="path46" d="m71.174 424.63c-3.214-0.2-6.481 0.566-9.272 2.172s-5.094 4.047-6.535 6.927c-0.196 0.391-0.369 0.889-0.107 1.24 0.228 0.305 0.669 0.333 1.048 0.308 3.115-0.202 5.876-2.076 8.154-4.21s4.263-4.6 6.78-6.445" fill="#e0e0e0"/><path id="path48" d="m70.928 424.13c-1.658-5.304-1.761-11.085-0.294-16.445 0.579-2.117 1.552-4.345 3.509-5.338 0.167-0.085 0.362-0.16 0.537-0.094 0.166 0.063 0.263 0.233 0.339 0.393 0.696 1.455 0.899 3.107 0.827 4.718s-0.406 3.198-0.739 4.776c-0.616 2.919-0.944 6.056-2.545 8.574-0.38 0.597-0.715 1.243-1.018 1.883s-0.305 0.865-0.583 1.374" fill="#e0e0e0"/><path id="path50" d="m91.331 427.17c-1.511-5.75 0.093-12.72 3.716-17.434 0.267-0.347 0.621-0.719 1.056-0.679 0.667 0.062 0.84 0.951 0.81 1.62-0.262 5.876-2.222 11.666-5.582 16.493" fill="#e0e0e0"/><path id="path52" d="m93.17 428.43c6.986 1.818 14.999 0.051 20.809-4.232-3.443-1.745-7.502-2.243-11.265-1.383-3.763 0.861-7.202 2.547-9.544 5.615" fill="#e0e0e0"/><path id="path54" d="m94.721 424.6c3.912-6.378 11.413-10.542 18.886-10.921-0.861 3.04-3.359 5.402-6.177 6.829-2.818 1.428-5.964 2.049-9.066 2.651-1.206 0.235-2.861 0.493-3.643 1.441" fill="#e0e0e0"/><path id="path56" d="m91.719 406.02c1.059-3.629 2.125-7.291 2.415-11.061 0.291-3.77-0.247-7.705-2.203-10.941-3.654 7.072-4.024 15.334-0.322 22.38" fill="#e0e0e0"/><path id="path58" d="m104.02 399.81c4.274-7.767 12.993-13.972 21.815-14.841-3.403 8.474-12.685 15.023-21.815 14.841" fill="#e0e0e0"/><path id="path60" d="m101.33 401.33c6.373 0.971 11.804 5.042 17.76 7.509 1.274 0.528 2.648 0.948 4.015 0.769s2.716-1.096 3.022-2.441c0.255-1.116-0.254-2.301-1.055-3.119s-1.859-1.329-2.916-1.769c-6.487-2.701-13.444-2.768-20.278-1.13" fill="#e0e0e0"/><path id="path62" d="m97.646 405.8c1.443 0.413 1.936 1.16 3.078 2.133 3.877 3.302 8.526 5.69 13.468 6.918 0.514 0.128 1.189 0.179 1.444-0.286 0.223-0.406-0.059-0.897-0.348-1.259-2.071-2.591-5.024-4.363-8.132-5.52-3.108-1.158-5.801-2.552-9.51-2.253" fill="#e0e0e0"/><path id="path64" d="m93.484 378.8c5.183 4.837 12.483 7.321 19.54 6.648 0.321-0.031 0.671-0.082 0.89-0.319 0.492-0.535-0.098-1.361-0.671-1.808-5.745-4.479-12.704-6.336-19.759-4.521" fill="#e0e0e0"/><path id="path66" d="m98.419 376.99c6.851-5.136 16.245-6.686 24.383-4.023-3.071 3.026-7.331 4.654-11.619 5.101-4.289 0.446-8.582-0.03-12.764-1.078" fill="#e0e0e0"/><path id="path68" d="m96.457 364.59c-0.564-5.734-0.198-10.261-0.596-16.022-0.032-0.46-0.131-1.014-0.561-1.18-0.599-0.231-1.099 0.506-1.296 1.118-1.707 5.311-0.774 11.402 2.445 15.958" fill="#e0e0e0"/><path id="path70" d="m96.045 365.22c3.887-2.404 6.802-5.543 9.499-9.232 1.876-2.567 3.458-5.642 3.031-8.793-2.635-0.053-5.138 1.401-6.852 3.402-1.714 2.002-2.732 4.505-3.493 7.028-0.76 2.523-1.293 5.115-2.185 7.595" fill="#e0e0e0"/><path id="path72" d="m105.38 362.63c8.53-3.154 16.488-7.847 23.376-13.784-2.792-1.125-5.989-0.452-8.781 0.675-6.378 2.575-11.589 6.921-14.717 13.046" fill="#e0e0e0"/><path id="path74" d="m98.669 368.36c4.315 0.472 8.699 0.779 12.98 0.063 4.208-0.703 8.185-2.371 12.118-4.027 0.326-0.137 0.681-0.302 0.823-0.625 0.155-0.351-0.01-0.779-0.295-1.037s-0.664-0.381-1.033-0.484c-4.275-1.196-8.889-0.636-13.095 0.782-4.207 1.419-7.656 3.104-11.498 5.328" fill="#e0e0e0"/><path id="path76" d="m74.028 379c-2.944-5.943-2.753-12.878-0.21-19.003 1.79 2.728 2.009 6.202 1.682 9.448s-1.316 6.588-1.38 9.85" fill="#e0e0e0"/><path id="path78" d="m62.267 373.06c-7.35-0.14-14.704 2.992-19.695 8.39 3.669 0.576 7.447-0.37 10.784-1.999s6.303-3.916 9.242-6.186" fill="#e0e0e0"/><path id="path80" d="m54.36 370.42c-3.596-0.292-7.056-0.737-10.514 0.323-3.458 1.059-6.604 3.464-8.014 6.795 3.363 0.379 6.774-0.464 9.857-1.861 3.083-1.398 5.887-3.333 8.671-5.257" fill="#e0e0e0"/><path id="path82" d="m66.067 370.54c-3.235-2.12-6.557-4.278-10.323-5.156-3.767-0.878-8.132-0.229-10.758 2.61 3.049 1.789 6.748 2.001 10.284 1.998 3.535-3e-3 7.869-0.043 11.202 1.137" fill="#e0e0e0"/><path id="path84" d="m66.087 370.71c-5.531-5.431-7.627-15.186-5.402-22.611 4.347 6.605 6.294 14.754 5.402 22.611" fill="#e0e0e0"/><path id="path86" d="m81.294 355.32c1.043-2.425 1.777-4.97 2.712-7.438 0.936-2.468 2.099-4.897 3.867-6.857s4.213-3.419 6.85-3.55c-1.65 7.473-6.614 14.15-13.294 17.884" fill="#e0e0e0"/><path id="path88" d="m78.542 358.53c-1.726-2.376-3.72-5.601-6.061-7.374s-5.389-2.846-8.245-2.165c2.905 5.193 8.395 8.854 14.306 9.539" fill="#e0e0e0"/><path id="path90" d="m79.093 355.52c-1.131-2.875-2.271-5.78-2.728-8.836-0.458-3.055-0.179-6.319 1.383-8.984 3.036 5.739 4.014 11.899 1.5 17.885" fill="#e0e0e0"/><path id="path92" d="m81.322 337.7c1.719-5.689 6.929-9.878 12.552-11.8 0.709-0.242 1.46-0.444 2.201-0.33s1.467 0.621 1.622 1.354c0.205 0.968-0.594 1.835-1.346 2.478-4.379 3.745-9.527 6.587-15.029 8.298" fill="#e0e0e0"/><path id="path94" d="m81.384 333.05c0.219-3.668 0.447-7.389 1.641-10.864 1.193-3.475 3.492-6.736 6.837-8.257 0.569 3.705-1.066 7.39-3.037 10.578s-4.347 6.197-5.531 9.753" fill="#e0e0e0"/><path id="path96" d="m81.294 335.57c-1.421-4.146-1.568-9.412-4.051-13.024-1.735-2.525-4.515-4.245-6.01-6.919-0.993 2.498-0.689 5.375 0.35 7.854s2.756 4.613 4.593 6.575c1.837 1.963 3.41 3.439 5.118 5.514" fill="#e0e0e0"/><path id="path98" d="m81.322 457.67c-0.111 0-0.206-27.658-0.214-61.767-8e-3 -34.121 0.076-61.773 0.186-61.773s0.206 27.652 0.214 61.773c8e-3 34.109-0.076 61.767-0.186 61.767z" fill="#e0e0e0"/><path id="path101" d="m105.49 374.82c8e-3 0.027-0.363 0.164-1.04 0.39-0.747 0.252-1.708 0.576-2.862 0.966-2.413 0.822-5.728 2.012-9.326 3.487-3.562 1.528-6.922 2.769-8.835 4.427-0.956 0.818-1.504 1.703-1.775 2.349-0.274 0.649-0.324 1.047-0.36 1.04-0.014-2e-3 -9e-3 -0.101 0.012-0.29 0.032-0.186 0.08-0.465 0.203-0.806 0.233-0.682 0.767-1.629 1.733-2.504 0.962-0.877 2.3-1.664 3.833-2.381 1.533-0.716 3.233-1.462 5.038-2.204 3.609-1.479 6.949-2.631 9.389-3.386 1.219-0.38 2.215-0.661 2.904-0.846 0.693-0.181 1.079-0.268 1.086-0.242z" fill="#e0e0e0"/><path id="path104" d="m113.41 355.36c9e-3 0.01-0.091 0.117-0.291 0.311-0.236 0.221-0.529 0.497-0.888 0.834-0.824 0.749-1.946 1.768-3.313 3.01-2.861 2.547-6.741 6.002-11.028 9.819-4.305 3.832-8.025 7.493-10.603 10.25-1.291 1.377-2.308 2.517-3.001 3.313-0.324 0.37-0.589 0.672-0.801 0.915-0.186 0.207-0.288 0.312-0.299 0.303s0.071-0.13 0.237-0.354c0.168-0.222 0.411-0.554 0.744-0.964 0.658-0.828 1.645-2 2.912-3.405 2.532-2.813 6.231-6.517 10.544-10.356 4.32-3.823 8.25-7.257 11.107-9.733 1.402-1.203 2.552-2.189 3.397-2.915 0.379-0.314 0.688-0.571 0.937-0.777 0.218-0.175 0.337-0.262 0.346-0.251z" fill="#e0e0e0"/><path id="path107" d="m93.247 373.23c-0.113-0.05 0.786-2.127 1.682-4.752 0.905-2.625 1.33-4.841 1.445-4.823 0.104 0.011-0.15 2.291-1.066 4.951-0.451 1.328-0.948 2.495-1.339 3.324-0.392 0.828-0.673 1.322-0.722 1.3z" fill="#e0e0e0"/><path id="path110" d="m81.347 389.97c-0.022 0.016-0.257-0.259-0.663-0.77-0.45-0.577-1.02-1.308-1.699-2.179-1.427-1.845-3.401-4.392-5.613-7.179-2.213-2.787-4.246-5.288-5.719-7.097-0.694-0.86-1.277-1.58-1.737-2.149-0.406-0.511-0.62-0.803-0.599-0.821s0.275 0.239 0.717 0.72c0.443 0.48 1.07 1.186 1.835 2.069 1.53 1.764 3.6 4.239 5.815 7.03 2.214 2.791 4.155 5.368 5.525 7.258 0.686 0.945 1.231 1.716 1.598 2.256 0.37 0.54 0.562 0.846 0.54 0.862z" fill="#e0e0e0"/><path id="path113" d="m76.048 383.17c-0.065 0.07-1.479-1.607-2.22-4.156-0.547-1.796-0.571-3.439-0.503-4.19l0.176 0.014c-0.079 0.32-0.137 0.489-0.168 0.484-0.032-5e-3 -0.033-0.184-7e-3 -0.512l0.177 0.014c0.065 0.745 0.178 2.331 0.709 4.076 0.714 2.47 1.943 4.202 1.836 4.27z" fill="#e0e0e0"/><path id="path116" d="m69.206 374.56c-0.051 0.055-0.506-0.518-1.55-0.9-1.035-0.401-2.594-0.489-4.304-0.342-1.711 0.126-3.24 0.431-4.334 0.699-1.094 0.271-1.763 0.484-1.783 0.428-0.018-0.047 0.618-0.355 1.707-0.7 1.087-0.342 2.637-0.698 4.38-0.826 1.729-0.149 3.369-0.016 4.44 0.479 1.085 0.48 1.48 1.152 1.444 1.162z" fill="#e0e0e0"/><path id="path119" d="m67.584 372.48c-0.031 0.062-0.903-0.362-2.375-0.865-1.469-0.505-3.562-1.036-5.925-1.22-2.364-0.176-4.514 0.03-6.042 0.307-1.531 0.274-2.458 0.561-2.478 0.495-8e-3 -0.026 0.215-0.12 0.63-0.268 0.412-0.154 1.025-0.329 1.793-0.504 1.534-0.352 3.721-0.608 6.128-0.429 2.406 0.187 4.529 0.772 5.991 1.353 0.733 0.288 1.312 0.555 1.696 0.77 0.388 0.21 0.595 0.336 0.582 0.361z" fill="#e0e0e0"/><path id="path122" d="m81.294 363.66c-0.107 0.027-0.882-2.667-1.732-6.016-0.85-3.35-1.451-6.087-1.344-6.115 0.107-0.027 0.882 2.666 1.732 6.016 0.849 3.35 1.451 6.088 1.344 6.115z" fill="#e0e0e0"/><path id="path125" d="m81.404 363.66c-0.119 0.039-0.618-1.761-1.92-3.602-1.267-1.879-2.884-2.823-2.825-2.916 0.021-0.042 0.467 0.122 1.09 0.562 0.625 0.435 1.396 1.171 2.062 2.124 1.352 1.916 1.69 3.825 1.593 3.832z" fill="#e0e0e0"/><path id="path128" d="m81.322 442.93c-0.043 7e-3 -0.125-0.665-0.436-1.839-0.308-1.174-0.888-2.84-1.848-4.788-1.911-3.905-5.388-8.856-9.806-13.815-2.189-2.501-4.313-4.861-6.116-7.12-1.806-2.256-3.29-4.406-4.374-6.308-1.087-1.9-1.795-3.531-2.208-4.681-0.203-0.577-0.352-1.027-0.434-1.339-0.087-0.31-0.127-0.474-0.114-0.478 0.036-0.011 0.237 0.633 0.693 1.76 0.455 1.127 1.197 2.727 2.306 4.594 1.107 1.869 2.604 3.987 4.416 6.219 1.81 2.236 3.937 4.583 6.13 7.088 4.43 4.972 7.899 9.986 9.76 13.955 0.936 1.981 1.481 3.679 1.745 4.874 0.128 0.599 0.214 1.066 0.245 1.387 0.041 0.321 0.055 0.489 0.041 0.491z" fill="#e0e0e0"/><path id="path131" d="m103.16 418.26c0.013 0.029-0.405 0.241-1.145 0.643-0.734 0.412-1.776 1.048-2.969 1.963-1.194 0.914-2.528 2.114-3.899 3.556-1.368 1.446-2.778 3.125-4.217 4.924-2.877 3.609-5.567 6.803-7.178 9.353-0.818 1.264-1.413 2.331-1.802 3.079-0.393 0.746-0.601 1.165-0.63 1.152-0.013-6e-3 0.024-0.117 0.106-0.325 0.085-0.206 0.201-0.515 0.385-0.897 0.348-0.772 0.909-1.867 1.703-3.161 1.564-2.611 4.234-5.848 7.105-9.452 1.442-1.802 2.869-3.485 4.263-4.928 1.397-1.441 2.767-2.633 3.995-3.528 1.229-0.896 2.305-1.501 3.066-1.874 0.379-0.19 0.689-0.307 0.893-0.395 0.208-0.084 0.319-0.122 0.324-0.11z" fill="#e0e0e0"/><path id="path134" d="m103.59 426.26c5e-3 0.058-0.924 0.171-2.419 0.351-1.49 0.193-3.565 0.442-5.738 1.13-2.165 0.705-3.965 1.78-5.137 2.696-1.184 0.915-1.743 1.672-1.798 1.628-0.019-0.014 0.097-0.22 0.358-0.557 0.259-0.339 0.682-0.792 1.261-1.29 1.154-0.994 2.971-2.133 5.194-2.858 2.226-0.705 4.329-0.909 5.832-1.031 1.508-0.108 2.442-0.121 2.447-0.069z" fill="#e0e0e0"/><path id="path137" d="m89.204 431.19c-0.126-0.072 0.964-1.737 1.81-3.977 0.794-2.26 0.979-4.243 1.122-4.22 0.052 6e-3 0.05 0.502-0.04 1.298-0.095 0.793-0.286 1.896-0.706 3.058-0.423 1.16-0.977 2.129-1.403 2.805-0.432 0.674-0.739 1.063-0.783 1.036z" fill="#e0e0e0"/><path id="path140" d="m110.24 396.77c5e-3 0.013-0.129 0.083-0.387 0.206-0.3 0.136-0.676 0.307-1.137 0.517-0.498 0.214-1.103 0.484-1.784 0.844-0.684 0.353-1.481 0.716-2.312 1.215-0.422 0.24-0.862 0.49-1.32 0.75-0.457 0.263-0.91 0.576-1.392 0.877-0.973 0.59-1.948 1.317-2.988 2.059-2.036 1.545-4.176 3.374-6.237 5.486-2.041 2.133-3.796 4.335-5.271 6.423-0.706 1.065-1.399 2.064-1.956 3.057-0.285 0.492-0.582 0.955-0.829 1.421-0.244 0.467-0.48 0.915-0.705 1.345-0.47 0.847-0.806 1.656-1.135 2.352-0.336 0.693-0.586 1.306-0.782 1.811-0.194 0.468-0.351 0.849-0.478 1.154-0.113 0.263-0.179 0.398-0.192 0.394-0.013-5e-3 0.027-0.149 0.116-0.421 0.108-0.312 0.243-0.704 0.408-1.183 0.175-0.515 0.405-1.14 0.722-1.844 0.311-0.707 0.631-1.529 1.087-2.389 0.219-0.436 0.448-0.892 0.686-1.365 0.242-0.473 0.534-0.943 0.815-1.442 0.548-1.007 1.235-2.02 1.939-3.099 1.469-2.115 3.229-4.342 5.287-6.491 2.077-2.129 4.243-3.964 6.306-5.504 1.054-0.74 2.043-1.461 3.03-2.043 0.489-0.298 0.949-0.605 1.413-0.863 0.465-0.254 0.912-0.499 1.341-0.732 0.844-0.486 1.655-0.833 2.351-1.168 0.693-0.341 1.31-0.593 1.819-0.785 0.473-0.182 0.86-0.33 1.169-0.449 0.267-0.1 0.411-0.146 0.416-0.133z" fill="#e0e0e0"/><path id="path143" d="m92.95 408.35c-0.035-6e-3 0.157-0.677 0.95-1.415 0.774-0.737 2.186-1.42 3.83-1.469 1.639-0.043 3.06 0.415 4.03 0.787 0.976 0.383 1.543 0.694 1.524 0.74-0.023 0.056-0.63-0.163-1.617-0.473-0.982-0.301-2.371-0.697-3.924-0.655-1.547 0.047-2.883 0.643-3.658 1.284-0.791 0.637-1.071 1.239-1.135 1.201z" fill="#e0e0e0"/><path id="path146" d="m90.367 411.02c-0.11-0.061 0.865-1.49 1.087-3.538 0.255-2.044-0.364-3.659-0.244-3.693 0.044-0.018 0.261 0.358 0.449 1.03 0.189 0.669 0.314 1.645 0.191 2.709-0.126 1.064-0.472 1.984-0.81 2.592-0.336 0.612-0.635 0.928-0.673 0.9z" fill="#e0e0e0"/><path id="path150" d="m62.22 446.89c0.596 10.57 3.781 21.319 8.68 32.187h21.304c4.672-10.76 7.637-21.493 8.164-32.187z" fill="#9d9d9d"/><path id="path152" d="m96.916 463.99c0 0.11-7.014 0.2-15.665 0.2-8.654 0-15.667-0.089-15.667-0.2 0-0.11 7.013-0.2 15.667-0.2 8.65 1e-3 15.665 0.09 15.665 0.2z" fill="#fafafa"/><path id="path155" d="m96.44 467.82c0 0.11-6.576 0.2-14.686 0.2-8.113 0-14.687-0.09-14.687-0.2s6.574-0.2 14.687-0.2c8.11 1e-3 14.686 0.09 14.686 0.2z" fill="#fafafa"/><path id="path158" d="m71.244 453.83c0.11 0 0.2 2.197 0.2 4.907 0 2.711-0.09 4.907-0.2 4.907s-0.2-2.197-0.2-4.907 0.089-4.907 0.2-4.907z" fill="#fafafa"/><path id="path161" d="m82.658 453.83c0.11 0 0.2 2.275 0.2 5.082s-0.09 5.082-0.2 5.082-0.2-2.275-0.2-5.082 0.09-5.082 0.2-5.082z" fill="#fafafa"/><path id="path164" d="m93.374 453.74c0.11 0 0.2 2.321 0.2 5.183 0 2.863-0.089 5.183-0.2 5.183-0.11 0-0.2-2.32-0.2-5.183s0.09-5.183 0.2-5.183z" fill="#fafafa"/><path id="path167" d="m99.692 453.83c0 0.11-8.227 0.2-18.373 0.2-10.15 0-18.375-0.089-18.375-0.2 0-0.11 8.225-0.2 18.375-0.2 10.146 0 18.373 0.089 18.373 0.2z" fill="#fafafa"/>
<g id="Background_Simple" display="none">
	<g id="g172" display="inline">
		<path id="path171" d="m455.74 168.34-1.264 1.796c-10.659 15.137-28.632 23.474-46.819 21.074-2.338-0.309-4.654-0.786-6.927-1.437-16.365-4.687-29.959-18.231-34.852-34.723-2.878-9.699-3.119-20.658-9.292-28.621-8.034-10.365-22.783-11.679-35.796-12.159s-27.77-1.833-35.759-12.234c-5.003-6.514-6.131-15.368-5.133-23.566 2.643-21.705 19.15-40.148 39.114-48.514s42.752-7.683 63.589-1.984c29.19 7.984 56.22 26.288 71.413 52.748s17.124 61.229 1.726 87.62z" fill="#F5F5F5"/>
	</g>
	<g id="g173" display="inline">
		<circle id="circle172" cx="63.064" cy="274.94" r="38.736" fill="#F5F5F5"/>
	</g>
</g>
<path id="path173" d="m475.67 480.4c0 0.144-101.04 0.26-225.66 0.26-124.66 0-225.68-0.117-225.68-0.26s101.02-0.26 225.68-0.26c124.62 0 225.66 0.116 225.66 0.26z" fill="#263238"/>
<path id="path175" d="m450.1 350.35c-6.756 3.5-11.937 9.525-15.662 16.16-3.725 6.634-6.126 13.915-8.504 21.142l-2.081 37.275c7.861-13.374 14.171-29.096 15.876-44.515-1.744-0.155-3.488-0.311-5.231-0.466 3.508-0.535 6.452-3.077 8.325-6.09s2.838-6.488 3.779-9.91c-2.128 0.316-4.255 0.633-6.383 0.949 4.998-3.336 8.621-8.669 9.881-14.545z" fill="#b3b3b3"/><path id="path178" d="m422.69 433.66s-17.063-20.423-16.866-39.92h6.893s-7.487-4.923-6.894-7.681c0.592-2.757 0.789-13.195 0.789-13.195l6.302 1.576s-4.726-2.363-5.317-6.105 1.379-21.072 1.379-21.072 7.681 8.074 10.044 16.346c2.363 8.271 8.566 17.921 6.745 43.129-1.823 25.208-3.075 26.922-3.075 26.922z" fill="#e0e0e0"/><path id="path179" d="m431.34 435.59s18.486-12.315 22.594-28.033l-5.542-1.508s7.096-2.32 7.223-4.667c0.127-2.346 2.252-10.781 2.252-10.781l-5.411-0.112s4.317-0.866 5.61-3.745c1.294-2.879 3.502-17.243 3.502-17.243s-7.941 4.811-11.651 10.944-10.808 12.534-14.859 33.199c-4.05 20.665-3.718 21.946-3.718 21.946z" fill="#e0e0e0"/><path id="path180" d="m413.64 365.07c5e-3 -1e-3 0.026 0.071 0.061 0.212 0.037 0.157 0.086 0.365 0.148 0.629 0.128 0.572 0.309 1.385 0.541 2.424 0.236 1.052 0.511 2.342 0.809 3.845 0.303 1.501 0.657 3.21 1.003 5.107 0.73 3.787 1.501 8.314 2.295 13.351 0.769 5.04 1.537 10.594 2.22 16.439 0.669 5.848 1.188 11.432 1.589 16.516 0.376 5.086 0.659 9.67 0.812 13.523 0.096 1.926 0.141 3.67 0.189 5.201 0.053 1.531 0.079 2.85 0.089 3.928 0.011 1.064 0.02 1.897 0.026 2.483 0 0.271-1e-3 0.485-1e-3 0.646-2e-3 0.146-6e-3 0.22-0.011 0.22s-0.012-0.074-0.021-0.22c-7e-3 -0.161-0.017-0.374-0.03-0.645-0.02-0.586-0.049-1.418-0.085-2.481-0.029-1.077-0.073-2.395-0.142-3.925-0.064-1.53-0.124-3.272-0.234-5.196-0.181-3.85-0.486-8.43-0.878-13.511-0.417-5.079-0.944-10.658-1.613-16.502-0.682-5.841-1.441-11.391-2.194-16.431-0.778-5.036-1.525-9.564-2.227-13.354-0.332-1.899-0.67-3.609-0.957-5.113-0.282-1.505-0.539-2.798-0.757-3.854-0.207-1.043-0.369-1.86-0.483-2.435-0.05-0.267-0.089-0.477-0.118-0.635-0.026-0.147-0.036-0.221-0.031-0.222z" fill="#263238"/><path id="path182" d="m420.32 446.17s-15.615-17.717-20.463-28.427l3.66-1.564c-2.653 0.438-5.371-0.702-7.428-2.434s-3.568-4.009-5.049-6.253l4.822-0.815c-4.385-1.23-8.248-4.223-10.535-8.161 5.69 0.936 10.837 4.061 15.079 7.967 3.435 3.163 6.344 6.836 9.137 10.587 1.363 1.83 2.555 3.78 3.549 5.834 2.623 5.425 7.237 16.759 7.228 23.266z" fill="#e0e0e0"/><path id="path183" d="m454.18 379.81c5e-3 2e-3 -0.02 0.064-0.072 0.18-0.061 0.131-0.141 0.301-0.24 0.515-0.227 0.468-0.545 1.126-0.951 1.965-0.838 1.701-2.024 4.175-3.459 7.245-1.44 3.068-3.097 6.749-4.877 10.861-1.765 4.118-3.645 8.672-5.516 13.493-1.86 4.827-3.533 9.462-4.998 13.697-1.449 4.241-2.7 8.078-3.698 11.317-1.004 3.237-1.79 5.865-2.315 7.687-0.264 0.894-0.471 1.595-0.618 2.094-0.07 0.225-0.125 0.404-0.168 0.542-0.04 0.122-0.063 0.183-0.068 0.182s7e-3 -0.066 0.037-0.19c0.035-0.141 0.081-0.322 0.139-0.551 0.134-0.502 0.322-1.209 0.562-2.11 0.488-1.832 1.243-4.471 2.22-7.719 0.972-3.249 2.202-7.097 3.637-11.346 1.451-4.244 3.117-8.886 4.979-13.717 1.872-4.825 3.762-9.379 5.543-13.495 1.796-4.109 3.475-7.783 4.941-10.841 1.462-3.06 2.678-5.521 3.55-7.205 0.428-0.828 0.765-1.478 1.004-1.94 0.111-0.208 0.2-0.373 0.268-0.501 0.061-0.109 0.095-0.166 0.1-0.163z" fill="#263238"/><path id="path185" d="m421.65 453.76c-0.011 1e-3 -0.036-0.111-0.074-0.326-0.04-0.249-0.09-0.56-0.152-0.94-0.06-0.409-0.136-0.909-0.244-1.486-0.105-0.578-0.206-1.238-0.363-1.96-0.28-1.45-0.681-3.163-1.193-5.047-0.528-1.879-1.175-3.926-1.965-6.035-0.802-2.106-1.669-4.07-2.515-5.829-0.861-1.752-1.693-3.302-2.441-4.576-0.359-0.646-0.72-1.208-1.023-1.711-0.3-0.505-0.573-0.93-0.799-1.276-0.205-0.326-0.373-0.592-0.507-0.806-0.113-0.186-0.169-0.287-0.16-0.293s0.081 0.083 0.211 0.258c0.148 0.205 0.332 0.461 0.557 0.774 0.242 0.337 0.53 0.753 0.846 1.25 0.318 0.495 0.693 1.051 1.065 1.692 0.775 1.263 1.63 2.809 2.509 4.562 0.864 1.76 1.743 3.73 2.549 5.846 0.793 2.119 1.436 4.179 1.951 6.07 0.498 1.896 0.879 3.621 1.132 5.081 0.144 0.727 0.23 1.392 0.319 1.974 0.092 0.581 0.151 1.085 0.192 1.497 0.038 0.384 0.069 0.697 0.094 0.949 0.018 0.216 0.022 0.331 0.011 0.332z" fill="#263238"/><rect id="rect187" x="408.08" y="449.59" width="34.175" height="6.971" fill="#9d9d9d"/><polygon id="polygon188" points="435.68 480.01 439.13 456.56 411.33 456.56 415.03 480.01" fill="#e0e0e0"/><path id="path189" d="m440.16 456.56c0 0.086-6.465 0.156-14.438 0.156-7.976 0-14.44-0.07-14.44-0.156s6.464-0.156 14.44-0.156c7.973 0 14.438 0.069 14.438 0.156z" fill="#263238"/>
<path id="path192" d="m400.33 256.03 5.982-0.034c2.111 2.68 4.966 4.829 8.404 6.09 9.889 3.627 20.845-1.449 24.471-11.338 3.627-9.888-1.449-20.844-11.338-24.471-9.888-3.627-20.844 1.449-24.471 11.338-1.514 4.129-1.506 8.442-0.269 12.333l-6e-3 -9e-3z" fill="#ffffff"/><path id="path199" d="m400.33 256.03s0.069-0.138 0.193-0.402c0.126-0.27 0.308-0.658 0.545-1.166 0.477-1.027 1.178-2.536 2.089-4.499l-0.104 7e-3 6e-3 9e-3c0.017 0.028 0.054 0.036 0.082 0.019 0.023-0.015 0.033-0.044 0.025-0.069-0.738-2.375-1.253-5.652-0.511-9.381 0.184-0.927 0.44-1.879 0.792-2.832 0.396-0.935 0.773-1.919 1.336-2.847 1.063-1.881 2.518-3.699 4.371-5.236 1.848-1.537 4.09-2.789 6.593-3.551 2.499-0.765 5.26-1.034 8.033-0.668 5.546 0.68 11.087 4.183 14.047 9.585 1.496 2.746 2.358 5.796 2.377 8.808 0.054 3.008-0.614 5.944-1.828 8.523-1.206 2.589-3.008 4.777-5.058 6.466-2.057 1.691-4.383 2.875-6.721 3.563-2.342 0.691-4.693 0.886-6.869 0.712-0.272-0.027-0.542-0.053-0.81-0.079-0.269-0.021-0.534-0.051-0.792-0.113-0.519-0.104-1.03-0.207-1.531-0.308-0.975-0.31-1.935-0.559-2.803-0.949-3.512-1.496-5.922-3.753-7.436-5.66-0.011-0.014-0.028-0.021-0.045-0.022-1.93 0.026-3.416 0.046-4.43 0.06-0.501 8e-3 -0.884 0.015-1.152 0.019-0.26 4e-3 -0.399 0.011-0.399 0.011s0.122 5e-3 0.375 7e-3c0.265 1e-3 0.642 3e-3 1.136 6e-3 1.023 3e-3 2.523 6e-3 4.471 0.01l-0.045-0.021c1.504 1.932 3.918 4.224 7.455 5.752 0.874 0.398 1.841 0.655 2.825 0.971 0.506 0.104 1.022 0.21 1.546 0.318 0.261 0.064 0.528 0.095 0.799 0.118 0.27 0.028 0.543 0.055 0.818 0.083 2.199 0.184 4.577-5e-3 6.949-0.698 2.368-0.689 4.726-1.882 6.813-3.591 2.079-1.707 3.91-3.921 5.135-6.544 1.234-2.612 1.914-5.588 1.861-8.639-0.018-3.054-0.891-6.148-2.408-8.933-0.167-0.352-0.386-0.672-0.598-0.996l-0.634-0.968-0.719-0.901c-0.236-0.302-0.474-0.602-0.75-0.866-0.266-0.274-0.531-0.547-0.795-0.819-0.257-0.28-0.569-0.499-0.85-0.751-0.292-0.239-0.567-0.498-0.871-0.718-0.309-0.213-0.618-0.425-0.925-0.637-2.482-1.66-5.293-2.7-8.105-3.053-2.812-0.368-5.61-0.09-8.139 0.689-2.534 0.777-4.801 2.05-6.666 3.611-1.871 1.56-3.337 3.405-4.405 5.31-0.565 0.94-0.943 1.935-1.338 2.881-0.351 0.965-0.606 1.926-0.787 2.863-0.73 3.769-0.189 7.07 0.575 9.452l0.107-0.05-6e-3 -9e-3c-0.017-0.028-0.054-0.036-0.082-0.019-0.01 6e-3 -0.018 0.016-0.023 0.026-0.89 1.993-1.574 3.525-2.039 4.569-0.224 0.506-0.395 0.891-0.514 1.161-0.115 0.259-0.166 0.386-0.166 0.386z" fill="#263238"/><polygon id="polygon212" points="431.03 239.63 419.76 252.03 411.57 245.01 414.24 242.06 419.89 246.6 428.28 236.96" fill="#ff725e"/>
<rect id="rect222" transform="rotate(175.39)" x="-214.8" y="-141.63" width="110.08" height="92.526" fill="#c4b7c8"/><rect id="rect223" transform="rotate(175.39)" x="-138.72" y="-141.67" width="34.016" height="92.526" opacity=".3"/><path id="path225" d="m149.67 130.06c-0.143 0.012-1.904-19.997-3.932-44.685-2.029-24.697-3.557-44.72-3.413-44.732 0.143-0.012 1.904 19.993 3.933 44.689 2.027 24.688 3.555 44.716 3.412 44.728z" fill="#263238"/><path id="path227" d="m201.59 83.488c1.502 1.67 2.355 3.761 2.558 6.28 0.296 3.677-0.954 6.632-3.749 8.869-2.796 2.237-6.991 3.581-12.585 4.032l-22.656 1.828-3.385-41.957 21.457-1.731c5.354-0.432 9.509 0.229 12.467 1.98 2.956 1.752 4.57 4.307 4.841 7.664 0.162 1.998-0.184 3.825-1.035 5.483-0.852 1.658-2.14 3.018-3.864 4.082 2.465 0.645 4.448 1.802 5.951 3.47zm-27.378-13.324 0.653 8.091 8.151-0.658c3.996-0.322 5.885-1.842 5.665-4.56-0.216-2.677-2.323-3.853-6.318-3.531zm17.842 19.251c-0.229-2.836-2.422-4.087-6.578-3.752l-9.949 0.803 0.687 8.511 9.949-0.803c4.156-0.335 6.12-1.921 5.891-4.759z" opacity=".3"/><path id="path228" d="m205.26 83.193c1.502 1.67 2.355 3.761 2.559 6.28 0.296 3.677-0.954 6.632-3.749 8.869-2.796 2.237-6.99 3.581-12.584 4.032l-22.656 1.828-3.386-41.957 21.458-1.731c5.354-0.432 9.509 0.229 12.466 1.98 2.957 1.753 4.57 4.307 4.841 7.665 0.161 1.998-0.184 3.825-1.036 5.483s-2.139 3.018-3.863 4.082c2.465 0.644 4.447 1.801 5.95 3.469zm-27.378-13.324 0.653 8.091 8.151-0.658c3.995-0.323 5.884-1.842 5.665-4.56-0.216-2.677-2.323-3.854-6.318-3.531zm17.843 19.251c-0.229-2.836-2.422-4.087-6.578-3.752l-9.949 0.803 0.687 8.511 9.95-0.803c4.154-0.335 6.119-1.921 5.89-4.759z" fill="#ffffff"/><path id="path230" d="m171.15 480.49-0.188-238.51h-7.094c0.458 1.633 0 238.51 0 238.51z" fill="#e0e0e0"/><path id="path231" d="m171.15 480.49s-0.563 0.015-1.76 0.025c-1.213 8e-3 -3.036 0.019-5.521 0.035h-0.061v-0.061c-1e-3 -12.623-5e-3 -43.203-9e-3 -85.136 7e-3 -20.979 0.014-44.796 0.022-70.617-4e-3 -12.911-9e-3 -26.324-0.013-40.134-0.01-6.905-0.021-13.909-0.032-21-0.012-3.545-0.023-7.112-0.035-10.698-0.013-1.793-0.025-3.591-0.038-5.394l-0.022-2.705-0.061-2.653c-1e-3 -0.036-1e-3 -0.071-2e-3 -0.104l-7e-3 -0.331h0.257 7.094 0.26v0.26c0.01 66.277 0.02 125.93 0.026 169.03-0.016 21.515-0.03 38.894-0.039 50.906-0.012 5.985-0.02 10.631-0.027 13.792-7e-3 1.564-0.012 2.759-0.016 3.574-4e-3 0.806-0.016 1.208-0.016 1.208s-0.013-0.426-0.02-1.241c-5e-3 -0.823-0.012-2.029-0.021-3.609-0.011-3.175-0.027-7.841-0.048-13.853-0.028-12.027-0.069-29.427-0.119-50.968-0.061-43.051-0.146-102.64-0.24-168.84l0.26 0.26h-7.094l0.251-0.331c1e-3 0.034 2e-3 0.071 3e-3 0.109l0.078 2.776 0.022 2.712c0.013 1.803 0.025 3.602 0.038 5.396 0.011 3.587 0.023 7.154 0.034 10.7 9e-3 7.091 0.017 14.095 0.026 21-3e-3 13.81-6e-3 27.223-9e-3 40.134-0.039 25.822-0.075 49.638-0.106 70.618-0.136 41.933-0.235 72.513-0.276 85.136l-0.061-0.061c2.47 0.016 4.281 0.028 5.487 0.035 1.202 0.012 1.795 0.026 1.795 0.026z" fill="#263238"/><polygon id="polygon234" points="91.751 480.4 185.22 194.05 176.85 191.69 83.383 480.4" fill="#e0e0e0"/><path id="path235" d="m176.85 191.69s0.66 0.17 2.041 0.548c1.394 0.385 3.493 0.964 6.346 1.751l0.059 0.016-0.019 0.059c-9.699 29.781-47.768 146.67-93.277 286.41l-0.059 0.18h-0.189-0.941-7.427-0.358l0.11-0.341c25.982-80.121 49.393-152.31 66.311-204.48 8.468-26.048 15.311-47.097 20.04-61.642 2.365-7.253 4.201-12.882 5.449-16.707 0.623-1.898 1.099-3.347 1.422-4.33 0.321-0.972 0.492-1.458 0.492-1.458s-0.154 0.517-0.467 1.505c-0.317 0.993-0.784 2.456-1.396 4.374-1.235 3.843-3.053 9.5-5.395 16.787-4.697 14.57-11.495 35.654-19.907 61.747-16.853 52.142-40.172 124.29-66.053 204.37l-0.248-0.34h7.427 0.941l-0.247 0.18c45.696-139.68 83.921-256.52 93.66-286.28l0.04 0.075c-2.83-0.813-4.912-1.41-6.295-1.807-1.381-0.4-2.06-0.606-2.06-0.606z" fill="#263238"/><rect id="rect239" x="121.98" y="366.53" width="70.194" height="7.637" fill="#e0e0e0"/><path id="path240" d="m192.17 374.16s-0.014-0.18-0.022-0.514c-6e-3 -0.356-0.015-0.844-0.026-1.472-0.015-1.309-0.036-3.201-0.063-5.651l0.111 0.111c-12.255 0.088-39.095 0.149-70.19 0.149h-2e-3c0.116-0.116-0.261 0.26 0.259-0.26v1.953 1.933c0 1.278-1e-3 2.534-1e-3 3.752l-0.259-0.259c19.682 0.044 37.187 0.083 49.803 0.111 6.299 0.032 11.377 0.059 14.91 0.077 1.739 0.015 3.097 0.027 4.05 0.036 0.446 7e-3 0.796 0.013 1.059 0.018 0.239 4e-3 0.365 0.01 0.371 0.016s-0.108 0.012-0.337 0.018c-0.255 4e-3 -0.594 0.01-1.026 0.018-0.939 8e-3 -2.277 0.021-3.991 0.036-3.519 0.018-8.575 0.044-14.849 0.077-12.664 0.028-30.235 0.067-49.991 0.111l-0.259 1e-3v-0.26c0-1.218-1e-3 -2.474-1e-3 -3.752v-1.933-1.953c0.521-0.52 0.145-0.144 0.262-0.26h2e-3c31.096 0 57.936 0.061 70.19 0.149l0.112 1e-3 -1e-3 0.11c-0.027 2.478-0.049 4.392-0.063 5.715-0.011 0.618-0.02 1.097-0.026 1.447-8e-3 0.322-0.015 0.482-0.022 0.475z" fill="#263238"/><rect id="rect244" x="176.9" y="366.53" width="15.276" height="7.637" opacity=".3"/><rect id="rect246" x="104.75" y="414.85" width="70.194" height="7.637" fill="#e0e0e0"/><path id="path247" d="m174.95 422.49s-0.014-0.18-0.022-0.514c-6e-3 -0.356-0.015-0.844-0.026-1.472-0.015-1.309-0.036-3.201-0.063-5.651l0.111 0.111c-12.255 0.088-39.095 0.149-70.19 0.149h-2e-3c0.116-0.116-0.261 0.26 0.259-0.26v1.952 1.933c0 1.278-1e-3 2.534-1e-3 3.752l-0.259-0.259c19.682 0.044 37.186 0.083 49.803 0.111 6.299 0.032 11.377 0.059 14.91 0.077 1.739 0.015 3.097 0.027 4.05 0.036 0.446 8e-3 0.796 0.013 1.06 0.018 0.238 5e-3 0.364 0.011 0.37 0.017s-0.108 0.012-0.337 0.018c-0.255 4e-3 -0.594 0.01-1.026 0.018-0.939 8e-3 -2.277 0.021-3.991 0.036-3.519 0.018-8.575 0.044-14.849 0.077-12.664 0.028-30.235 0.067-49.991 0.111l-0.259 1e-3v-0.26c0-1.218-1e-3 -2.474-1e-3 -3.752v-1.933-1.952c0.521-0.521 0.146-0.144 0.262-0.26h2e-3c31.096 0 57.936 0.061 70.19 0.149l0.112 1e-3 -1e-3 0.111c-0.027 2.478-0.048 4.392-0.063 5.715-0.011 0.618-0.02 1.097-0.026 1.447-8e-3 0.32-0.015 0.48-0.022 0.473z" fill="#263238"/><rect id="rect251" x="93.813" y="456.29" width="70.194" height="7.637" fill="#e0e0e0"/><path id="path252" d="m164.01 463.93s-0.014-0.18-0.022-0.514c-6e-3 -0.356-0.015-0.844-0.026-1.472-0.015-1.309-0.036-3.201-0.063-5.651l0.111 0.111c-12.255 0.088-39.095 0.149-70.19 0.149h-2e-3c0.116-0.116-0.261 0.26 0.259-0.26v1.952 1.933c0 1.278-1e-3 2.534-1e-3 3.752l-0.259-0.259c19.682 0.044 37.186 0.083 49.803 0.111 6.299 0.032 11.377 0.059 14.91 0.077 1.739 0.015 3.097 0.027 4.05 0.036 0.446 8e-3 0.796 0.013 1.059 0.018 0.239 5e-3 0.365 0.011 0.371 0.017s-0.108 0.012-0.337 0.018c-0.255 4e-3 -0.594 0.01-1.026 0.018-0.939 8e-3 -2.277 0.021-3.991 0.036-3.519 0.018-8.575 0.044-14.849 0.077-12.664 0.028-30.234 0.067-49.99 0.111l-0.259 1e-3v-0.26c0-1.218-1e-3 -2.474-1e-3 -3.752v-1.933-1.952c0.521-0.521 0.146-0.144 0.262-0.26h2e-3c31.096 0 57.936 0.061 70.19 0.149l0.112 1e-3 -1e-3 0.11c-0.027 2.478-0.049 4.392-0.063 5.715-0.011 0.618-0.02 1.097-0.026 1.447-0.01 0.321-0.016 0.481-0.023 0.474z" fill="#263238"/><polyline id="polyline256" points="137.62 324.14 221.44 324.14 221.44 331.77 137.62 331.77" fill="#e0e0e0"/><path id="path257" d="m137.62 331.77c0-9e-3 0.145-0.017 0.429-0.026 0.306-6e-3 0.724-0.014 1.259-0.025 1.133-0.011 2.76-0.027 4.846-0.048 4.237-0.019 10.333-0.047 17.875-0.081 15.143-0.02 36.087-0.049 59.411-0.08l-0.26 0.26v-3.814-3.822l0.26 0.26c-23.329-0.031-44.274-0.06-59.415-0.08-7.541-0.034-13.636-0.062-17.872-0.081-2.086-0.021-3.713-0.037-4.845-0.048-0.535-0.011-0.952-0.019-1.258-0.025-0.283-9e-3 -0.428-0.017-0.428-0.026s0.145-0.017 0.428-0.026c0.306-6e-3 0.724-0.014 1.258-0.025 1.132-0.011 2.76-0.027 4.845-0.048 4.236-0.019 10.331-0.047 17.872-0.081 15.141-0.02 36.086-0.049 59.415-0.08h0.26v0.261 3.822 3.814 0.261h-0.26c-23.324-0.031-44.268-0.06-59.411-0.08-7.542-0.034-13.637-0.062-17.875-0.082-2.086-0.021-3.714-0.036-4.846-0.048-0.535-0.011-0.952-0.019-1.259-0.025-0.284-9e-3 -0.429-0.018-0.429-0.027z" fill="#263238"/><rect id="rect261" x="186.94" y="324.14" width="34.752" height="7.36" opacity=".3"/><rect id="rect263" x="158.4" y="414.85" width="16.545" height="7.637" opacity=".3"/><rect id="rect265" x="142.56" y="456.29" width="21.311" height="7.637" opacity=".3"/><path id="path267" d="m185.22 194.05s5.789-10.689 16.946-13.768c8.042-2.219 19.453-1.865 21.981-1.312 5.22 1.143 7.994 6.659 4.573 17.036l-85.617 284.39h8.696l86.424-286.4c1-3.293 5.261-22.005-15.844-22.228-11.747-0.124-21.231 0.82-29.018 4.246-8.498 3.739-14.324 9.784-17.044 17.207" fill="#e0e0e0"/><path id="path268" d="m176.32 193.23s0.204-0.631 0.72-1.817c0.516-1.182 1.368-2.926 2.856-4.97 0.738-1.025 1.648-2.109 2.725-3.237 1.098-1.106 2.377-2.24 3.865-3.336 2.969-2.194 6.795-4.21 11.388-5.613 4.596-1.397 9.913-2.157 15.734-2.456 2.913-0.149 5.954-0.201 9.119-0.148 3.154 0.077 6.521 0.518 9.592 2.1 1.524 0.786 2.935 1.883 4.059 3.267 1.114 1.392 1.918 3.054 2.403 4.821 0.959 3.556 0.76 7.437-0.123 11.201-2.168 7.419-4.556 15.201-7.011 23.405-19.767 65.573-47.071 156.15-77.228 256.18-0.811 2.686-1.619 5.365-2.366 7.841l-0.056 0.185h-0.193-8.696-0.35l0.101-0.335c29.059-96.416 55.143-182.96 73.964-245.41 2.356-7.804 4.599-15.231 6.719-22.255 1.061-3.511 2.091-6.922 3.089-10.227 0.499-1.653 0.991-3.279 1.474-4.88 0.458-1.608 1.018-3.154 1.356-4.727 0.721-3.108 0.959-6.337-0.057-9.14-0.512-1.385-1.399-2.6-2.558-3.417-1.154-0.834-2.538-1.227-3.898-1.354-5.493-0.478-10.57-0.213-15.06 0.35-2.244 0.304-4.355 0.697-6.271 1.289-1.937 0.538-3.615 1.406-5.146 2.226-3.002 1.777-5.21 3.778-6.848 5.501-1.634 1.737-2.705 3.213-3.399 4.216-0.689 1.008-1 1.552-1 1.552s0.281-0.562 0.957-1.581c0.681-1.014 1.741-2.504 3.367-4.257 1.631-1.739 3.836-3.761 6.847-5.562 1.536-0.831 3.222-1.713 5.172-2.262 1.927-0.603 4.044-1.005 6.295-1.318 4.507-0.579 9.583-0.861 15.113-0.395 1.38 0.125 2.819 0.526 4.016 1.387 1.205 0.845 2.129 2.107 2.659 3.531 1.051 2.883 0.806 6.158 0.088 9.296-0.338 1.59-0.898 3.146-1.352 4.753-0.48 1.601-0.969 3.229-1.465 4.883-0.992 3.308-2.016 6.72-3.071 10.233-2.109 7.027-4.34 14.458-6.684 22.265-18.782 62.458-44.811 149.02-73.81 245.45l-0.249-0.335h8.696l-0.249 0.185c0.747-2.476 1.556-5.155 2.366-7.841 30.214-100.02 57.569-190.58 77.374-256.14 2.465-8.193 4.872-15.997 7.042-23.378 0.879-3.715 1.078-7.554 0.144-11.04-0.473-1.732-1.255-3.356-2.337-4.714-1.093-1.351-2.466-2.424-3.958-3.198-3.006-1.558-6.334-2.006-9.463-2.089-3.155-0.059-6.195-0.016-9.101 0.126-5.809 0.283-11.108 1.026-15.688 2.402-4.574 1.381-8.391 3.373-11.355 5.544-1.486 1.084-2.764 2.206-3.864 3.302-1.078 1.117-1.991 2.191-2.733 3.207-1.496 2.026-2.362 3.757-2.892 4.93-0.287 0.579-0.441 1.044-0.575 1.342-0.125 0.306-0.194 0.456-0.194 0.456z" fill="#263238"/><path id="path272" d="m221.44 479.34-0.188-237.36h-7.094c0.458 1.625 0 237.36 0 237.36z" fill="#e0e0e0"/><path id="path274" d="m149.32 335.74-0.675 19.742s19.84 7.316 20.07 10.976l-38.325 0.066-0.122-17.775z" fill="#8a6f91"/><g id="g289">
																				<path id="path288" d="m136.79 353.84c-0.741 0.204-1.252 1.039-1.079 1.788s1.018 1.276 1.763 1.085 1.389-1.174 1.133-1.899-1.282-1.29-1.959-0.925" fill="#e0e0e0"/>
																			</g><path id="path303" d="m130.39 366.53 0.1-3.106 36.708 1.098s1.708 0.74 1.517 1.942z" fill="#67536c"/><g id="g318">
																				<path id="path317" d="m149.27 355.29c-6e-3 0.187-0.941 0.274-1.861 0.877-0.936 0.579-1.409 1.391-1.581 1.317-0.173-0.036 0.105-1.155 1.231-1.866 1.12-0.721 2.252-0.499 2.211-0.328z" fill="#ffffff"/>
																			</g><g id="g333">
																				<path id="path332" d="m153.29 356.94c0.043 0.181-0.767 0.501-1.401 1.293-0.657 0.774-0.816 1.63-1.003 1.622-0.176 0.03-0.307-1.066 0.5-2.036 0.799-0.977 1.9-1.058 1.904-0.879z" fill="#ffffff"/>
																			</g><g id="g348">
																				<path id="path347" d="m155.58 361.75c-0.17 0.04-0.432-0.895 0.047-1.92 0.472-1.029 1.353-1.435 1.433-1.279 0.106 0.154-0.461 0.704-0.841 1.553-0.401 0.838-0.453 1.627-0.639 1.646z" fill="#ffffff"/>
																			</g><g id="g363">
																				<path id="path362" d="m148.92 350.77c-0.078 0.171-0.937-0.086-1.995-0.012-1.059 0.052-1.882 0.408-1.979 0.248-0.109-0.135 0.694-0.829 1.941-0.898 1.245-0.079 2.124 0.515 2.033 0.662z" fill="#ffffff"/>
																			</g><path id="path379" d="m164.51 296.99-1.21 18.906s18.811 7.58 18.927 11.095l-36.742-1.03 0.677-29.536z" fill="#8a6f91"/><g id="g394">
																				<path id="path393" d="m151.98 313.98c-0.717 0.174-1.23 0.96-1.085 1.683s0.939 1.253 1.659 1.091c0.719-0.162 1.365-1.086 1.14-1.789-0.225-0.702-1.192-1.273-1.852-0.943" fill="#e0e0e0"/>
																			</g><path id="path408" d="m145.48 325.96 0.185-2.974 35.159 2.1s1.616 0.757 1.399 1.904z" fill="#67536c"/><g id="g423">
																				<path id="path422" d="m163.9 315.72c-0.011 0.179-0.911 0.236-1.809 0.788-0.914 0.529-1.39 1.293-1.553 1.217-0.164-0.039 0.133-1.104 1.233-1.754 1.094-0.658 2.173-0.414 2.129-0.251z" fill="#ffffff"/>
																			</g><g id="g438">
																				<path id="path437" d="m167.71 317.42c0.036 0.175-0.749 0.458-1.38 1.2-0.652 0.723-0.829 1.539-1.008 1.526-0.169 0.024-0.264-1.03 0.538-1.938 0.794-0.913 1.851-0.959 1.85-0.788z" fill="#ffffff"/>
																			</g><g id="g453">
																				<path id="path452" d="m169.77 322.1c-0.164 0.033-0.389-0.87 0.1-1.839 0.481-0.974 1.338-1.337 1.41-1.186 0.097 0.15-0.462 0.662-0.851 1.465-0.408 0.792-0.48 1.548-0.659 1.56z" fill="#ffffff"/>
																			</g><g id="g468">
																				<path id="path467" d="m163.7 311.38c-0.08 0.161-0.896-0.109-1.912-0.068-1.017 0.02-1.816 0.338-1.905 0.181-0.1-0.133 0.689-0.775 1.886-0.806 1.197-0.04 2.023 0.555 1.931 0.693z" fill="#ffffff"/>
																			</g><path id="path484" d="m167.28 218.97c0.505 0.776-1.009 67.797-1.262 74.525-0.252 6.728-13.997 59.187-13.997 59.187l-23.049-1.555s7.02-52.456 7.525-54.527c0.505-2.07 0.757-7.246 0.757-8.022s-6.985-52.848-6.985-52.848-7.983-12.46-8.74-16.083 0.418-24.562 0.418-24.562l42.81 5.77z" fill="#1b2328"/><path id="path486" d="m186.48 250.47c0-2.603-0.593-5.163-1.736-7.487-2.56-5.207-10.03-19.302-12.355-22.604-3.28-4.658-9.74-17.979-9.74-17.979l-21.195 15.267 15.409 38.039-10.145 52.514 22.599 4.489 16.431-57.295c0.485-1.6 0.732-3.267 0.732-4.944z" fill="#1b2328"/><path id="path488" d="m169.76 223.47c-9e-3 0-0.02 0.114-0.034 0.338-0.013 0.25-0.029 0.578-0.051 0.992-0.035 0.904-0.084 2.184-0.148 3.817-0.111 3.346-0.27 8.136-0.467 14.041-0.197 5.937-0.43 12.992-0.689 20.823-0.143 3.919-0.294 8.031-0.45 12.294-0.194 4.254-0.312 8.693-0.713 13.164-0.817 4.415-1.899 8.723-2.859 12.873-0.999 4.148-1.962 8.15-2.88 11.963-1.862 7.612-3.539 14.469-4.95 20.239-1.403 5.739-2.541 10.394-3.336 13.646-0.38 1.59-0.677 2.836-0.887 3.715-0.091 0.405-0.164 0.725-0.219 0.969-0.047 0.219-0.066 0.332-0.058 0.334s0.045-0.107 0.108-0.322c0.067-0.241 0.155-0.557 0.267-0.957 0.232-0.874 0.56-2.112 0.979-3.692 0.832-3.243 2.023-7.884 3.491-13.607 1.441-5.763 3.154-12.612 5.055-20.215 0.927-3.812 1.9-7.812 2.909-11.959 0.968-4.163 2.048-8.432 2.878-12.919 0.408-4.543 0.518-8.944 0.707-13.212 0.146-4.264 0.287-8.378 0.421-12.298 0.219-7.833 0.416-14.89 0.582-20.828 0.129-5.907 0.234-10.698 0.307-14.045 0.023-1.635 0.041-2.916 0.053-3.82 0-0.416 1e-3 -0.744 1e-3 -0.994-3e-3 -0.225-8e-3 -0.34-0.017-0.34z" fill="#e2dbe3"/><path id="path493" d="m155.25 149.46c2.164 2.405 20.435 22.896 20.435 22.896l26.588 0.902 0.994 9.65s-25.422 6.315-31.986 6.152-10.816-6.14-10.816-6.14l-12.679-17.33z" fill="#ffbf9d"/><path id="path494" d="m161.09 91.315c-0.592-1.011-1.205-1.74-2.284-2.177-9.651-3.911-20.671-3.336-30.568-0.122-2.571 0.835-5.316 2.045-6.489 4.502l-0.012 0.163c-0.492 1.601 0.353 3.62 1.594 4.734s2.87 1.673 4.479 2.087c7.656 1.97 15.738 1.251 23.516-0.136 1.825-0.326 3.658-0.691 5.371-1.407 1.713-0.715 3.314-1.809 4.367-3.349 0.895-1.307 0.827-2.928 0.026-4.295z" fill="#453748"/><g id="g503">
																				<path id="path502" d="m128.58 107.64c-1.131-3.325-2.249-6.676-2.791-10.147s-0.486-7.097 0.693-10.406c0.179-0.502 1.715-3.871 2.245-3.826 0.379 0.032-0.553 3.169-0.357 3.495 1.87 3.114 2.418 6.881 2.176 10.505-0.242 3.625-0.951 6.891-1.966 10.379" fill="#1a1a1a"/>
																			</g><path id="path512" d="m157.16 92.844c-0.332-8.2-6.909-14.767-15.109-15.095l-0.815-0.033c-8.808 0.162-13.591 7.733-13.186 16.533l0.534 28.431 20.735 7.165-0.78-5.182s4e-3 -2.259 0.017-2.26c0 0 8.5-0.976 8.942-9.417 0.215-4.079-0.028-12.513-0.338-20.142z" fill="#ffbf9d"/><g id="g518">
																				<g id="g517">
																					<g id="g516">
																						<path id="path515" d="m148.56 122.4s-5.336 0.099-10.867-3.691c0 0 2.391 6.374 10.85 5.951z" fill="#ff9a6c"/>
																					</g>
																				</g>
																			</g><g id="g536">
																				<g id="g535">
																					<g id="g534">
																						<g id="g533">
																							<g id="g532">
																								<g id="g531">
																									<g id="g530">
																										<g id="g529">
																											<g id="g528">
																												<path id="path527" d="m154.39 100.35c-3e-3 0.638-0.546 1.161-1.212 1.171-0.665 9e-3 -1.203-0.499-1.2-1.137s0.545-1.162 1.21-1.171c0.667-0.01 1.205 0.499 1.202 1.137z" fill="#263238"/>
																											</g>
																										</g>
																									</g>
																								</g>
																							</g>
																						</g>
																					</g>
																				</g>
																			</g><g id="g555">
																				<g id="g554">
																					<g id="g553">
																						<g id="g552">
																							<g id="g551">
																								<g id="g550">
																									<g id="g549">
																										<g id="g548">
																											<g id="g547">
																												<g id="g546">
																													<path id="path545" d="m155.22 96.277c-0.156 0.151-1.042-0.562-2.341-0.61-1.296-0.067-2.275 0.563-2.41 0.398-0.066-0.073 0.097-0.351 0.524-0.636 0.42-0.284 1.128-0.549 1.937-0.513 0.808 0.037 1.476 0.361 1.855 0.682 0.388 0.322 0.512 0.612 0.435 0.679z" fill="#263238"/>
																												</g>
																											</g>
																										</g>
																									</g>
																								</g>
																							</g>
																						</g>
																					</g>
																				</g>
																			</g><g id="g573">
																				<g id="g572">
																					<g id="g571">
																						<g id="g570">
																							<g id="g569">
																								<g id="g568">
																									<g id="g567">
																										<g id="g566">
																											<g id="g565">
																												<path id="path564" d="m142.9 100.26c-3e-3 0.638-0.546 1.161-1.212 1.17-0.665 9e-3 -1.203-0.499-1.2-1.137s0.546-1.162 1.211-1.171c0.666-0.01 1.204 0.5 1.201 1.138z" fill="#263238"/>
																											</g>
																										</g>
																									</g>
																								</g>
																							</g>
																						</g>
																					</g>
																				</g>
																			</g><g id="g592">
																				<g id="g591">
																					<g id="g590">
																						<g id="g589">
																							<g id="g588">
																								<g id="g587">
																									<g id="g586">
																										<g id="g585">
																											<g id="g584">
																												<g id="g583">
																													<path id="path582" d="m142.48 96.294c-0.156 0.151-1.044-0.561-2.341-0.61-1.296-0.067-2.275 0.563-2.41 0.398-0.066-0.073 0.096-0.351 0.525-0.636 0.42-0.285 1.128-0.549 1.936-0.514 0.808 0.037 1.477 0.362 1.855 0.682 0.387 0.323 0.511 0.613 0.435 0.68z" fill="#263238"/>
																												</g>
																											</g>
																										</g>
																									</g>
																								</g>
																							</g>
																						</g>
																					</g>
																				</g>
																			</g><g id="g610">
																				<g id="g609">
																					<g id="g608">
																						<g id="g607">
																							<g id="g606">
																								<g id="g605">
																									<g id="g604">
																										<g id="g603">
																											<g id="g602">
																												<path id="path601" d="m146.74 106.45c-3e-3 -0.074 0.809-0.181 2.123-0.296 0.333-0.021 0.649-0.074 0.714-0.298 0.087-0.236-0.037-0.599-0.182-0.991-0.28-0.814-0.572-1.668-0.879-2.563-1.218-3.648-2.085-6.641-1.937-6.689 0.147-0.048 1.254 2.87 2.471 6.518 0.292 0.899 0.572 1.756 0.838 2.576 0.11 0.382 0.309 0.818 0.12 1.308-0.099 0.244-0.35 0.414-0.564 0.463-0.215 0.056-0.402 0.052-0.566 0.056-1.32 0.016-2.136-0.01-2.138-0.084z" fill="#263238"/>
																											</g>
																										</g>
																									</g>
																								</g>
																							</g>
																						</g>
																					</g>
																				</g>
																			</g><g id="g628">
																				<g id="g627">
																					<g id="g626">
																						<g id="g625">
																							<g id="g624">
																								<g id="g623">
																									<g id="g622">
																										<g id="g621">
																											<g id="g620">
																												<path id="path619" d="m142.88 107.2c0.212-4e-3 0.158 1.405 1.324 2.453 1.163 1.051 2.672 0.953 2.675 1.151 0.016 0.089-0.345 0.26-0.98 0.252-0.623-4e-3 -1.523-0.24-2.236-0.881-0.711-0.643-0.995-1.473-1.02-2.053-0.03-0.591 0.141-0.934 0.237-0.922z" fill="#263238"/>
																											</g>
																										</g>
																									</g>
																								</g>
																							</g>
																						</g>
																					</g>
																				</g>
																			</g><g id="g642">
																				<g id="g641">
																					<g id="g640">
																						<g id="g639">
																							<g id="g638">
																								<path id="path637" d="m142.62 91.024c-0.142 0.348-1.431 0.129-2.961 0.251-1.533 0.092-2.778 0.488-2.968 0.164-0.084-0.155 0.143-0.479 0.653-0.8 0.506-0.321 1.304-0.614 2.222-0.68 0.918-0.063 1.749 0.115 2.295 0.363 0.551 0.249 0.821 0.537 0.759 0.702z" fill="#263238"/>
																							</g>
																						</g>
																					</g>
																				</g>
																			</g><g id="g656">
																				<g id="g655">
																					<g id="g654">
																						<g id="g653">
																							<g id="g652">
																								<path id="path651" d="m154.85 91.941c-0.24 0.286-1.122-0.056-2.197-0.113-1.072-0.095-1.993 0.119-2.191-0.198-0.086-0.153 0.069-0.443 0.478-0.706 0.403-0.263 1.068-0.464 1.806-0.412 0.738 0.053 1.367 0.346 1.729 0.663 0.369 0.318 0.482 0.627 0.375 0.766z" fill="#263238"/>
																							</g>
																						</g>
																					</g>
																				</g>
																			</g><g id="g666">
																				<path id="path665" d="m128.49 100.53c-0.141-0.068-5.735-1.949-5.781 3.833s6.197 4.743 6.209 4.577c0.011-0.165-0.428-8.41-0.428-8.41z" fill="#ffbf9d"/>
																			</g><g id="g677">
																				<g id="g676">
																					<path id="path675" d="m126.74 106.63c-0.025-0.019-0.101 0.069-0.272 0.146-0.166 0.075-0.452 0.125-0.753 9e-3 -0.609-0.229-1.116-1.203-1.135-2.245-0.011-0.526 0.104-1.027 0.294-1.44 0.18-0.421 0.456-0.715 0.764-0.767 0.306-0.068 0.523 0.118 0.592 0.281 0.076 0.162 0.038 0.277 0.069 0.287 0.016 0.015 0.125-0.096 0.08-0.335-0.023-0.115-0.09-0.252-0.225-0.364-0.138-0.114-0.341-0.173-0.556-0.152-0.446 0.027-0.851 0.434-1.059 0.888-0.233 0.456-0.374 1.018-0.362 1.609 0.028 1.165 0.615 2.26 1.449 2.509 0.406 0.109 0.746-0.011 0.923-0.146 0.18-0.14 0.211-0.269 0.191-0.28z" fill="#ff9a6c"/>
																				</g>
																			</g><g id="g687">
																				<path id="path686" d="m153.41 83.269c0.935-0.517-1.875-3.545-4.176-4.587-3.477-1.574-8.785-2.541-11.988-1.63-3.857 1.097-7.061 3.019-8.995 6.532s-2.659 7.605-2.543 11.613c0.035 1.223 0.163 2.498 0.817 3.532 0.808 1.278 2.359 2.082 2.292 3.845-0.024 0.645 0.16 1.295 0.602 1.765 1.059 1.125 2.352 0.066 2.946-0.994 1.269-2.266 1.408-4.969 1.518-7.564 0.078-1.844 0.151-3.728-0.37-5.498-0.284-0.964-0.739-1.874-0.969-2.852s-0.201-2.088 0.407-2.887c0.099-0.13 0.262-0.294 0.469-0.475 1.636-1.436 3.928-1.868 5.981-1.144 3.257 1.149 8.818 2.865 10.27 1.759 2.088-1.591 2.587-2.628 2.587-2.628z" fill="#333333"/>
																			</g><path id="path702" d="m157.11 92.026s-4.152-2.324-9.254-2.205c-14.301 0.332-22.317 5.529-22.317 5.529l-0.209-4.162s20.881-4.363 21.027-4.371c0.146-7e-3 6.445 1.012 6.594 1.063s3.888 0.624 3.888 0.624c0.255 1.241 0.379 2.429 0.271 3.522z" fill="#1a1a1a"/><path id="path708" d="m161.66 92.618s-3.751-6.222-20.303-3.876c-17.366 2.462-19.588 7.123-19.588 7.123s-1.233-3.957 1.583-5.996c0 0-0.289-7.323 4.557-13.243 1.733-2.117 4.92-3.976 5.577-4.545l0.079-1.166s1.188-1.422 7.068-1.672c6.076-0.259 7.339 1.611 7.339 1.611l0.16 1.037s9.463 4.121 10.501 16.181c0-1e-3 3.351 2.126 3.027 4.546z" fill="#e2dbe3"/><path id="path711" d="m133.57 70.914c0.998 1.132 2.725 3.083 3.069 4.755s0.431 3.406 0.515 5.127c-1.149-5.624-1.987-6.413-3.663-8.716z" opacity=".3"/><path id="path715" d="m123.36 89.868c-5e-3 -0.012 0.107-0.071 0.327-0.172 0.263-0.115 0.583-0.256 0.969-0.425 0.421-0.187 0.941-0.4 1.56-0.608 0.618-0.21 1.311-0.487 2.104-0.704 3.142-0.956 7.596-1.979 12.603-2.377 5.003-0.446 9.586-0.147 12.808 0.557 0.798 0.206 1.523 0.391 2.142 0.6 0.609 0.246 1.144 0.428 1.557 0.633 0.368 0.21 0.672 0.383 0.923 0.526 0.208 0.124 0.313 0.194 0.306 0.205s-0.126-0.036-0.346-0.137c-0.257-0.124-0.569-0.274-0.946-0.456-0.417-0.181-0.955-0.341-1.561-0.564-0.618-0.187-1.34-0.351-2.132-0.538-3.202-0.627-7.745-0.88-12.718-0.437-4.977 0.396-9.412 1.369-12.557 2.253-0.794 0.199-1.489 0.456-2.111 0.646-0.623 0.187-1.149 0.379-1.576 0.543-0.396 0.142-0.724 0.259-0.994 0.356-0.23 0.077-0.353 0.112-0.358 0.099z" fill="#263238"/><path id="path719" d="m133.57 70.914c0.04-0.035 0.473 0.378 1.145 1.078 0.654 0.693 1.618 1.74 2.077 3.206 0.473 1.435 0.556 2.809 0.532 3.782-0.027 0.977-0.144 1.571-0.192 1.566-0.059-4e-3 -0.04-0.604-0.085-1.563-0.046-0.956-0.172-2.284-0.626-3.662-0.432-1.384-1.306-2.4-1.913-3.146-0.616-0.744-0.98-1.225-0.938-1.261z" fill="#263238"/><path id="path723" d="m133.55 74.863c-2e-3 -0.255-0.012-0.533-0.168-0.725-0.155-0.191-0.422-0.242-0.652-0.188-0.231 0.054-0.435 0.195-0.63 0.338-4.127 3.023-6.862 8.123-7.257 13.466-0.019 0.261 0.248 0.431 0.46 0.301 1.909-1.172 3.969-1.945 6.126-2.46 0.707-0.169 1.733-0.138 2.02-0.886 0.171-0.445 0.17-0.941 0.166-1.422-0.022-2.808-0.043-5.616-0.065-8.424z" fill="#ffffff" opacity=".3"/><path id="path728" d="m148.04 78.222c-0.11-0.01-0.055-1.533-0.014-3.406 0.045-1.874 0.059-3.398 0.17-3.403 0.105-6e-3 0.266 1.521 0.221 3.412-0.041 1.889-0.272 3.407-0.377 3.397z" fill="#263238"/><path id="path733" d="m159.14 205.83c-7e-3 0.073-1.04 0.023-2.706-0.044-1.666-0.068-3.967-0.138-6.509-0.117-2.542 0.023-4.842 0.133-6.507 0.23-1.665 0.096-2.697 0.164-2.705 0.091-8e-3 -0.064 1.011-0.256 2.676-0.443 1.664-0.188 3.975-0.354 6.532-0.378 2.557-0.021 4.87 0.105 6.537 0.264s2.689 0.333 2.682 0.397z" fill="#455a64"/><path id="path737" d="m127.8 123.26s-8.403 10.739-6.881 33.821c1.329 20.165 1.128 23.796 1.128 23.796l-1.344 40.85 53.029 1.077-6.255-73.196-8.551-16.258-5.417-1.789-1.544-1.685c-2.403-2.622-3.306-3.221-6.742-4.464l-16.77-3.501z" fill="#e0e0e0"/><path id="path741" d="m168.96 157.57 4.305 59.442-52.284-2.868 0.703-40.724s-1.584-23.174-0.703-31.762c1.117-10.898 7.554-19.996 7.554-19.996l16.716 3.75c-6.839-0.017-12.533 5.245-13.055 12.065l-0.097 1.272c-0.19 2.478-0.193 4.974 0.078 7.445 1.784 16.247 10.504 19.006 15.608 19.398 4.944 0.38 9.551-2.528 11.335-7.154l4.661-12.091z" fill="#4c6371"/><polygon id="polygon743" points="172.14 201.39 121.23 200.01 121.09 208.21 172.86 210.53" fill="#ffffff"/><polygon id="polygon745" points="171.28 189.06 121.44 187.1 121.3 195.7 171.82 196.92" fill="#ffffff"/><polygon id="polygon747" points="169.36 163.07 141.09 149.46 168.96 157.02" opacity=".3"/><path id="path750" d="m146.9 130.25c2.197-0.12 5.203 0.533 7.237 1.372l30.565 12.605 15.699-21.847 9.591 2.611s-11.398 32.788-18.269 37.711c-4.855 3.479-18.906-2.646-28.372-5.964-5.217-1.828-13.33-3.408-18.686-5.889l-5.383-16.933c1.414-2.194 4.208-3.479 7.618-3.666z" fill="#ffbf9d"/><path id="path753" d="m198.74 111.11c1.314 0.474 1.964 1.839 2.045 3.454s1.581 1.937 1.581 1.937 2.916-4.195 3.896-6.405c0.979-2.21 2.486-6.996 3.769-7.887 1.282-0.892 2.521-0.511 1.844 1.123s-2.513 7.153-2.042 7.541c0.471 0.389 6.534-7.341 7.36-7.087s2.274 1.082 0.493 2.689-4.846 5.809-4.846 5.809 6.439-5.563 7.086-4.39-2e-3 1.703-1.041 2.704c-1.038 1.001-4.66 5.657-4.66 5.657s5.704-4.189 6.444-3.092 0.799 1.358-0.391 2.174c-1.189 0.816-10.77 10.487-11.141 10.79s-3.905 3.186-3.905 3.186l-5.451-5.438-0.553-2.342s-1.733-5.698-1.545-7.552c0.187-1.852-0.257-3.345 1.057-2.871z" fill="#ffbf9d"/><path id="path757" d="m170.24 161.95 5.646-23.105s-19.405-8.685-23.063-10.098c-5.079-1.962-12.929-0.016-14.612 4.169-5.237 13.026 5.58 18.629 5.58 18.629z" fill="#e0e0e0"/><path id="path763" d="m143.79 151.54c-8e-3 0.017-0.215-0.067-0.591-0.266-0.371-0.205-0.915-0.519-1.565-0.998-1.271-0.957-3.156-2.503-4.449-5.14-1.413-2.574-1.599-6.34-0.266-9.952 0.398-0.876 0.753-1.786 1.253-2.677 0.533-0.887 1.285-1.651 2.15-2.257 1.723-1.236 3.821-1.992 6.017-2.333 2.2-0.321 4.436-0.19 6.432 0.539 1.908 0.808 3.72 1.629 5.46 2.391 3.456 1.536 6.576 2.923 9.218 4.097 2.571 1.163 4.673 2.114 6.195 2.803 0.686 0.322 1.241 0.583 1.673 0.786 0.38 0.185 0.576 0.29 0.569 0.306s-0.218-0.056-0.611-0.21c-0.442-0.18-1.01-0.411-1.712-0.696-1.537-0.651-3.66-1.55-6.257-2.649-2.652-1.144-5.784-2.494-9.252-3.99-1.741-0.752-3.567-1.541-5.458-2.358-1.896-0.686-4.052-0.813-6.179-0.503-2.122 0.328-4.154 1.061-5.795 2.232-0.826 0.573-1.53 1.289-2.023 2.1-0.473 0.834-0.837 1.744-1.229 2.588-1.313 3.505-1.177 7.105 0.148 9.624 1.209 2.577 3.02 4.145 4.24 5.138 0.624 0.498 1.145 0.836 1.496 1.069 0.354 0.226 0.544 0.341 0.536 0.356z" fill="#263238"/><path id="path769" d="m159.9 86.145c-0.407-0.964-1.38-1.603-2.4-1.838-1.193-0.274-2.493-0.049-3.524 0.61s-1.781 1.745-2.033 2.942c-0.618-0.329-1.417-0.284-1.994 0.113-0.577 0.396-0.853 1.063-0.768 1.758l-1.23 0.077c0.271 1.08 1.821 1.675 2.878 2.024 1.057 0.348 2.286 0.118 3.145-0.589 0.499 1.506 2.429 2.343 3.87 1.677 1.44-0.665 2.054-2.678 1.231-4.034 0.922-0.497 1.233-1.776 0.825-2.74z" fill="#333333"/><path id="path770" d="m187.55 151.62c-0.136 0.047-0.823-1.571-1.534-3.614-0.712-2.044-1.178-3.739-1.042-3.786s0.823 1.571 1.534 3.615c0.711 2.043 1.178 3.738 1.042 3.785z" fill="#ff9a6c"/><path id="path773" d="m224.95 171.76s-5.628-3.632-8.793-3.498-13.877 4.997-13.877 4.997l0.994 9.65 11.109 1.66c2.076 0.185 4.064-0.878 5.064-2.706l1.165-3.215c-2.572-0.125-4.373-0.155-6.452-0.025 0 0 1.415-5.471 3.641-6.266 2.225-0.796 7.149-0.597 7.149-0.597z" fill="#ffbf9d"/><path id="path774" d="m214.99 176.05c0.154 0.023 0.065 0.849-0.299 1.738-0.361 0.887-0.652 1.571-0.785 1.552-0.154-0.023-0.065-0.849 0.299-1.738 0.361-0.887 0.651-1.572 0.785-1.552z" fill="#ff9a6c"/>
<path id="path777" d="m308.09 219.28c-0.263-0.214-1.549-9.464 0.624-12.464s11.534-4.991 11.534-4.991 2.924-3.358 4.933-4.706c0.678-0.455 1.579-0.371 2.151 0.211 0 0 0.784-1.307 1.792-0.531 0.408 0.315-1.233 5.759-2.609 7.326-1.376 1.566-6.819 5.407-6.819 5.407l-2.108 2.141 1.025 7.873z" fill="#ffbf9d"/><path id="path779" d="m319.68 205.3c-6e-3 0.161-2.289-0.439-4.8 0.617-2.519 1.04-3.699 3.084-3.817 2.975-0.055-0.029 0.15-0.572 0.729-1.299 0.571-0.723 1.563-1.605 2.888-2.157 1.323-0.552 2.648-0.636 3.564-0.533 0.924 0.101 1.454 0.337 1.436 0.397z" fill="#ff9a6c"/><path id="path782" d="m349.04 278.06c-0.837-1.598-24.025-24.781-24.025-24.781l-6.691-36.719-12.299 1.896s3.124 38.76 4.345 43.013c1.22 4.253 30.427 30.177 30.671 30.403s7.999-13.812 7.999-13.812z" fill="#e0e0e0"/><polygon id="polygon783" points="333.69 265.87 346.82 279.31 346.08 283.61 336.46 287.81 333.48 285.16 338.91 281.54" opacity=".3"/><rect id="rect785" x="239.25" y="110.33" width="110.43" height="92.816" fill="#a793ac"/><rect id="rect786" x="239.25" y="110.33" width="34.123" height="92.816" opacity=".3"/><path id="path788" d="m314.5 168.93h-6.516v11.22h-11.943v-42.226h19.303c3.82 0 7.139 0.633 9.953 1.9 2.815 1.267 4.986 3.077 6.516 5.429 1.527 2.352 2.292 5.118 2.292 8.294 0 3.057-0.715 5.721-2.142 7.993-1.428 2.273-3.469 4.052-6.123 5.338l9.109 13.271h-12.789zm5.67-19.966c-1.247-1.086-3.097-1.629-5.55-1.629h-6.636v12.366h6.636c2.453 0 4.303-0.533 5.55-1.599 1.246-1.065 1.87-2.583 1.87-4.554 0-1.97-0.624-3.499-1.87-4.584z" opacity=".3"/><path id="path790" d="m309.7 168.93h-6.516v11.22h-11.943v-42.226h19.303c3.82 0 7.139 0.633 9.953 1.9s4.986 3.077 6.516 5.429c1.527 2.352 2.292 5.118 2.292 8.294 0 3.057-0.715 5.721-2.142 7.993-1.428 2.273-3.469 4.052-6.123 5.338l9.109 13.271h-12.789zm5.67-19.966c-1.247-1.086-3.097-1.629-5.55-1.629h-6.636v12.366h6.636c2.453 0 4.303-0.533 5.55-1.599 1.246-1.065 1.87-2.583 1.87-4.554 0-1.97-0.624-3.499-1.87-4.584z" fill="#ffffff"/><path id="path791" d="m273.37 190.08c-0.144 0-0.26-17.644-0.26-39.404 0-21.768 0.117-39.408 0.26-39.408 0.144 0 0.26 17.64 0.26 39.408 1e-3 21.76-0.116 39.404-0.26 39.404z" fill="#263238"/><path id="path794" d="m329.54 298.28s-15.55 35.729-16.726 43.729v3.257l6.786 3.761 10.471-31.041z" fill="#4c6371"/><path id="path795" d="m304.22 455.1 6.34 13.894 0.07 1.396s-16.877 7.202-17.01 10.62l32.853-0.673-0.113-8.98-5.733-16.641z" fill="#8a6f91"/><path id="path808" d="m320.76 468.63c0.639 0.176 1.092 0.944 0.957 1.646s-0.85 1.21-1.492 1.045c-0.642-0.164-1.211-1.068-1.004-1.749s1.076-1.227 1.663-0.9" fill="#e0e0e0"/><path id="path822" d="m326.47 480.34-0.141-2.894-31.446 1.728s-1.451 0.722-1.266 1.84z" fill="#67536c"/><path id="path835" d="m310.1 470.22c8e-3 0.174 0.812 0.237 1.611 0.782 0.812 0.522 1.232 1.27 1.378 1.198 0.147-0.037-0.11-1.075-1.088-1.716-0.973-0.652-1.939-0.423-1.901-0.264z" fill="#ffffff"/><path id="path849" d="m306.68 471.84c-0.034 0.17 0.666 0.452 1.224 1.179 0.577 0.709 0.728 1.504 0.888 1.493 0.151 0.025 0.244-1-0.465-1.889-0.702-0.896-1.647-0.95-1.647-0.783z" fill="#ffffff"/><path id="path863" d="m304.8 476.37c0.146 0.034 0.355-0.842-0.074-1.789-0.422-0.951-1.185-1.312-1.251-1.165-0.088 0.146 0.408 0.648 0.749 1.432 0.358 0.773 0.416 1.508 0.576 1.522z" fill="#ffffff"/><path id="path879" d="m368.33 455.1 6.34 13.894 0.07 1.396s-16.877 7.202-17.01 10.62l32.853-0.673-0.113-8.98-5.733-16.641z" fill="#8a6f91"/><path id="path892" d="m384.87 468.63c0.639 0.176 1.092 0.944 0.957 1.646s-0.85 1.21-1.492 1.045c-0.642-0.164-1.211-1.068-1.004-1.749s1.076-1.227 1.663-0.9" fill="#e0e0e0"/><path id="path906" d="m390.58 480.34-0.141-2.894-31.446 1.728s-1.451 0.722-1.266 1.84z" fill="#67536c"/><path id="path919" d="m374.2 470.22c8e-3 0.175 0.812 0.237 1.611 0.782 0.812 0.522 1.232 1.27 1.379 1.198 0.147-0.037-0.11-1.075-1.088-1.716-0.974-0.652-1.94-0.423-1.902-0.264z" fill="#ffffff"/><path id="path933" d="m370.78 471.84c-0.034 0.17 0.666 0.452 1.224 1.179 0.577 0.709 0.728 1.504 0.888 1.493 0.151 0.025 0.245-1-0.465-1.889-0.702-0.896-1.647-0.95-1.647-0.783z" fill="#ffffff"/><path id="path947" d="m368.9 476.37c0.146 0.034 0.355-0.842-0.074-1.789-0.422-0.951-1.185-1.312-1.251-1.166-0.088 0.146 0.408 0.648 0.749 1.432 0.358 0.774 0.416 1.509 0.576 1.523z" fill="#ffffff"/><path id="path963" d="m353.8 340.13c3.153 6.983 12.485 18.808 3.725 33.706l8.544 32.573s8.417 21.456 11.958 28.644c3.541 7.189 10.436 29.466 10.436 29.466l-19.176 4.13s-21.863-43.286-26.112-50.722-20.656-33.456-23.855-53.312c-3.332-20.686 1.085-29.12 1.085-29.12l33.396-9.365v14z" fill="#1b2328"/><path id="path964" d="m328.74 381.09-21.003 25.465 17.631 55.525-21.301 4.525c0-0.744-19.363-54.93-21.828-64.251-1.388-5.247 10.775-24.409 16.487-31.5 4.464-5.542 13.683-16.566 14.391-17.309 0.708-0.744 5.097-7.576 5.097-7.576l10.526 35.121" fill="#1b2328"/><path id="path965" d="m317.46 349.02c-0.027 1e-3 -0.023 0.521 6e-3 1.461 0.024 0.94 0.106 2.298 0.248 3.973 0.284 3.348 0.906 7.961 2.059 12.943 1.161 4.982 2.618 9.365 3.804 12.469 0.593 1.553 1.102 2.796 1.48 3.641 0.373 0.848 0.591 1.31 0.616 1.298s-0.147-0.498-0.477-1.365c-0.335-0.865-0.803-2.124-1.362-3.686-1.117-3.124-2.526-7.503-3.681-12.461-1.148-4.959-1.81-9.541-2.164-12.871-0.177-1.665-0.301-3.016-0.371-3.952-0.076-0.935-0.131-1.452-0.158-1.45z" fill="#e2dbe3"/><path id="path967" d="m299.3 404.62c-8e-3 0.129 1.962 0.278 4.289 0.977 2.332 0.683 4.097 1.643 4.151 1.527 0.052-0.089-1.665-1.239-4.048-1.938-2.378-0.713-4.396-0.671-4.392-0.566z" fill="#e2dbe3"/><path id="path969" d="m323.01 388.04s-3.885-15.197-3.368-21.786c0 0 2.681 13.459 6.031 18.557z" opacity=".3"/><path id="path971" d="m369.09 468.69c-0.02 8e-3 0.267-0.035 0.756-0.125 0.578-0.11 1.273-0.242 2.084-0.396 1.855-0.375 4.234-0.855 6.865-1.387 2.679-0.558 5.101-1.08 6.851-1.479 0.875-0.199 1.581-0.367 2.068-0.493s0.754-0.208 0.749-0.237-0.281-1e-3 -0.777 0.074c-0.495 0.076-1.21 0.199-2.091 0.36-1.763 0.323-4.193 0.799-6.873 1.357-2.679 0.557-5.099 1.092-6.845 1.51-1.74 0.419-2.836 0.721-2.787 0.816z" fill="#455a64"/><path id="path973" d="m306 466.2c-0.02 8e-3 0.267-0.035 0.756-0.125 0.578-0.11 1.273-0.242 2.085-0.396 1.855-0.375 4.234-0.855 6.865-1.387 2.679-0.558 5.101-1.08 6.851-1.479 0.875-0.199 1.582-0.367 2.068-0.493 0.487-0.126 0.754-0.208 0.749-0.237s-0.281-1e-3 -0.777 0.075c-0.495 0.075-1.21 0.198-2.091 0.36-1.763 0.323-4.193 0.799-6.873 1.357-2.679 0.557-5.099 1.092-6.846 1.51-1.74 0.417-2.836 0.72-2.787 0.815z" fill="#455a64"/><path id="path976" d="m387.44 268.61c-0.818-2.35-3.084-4.376-5.558-4.11l-9.359 3.198c-1.564 3.177-0.724 7.358 1.946 9.685 2.669 2.326 6.926 2.587 9.86 0.603 2.933-1.984 4.276-6.032 3.111-9.376z" fill="#333333"/><path id="path979" d="m390.77 256.29c-0.107-1.154-0.361-2.079-1.187-2.983-7.392-8.09-18.098-13.022-28.924-15.149-2.813-0.553-5.958-0.871-8.174 0.65l-0.085 0.133c-1.186 1.125-1.292 3.265-0.616 4.827s1.97 2.841 3.309 3.987c6.373 5.45 14.358 8.814 22.355 11.458 1.876 0.62 3.779 1.21 5.724 1.442s3.954 0.087 5.645-0.71c1.434-0.677 2.099-2.094 1.953-3.655z" fill="#453748"/><path id="path987" d="m388.7 247.6c-1.416-6.015-4.929-10.797-10.436-13.601-3.107-1.582-4.721-1.565-7.274-2.058-2.553-0.494-5.179-0.278-7.458 0.974-2.707 1.488-5.29 3.372-6.941 5.982-1.695 2.682-3.4 5.383-4.575 8.329-1.175 2.947-1.802 6.186-1.256 9.312l6.618 4.79c3.928 2.088 7.913 4.198 12.25 5.188 4.336 0.99 9.14 0.744 12.891-1.648 5.211-3.322 7.597-11.253 6.181-17.268z" fill="#333333"/><path id="path988" d="m382.29 244.41-7.769-8.544-2.662-0.938c-5.677-2.749-12.64 1.591-14.92 6.163-2.533 5.079-5.425 11.381-6.452 15.535-2.064 8.354 4.079 12.135 4.079 12.135s-0.169 0.198-1.457 2.712l3.096 9.889 12.378-4.184 14.99-28.936c0.633-1.416 0.075-3.081-1.283-3.832z" fill="#ffbf9d"/><path id="path989" d="m362.69 260.4c0.142-0.424 0.093-0.884-0.071-1.264-0.328-0.76-1.131-1.21-1.939-1.088s-1.573 0.808-1.847 1.659c0.111 0.632 0.477 1.201 1.027 1.531 0.086 0.052 0.174 0.098 0.265 0.14 0.441 0.202 0.956 0.271 1.446 0.112 0.489-0.159 0.944-0.567 1.119-1.09z" fill="#ff9a6c"/><path id="path990" d="m356.9 247.65c-0.243 0.523 0 1.159 0.54 1.422s1.174 0.054 1.417-0.468 1e-3 -1.159-0.539-1.422-1.176-0.054-1.418 0.468z" fill="#263238"/><path id="path991" d="m357.42 244.48c0.069 0.184 1.068-0.058 2.147 0.401 1.085 0.443 1.643 1.334 1.816 1.251 0.082-0.034 0.055-0.324-0.184-0.721-0.234-0.394-0.711-0.882-1.385-1.164-0.675-0.281-1.346-0.272-1.778-0.156-0.439 0.115-0.652 0.305-0.616 0.389z" fill="#263238"/><path id="path992" d="m360.15 256.04c0.031-0.059-0.592-0.459-1.621-1.058-0.264-0.145-0.502-0.31-0.469-0.518 0.019-0.227 0.26-0.476 0.53-0.74 0.542-0.558 1.109-1.143 1.704-1.756 2.396-2.513 4.256-4.626 4.154-4.721-0.102-0.096-2.128 1.863-4.524 4.376-0.584 0.622-1.142 1.215-1.674 1.783-0.237 0.27-0.567 0.549-0.601 1.023-0.013 0.238 0.127 0.473 0.283 0.595 0.154 0.129 0.308 0.197 0.441 0.263 1.07 0.521 1.747 0.813 1.777 0.753z" fill="#263238"/><path id="path993" d="m354.56 268.75s5.124 2.564 11.667 1.632c0 0-5.086 4.247-12.612 0.204z" fill="#ff9a6c"/><path id="path994" d="m363.02 258.13c-0.171-0.084-0.669 1.087-2.025 1.496-1.354 0.412-2.549-0.248-2.627-0.088-0.048 0.067 0.182 0.345 0.703 0.582 0.51 0.236 1.336 0.389 2.165 0.14 0.828-0.252 1.379-0.822 1.622-1.286 0.253-0.47 0.245-0.816 0.162-0.844z" fill="#263238"/><path id="path995" d="m359.58 240.97c0.07 0.341 0.972 0.514 1.905 1.002 0.948 0.459 1.626 1.082 1.939 0.934 0.144-0.076 0.147-0.378-0.076-0.785-0.218-0.404-0.686-0.889-1.332-1.215-0.647-0.325-1.313-0.411-1.765-0.344-0.459 0.064-0.696 0.247-0.671 0.408z" fill="#1a1a1a"/><path id="path996" d="m367.96 252.96c-0.225 0.53-0.86 0.777-1.418 0.551-0.557-0.224-0.827-0.835-0.602-1.366 0.225-0.53 0.86-0.777 1.417-0.552 0.558 0.226 0.828 0.838 0.603 1.367z" fill="#263238"/><path id="path997" d="m371.86 251.03c-0.183 0.072-0.672-0.831-1.736-1.326-1.056-0.508-2.091-0.326-2.145-0.51-0.03-0.084 0.204-0.258 0.659-0.347 0.449-0.09 1.131-0.063 1.792 0.249 0.66 0.313 1.103 0.817 1.307 1.216 0.208 0.404 0.21 0.689 0.123 0.718z" fill="#263238"/><path id="path998" d="m372.88 247.35c-0.322 0.143-1.025-0.49-2.005-0.963-0.965-0.503-1.896-0.689-1.971-1.031-0.027-0.162 0.217-0.342 0.689-0.4 0.466-0.059 1.154 0.035 1.823 0.37 0.668 0.336 1.153 0.829 1.38 1.236 0.233 0.411 0.231 0.713 0.084 0.788z" fill="#263238"/><path id="path999" d="m376 260.42c0.247-0.582 1.502-1.672 2.116-1.519 1.639 0.41 4.358 1.704 2.734 5.62-2.22 5.353-7.136 2.02-7.082 1.863 0.043-0.123 1.377-3.953 2.232-5.964z" fill="#ffbf9d"/><path id="path1000" d="m376.06 265.04c0.03-7e-3 0.066 0.104 0.194 0.241 0.125 0.134 0.369 0.293 0.691 0.303 0.652 0.027 1.5-0.673 1.926-1.628 0.216-0.482 0.306-0.988 0.293-1.443-1e-3 -0.459-0.141-0.838-0.405-1.007-0.256-0.183-0.528-0.096-0.656 0.027-0.134 0.12-0.144 0.241-0.176 0.238-0.021 7e-3 -0.078-0.137 0.057-0.34 0.066-0.097 0.181-0.198 0.35-0.248 0.172-0.051 0.383-0.026 0.572 0.078 0.401 0.2 0.615 0.734 0.63 1.234 0.037 0.512-0.053 1.085-0.296 1.626-0.482 1.064-1.452 1.845-2.319 1.747-0.417-0.058-0.684-0.302-0.794-0.495-0.111-0.2-0.09-0.331-0.067-0.333z" fill="#ff9a6c"/><path id="path1001" d="m378.33 259.01-1.99 0.724c-3.035-8.244-7.501-27.354-7.277-26.235 0 0 4.691 0.302 8.578 3.096s10.891 8.845 8.325 13.785c-2.567 4.941-7.636 8.63-7.636 8.63z" fill="#1a1a1a"/><path id="path1003" d="m355.99 239.86s5.377-0.385 10.716 2.072c14.965 6.887 21.36 15.406 21.36 15.406 0.414-1.088 0.772-2.504 1.112-4.032 0 0-19.606-12.892-19.757-12.966s-7.175-2.069-7.351-2.092-4.333-1.236-4.333-1.236z" fill="#1a1a1a"/><path id="path1007" d="m352.25 239s3.985-3.348 20.752 4.875c16.301 7.994 17.518 14.309 17.518 14.309s1.489-3.046-0.829-5.93c0 0 3.025-6.39 0.644-13.638-0.852-2.592-3.183-5.55-3.593-6.324l0.363-1.068s-0.595-1.75-6.089-4.383c-5.678-2.72-7.581-1.576-7.581-1.576l-0.542 0.856s-10.542-0.215-16.059 10.078c1e-3 0-3.983 0.518-4.584 2.801z" fill="#e2dbe3"/><path id="path1011" d="m372.21 229.43c0.615-1.511 1.088-2.96 1.226-4.16l-0.542 0.856c-0.584 2.359-1.61 5.244-2.766 7.813 0.731-1.493 1.467-2.998 2.082-4.509z" opacity=".3"/><path id="path1016" d="m387.1 231.23c-1.374 0.597-3.748 1.624-4.703 2.968-0.956 1.345-1.689 2.851-2.416 4.345 3.205-4.528 4.298-4.886 6.756-6.245z" opacity=".3"/><path id="path1021" d="m389.69 252.26c-9e-3 0.01-0.114-0.071-0.303-0.234-0.22-0.195-0.488-0.435-0.814-0.724-0.346-0.322-0.775-0.708-1.298-1.13-0.52-0.423-1.086-0.937-1.766-1.439-2.66-2.073-6.504-4.749-11.071-7.134-4.547-2.424-8.944-4.062-12.226-4.822-0.823-0.167-1.573-0.308-2.234-0.404-0.665-0.052-1.238-0.128-1.708-0.143-0.433 7e-3 -0.791 0.013-1.084 0.017-0.249 0-0.381-7e-3 -0.383-0.02s0.127-0.033 0.376-0.058c0.295-0.025 0.655-0.055 1.092-0.091 0.475-8e-3 1.055 0.046 1.732 0.078 0.67 0.076 1.431 0.2 2.268 0.351 3.329 0.698 7.778 2.309 12.35 4.746 4.592 2.398 8.434 5.125 11.062 7.264 0.672 0.518 1.228 1.049 1.737 1.49 0.511 0.439 0.927 0.843 1.258 1.184 0.306 0.312 0.558 0.569 0.765 0.779 0.171 0.181 0.256 0.281 0.247 0.29z" fill="#263238"/><path id="path1026" d="m387.1 231.23c0.023 0.05-0.497 0.326-1.35 0.729-0.843 0.41-2.044 0.938-2.99 1.983-0.96 1.038-1.589 2.178-1.994 3.018-0.406 0.843-0.613 1.391-0.67 1.372-0.046-0.014 0.068-0.594 0.417-1.483 0.348-0.883 0.958-2.087 1.961-3.172 1.012-1.115 2.303-1.629 3.167-1.971 0.883-0.34 1.437-0.525 1.459-0.476z" fill="#263238"/><path id="path1031" d="m370.32 233.72c-0.102-0.052 0.767-1.885 1.624-4.227 0.866-2.34 1.392-4.299 1.503-4.272 0.099 0.02-0.261 2.04-1.136 4.407-0.866 2.369-1.902 4.141-1.991 4.092z" fill="#263238"/><path id="path1036" d="m371.73 227.84c0.107-0.221 0.216-0.466 0.153-0.704-0.063-0.236-0.289-0.402-0.526-0.461-0.238-0.059-0.487-0.03-0.729 5e-3 -5.122 0.73-9.837 3.893-12.481 8.336-0.129 0.217 0.046 0.486 0.299 0.47 2.272-0.142 4.515 0.131 6.738 0.671 0.729 0.177 1.668 0.673 2.254 0.157 0.348-0.307 0.559-0.736 0.76-1.154 1.177-2.44 2.355-4.88 3.532-7.32z" fill="#ffffff" opacity=".3"/><path id="path1043" d="m318.01 338.2 10.495-30.214c0.096-7.012 1.154-17.18 8.93-21.974l17.465-9.71 10.669 1.893 2.988 1.116s5.761 5.605 2.518 15.872-16.833 33.064-16.833 33.064l1.766 6.3c0.851 3.036-0.974 4.828-4.115 5.107l-33.541 3.764c-3.161 0.28-3.674-2.125-0.342-5.218z" fill="#e0e0e0"/><path id="path1044" d="m356.68 274.94s-15.093 16.028-16.011 17.142c-3.318 4.025-11.252 14.729-13.841 27.827-3.305 16.721 2.313 33.295 2.313 33.295l29.131-4.184s-1.562-2.373-2.003-5.583c-0.864-6.299-0.967-15.819-1.385-16.954-0.632-1.713 13.318-24.579 14.458-32.204s-4.231-15.175-4.231-15.175" opacity=".3"/><path id="path1046" d="m343.29 290.92c0.015-0.018 8.997 6.307 15.868 4.965l-12.928-8.589z" opacity=".3"/><path id="path1047" d="m359.92 273.02s-15.093 16.028-16.011 17.142c-3.318 4.025-11.252 14.729-13.841 27.826-3.305 16.721 2.313 33.295 2.313 33.295l30.159-5.14s-3.785-19.868-4.416-21.581c-0.632-1.713 13.318-24.579 14.458-32.204s-4.231-15.175-4.231-15.175" fill="#4c6371"/><path id="path1048" d="m360.03 333.39-30.479 4.252c0.276 2.45 0.687 4.838 1.266 7.776l30.584-5.107z" fill="#ffffff"/><path id="path1049" d="m358.9 322.11-29.868 3.824c-0.232 2.959-0.054 5.138 0.134 7.859l29.996-4.778-0.768-3.868c-0.119-0.601-0.083-1.223 0.106-1.806z" fill="#ffffff"/><path id="path1051" d="m327.55 215.98c-0.219-0.258 1.669-6.394 4.358-8.941s10.811-5.971 10.811-5.971 3.493-2.76 5.716-3.715c0.75-0.322 1.62-0.074 2.075 0.604 0 0 1.012-1.14 1.859-0.191 0.343 0.385-2.275 5.433-3.916 6.719-1.642 1.286-6.465 4.875-6.465 4.875l-4.605 5.122 0.194 1.57z" fill="#ffbf9d"/><path id="path1052" d="m340.82 205.79c0.015 0.043 0.697-0.13 1.739-0.584 1.041-0.451 2.427-1.216 3.792-2.293 1.363-1.081 2.427-2.253 3.105-3.162 0.681-0.909 1.008-1.533 0.969-1.558-0.103-0.079-1.62 2.302-4.317 4.412-2.674 2.139-5.342 3.067-5.288 3.185z" fill="#ff9a6c"/><path id="path1055" d="m366.23 292.73c-2.539 3.124-8.886 4.665-15.661 1.123s-20.938-39.139-22.892-44.665c-1.954-5.527-1.22-33.058-1.22-33.058l11.796-1.567 5.546 34.247 13.79 22.689c1.043 0.398 9.749 5.981 10.63 11.815-2e-3 -1e-3 1.445 5.19-1.989 9.416z" fill="#e0e0e0"/><path id="path1056" d="m351.36 285.6c0.021 0.016 0.172-0.142 0.426-0.444 0.257-0.3 0.602-0.756 1.003-1.337 0.804-1.161 1.79-2.86 2.604-4.862 0.81-2.004 1.286-3.91 1.517-5.303 0.117-0.697 0.187-1.264 0.211-1.658 0.028-0.394 0.03-0.612 4e-3 -0.615-0.062-7e-3 -0.186 0.854-0.486 2.22-0.298 1.366-0.81 3.233-1.608 5.209-0.803 1.974-1.736 3.669-2.474 4.858-0.736 1.19-1.247 1.894-1.197 1.932z" fill="#263238"/><rect id="rect1058" x="191.47" y="202.9" width="110.43" height="92.816" fill="#8a6f91"/><rect id="rect1059" x="191.47" y="202.9" width="34.123" height="92.816" opacity=".3"/><path id="path1061" d="m276.99 263.49h-17.855l-3.318 8.204h-12.185l18.64-42.226h11.762l18.701 42.226h-12.426zm-3.5-8.806-5.428-13.512-5.43 13.512z" opacity=".3"/><path id="path1063" d="m272.18 263.49h-17.855l-3.318 8.204h-12.186l18.64-42.226h11.762l18.701 42.226h-12.426zm-3.5-8.806-5.428-13.512-5.43 13.512z" fill="#ffffff"/><polygon id="polygon1064" points="301.9 202.9 239.25 203.14 301.9 219.54" opacity=".3"/><rect id="rect1066" x="180.8" y="295.71" width="110.43" height="92.816" fill="#453748"/><rect id="rect1067" x="180.8" y="295.71" width="34.123" height="92.816" opacity=".3"/><path id="path1069" d="m280.04 320.8v42.226h-9.834l-18.639-22.5v22.5h-11.703v-42.226h9.833l18.64 22.5v-22.5z" opacity=".3"/><path id="path1070" d="m275.06 320.8v42.226h-9.834l-18.639-22.5v22.5h-11.702v-42.226h9.832l18.64 22.5v-22.5z" fill="#ffffff"/><path id="path1071" d="m215.1 377.45c-0.144 0-0.26-18.388-0.26-41.065 0-22.685 0.117-41.069 0.26-41.069 0.144 0 0.26 18.384 0.26 41.069 1e-3 22.677-0.116 41.065-0.26 41.065z" fill="#263238"/><path id="path1073" d="m225.59 295.71c0.966 0 65.637 5.739 65.637 5.739v-5.739z" opacity=".3"/><rect id="rect1075" x="191.4" y="388.61" width="109.42" height="91.967" fill="#221c24"/><rect id="rect1076" x="191.4" y="388.61" width="33.811" height="91.967" opacity=".3"/><path id="path1078" d="m248.23 413h19.785c4.58 0 8.645 0.857 12.191 2.57 3.547 1.714 6.297 4.145 8.25 7.292 1.951 3.149 2.928 6.834 2.928 11.058 0 4.225-0.977 7.91-2.928 11.058-1.953 3.148-4.703 5.579-8.25 7.292-3.547 1.714-7.611 2.57-12.191 2.57h-19.785zm19.307 32.396c3.586 0 6.465-1.016 8.637-3.048s3.258-4.842 3.258-8.428-1.086-6.396-3.258-8.428-5.051-3.049-8.637-3.049h-7.473v22.953z" opacity=".3"/><path id="path1079" d="m243.49 413h19.785c4.58 0 8.644 0.857 12.191 2.57 3.547 1.714 6.297 4.145 8.25 7.292 1.951 3.149 2.928 6.834 2.928 11.058 0 4.225-0.977 7.91-2.928 11.058-1.953 3.148-4.703 5.579-8.25 7.292-3.547 1.714-7.611 2.57-12.191 2.57h-19.785zm19.306 32.396c3.586 0 6.465-1.016 8.637-3.048s3.258-4.842 3.258-8.428-1.086-6.396-3.258-8.428-5.051-3.049-8.637-3.049h-7.473v22.953z" fill="#ffffff"/><polygon id="polygon1081" points="225.34 393.87 282.13 388.76 191.4 388.61" opacity=".3"/><path id="path1083" d="m225.04 480.57c-0.144 0-0.26-20.554-0.26-45.902 0-25.357 0.117-45.906 0.26-45.906 0.144 0 0.26 20.549 0.26 45.906 1e-3 25.348-0.116 45.902-0.26 45.902z" fill="#263238"/>
</svg>
