<?xml version="1.0" encoding="UTF-8"?>
<svg id="svg1049" enable-background="new 0 0 500 500" version="1.1" viewBox="0 0 500 500" xml:space="preserve" xmlns="http://www.w3.org/2000/svg">
<path id="path1" d="m266.41 289.04c2.07-1.469 4.302-2.633 6.631-3.484l0.91-6.886 11.443-1.049 2.147 6.605c2.445 0.414 4.852 1.152 7.155 2.221l5.51-4.224 8.833 7.35-3.151 6.185c1.47 2.07 2.633 4.304 3.484 6.633l6.886 0.91 1.049 11.443-6.605 2.147c-0.414 2.444-1.152 4.851-2.221 7.154l4.224 5.51-7.349 8.833-6.186-3.152c-2.07 1.47-4.303 2.633-6.632 3.484l-0.91 6.886-11.443 1.049-2.147-6.606c-2.445-0.414-4.852-1.152-7.154-2.221l-5.51 4.224-8.833-7.35 3.151-6.185c-1.47-2.07-2.633-4.303-3.485-6.632l-6.886-0.909-1.049-11.443 6.606-2.147c0.414-2.444 1.153-4.852 2.221-7.154l-4.224-5.51 7.349-8.833zm7.237 14.812c-4.355 5.233-3.642 13.006 1.592 17.36 5.233 4.354 13.006 3.642 17.36-1.592 4.354-5.233 3.642-13.006-1.592-17.36s-13.006-3.642-17.36 1.592z" fill="#f5f5f5"/><path id="path6" d="m241.42 220.32c1.411-1.002 2.934-1.795 4.522-2.376l0.62-4.696 7.804-0.715 1.464 4.505c1.667 0.282 3.309 0.786 4.879 1.514l3.758-2.881 6.024 5.013-2.149 4.218c1.002 1.412 1.796 2.935 2.376 4.523l4.696 0.62 0.715 7.803-4.504 1.464c-0.282 1.667-0.786 3.308-1.514 4.879l2.88 3.758-5.012 6.024-4.218-2.149c-1.412 1.002-2.935 1.795-4.523 2.376l-0.62 4.696-7.803 0.715-1.464-4.505c-1.667-0.282-3.309-0.786-4.879-1.514l-3.758 2.881-6.024-5.012 2.149-4.218c-1.002-1.412-1.796-2.934-2.376-4.523l-4.696-0.62-0.715-7.803 4.505-1.464c0.282-1.667 0.786-3.309 1.514-4.878l-2.88-3.758 5.012-6.024zm4.936 10.101c-2.97 3.569-2.484 8.869 1.085 11.839s8.869 2.483 11.839-1.086c2.969-3.569 2.484-8.869-1.085-11.839-3.57-2.969-8.87-2.483-11.839 1.086z" fill="#f5f5f5"/><path id="path12" d="m183.55 271.17c0.928-0.659 1.93-1.181 2.975-1.563l0.408-3.089 5.133-0.47 0.963 2.963c1.097 0.186 2.177 0.517 3.209 0.996l2.472-1.895 3.963 3.297-1.414 2.775c0.659 0.929 1.181 1.931 1.563 2.975l3.089 0.408 0.471 5.133-2.963 0.963c-0.186 1.097-0.517 2.176-0.996 3.209l1.895 2.472-3.297 3.963-2.775-1.414c-0.929 0.659-1.93 1.181-2.975 1.563l-0.408 3.089-5.133 0.47-0.963-2.963c-1.097-0.186-2.176-0.517-3.209-0.996l-2.472 1.895-3.962-3.297 1.414-2.775c-0.659-0.929-1.181-1.93-1.563-2.975l-3.089-0.408-0.47-5.133 2.963-0.963c0.186-1.096 0.517-2.176 0.996-3.209l-1.895-2.472 3.297-3.962zm3.246 6.645c-1.953 2.348-1.634 5.834 0.714 7.788 2.348 1.953 5.834 1.634 7.788-0.714 1.953-2.348 1.634-5.834-0.714-7.788s-5.834-1.634-7.788 0.714z" fill="#ebebeb"/><path id="path18" d="m403.69 255.91c-0.021 15.563-2.427 31.045-7.236 45.851-4.615 14.208-11.429 27.665-20.071 39.848-8.559 12.064-18.988 22.884-30.741 31.869-11.829 9.044-25.018 16.34-39.006 21.455-14.516 5.308-29.831 8.32-45.276 8.897-15.562 0.581-31.164-1.243-46.15-5.489-14.482-4.104-28.277-10.441-40.853-18.71-12.354-8.124-23.453-18.118-32.882-29.505-9.489-11.46-17.276-24.425-22.889-38.207-5.768-14.162-9.349-29.212-10.51-44.461-1.192-15.65 0.04-31.466 3.764-46.716 3.566-14.605 9.362-28.608 17.153-41.465 7.705-12.714 17.32-24.221 28.429-34.098 11.093-9.864 23.68-18.023 37.191-24.168 13.862-6.305 28.789-10.437 43.92-12.157 15.555-1.768 31.398-1.137 46.741 1.99 14.844 3.025 29.183 8.329 42.41 15.714 12.935 7.222 24.742 16.367 34.982 27.071 10.298 10.764 18.938 23.063 25.589 36.392 6.764 13.556 11.373 28.163 13.706 43.13 1.176 7.523 1.719 15.143 1.729 22.759 3e-3 2.413 3.753 2.417 3.75 0-0.022-15.873-2.465-31.746-7.37-46.848-4.732-14.57-11.682-28.422-20.563-40.904-8.86-12.453-19.538-23.509-31.66-32.814-12.133-9.314-25.668-16.733-40.026-22.003-14.812-5.438-30.487-8.48-46.251-9.092-15.94-0.619-32.007 1.266-47.357 5.615-14.773 4.186-28.919 10.652-41.749 19.088-12.727 8.369-24.207 18.637-33.891 30.395-9.735 11.819-17.639 25.025-23.452 39.189-5.961 14.526-9.564 29.969-10.779 45.619-1.24 15.97 0.058 32.157 3.835 47.724 3.631 14.966 9.598 29.388 17.579 42.558 7.895 13.027 17.766 24.881 29.163 34.988 11.394 10.105 24.285 18.518 38.166 24.788 14.285 6.453 29.471 10.641 45.039 12.457 15.956 1.861 32.206 1.152 47.949-2.036 15.151-3.068 29.827-8.518 43.333-16.036 13.318-7.413 25.528-16.869 36.05-27.896 10.494-10.997 19.357-23.576 26.128-37.187 6.923-13.919 11.707-28.885 14.058-44.254 1.182-7.73 1.787-15.533 1.798-23.352 4e-3 -2.412-3.746-2.416-3.75 1e-3z" fill="#e0e0e0"/><path id="path21" d="m430.62 160.4 1.165 2.361c0.16 0.324 0.469 0.549 0.826 0.6l2.605 0.379c0.9 0.131 1.26 1.237 0.608 1.872l-1.885 1.838c-0.259 0.252-0.377 0.616-0.316 0.972l0.445 2.595c0.154 0.897-0.787 1.581-1.593 1.157l-2.33-1.225c-0.32-0.168-0.702-0.168-1.022 0l-2.33 1.225c-0.805 0.423-1.746-0.26-1.593-1.157l0.445-2.595c0.061-0.356-0.057-0.719-0.316-0.972l-1.885-1.838c-0.652-0.635-0.292-1.742 0.608-1.872l2.605-0.379c0.358-0.052 0.667-0.276 0.827-0.6l1.165-2.361c0.405-0.816 1.568-0.816 1.971 0z" fill="#ebebeb"/><path id="path23" d="m448.2 160.4 1.165 2.361c0.16 0.324 0.469 0.549 0.827 0.6l2.605 0.379c0.9 0.131 1.26 1.237 0.608 1.872l-1.885 1.838c-0.259 0.252-0.377 0.616-0.316 0.972l0.445 2.595c0.154 0.897-0.787 1.581-1.593 1.157l-2.33-1.225c-0.32-0.168-0.702-0.168-1.022 0l-2.33 1.225c-0.805 0.423-1.746-0.26-1.593-1.157l0.445-2.595c0.061-0.356-0.057-0.719-0.316-0.972l-1.885-1.838c-0.651-0.635-0.292-1.742 0.608-1.872l2.605-0.379c0.358-0.052 0.667-0.276 0.827-0.6l1.165-2.361c0.404-0.816 1.568-0.816 1.97 0z" fill="#ebebeb"/><path id="path25" d="m413.03 160.4 1.165 2.361c0.16 0.324 0.469 0.549 0.827 0.6l2.605 0.379c0.9 0.131 1.26 1.237 0.608 1.872l-1.885 1.838c-0.259 0.252-0.377 0.616-0.316 0.972l0.445 2.595c0.154 0.897-0.787 1.581-1.593 1.157l-2.33-1.225c-0.32-0.168-0.702-0.168-1.022 0l-2.33 1.225c-0.805 0.423-1.747-0.26-1.593-1.157l0.445-2.595c0.061-0.356-0.057-0.719-0.316-0.972l-1.885-1.838c-0.651-0.635-0.292-1.742 0.608-1.872l2.605-0.379c0.358-0.052 0.667-0.276 0.827-0.6l1.165-2.361c0.404-0.816 1.568-0.816 1.97 0z" fill="#ebebeb"/><path id="path27" d="m450.45 182.21c-2e-3 -0.04 0.609-0.016 1.74-0.191 1.124-0.167 2.806-0.581 4.649-1.737 1.838-1.118 3.802-3.11 4.913-5.982 0.557-1.433 0.827-3.067 0.801-4.817-7e-3 -1.761-0.015-3.621-0.022-5.574-0.031-1.922-0.511-3.939-1.53-5.775-1.033-1.823-2.576-3.468-4.544-4.587-1.958-1.138-4.295-1.692-6.723-1.601-2.448 4e-3 -4.967 7e-3 -7.55 0.011-10.336 6e-3 -21.694 0.013-33.617 0.02-2.926 5e-3 -5.78 1.106-7.913 2.987-2.156 1.861-3.561 4.484-3.953 7.208-0.215 1.351-0.14 2.75-0.155 4.133 9e-3 1.376-0.025 2.757 0.02 4.089 0.055 2.661 1.108 5.181 2.682 7.154 1.616 1.951 3.781 3.36 6.102 3.985 1.155 0.355 2.341 0.431 3.515 0.453 1.187 2e-3 2.356 5e-3 3.505 7e-3 4.593 0.011 8.874 0.022 12.783 0.032 7.797 0.035 14.114 0.063 18.51 0.083 2.165 0.021 3.856 0.037 5.032 0.049 0.557 0.011 0.991 0.02 1.309 0.026 0.295 9e-3 0.446 0.018 0.446 0.027s-0.151 0.018-0.446 0.027c-0.318 6e-3 -0.752 0.015-1.309 0.026-1.176 0.011-2.867 0.028-5.032 0.049-4.396 0.02-10.714 0.048-18.51 0.083-3.91 0.01-8.19 0.02-12.783 0.032-1.149 2e-3 -2.317 5e-3 -3.505 7e-3 -1.194-0.017-2.441-0.093-3.637-0.457-2.412-0.642-4.667-2.098-6.352-4.123-1.643-2.045-2.745-4.669-2.808-7.439-0.048-1.37-0.016-2.724-0.027-4.108 0.014-1.373-0.068-2.778 0.155-4.209 0.405-2.841 1.869-5.579 4.115-7.521 2.222-1.963 5.204-3.114 8.255-3.118 11.923 7e-3 23.282 0.014 33.617 0.02 2.583 4e-3 5.102 7e-3 7.55 0.011 2.465-0.087 4.928 0.497 6.939 1.685 2.033 1.167 3.621 2.876 4.679 4.765 1.044 1.903 1.528 3.989 1.547 5.968-5e-3 1.953-0.01 3.814-0.014 5.576 0.015 1.772-0.277 3.464-0.86 4.921-1.165 2.932-3.194 4.939-5.078 6.05-1.89 1.148-3.602 1.534-4.74 1.669-0.57 0.1-1.014 0.075-1.309 0.091-0.296 5e-3 -0.447 4e-3 -0.447-5e-3z" fill="#ebebeb"/><path id="path31" d="m195.5 80.393 0.49-6.339c-2.838-3.878-4.564-8.651-4.658-13.889-0.221-12.353 9.173-23.045 21.449-24.441 14.185-1.613 26.714 9.298 26.961 23.678 0.21 12.208-8.956 22.806-21.065 24.375-6.009 0.779-11.735-0.702-16.384-3.746l9e-3 0.01z" fill="#ffffff"/><path id="path36" d="m195.5 80.393s0.137 4e-3 0.426-5e-3c0.311-0.011 0.74-0.026 1.294-0.045 1.179-0.048 2.885-0.118 5.087-0.208 0.051-2e-3 0.091-0.045 0.089-0.097-1e-3 -0.022-0.01-0.043-0.024-0.059 0 0-6e-3 -7e-3 -9e-3 -0.01l-0.121 0.141c2.509 1.657 6.229 3.46 11.033 3.916 2.388 0.235 5.011 0.1 7.727-0.493 2.709-0.615 5.488-1.759 8.08-3.488 2.582-1.738 4.959-4.074 6.834-6.918 1.867-2.838 3.277-6.184 3.773-9.814 0.525-3.616 0.23-7.467-0.948-11.144-1.156-3.689-3.335-7.133-6.224-9.927-1.43-1.454-3.106-2.603-4.802-3.649-0.884-0.46-1.761-0.932-2.668-1.318l-1.381-0.524-0.689-0.257-0.709-0.188c-3.757-1.075-7.659-1.178-11.285-0.513-3.643 0.649-6.954 2.233-9.726 4.244-2.776 2.025-5.009 4.537-6.628 7.221-1.611 2.694-2.62 5.545-3.102 8.295-0.087 0.693-0.173 1.374-0.258 2.043-0.068 0.671-0.051 1.336-0.08 1.986-0.036 1.301 0.086 2.554 0.256 3.742 0.713 4.78 2.704 8.392 4.471 10.782l-0.017-0.061c-0.135 2.043-0.24 3.633-0.312 4.736-0.031 0.516-0.055 0.918-0.072 1.21-0.016 0.273-0.021 0.408-0.015 0.402 0 0 0.022-0.152 0.05-0.431 0.028-0.297 0.067-0.705 0.116-1.229 0.096-1.088 0.235-2.657 0.414-4.672 2e-3 -0.022-5e-3 -0.044-0.017-0.061-1.721-2.397-3.655-5.991-4.326-10.718-0.16-1.175-0.272-2.413-0.228-3.697 0.033-0.641 0.019-1.297 0.09-1.958 0.087-0.66 0.175-1.331 0.265-2.013 0.489-2.708 1.496-5.511 3.093-8.157 1.605-2.636 3.81-5.099 6.545-7.083 2.731-1.969 5.985-3.518 9.563-4.148 3.562-0.646 7.393-0.539 11.077 0.519l0.695 0.184 0.675 0.253 1.355 0.515c0.89 0.379 1.75 0.844 2.617 1.295 1.663 1.028 3.309 2.154 4.711 3.582 2.835 2.742 4.975 6.119 6.112 9.737 1.159 3.607 1.455 7.389 0.945 10.938-0.48 3.564-1.858 6.854-3.685 9.649-1.836 2.8-4.166 5.107-6.701 6.828-2.545 1.711-5.276 2.851-7.942 3.471-2.673 0.598-5.262 0.748-7.622 0.532-4.747-0.417-8.446-2.165-10.958-3.776-0.043-0.029-0.101-0.017-0.13 0.026-0.024 0.036-0.018 0.084 9e-3 0.115 3e-3 4e-3 9e-3 0.01 9e-3 0.01l0.065-0.156c-2.174 0.136-3.859 0.242-5.024 0.314-0.562 0.038-0.998 0.068-1.315 0.09-0.297 0.022-0.458 0.041-0.458 0.041z" fill="#e0e0e0"/><path id="path41" d="m222.54 59.773c0 1.702 1.38 3.081 3.081 3.081 1.702 0 3.081-1.38 3.081-3.081 0-1.702-1.38-3.081-3.081-3.081-1.702 0-3.081 1.379-3.081 3.081z" fill="#e0e0e0"/><path id="path46" d="m212.17 59.773c0 1.702 1.38 3.081 3.081 3.081 1.702 0 3.081-1.38 3.081-3.081 0-1.702-1.38-3.081-3.081-3.081-1.702 0-3.081 1.379-3.081 3.081z" fill="#e0e0e0"/><path id="path51" d="m201.8 59.773c0 1.702 1.38 3.081 3.081 3.081 1.702 0 3.081-1.38 3.081-3.081 0-1.702-1.38-3.081-3.081-3.081s-3.081 1.379-3.081 3.081z" fill="#e0e0e0"/><path id="path57" d="m37.983 275.88c0.015-0.807 0.33-1.592 0.808-2.243 0.468-0.637 1.108-1.166 1.861-1.408 0.8-0.256 1.704-0.167 2.439 0.24 0.437 0.242 0.81 0.595 1.085 1.012 0.19-0.412 0.469-0.783 0.817-1.075 0.644-0.54 1.515-0.799 2.349-0.7 0.785 0.094 1.514 0.491 2.095 1.028 0.593 0.548 1.052 1.258 1.22 2.048 0.21 0.989 0.122 2.102-0.314 3.014-0.46 0.964-1.275 1.784-2.132 2.42-1.442 1.069-3.347 2.418-3.347 2.418s-1.826-1.111-3.445-1.886c-0.963-0.461-1.919-1.112-2.554-1.97-0.602-0.811-0.9-1.887-0.882-2.898z" fill="#ebebeb"/><path id="path64" d="m49.054 254.47c0.036-1.975 0.807-3.895 1.976-5.486 1.145-1.559 2.711-2.853 4.554-3.443 1.957-0.627 4.17-0.41 5.967 0.587 1.069 0.593 1.982 1.456 2.653 2.477 0.466-1.008 1.147-1.916 1.999-2.629 1.575-1.32 3.706-1.955 5.746-1.711 1.921 0.229 3.705 1.201 5.126 2.514 1.45 1.34 2.573 3.078 2.984 5.01 0.515 2.419 0.299 5.143-0.767 7.374-1.126 2.357-3.118 4.365-5.216 5.921-3.528 2.616-8.188 5.914-8.188 5.914s-4.467-2.717-8.429-4.613c-2.356-1.128-4.694-2.719-6.247-4.819-1.473-1.99-2.203-4.623-2.158-7.096z" fill="#ebebeb"/><circle id="ellipse71" transform="rotate(-9.2994)" cx="372.52" cy="398.49" r="28.936" fill="#e0e0e0"/><circle id="ellipse74" transform="rotate(-76.632)" cx="-221.02" cy="496.57" r="28.935" fill="#f5f5f5" stroke-width=".99999"/><circle id="ellipse77" transform="rotate(-22.359)" cx="274.04" cy="469.37" r="19.381" fill="#ffffff" stroke-width=".99998"/><ellipse id="ellipse80" transform="rotate(-80.752)" cx="-256.13" cy="479.42" rx="9.484" ry="9.485" fill="#ebebeb"/><polygon id="polygon83" points="452.18 308.64 451.39 302.47 457.67 295.75 458.13 302.41" fill="#ebebeb"/><polygon id="polygon86" points="465.66 303.73 459.29 303.21 452.9 309.36 459.29 310.04" fill="#ebebeb"/><path id="path89" d="m458.38 301.48c-3.003 3.003-6.005 6.007-9.008 9.01-4.763 4.764-9.527 9.529-14.29 14.293-1.095 1.095-2.19 2.19-3.285 3.286-1.041 1.041 0.585 2.648 1.626 1.606 3.003-3.003 6.005-6.007 9.008-9.01 4.763-4.764 9.527-9.529 14.29-14.293 1.095-1.095 2.19-2.191 3.285-3.286 1.042-1.042-0.584-2.648-1.626-1.606z" fill="#e0e0e0"/><path id="path95" d="m451.84 74.448h-3.386l-7.39-10.299v-6.759s-5.234-0.322-4.618 8.529c0.617 8.851-0.05 6.597-0.05 6.597s-11.113 0.043-12.037 1.008c-0.672 0.702-0.975 11.741-1.091 17.728-0.058 3.014 1.79 5.817 4.593 6.529 0.398 0.102 0.801 0.161 1.196 0.161 2.772 0 16.934-2.253 16.934-2.253h5.849z" fill="#f5f5f5"/><polygon id="polygon101" points="453.65 95.752 453.65 73.058 461.54 72.592 459.45 95.752" fill="#f5f5f5"/><path id="path109" d="m409.93 58.407 1.387-1.415 7.33 1.131 2.824 2.769s2.279-2.055-1.671-5.423c-3.951-3.368-2.736-2.723-2.736-2.723s4.535-4.661 4.51-5.442c-0.018-0.568-4.506-5.217-6.96-7.718-1.235-1.259-3.164-1.635-4.61-0.756-0.206 0.125-0.395 0.269-0.557 0.434-1.135 1.158-5.996 7.998-5.996 7.998l-2.396 2.444z" fill="#f5f5f5"/><polygon id="polygon115" points="400.29 50.437 409.77 59.734 406.74 63.217 397.92 52.86" fill="#f5f5f5"/>
<g id="Background_Simple" display="none">
	<g id="g125" display="inline">
		<g id="g124">
			<path id="path123" d="m183.86 250.65 0.596-1.375c5.021-11.594 15.874-19.66 28.359-20.58 1.605-0.118 3.219-0.121 4.828-1e-3 11.586 0.86 22.549 8.023 28.108 18.364 3.269 6.082 4.952 13.37 10.182 17.835 6.807 5.811 16.844 4.641 25.607 3.156 8.762-1.485 18.81-2.629 25.592 3.211 4.247 3.658 6.23 9.418 6.701 15.035 1.247 14.87-7.223 29.485-19.402 37.846s-27.501 11.068-42.215 10.152c-20.613-1.283-41.215-9.762-55.039-25.334-13.826-15.573-19.943-38.538-13.317-58.309z" fill="#F5F5F5"/>
		</g>
	</g>
	<g id="g127" display="inline">
		<g id="g126">
			<circle id="circle125" cx="424.02" cy="188.04" r="14.04" fill="#F5F5F5"/>
		</g>
	</g>
	<g id="g129" display="inline">
		<g id="g128">
			
				<ellipse id="ellipse127" transform="matrix(.2311 -.9729 .9729 .2311 -148.63 332.15)" cx="135.84" cy="260.12" rx="14.04" ry="14.04" fill="#F5F5F5"/>
		</g>
	</g>
</g>
<g id="g131">
												<g id="g130">
													<path id="path129" d="m358.98 247.16c-3.698 3.305-4.07 6.27-4.076 7.841-2e-3 0.46 0.133 1.033 0.582 1.132 0.218 0.048 0.441-0.039 0.647-0.125 4.312-1.788 8.624-3.576 12.936-5.365" fill="#263238"/>
												</g>
											</g><g id="g146">
												<g id="g145">
													<g id="g144">
														<g id="g143">
															<g id="g142">
																<g id="g141">
																	<g id="g140">
																		<g id="g139">
																			<g id="g138">
																				<g id="g137">
																					<path id="path136" d="m400.95 295.56c2.471-5.676 4.923-11.398 6.38-17.415s1.887-12.394 0.299-18.377c-0.241-0.907-2.447-7.049-3.386-7.047-0.671 1e-3 0.509 5.646 0.117 6.191-3.739 5.196-5.25 11.734-5.352 18.134-0.101 6.4 0.668 12.24 1.942 18.514" fill="#263238"/>
																				</g>
																			</g>
																		</g>
																	</g>
																</g>
															</g>
														</g>
													</g>
												</g>
											</g><g id="g161">
												<g id="g160">
													<g id="g159">
														<g id="g158">
															<g id="g157">
																<g id="g156">
																	<g id="g155">
																		<g id="g154">
																			<g id="g153">
																				<g id="g152">
																					<g id="g151">
																						<path id="path150" d="m397.83 328.88 5.997-56.772c1.994-15.397-5.304-29.391-20.75-30.959l-1.436-0.062c-14.451-0.618-26.958 9.958-28.736 24.312-1.655 13.355-3.311 28.132-3.531 35.326-0.453 14.891 14.334 17.844 14.334 17.844 0.033 3e-3 -1.229 15.103-1.604 19.459l22.463 0.639 5.386-0.047z" fill="#ffbf9d"/>
																					</g>
																				</g>
																			</g>
																		</g>
																	</g>
																</g>
															</g>
														</g>
													</g>
												</g>
											</g><g id="g177">
												<g id="g176">
													<g id="g175">
														<g id="g174">
															<g id="g173">
																<g id="g172">
																	<g id="g171">
																		<g id="g170">
																			<g id="g169">
																				<g id="g168">
																					<g id="g167">
																						<g id="g166">
																							<path id="path165" d="m363.71 318.57s9.358 0.952 19.625-4.899c0 0-5.141 10.99-19.936 9.014z" fill="#ff9a6c"/>
																						</g>
																					</g>
																				</g>
																			</g>
																		</g>
																	</g>
																</g>
															</g>
														</g>
													</g>
												</g>
											</g><g id="g199">
												<g id="g198">
													<g id="g197">
														<g id="g196">
															<g id="g195">
																<g id="g194">
																	<g id="g193">
																		<g id="g192">
																			<g id="g191">
																				<g id="g190">
																					<g id="g189">
																						<g id="g188">
																							<g id="g187">
																								<g id="g186">
																									<g id="g185">
																										<g id="g184">
																											<g id="g183">
																												<g id="g182">
																													<path id="path181" d="m357.49 279.1c-0.088 1.12 0.789 2.119 1.958 2.232 1.167 0.113 2.185-0.702 2.272-1.823 0.088-1.121-0.788-2.12-1.955-2.233-1.168-0.113-2.187 0.703-2.275 1.824z" fill="#263238"/>
																												</g>
																											</g>
																										</g>
																									</g>
																								</g>
																							</g>
																						</g>
																					</g>
																				</g>
																			</g>
																		</g>
																	</g>
																</g>
															</g>
														</g>
													</g>
												</g>
											</g><g id="g222">
												<g id="g221">
													<g id="g220">
														<g id="g219">
															<g id="g218">
																<g id="g217">
																	<g id="g216">
																		<g id="g215">
																			<g id="g214">
																				<g id="g213">
																					<g id="g212">
																						<g id="g211">
																							<g id="g210">
																								<g id="g209">
																									<g id="g208">
																										<g id="g207">
																											<g id="g206">
																												<g id="g205">
																													<g id="g204">
																														<path id="path203" d="m355.79 272.11c0.252 0.288 1.913-0.835 4.2-0.73 2.286 0.071 3.914 1.32 4.174 1.05 0.127-0.118-0.12-0.631-0.828-1.194-0.697-0.56-1.902-1.129-3.327-1.184-1.425-0.053-2.646 0.42-3.358 0.928-0.726 0.509-0.986 1-0.861 1.13z" fill="#263238"/>
																													</g>
																												</g>
																											</g>
																										</g>
																									</g>
																								</g>
																							</g>
																						</g>
																					</g>
																				</g>
																			</g>
																		</g>
																	</g>
																</g>
															</g>
														</g>
													</g>
												</g>
											</g><g id="g244">
												<g id="g243">
													<g id="g242">
														<g id="g241">
															<g id="g240">
																<g id="g239">
																	<g id="g238">
																		<g id="g237">
																			<g id="g236">
																				<g id="g235">
																					<g id="g234">
																						<g id="g233">
																							<g id="g232">
																								<g id="g231">
																									<g id="g230">
																										<g id="g229">
																											<g id="g228">
																												<g id="g227">
																													<path id="path226" d="m376.76 280.3c-0.088 1.121 0.789 2.119 1.958 2.232 1.167 0.113 2.185-0.702 2.273-1.823s-0.789-2.12-1.956-2.233c-1.169-0.113-2.188 0.704-2.275 1.824z" fill="#263238"/>
																												</g>
																											</g>
																										</g>
																									</g>
																								</g>
																							</g>
																						</g>
																					</g>
																				</g>
																			</g>
																		</g>
																	</g>
																</g>
															</g>
														</g>
													</g>
												</g>
											</g><g id="g267">
												<g id="g266">
													<g id="g265">
														<g id="g264">
															<g id="g263">
																<g id="g262">
																	<g id="g261">
																		<g id="g260">
																			<g id="g259">
																				<g id="g258">
																					<g id="g257">
																						<g id="g256">
																							<g id="g255">
																								<g id="g254">
																									<g id="g253">
																										<g id="g252">
																											<g id="g251">
																												<g id="g250">
																													<g id="g249">
																														<path id="path248" d="m378.19 273.6c0.252 0.288 1.916-0.834 4.201-0.73 2.285 0.071 3.914 1.32 4.174 1.05 0.126-0.119-0.118-0.63-0.829-1.194-0.696-0.561-1.901-1.128-3.326-1.184-1.425-0.053-2.646 0.421-3.358 0.927-0.725 0.511-0.986 1.002-0.862 1.131z" fill="#263238"/>
																													</g>
																												</g>
																											</g>
																										</g>
																									</g>
																								</g>
																							</g>
																						</g>
																					</g>
																				</g>
																			</g>
																		</g>
																	</g>
																</g>
															</g>
														</g>
													</g>
												</g>
											</g><g id="g289">
												<g id="g288">
													<g id="g287">
														<g id="g286">
															<g id="g285">
																<g id="g284">
																	<g id="g283">
																		<g id="g282">
																			<g id="g281">
																				<g id="g280">
																					<g id="g279">
																						<g id="g278">
																							<g id="g277">
																								<g id="g276">
																									<g id="g275">
																										<g id="g274">
																											<g id="g273">
																												<g id="g272">
																													<path id="path271" d="m369.23 290.82c0.016-0.13-1.395-0.436-3.686-0.829-0.582-0.085-1.129-0.225-1.211-0.628-0.119-0.428 0.152-1.047 0.464-1.715 0.61-1.39 1.248-2.847 1.918-4.373 2.67-6.23 4.629-11.361 4.378-11.467-0.252-0.105-2.621 4.858-5.29 11.088-0.644 1.537-1.26 3.001-1.846 4.403-0.249 0.654-0.662 1.391-0.401 2.279 0.139 0.443 0.554 0.778 0.924 0.895 0.37 0.13 0.698 0.151 0.986 0.181 2.312 0.224 3.75 0.296 3.764 0.166z" fill="#263238"/>
																												</g>
																											</g>
																										</g>
																									</g>
																								</g>
																							</g>
																						</g>
																					</g>
																				</g>
																			</g>
																		</g>
																	</g>
																</g>
															</g>
														</g>
													</g>
												</g>
											</g><g id="g307">
												<g id="g306">
													<g id="g305">
														<g id="g304">
															<g id="g303">
																<g id="g302">
																	<g id="g301">
																		<g id="g300">
																			<g id="g299">
																				<g id="g298">
																					<g id="g297">
																						<g id="g296">
																							<g id="g295">
																								<g id="g294">
																									<path id="path293" d="m377.75 266.41c0.286 0.597 2.531 0.078 5.236 0.136 2.706 3e-3 4.939 0.572 5.238-0.018 0.132-0.282-0.301-0.827-1.232-1.341-0.923-0.513-2.357-0.946-3.98-0.966-1.622-0.017-3.066 0.384-4 0.876-0.943 0.493-1.388 1.028-1.262 1.313z" fill="#263238"/>
																								</g>
																							</g>
																						</g>
																					</g>
																				</g>
																			</g>
																		</g>
																	</g>
																</g>
															</g>
														</g>
													</g>
												</g>
											</g><g id="g325">
												<g id="g324">
													<g id="g323">
														<g id="g322">
															<g id="g321">
																<g id="g320">
																	<g id="g319">
																		<g id="g318">
																			<g id="g317">
																				<g id="g316">
																					<g id="g315">
																						<g id="g314">
																							<g id="g313">
																								<g id="g312">
																									<path id="path311" d="m355.44 265.89c0.445 0.546 2.337 0.115 4.577 0.219 2.241 0.038 4.112 0.587 4.58 0.069 0.206-0.252-0.061-0.789-0.861-1.329-0.787-0.537-2.129-1.016-3.669-1.065-1.54-0.048-2.9 0.346-3.709 0.833-0.823 0.488-1.113 1.008-0.918 1.273z" fill="#263238"/>
																								</g>
																							</g>
																						</g>
																					</g>
																				</g>
																			</g>
																		</g>
																	</g>
																</g>
															</g>
														</g>
													</g>
												</g>
											</g><g id="g339">
												<g id="g338">
													<g id="g337">
														<g id="g336">
															<g id="g335">
																<g id="g334">
																	<g id="g333">
																		<g id="g332">
																			<g id="g331">
																				<g id="g330">
																					<path id="path329" d="m402.14 283.08c0.259-0.099 10.356-2.587 9.596 7.575-0.761 10.161-10.806 7.302-10.801 7.009 4e-3 -0.293 1.205-14.584 1.205-14.584z" fill="#ffbf9d"/>
																				</g>
																			</g>
																		</g>
																	</g>
																</g>
															</g>
														</g>
													</g>
												</g>
											</g><g id="g354">
												<g id="g353">
													<g id="g352">
														<g id="g351">
															<g id="g350">
																<g id="g349">
																	<g id="g348">
																		<g id="g347">
																			<g id="g346">
																				<g id="g345">
																					<g id="g344">
																						<path id="path343" d="m404.33 294.04c0.047-0.029 0.168 0.137 0.457 0.296 0.281 0.155 0.776 0.285 1.321 0.126 1.103-0.313 2.134-1.95 2.321-3.778 0.095-0.922-0.033-1.818-0.306-2.571-0.255-0.767-0.697-1.322-1.23-1.458-0.529-0.165-0.935 0.13-1.081 0.407-0.157 0.274-0.108 0.482-0.163 0.495-0.03 0.023-0.205-0.187-0.092-0.6 0.057-0.199 0.194-0.43 0.448-0.607 0.258-0.18 0.624-0.255 0.998-0.185 0.78 0.112 1.431 0.887 1.732 1.714 0.343 0.834 0.508 1.842 0.401 2.879-0.218 2.043-1.41 3.881-2.911 4.195-0.729 0.133-1.309-0.127-1.599-0.39-0.296-0.277-0.333-0.508-0.296-0.523z" fill="#ff9a6c"/>
																					</g>
																				</g>
																			</g>
																		</g>
																	</g>
																</g>
															</g>
														</g>
													</g>
												</g>
											</g><g id="g368" fill="#0e0907">
												<g id="g367" fill="#0e0907">
													<g id="g366" fill="#0e0907">
														<g id="g365" fill="#0e0907">
															<g id="g364" fill="#0e0907">
																<g id="g363" fill="#0e0907">
																	<g id="g362" fill="#0e0907">
																		<g id="g361" fill="#0e0907">
																			<g id="g360" fill="#0e0907">
																				<g id="g359" fill="#0e0907">
																					<path id="path358" d="m360.88 249.13c-1.567-1.045 3.81-5.954 8.002-7.448 6.336-2.258 15.799-3.183 21.293-1.116 6.615 2.489 11.962 6.331 14.847 12.784 2.885 6.451 3.562 13.744 2.775 20.768-0.24 2.143-0.651 4.364-1.95 6.084-1.606 2.127-3.728 3.066-4.586 6.419-0.282 1.101-0.47 2.251-1.314 3.012-2.024 1.821-4.141-0.226-5.03-2.176-1.899-4.164-1.75-8.933-1.565-13.506 0.132-3.25 0.277-6.57 1.451-9.604 0.638-1.651 1.57-3.183 2.116-4.867s0.657-3.637-0.295-5.13c-0.155-0.242-0.418-0.554-0.755-0.903-2.664-2.761-6.627-3.853-10.339-2.88-5.888 1.544-15.906 3.748-18.294 1.594-3.436-3.099-4.161-4.993-4.161-4.993z" fill="#0e0907"/>
																				</g>
																			</g>
																		</g>
																	</g>
																</g>
															</g>
														</g>
													</g>
												</g>
											</g><g id="g376">
												<g id="g375">
													<g id="g374">
														<path id="path373" d="m409.23 283.24c0.206-0.158 0.497-0.169 0.693-0.327 12.946-10.413 4.338-22.194 4.466-25.592 0.178-4.71 5.446-4.6 4.107-10.16-0.902-3.746-4.385-6.596-14.831-11.013-4.376-1.85-15.374-3.221-25.221-2-8.787 1.09-15.057 6.743-18.717 11.185 0 0-2.097 0.811-2.655 1.668-1.749 2.688-1.159 3.9-1.159 3.9s19.907-8.321 34.809 6.042 11.079 25.355 15.286 25.846z" fill="#8a6f91"/>
													</g>
												</g>
											</g><g id="g383" fill="#1b2328">
												<g id="g382" fill="#1b2328">
													<g id="g381" fill="#1b2328">
														<path id="path380" d="m411.72 253.08c0.764 1.157 1.389 2.242 1.848 3.186 0.249 0.463 0.427 0.904 0.601 1.283 0.178 0.378 0.311 0.712 0.416 0.986 0.217 0.547 0.347 0.847 0.366 0.84 0.019-6e-3 -0.073-0.319-0.258-0.88-0.089-0.282-0.207-0.624-0.371-1.01-0.161-0.387-0.327-0.838-0.566-1.31-0.439-0.963-1.05-2.069-1.809-3.246-0.777-1.165-1.711-2.394-2.806-3.584-1.107-1.179-2.264-2.201-3.369-3.06-1.118-0.843-2.176-1.534-3.104-2.042-0.453-0.273-0.89-0.471-1.265-0.66-0.373-0.193-0.706-0.335-0.981-0.445-0.546-0.226-0.851-0.341-0.859-0.322s0.282 0.17 0.811 0.427c0.266 0.125 0.59 0.282 0.954 0.487 0.365 0.202 0.792 0.411 1.235 0.694 0.908 0.527 1.944 1.23 3.042 2.076 1.085 0.863 2.224 1.879 3.319 3.046" fill="#1b2328"/>
													</g>
												</g>
											</g><g id="g390" fill="#1b2328">
												<g id="g389" fill="#1b2328">
													<g id="g388" fill="#1b2328">
														<path id="path387" d="m359.19 245.56c2e-3 5e-3 0.064-0.011 0.184-0.048 0.134-0.043 0.309-0.098 0.529-0.168 0.461-0.158 1.149-0.365 2.036-0.628 0.893-0.242 1.986-0.538 3.275-0.785 1.286-0.26 2.766-0.487 4.414-0.603 3.287-0.246 7.266-0.035 11.488 1.091 2.108 0.557 4.271 1.337 6.413 2.358 2.137 1.031 4.247 2.313 6.249 3.837 1.987 1.544 3.782 3.241 5.305 5.061 1.519 1.822 2.797 3.734 3.854 5.643 2.125 3.821 3.382 7.583 4.289 10.756 0.883 3.188 1.393 5.821 1.736 7.639 0.161 0.897 0.288 1.6 0.378 2.098 0.042 0.227 0.076 0.407 0.101 0.545 0.024 0.123 0.039 0.185 0.044 0.185 5e-3 -1e-3 0-0.065-0.015-0.189-0.018-0.139-0.042-0.321-0.073-0.55-0.065-0.483-0.169-1.195-0.323-2.109-0.309-1.826-0.788-4.47-1.648-7.674-0.884-3.19-2.126-6.977-4.252-10.832-1.057-1.926-2.34-3.856-3.871-5.697-1.533-1.839-3.342-3.553-5.346-5.11-2.019-1.536-4.148-2.827-6.304-3.863-2.161-1.026-4.343-1.806-6.469-2.361-4.257-1.12-8.268-1.31-11.573-1.035-1.656 0.13-3.142 0.373-4.431 0.649-1.292 0.264-2.384 0.577-3.275 0.837-0.884 0.281-1.568 0.505-2.023 0.682-0.216 0.081-0.388 0.146-0.519 0.196-0.115 0.045-0.174 0.071-0.173 0.075z" fill="#1b2328"/>
													</g>
												</g>
											</g><g id="g397">
												<g id="g396">
													<g id="g395">
														<path id="path394" d="m367.66 248.93c0.094-5e-3 -0.235-1.432 0.371-3.046 0.575-1.626 1.745-2.506 1.676-2.571-0.019-0.027-0.337 0.146-0.751 0.557-0.413 0.406-0.895 1.074-1.203 1.913-0.305 0.84-0.365 1.661-0.31 2.238 0.054 0.579 0.185 0.917 0.217 0.909z" fill="#263238"/>
													</g>
												</g>
											</g><g id="g404">
												<g id="g403">
													<g id="g402">
														<path id="path401" d="m359.12 250.24c0.088-0.022-0.201-1.087-0.06-2.408 0.123-1.323 0.617-2.31 0.534-2.349-0.058-0.046-0.696 0.926-0.829 2.32-0.145 1.391 0.29 2.471 0.355 2.437z" fill="#263238"/>
													</g>
												</g>
											</g><path id="path411" d="m353.68 239.74c2.457-2.649 6.755-3.112 9.999-1.521 3.244 1.592 5.424 4.918 6.195 8.448 2.355-0.909 5.31 0.236 6.436 2.495l4.278 1.212c-0.686 1.726-1.389 3.482-2.572 4.913s-2.946 2.509-4.799 2.402c-1.854-0.107-3.642-1.693-3.55-3.548-1.347 2.974-4.906 4.319-8.169 4.42-2.55 0.079-5.278-0.506-7.059-2.335-1.78-1.828-2.156-5.124-0.287-6.862-2.857-2.211-2.928-6.974-0.472-9.624z" fill="#0e0907"/><path id="path416" d="m367.19 295.64 0.402-0.251c1.991-0.064 3.983-0.128 5.974-0.192 0.323-0.01 0.666-0.017 0.948 0.142 0.34 0.191 0.517 0.58 0.618 0.957 0.47 1.742-0.32 3.747-1.852 4.7s-3.68 0.776-5.035-0.415c-1.354-1.192-1.804-3.299-1.055-4.941z" fill="#ff9a6c"/><polygon id="polygon420" points="271.12 405.12 265.71 398.98 271.21 388.01 277.99 391.12" fill="#ffbf9d"/><path id="path422" d="m271.11 384.64c-0.144-0.25-6.396-10.179-9.932-13.9-3.535-3.722-3.629-7.788-6.141-8.127s-2.977 3.196-1.768 6.825c1.21 3.629 4.466 5.489 3.535 6.792-0.93 1.302-21.069-2.096-21.069-2.096s-2.605-2.661-4.652-0.428c0 0-3.247-0.773-2.998 1.749 0.266 2.699 6.162 2.81 6.162 2.81l2.922 5.224 6.796 2.511s0.413 2.884 2.439 4.838 3.515 3.061 3.794 3.112 6.326 3.773 9.397 4.517c3.07 0.744 7.164 1.396 7.164 1.396l5.582-11.165c2e-3 -2e-3 0.119-1.706-1.231-4.058z" fill="#ffbf9d"/><path id="path426" d="m244.04 386.38s-1.007-2.519-0.763-4.653 2.255-11.582 3.17-11.765 2.499-0.732 2.926 1.829c0.427 2.56-1.036 8.614-1.036 8.757s0.949 1.85 1.114 4.105" fill="#ffbf9d"/><path id="path430" d="m249.45 384.65c-0.048 4e-3 -0.092-0.476-0.302-1.31-0.104-0.417-0.256-0.92-0.472-1.489-0.11-0.284-0.236-0.583-0.379-0.9l-0.11-0.251c-0.069-0.115-0.019-0.316-7e-3 -0.37 0.035-0.183 0.071-0.369 0.108-0.559 0.289-1.519 0.633-3.334 0.817-5.357 0.078-1.006 0.152-2.087-0.128-3.095-0.142-0.495-0.396-0.964-0.816-1.145-0.424-0.191-0.971-0.087-1.547 0.043-0.107-0.049-0.238 0.228-0.36 0.468-0.117 0.249-0.219 0.515-0.313 0.781-0.189 0.534-0.353 1.073-0.506 1.606-0.305 1.066-0.566 2.108-0.806 3.102-0.47 1.989-0.864 3.797-1.117 5.313-0.233 1.494 0.059 2.744 0.226 3.578 0.191 0.84 0.341 1.297 0.302 1.311-0.035 0.014-0.257-0.418-0.518-1.254-0.234-0.831-0.604-2.091-0.413-3.691 0.206-1.553 0.559-3.367 1.004-5.376 0.226-1.003 0.478-2.054 0.78-3.136 0.152-0.541 0.315-1.09 0.509-1.644 0.097-0.277 0.202-0.555 0.333-0.835 0.066-0.141 0.135-0.28 0.236-0.427 0.043-0.07 0.113-0.151 0.2-0.228 0.05-0.041 0.145-0.085 0.219-0.109l0.106-0.022c0.559-0.118 1.236-0.29 1.897-3e-3 0.664 0.301 0.969 0.957 1.126 1.512 0.308 1.159 0.204 2.275 0.114 3.3-0.216 2.062-0.605 3.876-0.946 5.393-0.043 0.188-0.086 0.372-0.127 0.552-0.019 0.124-0.046 0.11-0.019 0.161l0.094 0.24c0.132 0.325 0.248 0.639 0.346 0.935 0.193 0.594 0.316 1.118 0.388 1.551 0.144 0.865 0.112 1.354 0.081 1.355z" fill="#ff9a6c"/><path id="path436" d="m265.71 388.73c-0.039 0.103-1.105-0.511-3.091-0.786-0.988-0.112-2.213-0.088-3.513 0.321-1.292 0.387-2.674 1.19-3.788 2.349l-0.481 0.5 0.01-0.681c0.026-1.799 0.055-3.756 0.085-5.801v-6e-3l2e-3 -0.023c0.017-0.199 0.035-0.413 0.053-0.628 0.065-1.208 0.043-2.434-0.315-3.464-0.317-1.015-1.441-1.596-2.331-1.261-0.216 0.076-0.412 0.199-0.544 0.353-0.134 0.135-0.167 0.352-0.232 0.602-0.109 0.484-0.189 0.972-0.269 1.44-0.143 0.933-0.277 1.809-0.401 2.623-0.224 1.518-0.412 2.794-0.561 3.809-0.141 0.897-0.245 1.397-0.29 1.387-0.033-9e-3 -6e-3 -0.505 0.067-1.414 0.075-0.906 0.198-2.217 0.38-3.834 0.093-0.809 0.198-1.694 0.333-2.644 0.07-0.476 0.14-0.965 0.246-1.477 0.023-0.127 0.065-0.263 0.097-0.396 0.045-0.15 0.13-0.304 0.23-0.428 0.206-0.248 0.477-0.415 0.765-0.522 0.578-0.208 1.251-0.163 1.817 0.133 0.555 0.293 1.016 0.824 1.22 1.428 0.416 1.189 0.424 2.442 0.361 3.699-0.019 0.227-0.038 0.452-0.056 0.662l2e-3 -0.029c-0.043 2.046-0.085 4.002-0.123 5.801l-0.471-0.181c1.241-1.26 2.681-2.044 4.064-2.429 1.382-0.396 2.67-0.376 3.688-0.213 0.512 0.085 0.963 0.188 1.341 0.331 0.387 0.116 0.707 0.237 0.953 0.37 0.503 0.24 0.765 0.382 0.752 0.409z" fill="#ff9a6c"/><path id="path441" d="m243.24 379.96c-0.036 0.088-1.604-0.462-4.007-1.39l-0.068-0.026-0.05-0.082c-0.413-0.674-1.03-1.413-1.698-2.164-0.681-0.739-1.427-1.57-2.272-2.254-0.646-0.514-1.373-0.888-2.087-0.945-0.706-0.05-1.384 0.291-1.764 0.752l2e-3 -0.293c0.923 1.373 1.685 2.533 2.204 3.358s0.796 1.314 0.75 1.346c-0.046 0.031-0.407-0.399-0.998-1.174s-1.411-1.894-2.374-3.24l-0.108-0.151 0.11-0.143c0.489-0.64 1.309-1.053 2.209-1.014 0.89 0.059 1.714 0.498 2.411 1.049 0.924 0.753 1.639 1.574 2.327 2.347 0.673 0.789 1.263 1.526 1.701 2.311l-0.118-0.108c2.362 1.026 3.866 1.733 3.83 1.821z" fill="#ff9a6c"/><path id="path447" d="m327.65 372.13-1.693 0.259-4.907 0.968-8.676 30.172-34.378-12.412-11.232 8.743s53.626 35.727 61.518 29.575 14.103-39.228 14.103-39.228c0.09 0.214-14.735-18.077-14.735-18.077z" fill="#ffbf9d"/><path id="path449" d="m317.74 366.77c4.411-14.271 6.878-24.35 11.331-28.566 6.004-5.684 34.353-13.891 34.353-13.891s0.787 7.754 14.405 8.299c13.617 0.545 20.322-11.955 20.322-11.955s14.661 3.709 24.544 6.546c9.739 2.795 15.965 6.01 20.078 12.448 5.318 8.324 13.659 46.732 13.659 46.732l-33.9 10.482 2.046 31.121 1.339 40.146-96.711 0.385c0-7.053 6.299-75.948 6.299-75.948l-23.865-5.644c0 2e-3 2.191-7.511 6.1-20.155z" fill="#4c6371"/><path id="path455" d="m337.66 353.21c-0.011-1e-3 -0.035 0.136-0.072 0.398-0.037 0.295-0.085 0.677-0.145 1.149-0.122 0.999-0.268 2.447-0.427 4.239-0.317 3.584-0.631 8.546-0.807 14.032-0.177 5.488-0.211 10.458-0.204 14.054 0.014 1.769 0.025 3.214 0.033 4.259 0.011 0.476 0.021 0.86 0.028 1.158 0.01 0.265 0.02 0.404 0.031 0.404s0.022-0.139 0.033-0.404c8e-3 -0.298 0.019-0.682 0.032-1.158 0.017-1.044 0.04-2.489 0.068-4.258 0.051-3.595 0.121-8.562 0.297-14.045 0.176-5.482 0.454-10.439 0.713-14.024 0.135-1.763 0.246-3.204 0.326-4.245 0.035-0.475 0.063-0.858 0.085-1.155 0.017-0.263 0.02-0.402 9e-3 -0.404z" fill="#1b2328"/><path id="path461" d="m380.9 440.49 42.363-22.878-0.723-20.748 26.742-8.129s2.455 31.115-1.469 44.619c-3.923 13.505-64.072 20.488-64.072 20.488z" fill="#ffbf9d"/><path id="path463" d="m372.84 434.37-4.112-2.456c-0.722-0.223-1.496-0.222-2.217 3e-3l-9.991 3.118c-1.849 0.717-3.273 2.233-3.874 4.123l-1.924 7.258s-1.272 4.954-0.669 5.903c0.91 1.433 2.473 0.653 2.473 0.653s0.899 1.874 1.672 2.091c1.288 0.362 2.491-0.525 2.491-0.525 0.577 0.655 1.497 0.94 2.319 0.647 0.164-0.059 0.33-0.138 0.496-0.242 1.095-0.696 0.988-3.163 0.988-3.163l4.845-2.371s8.705 2.858 12.188 5.35c3.482 2.492 9.571-1.854 9.571-1.854l-0.846-12.824z" fill="#ffbf9d"/><path id="path471" d="m432.2 425.83c-0.159 0.096-1.343-2.487-3.844-4.786-2.501-2.3-5.178-3.259-5.093-3.429 0.023-0.059 0.705 0.118 1.741 0.589 1.033 0.469 2.415 1.27 3.704 2.456 1.292 1.182 2.203 2.495 2.761 3.482 0.555 0.995 0.788 1.66 0.731 1.688z" fill="#ff9a6c"/><path id="path474" d="m456.44 386.38c5e-3 0.017-0.216 0.105-0.643 0.255-0.479 0.162-1.101 0.373-1.875 0.636-1.694 0.549-4.045 1.312-6.925 2.246-5.914 1.865-13.987 4.41-22.906 7.222-0.707 0.22-1.408 0.439-2.063 0.643l-0.315 0.098-0.022-0.331c-0.287-4.42-0.846-8.598-1.267-12.39-0.437-3.791-0.794-7.196-1.026-10.054-0.235-2.858-0.35-5.168-0.4-6.761-0.025-0.797-0.025-1.415-0.027-1.834 1e-3 -0.419 9e-3 -0.638 0.027-0.639 0.017 0 0.042 0.218 0.074 0.635 0.031 0.469 0.071 1.075 0.121 1.828 0.11 1.588 0.28 3.89 0.561 6.738 0.278 2.849 0.673 6.245 1.137 10.031 0.448 3.789 1.025 7.961 1.319 12.414l-0.337-0.233c0.655-0.204 1.356-0.423 2.063-0.644 8.937-2.755 17.026-5.249 22.952-7.076 2.901-0.868 5.269-1.577 6.975-2.088 0.786-0.224 1.418-0.404 1.904-0.542 0.436-0.117 0.668-0.171 0.673-0.154z" fill="#1b2328"/><path id="path477" d="m368.34 301.24c0.027-0.105 1.026 0.55 2.742 0.326 0.835-0.115 1.822-0.495 2.587-1.297 0.766-0.787 1.308-1.982 1.281-3.255-0.02-0.621-0.14-1.293-0.536-1.587-0.382-0.294-1.026-0.149-1.602-0.107-1.116 0.099-2.15 0.191-3.084 0.275-1.758 0.141-2.848 0.193-2.856 0.121s1.069-0.252 2.817-0.487c0.93-0.117 1.96-0.246 3.072-0.386 0.291-0.031 0.578-0.077 0.909-0.093 0.321-0.013 0.719 0.024 1.046 0.266 0.646 0.516 0.715 1.304 0.754 1.987 0.028 1.431-0.589 2.745-1.46 3.603-0.876 0.877-1.985 1.252-2.887 1.326-0.915 0.083-1.649-0.108-2.113-0.295-0.467-0.193-0.685-0.372-0.67-0.397z" fill="#263238"/><path id="path480" d="m366.71 444.1c7e-3 0.089-0.936 0.134-2.364 0.567-1.42 0.422-3.328 1.321-4.94 2.912-1.612 1.592-2.536 3.489-2.977 4.903-0.451 1.422-0.509 2.365-0.598 2.357-0.054 2e-3 -0.129-0.961 0.244-2.458 0.362-1.484 1.273-3.501 2.965-5.172 1.692-1.67 3.72-2.555 5.209-2.897 1.502-0.354 2.463-0.266 2.461-0.212z" fill="#ff9a6c"/><path id="path483" d="m363.58 438.33c7e-3 0.101-1.165-0.039-2.816 0.672-0.815 0.354-1.729 0.922-2.577 1.736-0.851 0.811-1.619 1.875-2.263 3.081-1.275 2.432-1.903 4.889-2.501 6.611-0.571 1.737-1.048 2.771-1.113 2.744-0.068-0.027 0.283-1.095 0.761-2.852 0.508-1.741 1.078-4.233 2.394-6.748 0.665-1.247 1.479-2.352 2.394-3.186 0.912-0.837 1.894-1.401 2.768-1.728 0.878-0.324 1.637-0.423 2.155-0.425 0.519-3e-3 0.8 0.067 0.798 0.095z" fill="#ff9a6c"/><path id="path486" d="m277.21 466.07-25.11-65.945c-0.945-2.482 0.888-5.141 3.543-5.141h80.633c1.471 0 2.81 0.851 3.434 2.184l23.781 65.53 50.631 0.49c2.094 0 4.179 4e-3 4.179 2.098s-1.698 3.227-3.792 3.227h-133.76c-1.573 0-2.983-0.972-3.543-2.443z" fill="#221c24"/><g id="g493" fill="#dbe2e6">
												<g id="g492" fill="#dbe2e6">
													<path id="path491" d="m311.34 431.75c0 2.922-2.369 5.291-5.291 5.291s-5.291-2.369-5.291-5.291 2.368-5.29 5.291-5.29 5.291 2.369 5.291 5.29z" fill="#dbe2e6"/>
												</g>
											</g><path id="path502" d="m438.87 468.54c0 0.144-39.257 0.26-87.671 0.26-48.431 0-87.679-0.116-87.679-0.26s39.248-0.26 87.679-0.26c48.414 0 87.671 0.116 87.671 0.26z" fill="#1b2328"/>
<circle id="ellipse506" transform="rotate(-45)" cx="149.31" cy="327.56" r="79.431" fill="#f5f5f5" stroke-width=".99999"/><path id="path509" d="m309.57 46.84c-1.458 0.804-2.37 2.504-2.234 4.163-1.326-0.785-3.147-0.509-4.282 0.534-1.135 1.042-1.576 2.732-1.243 4.237s1.378 2.804 2.701 3.595c-0.947 0.102-1.714 0.92-1.959 1.84s-0.044 1.91 0.339 2.782c1.272 2.897 4.699 4.668 7.798 4.028l5.751-20.048z" fill="#0e0907"/><path id="path511" d="m323.95 125.25 0.156-6.986s-14.309-1.418-15.271-15.592c-0.464-6.845-0.274-21.019 0.047-33.844 0.345-13.79 11.222-25 24.995-25.764l1.368-0.076c14.804 0.043 23.038 12.64 22.585 27.437l-1.938 59.443-25.365 9.437z" fill="#ae7461"/><path id="path515" d="m324.1 118.26s8.982 0.256 18.277-4.956c0 0-0.53 10.027-17.986 9.532z" fill="#6f4439"/><path id="path519" d="m314.58 83.569c0.021 1.071 0.947 1.937 2.066 1.935 1.117-3e-3 2.008-0.87 1.986-1.942s-0.946-1.938-2.064-1.937c-1.118 2e-3 -2.009 0.872-1.988 1.944z" fill="#1b2328"/><path id="path523" d="m312.31 75.6c0.266 0.25 1.737-0.971 3.917-1.086 2.176-0.146 3.838 0.886 4.059 0.606 0.11-0.125-0.173-0.587-0.897-1.056-0.714-0.467-1.91-0.893-3.268-0.812-1.357 0.083-2.471 0.646-3.099 1.194-0.642 0.552-0.842 1.042-0.712 1.154z" fill="#1b2328"/><path id="path527" d="m333.72 82.833c0.021 1.072 0.947 1.937 2.066 1.935 1.118-2e-3 2.008-0.87 1.987-1.942-0.022-1.071-0.947-1.938-2.065-1.936-1.12 2e-3 -2.01 0.872-1.988 1.943z" fill="#1b2328"/><path id="path531" d="m333.76 74.817c0.266 0.25 1.293-1.123 3.471-1.239 2.175-0.146 4.284 1.04 4.506 0.759 0.109-0.124-0.17-0.587-0.898-1.055-0.714-0.467-1.91-0.893-3.267-0.812-1.357 0.083-2.471 0.646-3.1 1.194-0.639 0.551-0.841 1.042-0.712 1.153z" fill="#1b2328"/><path id="path535" d="m326.75 91.42c3e-3 -0.125-1.365-0.284-3.575-0.443-0.56-0.026-1.093-0.108-1.207-0.483-0.154-0.395 0.046-1.007 0.28-1.67 0.448-1.375 0.918-2.818 1.411-4.329 1.951-6.161 3.33-11.214 3.081-11.29s-2.032 4.855-3.983 11.016c-0.468 1.519-0.915 2.966-1.34 4.351-0.175 0.644-0.498 1.382-0.167 2.2 0.173 0.408 0.598 0.687 0.96 0.763 0.363 0.089 0.676 0.078 0.952 0.079 2.216-4e-3 3.587-0.07 3.588-0.194z" fill="#1b2328"/><path id="path539" d="m332.36 68.531c0.3 0.555 2.415-0.042 4.993-0.113 2.578-0.122 4.73 0.316 4.988-0.26 0.112-0.274-0.325-0.774-1.236-1.22-0.903-0.446-2.289-0.792-3.835-0.735-1.545 0.059-2.902 0.507-3.769 1.019-0.874 0.513-1.274 1.044-1.141 1.309z" fill="#1b2328"/><path id="path543" d="m311.89 70.334c0.482 0.442 2.081-0.267 4.075-0.527 1.984-0.324 3.726-0.107 4.053-0.668 0.141-0.27-0.184-0.732-0.978-1.111-0.783-0.378-2.046-0.613-3.413-0.412-1.367 0.202-2.502 0.789-3.137 1.376-0.644 0.589-0.816 1.124-0.6 1.342z" fill="#1b2328"/><path id="path547" d="m356.31 84.357c-0.032-2.194 1.758-4.027 3.951-3.94 2.659 0.105 5.686 1.443 5.815 6.919 0.229 9.714-9.571 7.939-9.594 7.661-0.016-0.189-0.112-6.574-0.172-10.64z" fill="#ae7461"/><path id="path551" d="m358.51 91.293c0.042-0.032 0.173 0.115 0.461 0.239 0.282 0.121 0.763 0.198 1.266-4e-3 1.017-0.401 1.843-2.05 1.849-3.802 4e-3 -0.884-0.201-1.722-0.531-2.411-0.313-0.704-0.784-1.189-1.303-1.269-0.517-0.107-0.875 0.211-0.988 0.487-0.124 0.275-0.058 0.467-0.109 0.485-0.026 0.025-0.212-0.158-0.143-0.561 0.036-0.194 0.144-0.426 0.368-0.617 0.229-0.195 0.569-0.3 0.93-0.27 0.75 0.034 1.441 0.708 1.803 1.465 0.404 0.759 0.655 1.7 0.651 2.693-0.016 1.959-0.975 3.814-2.37 4.253-0.679 0.195-1.254 2e-3 -1.554-0.22-0.307-0.234-0.363-0.45-0.33-0.468z" fill="#6f4439"/><path id="path555" d="m323.06 59.724c-0.024 1e-3 -0.045 0.01-0.068 0.013-0.058 7e-3 -0.116 0.011-0.174 0.02z" fill="#ff725e"/><path id="path559" d="m366.24 66.455c-0.222-0.855-0.83-1.566-1.595-2.002 0.435-0.527 0.762-1.142 0.918-1.809 0.439-1.875-0.457-3.984-2.111-4.971 1.605-1.702 2.174-4.311 1.424-6.527s-2.786-3.944-5.095-4.322c-0.021-2.924-1.699-5.779-4.243-7.221s-5.856-1.413-8.375 0.071c-2.225-4.516-8.68-6.28-12.892-3.522-2.984-1.89-6.178-3.844-9.711-3.864-3.532-0.021-7.322 2.78-6.971 6.295-2.554-0.541-5.253-0.72-7.744 0.058-2.492 0.779-4.744 2.644-5.478 5.149s0.394 5.568 2.797 6.589c-2.074 2.393-1.925 6.394 0.322 8.625 0.65 0.646 1.455 1.094 2.318 1.383-0.014 0.611 6e-3 1.231 0.075 1.861 0 0 0.236-0.654 0.652-1.643 1.942 0.413 4.084-0.022 5.582-1.339 1.876 1.83 4.844 2.443 7.292 1.506s4.247-3.376 4.421-5.991c1.461 1.25 3.558 1.711 5.408 1.19s3.399-2.008 3.993-3.837c2.213 2.252 5.835 2.98 8.746 1.757 0.151 1.884 1.206 3.581 2.683 4.747-0.031 1.625-0.188 3.476 0.062 5.751 2.8 25.437 7.86 32.394 8.518 20.302 0.07-1.288 3.465-2.518 3.865-7.729 0.54-0.12 1.064-0.304 1.547-0.575 1.023-0.573 1.853-1.537 2.124-2.678s-0.077-2.443-0.977-3.194c1.714-0.405 2.887-2.356 2.445-4.06z" fill="#0e0907"/><path id="path561" d="m346.51 55.499c-0.034 0.01-7e-3 0.304 0.205 0.797 0.213 0.487 0.634 1.179 1.413 1.795 0.763 0.609 1.936 1.138 3.305 1.046 1.344-0.077 2.844-0.739 3.826-2.052l-0.562-3e-3c0.498 0.689 1.17 1.288 1.955 1.72 1.677 0.916 3.654 1.013 5.194 0.388 1.565-0.614 2.562-1.843 3.092-2.933 0.536-1.112 0.623-2.131 0.586-2.802-0.05-0.678-0.196-1.028-0.231-1.019-0.144-0.013 0.294 1.547-0.799 3.592-0.543 0.979-1.493 2.05-2.881 2.554-1.365 0.521-3.129 0.416-4.621-0.399-0.697-0.384-1.289-0.909-1.731-1.505l-0.284-0.384-0.278 0.381c-0.825 1.131-2.131 1.751-3.312 1.855-1.196 0.12-2.252-0.293-2.99-0.804-1.501-1.069-1.78-2.292-1.887-2.227z" fill="#f9f9f9"/><path id="path566" d="m326.28 97.712c0.046 0.197 1.611-6e-3 3.519-0.316 1.908-0.314 3.456-0.619 3.437-0.821-0.017-0.196-1.617-0.212-3.554 0.106-1.936 0.315-3.448 0.84-3.402 1.031z" fill="#1b2328"/><path id="path571" d="m295.7 131.09s-3.086 0.19-9.448 4.951c-6.362 4.76-20.722 24.281-20.722 24.281 6.395 13.435 11.071 20.964 22.659 28.931l13.432-13.737s7.773-37.428 6.853-37.301c-0.921 0.127-12.774-7.125-12.774-7.125z" fill="#c4b7c8"/><path id="path574" d="m388.65 125.86c-9.009-3.99-32.415-6.505-32.415-6.505s-4.864 12.54-18.999 13.205c-8.699 0.409-15.036-8.692-15.036-8.692s-23.26 5.695-28.123 7.685c-3.774 26.829-4.644 33.215-1.204 60.486 10.369 6.987 23.318 11.912 36.437 13.042 25.21 2.171 51.958-7.519 68.608-28.421z" fill="#c4b7c8"/><path id="path576" d="m288.19 148.15c0.036-2e-3 0.103 0.614 0.192 1.728 0.093 1.2 0.216 2.791 0.365 4.717 0.306 3.983 0.769 9.48 1.413 15.539 0.647 6.061 1.353 11.533 1.892 15.491 0.26 1.914 0.475 3.495 0.637 4.688 0.147 1.108 0.211 1.723 0.176 1.729-0.036 6e-3 -0.168-0.599-0.376-1.697-0.211-1.098-0.486-2.692-0.801-4.666-0.633-3.948-1.398-9.421-2.046-15.49-0.645-6.067-1.05-11.578-1.263-15.57-0.107-1.996-0.174-3.613-0.199-4.731-0.027-1.117-0.026-1.736 0.01-1.738z" fill="#1b2328"/><path id="path579" d="m333.94 138.71c-3e-3 -2.152 0.059-9.326 0.637-12.918 0.816-5.068 9.517-17.305 9.517-17.305s-0.2-4.622-5.193-1.457c-5.911 3.748-8.332 8.921-10.072 8.205-1.74-0.717-13.213-9.341-15.877-8.613s-2.674 3.437-1.714 4.573c0.969 1.146 2.281 2.804 2.281 2.804s-5.807-1.012-3.742 5.107c0 0-7.156-3.095-5.219 5.423 0 0-2.696 1.845-1.148 4.662 1.286 2.339 4.463 6.427 6.26 8.604 1.797 2.176 5.066 10.128 5.066 10.128l3.283 13.388 21.822-8.026z" fill="#ae7461"/><path id="path583" d="m313.41 114.01c-0.049 0.087 1.408 0.996 3.166 2.171 1.761 1.172 3.16 2.169 3.221 2.09 0.058-0.073-1.253-1.201-3.027-2.381-1.77-1.184-3.315-1.962-3.36-1.88z" fill="#6f4439"/><path id="path587" d="m309.48 118.73c-0.077 0.047 0.6 1.21 1.795 2.342 1.189 1.139 2.383 1.76 2.426 1.68 0.055-0.088-1.028-0.825-2.184-1.934-1.164-1.101-1.953-2.147-2.037-2.088z" fill="#6f4439"/><path id="path591" d="m304.25 124.2c-0.069 0.068 0.602 0.865 1.498 1.78 0.896 0.916 1.679 1.603 1.748 1.535s-0.601-0.865-1.498-1.78c-0.896-0.915-1.679-1.602-1.748-1.535z" fill="#6f4439"/><path id="path597" d="m376.62 158.62-23.44 23.55-19.593-42.869-18.855 8.62s14.163 60.267 21.188 68.932 11.001 8.909 20.463 4.549 38.635-39.465 38.635-39.465z" fill="#ae7461"/><path id="path599" d="m391.67 192.65s11.225-21.212 12.113-40.352c0.392-8.448-2.644-16.793-8.807-22.584-2.187-2.055-4.712-3.766-7.366-4.275 0 0-2.318 7.479-6.952 13.871s-22.157 33.743-22.157 33.743z" fill="#c4b7c8"/><path id="path601" d="m314.74 147.93c-0.01 4e-3 -0.084-0.147-0.22-0.442-0.147-0.324-0.344-0.759-0.595-1.313-0.526-1.149-1.286-2.845-2.365-4.957-0.551-1.044-1.153-2.232-2.018-3.343-0.922-1.106-1.894-2.324-2.908-3.651-1.007-1.332-2.072-2.76-3.065-4.372-0.493-0.775-0.975-1.789-0.797-2.849 0.156-1.054 0.797-1.983 1.671-2.642l-0.088 0.224c-0.148-0.797-0.317-1.61-0.329-2.473-0.036-0.426 0.052-0.869 0.089-1.308 0.124-0.435 0.236-0.881 0.521-1.272 0.525-0.811 1.546-1.215 2.478-1.194 0.947-1e-3 1.867 0.202 2.763 0.557l-0.32 0.294c-0.091-0.322-0.182-0.646-0.274-0.973-0.081-0.33-0.111-0.679-0.167-1.021-0.022-0.695 0.012-1.45 0.417-2.113 0.399-0.665 1.121-1.065 1.833-1.235 0.725-0.171 1.455-0.194 2.203-0.088l-0.232 0.41c-0.433-0.532-0.871-1.068-1.313-1.61l-0.665-0.816c-0.216-0.263-0.468-0.549-0.626-0.91-0.329-0.69-0.429-1.496-0.228-2.261 0.195-0.77 0.754-1.427 1.439-1.811 0.357-0.18 0.69-0.33 1.109-0.409 0.434-0.056 0.827 0.016 1.197 0.118 0.745 0.199 1.436 0.505 2.118 0.831 1.358 0.661 2.67 1.425 3.973 2.223 2.406 1.472 4.698 3.038 6.967 4.514 0.559 0.345 1.157 0.773 1.687 0.973 0.464 0.136 1.045-0.297 1.505-0.72 0.952-0.879 1.813-1.884 2.721-2.809 1.805-1.868 3.732-3.55 5.852-4.816 0.535-0.315 1.097-0.594 1.706-0.754 0.592-0.195 1.278-0.198 1.886 0.021 0.617 0.228 1.08 0.73 1.364 1.265 0.288 0.545 0.452 1.112 0.521 1.712l9e-3 0.083-0.055 0.073c-2.901 3.894-5.4 7.605-7.342 11.042-0.953 1.723-1.8 3.385-2.25 5.013-0.41 1.633-0.434 3.235-0.536 4.646-0.142 2.841-0.172 5.083-0.236 6.61-0.032 0.764-0.062 1.35-0.102 1.744-0.035 0.394-0.09 0.594-0.09 0.594-0.016-2e-3 6e-3 -0.205 0.018-0.599 8e-3 -0.426 0.019-1.005 0.033-1.743 0.02-1.527 7e-3 -3.768 0.111-6.619 0.085-1.424 0.083-3.009 0.49-4.714 0.449-1.689 1.29-3.367 2.236-5.113 1.929-3.478 4.408-7.209 7.306-11.136l-0.045 0.156c-0.13-1.021-0.602-2.205-1.6-2.577-1.001-0.368-2.184 0.123-3.18 0.711-2.056 1.238-3.954 2.898-5.734 4.75-0.902 0.922-1.746 1.916-2.743 2.84-0.251 0.229-0.526 0.446-0.837 0.635-0.322 0.153-0.723 0.354-1.159 0.196-0.719-0.278-1.223-0.672-1.817-1.031-2.282-1.481-4.566-3.039-6.96-4.504-1.294-0.792-2.596-1.551-3.926-2.199-0.664-0.319-1.341-0.615-2.024-0.798-0.338-0.098-0.69-0.147-0.983-0.109-0.302 0.053-0.648 0.199-0.939 0.348-0.584 0.332-1.031 0.859-1.196 1.494-0.169 0.63-0.087 1.323 0.193 1.909 0.124 0.295 0.344 0.545 0.571 0.823l0.657 0.809c0.436 0.537 0.868 1.069 1.295 1.596l0.401 0.495-0.634-0.084c-1.295-0.172-2.862 0.011-3.534 1.088-0.621 1.101-0.326 2.506 0.06 3.696l0.158 0.487-0.478-0.192c-0.818-0.329-1.715-0.529-2.566-0.529-0.857-0.016-1.675 0.323-2.113 0.987-0.24 0.32-0.34 0.717-0.455 1.101-0.032 0.407-0.12 0.806-0.086 1.214 7e-3 0.816 0.167 1.609 0.305 2.384l0.025 0.14-0.113 0.084c-0.773 0.575-1.375 1.438-1.507 2.348-0.156 0.932 0.237 1.803 0.726 2.59 0.966 1.594 2.018 3.029 3.008 4.364 0.998 1.332 1.956 2.557 2.862 3.67 0.889 1.171 1.466 2.361 2.007 3.422 1.05 2.137 1.775 3.85 2.264 5.016 0.227 0.564 0.405 1.008 0.538 1.338 0.113 0.308 0.167 0.467 0.157 0.471z" fill="#6f4439"/><path id="path606" d="m360.01 195.01c-0.141 0.06-1.55-3.044-3.597-6.705-2.036-3.668-3.934-6.499-3.808-6.588 0.056-0.039 0.605 0.619 1.402 1.75 0.797 1.13 1.833 2.74 2.862 4.585 1.027 1.845 1.851 3.572 2.392 4.845 0.54 1.273 0.812 2.086 0.749 2.113z" fill="#6f4439"/><path id="path609" d="m374.13 149.49c0.014 9e-3 -0.076 0.178-0.262 0.492-0.216 0.355-0.492 0.807-0.832 1.366-0.775 1.23-1.844 2.927-3.16 5.017-2.753 4.285-6.534 10.172-10.811 16.83l-0.083-0.361c1.268 0.772 2.599 1.583 3.953 2.407 7.699 4.731 14.658 9.021 19.768 12.005 2.523 1.453 4.583 2.64 6.072 3.498 0.681 0.388 1.231 0.701 1.656 0.943 0.376 0.22 0.57 0.343 0.562 0.359s-0.219-0.076-0.611-0.267c-0.438-0.22-1.003-0.505-1.704-0.858-1.47-0.764-3.581-1.899-6.159-3.357-5.163-2.905-12.16-7.15-19.856-11.88-1.353-0.826-2.682-1.638-3.948-2.411l-0.228-0.139 0.145-0.222c4.334-6.62 8.166-12.474 10.956-16.736 1.371-2.054 2.484-3.722 3.291-4.932 0.371-0.538 0.671-0.974 0.907-1.316 0.213-0.296 0.33-0.447 0.344-0.438z" fill="#1b2328"/><path id="path613" d="m372.6 141.89c0.067 0.042-0.428 0.911-1.17 2.339-0.744 1.427-1.71 3.429-2.601 5.713-0.887 2.286-1.527 4.415-1.944 5.97-0.418 1.554-0.641 2.529-0.718 2.515-0.064-0.011 0.031-1.011 0.36-2.601 0.328-1.588 0.919-3.76 1.816-6.073 0.901-2.31 1.932-4.311 2.764-5.703 0.833-1.393 1.439-2.195 1.493-2.16z" fill="#1b2328"/>
<path id="path618" d="m198.75 373.02c0.309 47.194-37.321 85.237-84.362 84.361-46.583-0.867-84.361-37.77-84.361-84.361s37.77-84.362 84.361-84.362 84.057 37.772 84.362 84.362z" fill="#f5f5f5"/><path id="path620" d="m53.322 365.92c-3.723-1.372-6.331-5.316-6.134-9.279s3.182-7.629 7.023-8.625c-3.416-2.36-5.146-6.919-4.155-10.951 0.99-4.032 4.636-7.271 8.756-7.779-2.999-1.888-4.32-5.834-3.65-9.314s3.057-6.458 5.978-8.464c7.965-5.471 20.149-3.336 25.78 4.518l11.292 77.196c-2.785 3.732-9.269 9.005-13.912 8.647s-9.017-3.225-11.197-7.341c-2.89 0.152-5.838 0.299-8.632-0.459-2.793-0.757-5.457-2.585-6.46-5.3s0.192-6.27 2.923-7.23c-3.412-1.406-7.013-2.96-9.114-5.994-2.101-3.033-1.814-8.008 1.502-9.625z" fill="#151212"/><g id="g627" fill="#151212">
												<g id="g626" fill="#151212">
													<g id="g625" fill="#151212">
														<g id="g624" fill="#151212">
															<path id="path623" d="m69.936 343.42c-3.193-3.089-3.617-8.615-0.932-12.155-2.037-1.908-1.909-5.33-0.475-7.724 1.433-2.394 3.849-4.001 6.185-5.528 0.447-6.522 6.889-12.009 13.4-11.414 2.568-5.296 9.435-7.076 15.265-6.268 1.424 0.197 2.864 0.511 4.285 0.297 1.043-0.158 2.021-0.592 3.034-0.884 5.575-1.6 11.809 1.574 14.804 6.542 0.479 0.794 0.901 1.643 1.57 2.286 0.877 0.843 2.079 1.238 3.14 1.833 2.295 1.286 3.975 3.62 4.466 6.205 0.417 2.195 0.058 4.643 1.283 6.512 0.614 0.937 1.576 1.625 2.092 2.619 1.498 2.88-1.411 6.476-0.325 9.535 0.222 0.624 0.599 1.18 0.87 1.785 0.554 1.236 0.639 2.675 0.234 3.968-0.312 0.997-0.911 1.957-0.82 2.998 0.069 0.79 0.527 1.485 0.797 2.231 0.661 1.824-2.333 9.673-3.807 10.934l-48.5 7.567c-3.785-0.209-7.268-3.1-8.17-6.782-0.15-0.612-0.258-1.285-0.715-1.719-0.389-0.371-0.947-0.484-1.452-0.667-3.373-1.22-4.381-5.458-4.571-9.04-0.026-0.502-0.05-1.016-0.245-1.479-0.283-0.673-0.888-1.144-1.413-1.652z" fill="#151212"/>
														</g>
													</g>
												</g>
											</g><path id="path634" d="m71.94 326.9c5.404-10.544 14.143-17.826 25.683-20.512 6.511-1.515 9.507-0.739 14.486-0.483s9.768 1.866 13.433 5.246c4.353 4.014 8.295 8.71 10.164 14.329 1.92 5.771 2.714 11.652 2.616 16.66-0.119 6.081-2.185 15.785-4.641 21.349l-9.767 3.378c-8.271 2.078-16.66 4.17-25.187 4.017-8.527-0.152-17.355-2.822-23.234-9-8.167-8.582-8.958-24.439-3.553-34.984z" fill="#151212"/><path id="path637" d="m85.343 323.9 18.392-12.326 5.386-0.521c11.832-2.504 22.794 8.78 24.933 18.339 2.377 10.62 4.86 23.679 4.858 31.885-4e-3 16.499-13.178 20.709-13.178 20.709l1.763 9.515c-1.257 8.93-18.528 13.238-27.976 5.385l-18.332-66.44c-0.524-2.93 1.28-5.773 4.154-6.546z" fill="#ae7461"/><path id="path640" d="m114.47 362.68c-0.07-0.855 0.234-1.689 0.715-2.321 0.961-1.263 2.662-1.732 4.11-1.133s2.555 2.228 2.674 3.938c-0.498 1.125-1.44 2.015-2.616 2.377-0.183 0.056-0.369 0.103-0.558 0.139-0.914 0.172-1.905 0.064-2.743-0.457-0.838-0.52-1.496-1.488-1.582-2.543z" fill="#6f4439"/><path id="path643" d="m132.35 342.56c0.211 1.085-0.532 2.157-1.66 2.398-1.126 0.241-2.211-0.439-2.423-1.523s0.532-2.158 1.657-2.399c1.129-0.241 2.215 0.441 2.426 1.524z" fill="#1b2328"/><g id="g650" fill="#1b2328">
												<path id="path649" d="m131.6 335.49c-0.213 0.31-1.96-0.599-4.181-0.241-2.223 0.326-3.672 1.727-3.956 1.493-0.138-0.102 0.047-0.629 0.674-1.258 0.617-0.625 1.73-1.314 3.114-1.528 1.385-0.211 2.629 0.113 3.381 0.529 0.766 0.415 1.075 0.865 0.968 1.005z" fill="#1b2328"/>
											</g><path id="path656" d="m121.2 355.74c-0.03-0.124 1.312-0.582 3.504-1.223 0.558-0.149 1.077-0.346 1.111-0.749 0.068-0.431-0.266-1.005-0.645-1.621-0.751-1.288-1.537-2.638-2.362-4.053-3.303-5.779-5.792-10.568-5.558-10.699s3.103 4.447 6.406 10.226c0.801 1.427 1.566 2.788 2.296 4.089 0.317 0.611 0.802 1.283 0.647 2.18-0.086 0.448-0.453 0.822-0.801 0.977-0.346 0.169-0.664 0.225-0.942 0.287-2.232 0.479-3.627 0.711-3.656 0.586z" fill="#1b2328"/><path id="path662" d="m125.76 381.97s-10.716 2.415-22.466-2.332c0 0 7.368 10.699 23.237 6.639z" fill="#6f4439"/><path id="path667" d="m114.9 358.32c0.357-0.078 0.744 2.332 3.08 3.716 2.331 1.391 4.859 0.712 4.931 1.046 0.058 0.146-0.498 0.559-1.578 0.761-1.058 0.205-2.666 0.109-4.095-0.737-1.426-0.849-2.189-2.164-2.428-3.14-0.252-0.994-0.078-1.634 0.09-1.646z" fill="#263238"/><g id="g675" fill="#1b2328">
												<g id="g674" fill="#1b2328">
													<path id="path673" d="m129.19 327.96c-0.287 0.602-2.046 0.509-4.007 0.989-1.976 0.417-3.524 1.264-4.039 0.846-0.232-0.208-0.099-0.771 0.503-1.426 0.592-0.651 1.686-1.34 3.039-1.649 1.353-0.307 2.633-0.16 3.443 0.171 0.824 0.33 1.182 0.78 1.061 1.069z" fill="#1b2328"/>
												</g>
											</g><path id="path681" d="m108.19 346.88c0.175 1.091 1.243 1.841 2.385 1.679 1.14-0.162 1.924-1.174 1.749-2.265-0.175-1.09-1.244-1.842-2.383-1.68-1.142 0.161-1.926 1.176-1.751 2.266z" fill="#1b2328"/><g id="g688" fill="#1b2328">
												<path id="path687" d="m101.7 341.04c0.307 0.217 1.634-1.238 3.841-1.668 2.199-0.46 4.042 0.356 4.228 0.038 0.094-0.143-0.26-0.574-1.066-0.949-0.795-0.374-2.077-0.638-3.45-0.361-1.373 0.279-2.429 1.013-2.992 1.661-0.575 0.655-0.71 1.184-0.561 1.279z" fill="#1b2328"/>
											</g><g id="g696" fill="#1b2328">
												<g id="g695" fill="#1b2328">
													<path id="path694" d="m101.51 333.72c0.533 0.415 2.133-0.44 4.175-0.868 2.028-0.492 3.847-0.409 4.142-1.012 0.125-0.289-0.247-0.737-1.098-1.062-0.84-0.325-2.164-0.466-3.563-0.15-1.398 0.317-2.528 1.011-3.138 1.665-0.622 0.658-0.757 1.22-0.518 1.427z" fill="#1b2328"/>
												</g>
											</g><g id="g707" fill="#151212">
												<g id="g706" fill="#151212">
													<g id="g705" fill="#151212">
														<g id="g704" fill="#151212">
															<path id="path703" d="m137.78 330.75c-2.431-1.094-4.12-2.803-4.342-5.46-1.425 0.645-3.194-1.061-4.235-2.228-1.042-1.167-2.192-1.67-2.337-3.228-0.029-0.307-0.054-0.633-0.234-0.884-0.282-0.394-0.829-0.461-1.307-0.542-2.464-0.414-4.658-2.176-5.596-4.492-2.233 1.364-4.811 2.16-7.425 2.292-0.921 1.821-2.817 3.111-4.849 3.299s-4.132-0.732-5.372-2.353c-0.481 1.478-1.798 2.565-3.239 3.148-1.442 0.582-3.015 0.733-4.563 0.878 1.071 2.887-0.407 6.477-3.201 7.772-0.378 0.175-0.817 0.357-0.948 0.752-0.136 0.411 0.132 0.832 0.34 1.212 1.314 2.404 0.069 5.83-2.481 6.829 2.006 1.158 2.263 4.435 0.462 5.892-0.37 0.299-0.856 0.664-0.73 1.122 0.048 0.174 0.181 0.311 0.308 0.439 0.975 0.984 1.961 2.069 2.249 3.424s-0.428 3.018-1.791 3.265c0.808 0.542 1.592 1.274 1.74 2.235s-0.692 2.076-1.639 1.851c-0.402-0.095-6.07-0.426-6.358-0.723-3.718-3.829-0.416-9.073-0.827-14.394s-3.053-11.109-1.041-16.053c0.844-2.074 5.635-3.677 6.993-5.457 1.548-2.029 3.517-3.691 5.481-5.32 2.563-2.125 5.206-4.258 8.313-5.454 5.789-2.228 12.301-0.905 18.233 0.91 2.256 0.69 4.516 1.46 6.507 2.727 2.381 1.516 4.277 3.68 5.979 5.932 2.46 3.254 4.622 6.831 5.563 10.799" fill="#151212"/>
														</g>
													</g>
												</g>
											</g><g id="g718" fill="#151212">
												<g id="g717" fill="#151212">
													<g id="g716" fill="#151212">
														<g id="g715" fill="#151212">
															<g id="g714" fill="#151212">
																<path id="path713" d="m138.05 325.74s-0.174-0.442-0.761-1.107c-0.286-0.337-0.676-0.72-1.066-1.227-0.382-0.509-0.724-1.175-0.906-1.985-0.201-0.806-0.261-1.734-0.329-2.748-0.068-1.011-0.147-2.139-0.541-3.279-0.382-1.137-1.02-2.282-1.938-3.291-0.458-0.504-0.986-0.973-1.579-1.381-0.591-0.415-1.261-0.738-1.93-1.061-0.666-0.328-1.344-0.684-1.884-1.221-0.542-0.536-0.929-1.236-1.338-1.941-0.823-1.424-1.918-2.777-3.283-3.913-1.357-1.137-2.95-2.116-4.75-2.711-0.89-0.33-1.842-0.501-2.806-0.635-0.971-0.074-1.967-0.098-2.958 0.072-0.496 0.066-0.985 0.204-1.477 0.325-0.485 0.145-0.96 0.317-1.438 0.472-0.952 0.329-1.939 0.495-2.961 0.412-1.019-0.059-2.041-0.282-3.101-0.395-1.056-0.14-2.135-0.157-3.218-0.122-1.085 0.038-2.171 0.197-3.253 0.419-1.078 0.241-2.14 0.593-3.168 1.048-2.03 0.939-3.926 2.414-5.071 4.452-0.112 0.202-0.224 0.403-0.335 0.603l0.167-0.094c-3.46-0.31-6.832 1.078-9.276 3.246-2.464 2.166-4.087 5.203-4.299 8.324l0.072-0.123c-1.253 0.82-2.489 1.641-3.602 2.588-1.11 0.944-2.099 2.025-2.779 3.276-0.672 1.254-0.989 2.66-0.913 4.025 0.07 1.359 0.604 2.698 1.577 3.6l-0.016-0.187c-1.363 1.805-1.87 4.024-1.765 6.043 0.105 2.029 0.795 3.923 1.914 5.348 0.261 0.371 0.588 0.679 0.888 0.996 0.317 0.299 0.636 0.575 0.9 0.883 0.265 0.308 0.46 0.653 0.545 1.032 0.09 0.378 0.103 0.769 0.128 1.155 0.095 1.546 0.324 2.96 0.7 4.19 0.377 1.228 0.893 2.278 1.533 3.05 0.629 0.782 1.35 1.275 1.972 1.56 0.624 0.298 1.15 0.375 1.46 0.541 0.318 0.148 0.442 0.289 0.45 0.279 0 0-0.113-0.153-0.431-0.317-0.31-0.182-0.838-0.274-1.443-0.579-0.607-0.293-1.304-0.786-1.911-1.561-0.618-0.765-1.115-1.803-1.476-3.019-0.359-1.219-0.575-2.621-0.659-4.155-0.022-0.383-0.031-0.785-0.125-1.19-0.087-0.409-0.305-0.798-0.582-1.122-0.277-0.327-0.601-0.61-0.91-0.906-0.291-0.312-0.607-0.611-0.859-0.975-1.082-1.392-1.746-3.243-1.84-5.221-0.094-1.969 0.41-4.124 1.733-5.862l0.076-0.101-0.092-0.086c-0.909-0.849-1.412-2.11-1.476-3.413-0.07-1.305 0.24-2.662 0.888-3.863 0.658-1.203 1.622-2.257 2.715-3.182 1.096-0.929 2.322-1.741 3.575-2.557l0.067-0.044 5e-3 -0.08c0.21-3.026 1.792-5.984 4.199-8.097 2.387-2.116 5.676-3.461 9.025-3.16l0.109 0.01 0.058-0.104c0.107-0.192 0.216-0.387 0.324-0.581 1.104-1.966 2.937-3.396 4.918-4.315 1.004-0.444 2.043-0.79 3.1-1.027 1.061-0.218 2.128-0.375 3.195-0.414 1.065-0.036 2.126-0.021 3.165 0.116 1.04 0.109 2.07 0.333 3.12 0.393 0.524 0.031 1.053 0.022 1.573-0.054 0.521-0.077 1.021-0.221 1.505-0.378 0.485-0.158 0.957-0.33 1.43-0.473 0.478-0.118 0.951-0.253 1.434-0.318 0.962-0.168 1.932-0.146 2.879-0.077 0.94 0.129 1.871 0.292 2.743 0.613 1.763 0.577 3.329 1.533 4.665 2.645 1.344 1.112 2.422 2.433 3.239 3.831 0.41 0.699 0.808 1.419 1.387 1.988s1.284 0.931 1.955 1.257c0.678 0.323 1.329 0.634 1.907 1.034 0.581 0.395 1.098 0.849 1.549 1.339 0.903 0.98 1.536 2.097 1.918 3.207 0.393 1.111 0.482 2.217 0.559 3.229 0.078 1.013 0.148 1.95 0.362 2.768 0.195 0.822 0.556 1.503 0.955 2.015 0.404 0.509 0.802 0.883 1.094 1.211 0.298 0.323 0.499 0.59 0.625 0.776 0.127 0.182 0.18 0.285 0.188 0.281z" fill="#151212"/>
															</g>
														</g>
													</g>
												</g>
											</g><g id="g729" fill="#f9f9f9" opacity=".3">
												<g id="g728" fill="#f9f9f9">
													<g id="g727" fill="#f9f9f9">
														<g id="g726" fill="#f9f9f9">
															<g id="g725" fill="#f9f9f9">
																<path id="path724" d="m92.979 303.44c0.02 0.022 0.269-0.208 0.771-0.547 0.501-0.334 1.274-0.772 2.318-1.04 1.035-0.272 2.353-0.365 3.716 0.025 1.354 0.387 2.739 1.247 3.731 2.542 0.285 0.372 0.542 0.775 0.725 1.178 0.178 0.401 0.257 0.844 0.081 1.178l-0.218 0.414 0.429-0.188c1.181-0.518 2.478-0.459 3.484-0.068 1.021 0.388 1.734 1.112 2.164 1.79 0.435 0.685 0.607 1.328 0.686 1.766 0.077 0.442 0.075 0.69 0.101 0.69 0.01 0 0.019-0.061 0.027-0.181 9e-3 -0.119 7e-3 -0.297-0.015-0.525-0.047-0.454-0.19-1.128-0.619-1.86-0.422-0.723-1.158-1.512-2.239-1.945-1.062-0.435-2.442-0.518-3.72 0.032l0.212 0.226c0.248-0.477 0.126-1.026-0.065-1.464-0.203-0.448-0.463-0.854-0.765-1.249-1.042-1.358-2.495-2.248-3.915-2.636-1.432-0.391-2.804-0.266-3.863 0.044-1.07 0.307-1.845 0.79-2.332 1.163-0.244 0.189-0.423 0.348-0.534 0.466-0.113 0.116-0.169 0.18-0.16 0.189z" fill="#f9f9f9"/>
															</g>
														</g>
													</g>
												</g>
											</g><g id="g740" fill="#f9f9f9" opacity=".3">
												<g id="g739" fill="#f9f9f9">
													<g id="g738" fill="#f9f9f9">
														<g id="g737" fill="#f9f9f9">
															<g id="g736" fill="#f9f9f9">
																<path id="path735" d="m72.334 329.75c-0.011 4e-3 8e-3 0.072 0.055 0.2 0.056 0.123 0.147 0.307 0.321 0.502 0.333 0.396 1.011 0.841 1.95 0.939 0.946 0.111 2.049-0.229 3.118-0.783 0.536-0.28 1.094-0.563 1.654-0.933 0.543-0.367 1.121-0.867 1.337-1.607 0.015-0.064 0.03-0.129 0.044-0.188l-0.25 0.116c1.183 0.686 2.383 1.259 3.561 1.517 1.172 0.276 2.3 0.189 3.157-0.111 0.866-0.291 1.467-0.758 1.796-1.138 0.17-0.187 0.28-0.35 0.344-0.466 0.065-0.115 0.094-0.178 0.084-0.184-0.026-0.017-0.17 0.22-0.521 0.56-0.347 0.339-0.94 0.754-1.775 1.003-0.831 0.257-1.892 0.316-3.016 0.035-1.127-0.265-2.291-0.828-3.461-1.508l-0.196-0.114-0.054 0.23c-0.012 0.049-0.024 0.103-0.037 0.157-0.175 0.612-0.679 1.072-1.198 1.425-0.526 0.353-1.088 0.648-1.61 0.93-1.041 0.558-2.077 0.895-2.954 0.822-0.881-0.063-1.533-0.445-1.876-0.792-0.355-0.348-0.441-0.628-0.473-0.612z" fill="#f9f9f9"/>
															</g>
														</g>
													</g>
												</g>
											</g><path id="path747" d="m89.676 356.59c-0.193-1.198-2.026-3.804-3.239-3.801-3.239 9e-3 -8.896 1.165-7.676 9.201 1.668 10.984 12.352 7.044 12.324 6.727-0.022-0.249-0.743-7.991-1.409-12.127z" fill="#ae7461"/><path id="path751" d="m87.445 365.17c-0.054-0.028-0.171 0.163-0.472 0.36-0.294 0.192-0.821 0.375-1.426 0.247-1.225-0.25-2.482-1.944-2.836-3.916-0.18-0.996-0.115-1.979 0.119-2.822 0.214-0.855 0.648-1.495 1.217-1.687 0.561-0.223 1.027 0.064 1.209 0.352 0.194 0.285 0.157 0.516 0.218 0.525 0.035 0.023 0.208-0.219 0.051-0.659-0.079-0.212-0.247-0.451-0.537-0.623-0.296-0.174-0.7-0.224-1.101-0.119-0.838 0.188-1.482 1.083-1.74 2.007-0.304 0.935-0.4 2.044-0.198 3.162 0.406 2.203 1.854 4.102 3.512 4.32 0.803 0.084 1.413-0.247 1.706-0.557 0.299-0.322 0.319-0.576 0.278-0.59z" fill="#6f4439"/><path id="path763" d="m121.23 342.07c-0.056 0.111-0.856-0.262-1.857-0.047-1.008 0.186-1.603 0.837-1.698 0.755-0.043-0.032 0.046-0.253 0.314-0.519 0.265-0.265 0.729-0.548 1.299-0.662 0.57-0.113 1.106-0.03 1.453 0.114 0.349 0.143 0.516 0.313 0.489 0.359z" fill="#455a64"/><path id="path767" d="m99.52 345.87c0.029 0.052-0.643 0.485-1.753 1.141-1.11 0.657-2.658 1.537-4.38 2.487-1.723 0.95-3.295 1.788-4.442 2.376-0.569 0.298-1.062 0.522-1.425 0.6-0.363 0.083-0.571 0.058-0.572 0.032-3e-3 -0.034 0.194-0.066 0.522-0.193 0.331-0.123 0.774-0.373 1.327-0.707 1.11-0.657 2.658-1.538 4.381-2.487 1.722-0.949 3.294-1.788 4.441-2.375 1.147-0.59 1.872-0.927 1.901-0.874z" fill="#1b2328"/><path id="path772" d="m72.285 445.78s14.569 12.073 45.068 11.898c28.554-0.164 46.386-15.613 46.386-15.613 6.07-12.766-0.837-21.538-4.069-37.95 0 0-9.557-14.85-12.522-14.975-6.582-0.277-18.579 1.843-19.247 1.155-4.323 7.429-9.948 15.064-30.29 0.448l-23.959 6.218c-3.473 1.462-8.915 5.222-8.567 8.974l7.2 39.845" fill="#67536c"/><path id="path774" d="m54.099 432.11s4.133-26.071 16.374-33.392c10.126-6.056 23.316 36.061 23.316 36.061l-11.055 16.757c-11.743-5.237-17.666-8.933-28.635-19.426z" fill="#67536c"/><path id="path776" d="m187.73 370.94-14.75 4.951 12.024 40.658-19.561-18.199-13.844 27.674s28.519 19.945 39.856 21.497c11.336 1.552 20.344-3.776 17.837-16.891-1.002-5.24-21.562-59.69-21.562-59.69z" fill="#ae7461"/><path id="path778" d="m170.85 356.46s-3.988-4.452-5.982-3.439c-1.993 1.013-4.357 3.637-4.262 5.451s0.965 3.246 1.747 2.978 2.716-2.415 2.716-2.415l3.686 3.104 0.039 5.113-2.442 2.173-2.486-2.939-0.203-2.513c-0.099-1.223-1.386-2.086-2.492-1.555-0.551 0.265-1.007 0.845-1.106 2.004-0.282 3.311 0.773 9.383 4.507 11.234s10.436 3.949 10.436 3.949l13.506-4.743-0.893-17.117s4.066-7.032 3.829-9.407-1.743-9.457-1.743-9.457-1.974-0.806-2.429 1.377c-0.454 2.183 0.08 8.066 0.08 8.066l-3.6 4.765-2.775-18.337c-0.125-0.824-0.937-1.366-1.741-1.148-1.1 0.298-2.379 1.229-2.367 3.953 0.022 4.773 1.594 15.03 1.033 15.173s-0.766-0.16-1.55-2.518c-0.617-1.854-3.58-11-4.65-14.303-0.236-0.727-1.123-0.977-1.717-0.495-0.788 0.639-1.616 1.822-1.51 3.951 0.192 3.878 3.202 13.528 3.363 14.429 0.159 0.901-0.994 2.666-0.994 2.666z" fill="#ae7461"/><path id="path783" d="m179.12 372.41c-0.096 0.055-0.446-0.47-1.145-1.165-0.695-0.698-1.792-1.526-3.183-2.078-1.394-0.545-2.762-0.688-3.745-0.652-0.986 0.031-1.6 0.176-1.632 0.071-0.027-0.072 0.549-0.39 1.589-0.551 1.033-0.166 2.532-0.093 4.038 0.497 1.503 0.596 2.65 1.565 3.292 2.391 0.65 0.827 0.855 1.452 0.786 1.487z" fill="#6f4439"/><path id="path789" d="m169.69 442.6 15.018-27.045s-10.598-12.326-19.584-20.192c-9.895-8.663-19.19-7.672-32.497-4.824 0 0 6.856 31.533 20.149 40.777 2.467 1.718 16.914 11.284 16.914 11.284" fill="#67536c"/><path id="path791" d="m85.688 451.53c-0.024 0.011-0.194-0.341-0.373-1.014-0.182-0.673-0.361-1.663-0.527-2.89-0.331-2.455-0.595-5.859-0.906-9.611-0.303-3.754-0.631-7.145-0.912-9.595-0.278-2.45-0.493-3.962-0.411-3.976 0.035-6e-3 0.129 0.365 0.269 1.043 0.147 0.677 0.316 1.663 0.507 2.885 0.376 2.445 0.762 5.841 1.066 9.6 0.311 3.757 0.517 7.161 0.753 9.612 0.118 1.225 0.239 2.213 0.359 2.888 0.115 0.675 0.218 1.042 0.175 1.058z" fill="#1b2328"/><path id="path794" d="m87.131 444.69" fill="none" stroke="#ffc7bf" stroke-miterlimit="10"/><path id="path797" d="m164.18 442.11" fill="none" stroke="#4e585d" stroke-miterlimit="10" stroke-width=".05"/><path id="path800" d="m147.92 406.58c0.024-0.027 0.475 0.327 1.268 0.994 0.792 0.668 1.927 1.648 3.286 2.91 2.669 2.53 6.445 6.199 8.923 11.384 1.238 2.579 1.891 5.254 2.23 7.69 0.346 2.442 0.397 4.661 0.399 6.515-6e-3 1.856-0.081 3.354-0.14 4.388-0.061 1.034-0.116 1.605-0.151 1.604-0.037-1e-3 -0.05-0.574-0.052-1.61-3e-3 -1.035 0.015-2.532-0.026-4.378-0.049-1.844-0.138-4.044-0.505-6.449-0.361-2.401-1.015-5.013-2.226-7.537-2.422-5.075-6.11-8.752-8.706-11.34-1.287-1.229-2.353-2.248-3.167-3.025-0.751-0.714-1.157-1.119-1.133-1.146z" fill="#1b2328"/><path id="path803" d="m187.63 429.4c-0.062 0.026-0.422-0.637-0.877-1.767-0.456-1.128-0.987-2.731-1.392-4.547-0.403-1.817-0.601-3.494-0.667-4.709-0.066-1.216-0.021-1.969 0.046-1.972 0.158-8e-3 0.322 2.984 1.129 6.568 0.788 3.587 1.908 6.367 1.761 6.427z" fill="#1b2328"/>
<circle id="circle808" cx="121.14" cy="134.51" r="81.88" fill="#f5f5f5"/><path id="path810" d="m137.39 51.934c-1.098-3.14-3.358-6.174-6.844-7.409-4.675-1.656-10.443 0.618-12.93 4.472s-2.025 8.785 0.304 12.686 6.299 6.882 10.597 9.182l4.038-0.441c5.134-4.888 7.041-12.183 4.835-18.49z" fill="#0e0807" stroke-opacity="0"/><path id="path812" d="m176.97 83.048-58.365-13.253c-12.392 13.826-20.381 31.54-22.543 49.98 22.058 11.878 53.59 20.872 78.514 23.415 5.357-19.125 1.208-40.317 2.394-60.142z" fill="#0e0807" stroke-opacity="0"/><path id="path815" d="m122.17 67.034c8.066-7.423 17.987-10.948 28.871-9.586 6.141 0.769 8.496 2.401 12.739 4.217 4.243 1.815 7.889 4.746 9.992 8.853 2.498 4.877 4.421 10.215 4.249 15.691-0.178 5.624-0.359 11.286-1.564 16.782s-3.507 10.877-7.42 14.922l-14.494 0.448c-7.85-0.843-15.807-1.712-23.166-4.573-7.359-2.862-14.175-8.004-17.307-15.248-4.351-10.065 0.033-24.083 8.1-31.506z" fill="#0e0807" stroke-opacity="0"/><path id="path818" d="m158.62 64.691-4.846-1.271-19.92 4.813c-2.743-0.249-5.22 1.642-5.702 4.352l-6.051 60.139 25.479 11.545 2.79-12.691s12.791 0.561 18.07-13.759c2.625-7.122 4.644-19.252 5.975-29.231 1.201-8.982-4.715-22.284-15.795-23.897z" fill="#ffbf9d"/><path id="path820" d="m146.71 111.36c0.213-0.764 0.743-1.391 1.363-1.786 1.239-0.789 2.866-0.652 3.933 0.331s1.508 2.751 1.064 4.274c-0.793 0.817-1.896 1.289-3.033 1.226-0.177-0.01-0.353-0.028-0.529-0.058-0.849-0.143-1.676-0.554-2.237-1.274-0.561-0.719-0.824-1.771-0.561-2.713z" fill="#ff9a6c"/><path id="path823" d="m167.56 100c-0.163 1.009-1.152 1.702-2.209 1.55-1.055-0.151-1.781-1.089-1.618-2.098 0.163-1.008 1.153-1.703 2.207-1.552 1.058 0.152 1.783 1.092 1.62 2.1z" fill="#1b2328"/><path id="path826" d="m170.28 93.239c-0.284 0.201-1.511-1.148-3.555-1.548-2.035-0.428-3.742 0.324-3.914 0.03-0.087-0.132 0.242-0.531 0.988-0.876 0.736-0.345 1.923-0.587 3.194-0.33 1.271 0.26 2.248 0.94 2.768 1.541 0.532 0.605 0.656 1.095 0.519 1.183z" fill="#1b2328"/><path id="path829" d="m154.77 107.49c0.013-0.118 1.326-0.085 3.435 0.06 0.532 0.05 1.046 0.044 1.205-0.294 0.198-0.352 0.091-0.957-0.042-1.613-0.24-1.359-0.492-2.782-0.756-4.274-1.022-6.074-1.653-11.027-1.408-11.066 0.246-0.039 1.273 4.853 2.296 10.927 0.239 1.495 0.469 2.921 0.686 4.284 0.08 0.632 0.286 1.37-0.135 2.099-0.218 0.362-0.656 0.568-1.009 0.592-0.354 0.036-0.649-0.017-0.91-0.053-2.091-0.299-3.378-0.545-3.362-0.662z" fill="#1b2328"/><path id="path832" d="m150.35 131.71s-10.082-1.333-18.771-9.213c0 0 2.587 11.946 17.672 13.5z" fill="#ff9a6c"/><path id="path835" d="m148.48 107.71c0.336 0.047-0.099 2.262 1.488 4.211 1.581 1.953 3.993 2.173 3.949 2.486 4e-3 0.145-0.611 0.326-1.614 0.155-0.985-0.161-2.352-0.758-3.322-1.95-0.967-1.193-1.21-2.579-1.105-3.502 0.099-0.943 0.455-1.442 0.604-1.4z" fill="#1b2328"/><path id="path838" d="m170.6 85.936c-0.442 0.43-1.94-0.213-3.797-0.424-1.85-0.27-3.466-0.03-3.779-0.559-0.136-0.255 0.16-0.701 0.893-1.076 0.723-0.375 1.893-0.623 3.168-0.459 1.274 0.166 2.338 0.703 2.937 1.25 0.608 0.55 0.775 1.056 0.578 1.268z" fill="#1b2328"/><path id="path841" d="m145.78 96.268c-0.196 1.003 0.491 1.996 1.535 2.22 1.042 0.225 2.047-0.404 2.244-1.406 0.196-1.003-0.491-1.997-1.533-2.221-1.043-0.226-2.049 0.404-2.246 1.407z" fill="#1b2328"/><path id="path844" d="m142.54 88.488c0.197 0.287 1.815-0.552 3.87-0.219 2.057 0.304 3.398 1.602 3.661 1.386 0.127-0.094-0.043-0.582-0.623-1.165-0.571-0.579-1.6-1.218-2.882-1.418-1.282-0.198-2.435 0.102-3.13 0.484-0.708 0.386-0.995 0.802-0.896 0.932z" fill="#1b2328"/><path id="path847" d="m144.71 82.074c0.33 0.531 1.994 0.3 3.905 0.582 1.919 0.222 3.472 0.876 3.922 0.447 0.201-0.211 0.021-0.719-0.615-1.273-0.625-0.551-1.731-1.097-3.047-1.271-1.316-0.172-2.52 0.069-3.259 0.441-0.75 0.373-1.048 0.818-0.906 1.074z" fill="#1b2328"/><path id="path850" d="m125.1 93.773 2.203 3.044c12.663-9.084 38.241-32.699 36.799-31.28 0 0-7.195-4.225-15.688-3.99-8.493 0.234-24.809 2.149-25.952 11.956-1.142 9.808 2.638 20.27 2.638 20.27z" fill="#0e0807" stroke-opacity="0"/><path id="path854" d="m127.12 98.139c0.216-1.101-0.544-3.95-1.599-4.336-2.816-1.029-8.101-1.835-9.611 5.53-2.063 10.068 8.479 10.068 8.556 9.783 0.061-0.223 1.91-7.173 2.654-10.977z" fill="#ffbf9d"/><path id="path857" d="m122.44 104.87c-0.038-0.041-0.201 0.087-0.525 0.162-0.317 0.073-0.833 0.062-1.318-0.242-0.984-0.609-1.535-2.481-1.211-4.306 0.162-0.922 0.533-1.755 1.006-2.411 0.459-0.674 1.041-1.09 1.597-1.075 0.558-0.014 0.872 0.385 0.938 0.693 0.077 0.31-0.028 0.498 0.022 0.526 0.023 0.031 0.251-0.124 0.255-0.556-1e-3 -0.209-0.07-0.471-0.267-0.713-0.201-0.246-0.536-0.419-0.918-0.455-0.788-0.105-1.634 0.465-2.153 1.185-0.563 0.715-1.002 1.647-1.184 2.682-0.351 2.042 0.299 4.154 1.67 4.873 0.671 0.33 1.306 0.238 1.66 0.063 0.36-0.186 0.459-0.401 0.428-0.426z" fill="#ff9a6c"/><path id="path860" d="m110.6 67.425c1.324 2.143 3.944 3.408 6.445 3.111-2.853 1.901-6.45 2.653-9.826 2.054 3.568 3.391 9.346 4.191 13.701 1.896l4.199-10.138c-3.616 3.492-9.821 4.864-14.519 3.077z" fill="#0e0807" stroke-opacity="0"/><g id="g865">
												<g id="g864">
													<polygon id="polygon863" points="123.1 130.21 116 130.21 133.62 149.69 141.09 156.22 150.18 155.72 154.09 151.34 149.56 139.81" fill="#ffbf9d"/>
												</g>
											</g><path id="path872" d="m178.12 160.06c-2.181-7.232-11.787-12.702-11.787-12.702l-15.924-8.045s-1.182 6.03-11.46 4.107c-13.071-2.445-16.623-13.947-16.623-13.947s-24.285-0.154-28.767 0.556l-9.303 87.452 68.631 1.012 5.641-7.717c3.27-4.473 5.836-9.434 7.456-14.733 1.066-3.487 1.625-6.187 1.625-6.187s12.953-1.034 17.255-6.851c0 2e-3 -5.464-18.701-6.744-22.945z" fill="#8fa5b3"/><g id="g875" fill="#1b2328">
												<path id="path874" d="m166.1 160.22c-0.102 0.028 0.355 1.817 0.895 4.741 0.542 2.922 1.102 6.997 1.25 11.527 0.138 4.532-0.164 8.633-0.521 11.584-0.354 2.952-0.697 4.766-0.594 4.787 0.044 9e-3 0.174-0.435 0.371-1.248 0.204-0.811 0.439-2 0.675-3.477 0.476-2.953 0.854-7.092 0.714-11.667-0.149-4.573-0.787-8.679-1.448-11.597-0.328-1.46-0.638-2.631-0.893-3.428-0.248-0.799-0.406-1.234-0.449-1.222z" fill="#1b2328"/>
											</g><g id="g883">
												<path id="path882" d="m123.26 204.59c8e-3 0.044 0.41-3e-3 1.136-0.127 0.365-0.055 0.808-0.141 1.307-0.297 0.501-0.149 1.086-0.284 1.694-0.543 1.245-0.441 2.662-1.143 4.145-2.07 1.461-0.959 2.975-2.162 4.374-3.622 1.379-1.479 2.497-3.057 3.373-4.57 0.843-1.533 1.465-2.987 1.836-4.255 0.225-0.621 0.327-1.213 0.447-1.722 0.128-0.508 0.189-0.954 0.224-1.322 0.084-0.731 0.108-1.135 0.064-1.141-0.127-0.019-0.308 1.599-1.169 4.04-0.418 1.223-1.069 2.623-1.918 4.101-0.883 1.458-1.984 2.984-3.327 4.424-1.363 1.421-2.824 2.605-4.23 3.568-1.428 0.93-2.789 1.658-3.988 2.143-2.388 0.997-3.994 1.268-3.968 1.393z" fill="#263238"/>
											</g><path id="path890" d="m103.61 129.56-11.317 0.293c-1.944 0.05-3.868 0.4-5.706 1.037l-27.871 9.661 15.85 15.989 21.35 5.004z" fill="#8fa5b3"/><path id="path893" d="m91.498 143.4c0.106-4e-3 0.343 4.358 0.531 9.742 0.188 5.385 0.255 9.752 0.149 9.756-0.105 4e-3 -0.343-4.357-0.531-9.742-0.188-5.384-0.254-9.752-0.149-9.756z" fill="#1b2328"/><path id="path899" d="m196.04 219.04h-143.15c-12.632 0-22.872-10.24-22.872-22.872v-1.612c0-12.632 10.24-22.872 22.872-22.872h143.15c12.632 0 22.872 10.24 22.872 22.872v1.612c0 12.631-10.24 22.872-22.872 22.872z" fill="#ffffff"/><path id="path901" d="m196.04 219.04s0.378-0.037 1.116-0.083c0.368-0.03 0.829-0.035 1.371-0.098 0.542-0.086 1.168-0.186 1.877-0.299 0.706-0.137 1.477-0.375 2.338-0.59 0.421-0.139 0.853-0.312 1.309-0.477 0.455-0.168 0.934-0.332 1.399-0.581 1.931-0.832 3.99-2.179 6.001-4.016 1.996-1.849 3.898-4.285 5.275-7.305 0.396-0.732 0.605-1.562 0.925-2.363 0.27-0.82 0.456-1.686 0.676-2.556 0.109-0.892 0.325-1.79 0.355-2.724 0.044-0.933 0.107-1.879 0.085-2.855-1e-3 -0.974-0.078-1.951-0.136-2.95-0.179-0.983-0.242-2.006-0.549-2.996-0.445-2.019-1.305-3.994-2.371-5.901-1.055-1.924-2.527-3.669-4.195-5.261-1.672-1.597-3.662-2.95-5.87-3.961-2.202-1.017-4.615-1.739-7.146-2.009-2.525-0.213-5.163-0.108-7.834-0.13-5.349 5e-3 -10.913 0.01-16.674 0.015-11.523 8e-3 -23.835 0.016-36.79 0.024-25.912 6e-3 -54.398 0.013-84.299 0.02-3.699 0.022-7.356 0.945-10.591 2.634-3.228 1.711-5.976 4.225-8.044 7.166-2.048 2.964-3.318 6.408-3.784 9.917-0.208 1.749-0.253 3.54-0.166 5.304l0.066 1.316c0.026 0.438 0.121 0.868 0.178 1.301 0.073 0.431 0.116 0.868 0.213 1.293l0.326 1.267c1.762 6.785 6.915 12.309 13.08 14.904 3.107 1.304 6.438 1.792 9.738 1.748 3.318 2e-3 6.597 3e-3 9.837 5e-3 25.913 0.021 49.249 0.04 68.849 0.056 19.591 0.035 35.446 0.063 46.416 0.083 5.472 0.021 9.723 0.038 12.619 0.049 1.435 0.011 2.531 0.02 3.282 0.026 0.74 9e-3 1.118 0.027 1.118 0.027s-0.379 0.018-1.118 0.027c-0.75 6e-3 -1.847 0.015-3.282 0.026-2.896 0.011-7.147 0.028-12.619 0.049-10.97 0.02-26.825 0.048-46.416 0.083-19.601 0.016-42.937 0.035-68.849 0.056-3.239 1e-3 -6.519 3e-3 -9.837 5e-3 -3.327 0.049-6.762-0.447-9.93-1.778-6.304-2.647-11.573-8.29-13.381-15.228l-0.333-1.296c-0.098-0.435-0.144-0.882-0.218-1.323-0.059-0.443-0.155-0.883-0.182-1.331l-0.068-1.345c-0.088-1.785-0.045-3.581 0.168-5.387 0.474-3.59 1.774-7.113 3.868-10.146 2.114-3.009 4.925-5.581 8.227-7.331 3.309-1.729 7.052-2.673 10.835-2.695 29.9 7e-3 58.387 0.014 84.299 0.02 12.955 8e-3 25.267 0.016 36.79 0.024 5.761 5e-3 11.325 0.01 16.674 0.015 2.676 0.028 5.287-0.073 7.875 0.149 2.574 0.28 5.026 1.02 7.261 2.059 2.241 1.034 4.259 2.414 5.953 4.039 1.69 1.62 3.177 3.396 4.243 5.351 1.076 1.938 1.941 3.943 2.386 5.992 0.307 1.004 0.369 2.041 0.546 3.038 0.056 1.009 0.13 2.009 0.128 2.981 0.019 0.971-0.047 1.934-0.096 2.877-0.034 0.945-0.255 1.854-0.37 2.755-0.226 0.88-0.418 1.755-0.694 2.583-0.327 0.81-0.542 1.648-0.946 2.386-1.406 3.048-3.339 5.497-5.364 7.351-2.039 1.842-4.123 3.184-6.074 4.008-0.47 0.247-0.953 0.408-1.413 0.573-0.46 0.162-0.896 0.332-1.321 0.468-0.868 0.208-1.646 0.439-2.356 0.568-0.714 0.104-1.344 0.196-1.889 0.275-0.545 0.055-1.008 0.051-1.377 0.072-0.741 0.028-1.12 0.03-1.12 0.03z" fill="#1b2328"/><path id="path905" d="m60.902 182.6 2.752 5.577c0.216 0.437 0.632 0.74 1.114 0.81l6.154 0.894c1.214 0.176 1.699 1.668 0.82 2.525l-4.453 4.341c-0.349 0.34-0.508 0.83-0.426 1.31l1.051 6.129c0.207 1.209-1.062 2.131-2.147 1.56l-5.505-2.894c-0.431-0.227-0.946-0.227-1.378 0l-5.504 2.894c-1.086 0.571-2.355-0.351-2.147-1.56l1.051-6.129c0.082-0.48-0.077-0.97-0.426-1.31l-4.453-4.341c-0.879-0.856-0.394-2.348 0.82-2.525l6.154-0.894c0.482-0.07 0.899-0.373 1.114-0.81l2.752-5.577c0.545-1.1 2.114-1.1 2.657 0z" fill="#ff725e"/><path id="path907" d="m93.978 182.6 2.752 5.577c0.216 0.437 0.632 0.74 1.114 0.81l6.154 0.894c1.214 0.176 1.699 1.668 0.82 2.525l-4.453 4.341c-0.349 0.34-0.508 0.83-0.426 1.31l1.051 6.129c0.207 1.209-1.062 2.131-2.147 1.56l-5.505-2.894c-0.431-0.227-0.946-0.227-1.377 0l-5.505 2.894c-1.086 0.571-2.355-0.351-2.147-1.56l1.051-6.129c0.082-0.48-0.077-0.97-0.426-1.31l-4.453-4.341c-0.879-0.856-0.394-2.348 0.82-2.525l6.154-0.894c0.482-0.07 0.899-0.373 1.114-0.81l2.752-5.577c0.545-1.1 2.114-1.1 2.657 0z" fill="#ff725e"/><path id="path909" d="m127.29 182.6 2.752 5.577c0.215 0.437 0.632 0.74 1.114 0.81l6.154 0.894c1.214 0.176 1.699 1.668 0.82 2.525l-4.453 4.341c-0.349 0.34-0.508 0.83-0.426 1.31l1.051 6.129c0.207 1.209-1.062 2.131-2.147 1.56l-5.505-2.894c-0.431-0.227-0.946-0.227-1.377 0l-5.505 2.894c-1.086 0.571-2.355-0.351-2.147-1.56l1.051-6.129c0.082-0.48-0.077-0.97-0.426-1.31l-4.453-4.341c-0.878-0.856-0.394-2.348 0.82-2.525l6.154-0.894c0.482-0.07 0.899-0.373 1.114-0.81l2.752-5.577c0.545-1.1 2.114-1.1 2.657 0z" fill="#ff725e"/><path id="path911" d="m157.69 182.6 2.752 5.577c0.216 0.437 0.632 0.74 1.114 0.81l6.154 0.894c1.214 0.176 1.699 1.668 0.82 2.525l-4.453 4.341c-0.349 0.34-0.508 0.83-0.426 1.31l1.051 6.129c0.207 1.209-1.062 2.131-2.148 1.56l-5.505-2.894c-0.431-0.227-0.946-0.227-1.377 0l-5.505 2.894c-1.086 0.571-2.355-0.351-2.148-1.56l1.051-6.129c0.082-0.48-0.077-0.97-0.426-1.31l-4.453-4.341c-0.878-0.856-0.394-2.348 0.82-2.525l6.154-0.894c0.482-0.07 0.899-0.373 1.114-0.81l2.752-5.577c0.548-1.1 2.116-1.1 2.659 0z" fill="#ff725e"/><path id="path913" d="m190.4 183.52 2.752 5.577c0.216 0.437 0.632 0.74 1.114 0.81l6.154 0.894c1.214 0.176 1.699 1.668 0.82 2.524l-4.453 4.341c-0.349 0.34-0.508 0.83-0.426 1.31l1.051 6.129c0.207 1.209-1.062 2.131-2.147 1.56l-5.505-2.894c-0.431-0.227-0.946-0.227-1.377 0l-5.505 2.894c-1.086 0.571-2.355-0.351-2.147-1.56l1.051-6.129c0.082-0.48-0.077-0.97-0.426-1.31l-4.453-4.341c-0.878-0.856-0.394-2.348 0.82-2.524l6.154-0.894c0.482-0.07 0.899-0.373 1.114-0.81l2.752-5.577c0.545-1.101 2.114-1.101 2.657 0z" fill="#e0e0e0"/><path id="path915" d="m117.66 178.12 3.484-14.872-47.509-8.234-14.057-13.401s-11.59 4.268-16.914 10.29c-7.726 8.74-1.143 18.994 4.254 20.432 5.398 1.438 70.742 5.785 70.742 5.785z" fill="#ffbf9d"/><path id="path917" d="m55.043 152.76c-1e-3 -0.026 0.269-0.055 0.757-0.085 0.488-0.031 1.196-0.052 2.071-0.054 1.749-8e-3 4.169 0.084 6.825 0.39 2.656 0.309 5.034 0.785 6.727 1.23 0.847 0.22 1.527 0.421 1.99 0.581 0.464 0.157 0.716 0.256 0.708 0.282-0.018 0.058-1.059-0.228-2.76-0.6-1.701-0.376-4.069-0.806-6.709-1.113-2.639-0.304-5.043-0.438-6.785-0.499-1.742-0.063-2.823-0.074-2.824-0.132z" fill="#ff9a6c"/><path id="path921" d="m113.4 162.26c2.379-0.237 10.906 1.116 14.497 2.511 5.818 2.261 8.276 4.784 12.667 5.458s9.579-0.075 9.455 2.325-9.705 3.643-9.705 3.643 11.655 13.499 10.2 15.437c-0.489 0.652-2.402 1.133-3.803-0.313-3.108-3.209-7.346-7.644-7.346-7.644s0.593 10.7-1.536 12.829-4.056 0.487-4.056 0.487-1.178 1.892-3.457 1.253c-1.432-0.402-1.922-2.39-1.922-2.39s-2.459 0.571-3.299-2.42c-0.794-2.824-2.091-11.643-2.091-11.643s-7.09-3.912-7.384-3.589l-8.855-0.824-1.083-13.133z" fill="#ffbf9d"/><path id="path923" d="m134.52 182.22c0.048-5e-3 0.184 0.818 0.282 2.161 0.099 1.342 0.144 3.205 0.045 5.258-0.1 2.053-0.323 3.904-0.555 5.23-0.229 1.327-0.448 2.132-0.495 2.122-0.056-0.011 0.068-0.832 0.228-2.161 0.162-1.329 0.342-3.17 0.441-5.21 0.098-2.039 0.096-3.889 0.067-5.227s-0.07-2.168-0.013-2.173z" fill="#ff9a6c"/><path id="path927" d="m128.21 182.4c0.046-0.01 0.27 0.729 0.497 1.957 0.228 1.227 0.433 2.946 0.453 4.853 0.017 1.908-0.156 3.631-0.36 4.862-0.203 1.232-0.413 1.976-0.459 1.966-0.057-0.011 0.058-0.771 0.191-2.002 0.134-1.23 0.262-2.936 0.245-4.822-0.02-1.886-0.18-3.588-0.338-4.816-0.156-1.227-0.286-1.986-0.229-1.998z" fill="#ff9a6c"/><path id="path931" d="m137.16 172.26c0.072-0.073 1.065 0.807 2.089 2.076 1.028 1.266 1.682 2.42 1.596 2.476-0.091 0.06-0.879-0.986-1.893-2.235-1.01-1.252-1.869-2.241-1.792-2.317z" fill="#ff9a6c"/><path id="path937" d="m199.26 181.12c0.488-0.884 0.635-1.914 0.699-2.922s0.197-2.898 0.408-3.885l0.279-6.445c-1.352-3.002-4.658-2.018-5.314-0.311-0.351-0.903-0.263-1.442-1.04-2.021s-1.823-0.844-2.743-0.54-1.636 1.244-1.532 2.208c-0.852-1.226-2.516-1.821-3.952-1.414-0.864 0.245-1.607 0.843-2.079 1.602-0.238 0.382-0.399 0.8-0.489 1.24-0.032 0.157-0.09 0.342-0.064 0.504 0.013 0.079 0.049 0.147 0.09 0.216 0.188 0.311 0.425 0.583 0.594 0.91 0.064 0.123 0.122 0.249 0.176 0.376 0.246 0.58 0.395 1.199 0.471 1.823 0.035 0.287 0.01 0.608 0.088 0.886 0.053 0.188 0.189 0.336 0.272 0.51 0.531 1.107 0.492 2.454 0.517 3.652 0.027 1.351 0.119 2.781 0.884 3.895s2.44 1.711 3.509 0.885c-0.125 0.851 0.58 1.685 1.422 1.858s1.732-0.22 2.314-0.853 0.893-1.472 1.062-2.316c-7e-3 1.01 1.032 1.823 2.041 1.784s1.899-0.758 2.387-1.642z" fill="#ffbf9d"/><g id="g945">
												<g id="g944">
													<path id="path943" d="m179.96 168.04c-0.833 0.014-1.73 0.233-2.253 0.882-0.619 0.77-0.676 2.236-0.55 3.216 1.165 0.157 1.763 0.169 2.928 0.327 0.245 0.033 0.445-0.039 0.654 0.094 0.551 0.35 0.532 1.626 0.778 2.232 0.427 1.049 1.823 1.499 2.864 1.051 1.04-0.448 1.664-1.613 1.659-2.746s-0.561-2.212-1.334-3.04c-1.207-1.294-2.976-2.045-4.746-2.016z" fill="#ffbf9d"/>
												</g>
											</g><g id="g955">
												<g id="g954">
													<g id="g953">
														<path id="path952" d="m190.02 166.87c0.217 0 0.396 3.451 0.401 7.707 5e-3 4.258-0.166 7.708-0.383 7.708-0.216 0-0.396-3.45-0.401-7.707-5e-3 -4.256 0.166-7.708 0.383-7.708z" fill="#ff9a6c"/>
													</g>
												</g>
											</g><g id="g965">
												<g id="g964">
													<g id="g963">
														<path id="path962" d="m195.36 167.33c0.206-0.02 0.652 3.107 0.516 6.987-0.125 3.882-0.78 6.971-0.984 6.937-0.223-0.033 0.078-3.134 0.201-6.963 0.134-3.828 0.042-6.943 0.267-6.961z" fill="#ff9a6c"/>
													</g>
												</g>
											</g><g id="g975">
												<g id="g974">
													<path id="path973" d="m181.65 168.49c-0.011-0.093 0.542-0.246 1.358 0.077 0.807 0.3 1.757 1.175 2.25 2.369 0.488 1.206 0.681 2.255 0.693 3.147-0.045 0.96-0.723 1.274-0.746 1.152-0.065-0.084 0.292-0.434 0.192-1.139-0.13-0.684-0.425-1.807-0.856-2.844-0.444-1.059-1.151-1.805-1.781-2.189-0.623-0.392-1.115-0.453-1.11-0.573z" fill="#ff9a6c"/>
												</g>
											</g>
<path id="path985" d="m422.37 274.21 5.971 1.323c2.774 3.697 6.684 6.621 11.478 8.173 11.307 3.66 23.775-1.993 28.494-12.9 5.454-12.603-1.081-27.186-14.246-31.438-11.176-3.61-23.494 1.86-28.327 12.565-2.398 5.312-2.637 10.996-1.137 16.126l-7e-3 -0.011z" fill="#ffffff"/><g id="g988" fill="#33434c">
												<path id="path987" d="m422.37 274.21s0.035-0.128 0.124-0.391c0.097-0.283 0.231-0.674 0.404-1.178 0.374-1.072 0.916-2.622 1.615-4.624 0.016-0.047 0.067-0.071 0.114-0.055 0.02 7e-3 0.037 0.022 0.047 0.039 0 0 4e-3 7e-3 7e-3 0.011l-0.163 0.072c-0.823-2.772-1.441-6.701-0.517-11.249 0.452-2.264 1.31-4.639 2.616-6.973 1.324-2.32 3.155-4.558 5.471-6.46 2.322-1.89 5.137-3.423 8.278-4.354 3.134-0.924 6.608-1.285 10.088-0.726 3.475 0.529 6.936 1.878 9.991 3.991 3.071 2.096 5.631 5.065 7.394 8.506 0.938 1.723 1.526 3.587 2.014 5.44 0.176 0.942 0.365 1.882 0.466 2.824l0.096 1.417 0.044 0.706-0.026 0.705c-0.063 3.758-1.059 7.378-2.686 10.529-1.617 3.171-4.001 5.774-6.628 7.763-2.641 1.988-5.577 3.34-8.5 4.079-2.93 0.729-5.836 0.86-8.501 0.534-0.662-0.113-1.313-0.225-1.952-0.334-0.636-0.125-1.244-0.327-1.85-0.482-1.208-0.331-2.326-0.793-3.372-1.283-4.2-1.994-6.966-4.837-8.672-7.132l0.051 0.033c-1.918-0.448-3.411-0.796-4.446-1.038-0.484-0.116-0.86-0.207-1.134-0.272-0.254-0.061-0.38-0.094-0.373-0.098 0 0 0.146 0.022 0.41 0.075 0.281 0.057 0.667 0.136 1.164 0.237 1.029 0.216 2.511 0.527 4.416 0.926 0.021 4e-3 0.039 0.017 0.051 0.033 1.724 2.254 4.49 5.04 8.653 6.98 1.037 0.476 2.145 0.926 3.339 1.245 0.599 0.149 1.199 0.346 1.828 0.465 0.631 0.105 1.274 0.211 1.927 0.319 2.629 0.307 5.491 0.165 8.372-0.564 2.875-0.739 5.759-2.079 8.35-4.041 2.577-1.962 4.912-4.524 6.493-7.64 1.591-3.097 2.565-6.653 2.623-10.339l0.025-0.691-0.044-0.692-0.095-1.391c-0.099-0.925-0.287-1.847-0.459-2.771-0.481-1.818-1.057-3.648-1.978-5.337-1.73-3.377-4.239-6.29-7.251-8.349-2.995-2.076-6.393-3.406-9.802-3.931-3.414-0.556-6.827-0.208-9.911 0.691-3.091 0.906-5.865 2.405-8.158 4.256-2.287 1.863-4.1 4.058-5.417 6.338-1.299 2.293-2.161 4.633-2.622 6.866-0.944 4.485-0.371 8.378 0.409 11.141 0.014 0.048-0.013 0.098-0.06 0.112-0.04 0.012-0.082-6e-3 -0.103-0.04-3e-3 -4e-3 -7e-3 -0.011-7e-3 -0.011l0.161-0.016c-0.734 1.963-1.302 3.484-1.695 4.535-0.193 0.507-0.342 0.9-0.451 1.185-0.105 0.266-0.168 0.409-0.168 0.409z" fill="#33434c"/>
											</g><path id="path997" d="m440.26 261.54c0 1.637-1.327 2.964-2.964 2.964s-2.964-1.327-2.964-2.964 1.327-2.964 2.964-2.964 2.964 1.327 2.964 2.964z" fill="#33434c"/><path id="path999" d="m450.23 261.54c0 1.637-1.327 2.964-2.964 2.964s-2.964-1.327-2.964-2.964 1.327-2.964 2.964-2.964 2.964 1.327 2.964 2.964z" fill="#33434c"/><path id="path1001" d="m460.21 261.54c0 1.637-1.327 2.964-2.964 2.964s-2.964-1.327-2.964-2.964 1.327-2.964 2.964-2.964 2.964 1.327 2.964 2.964z" fill="#33434c"/>
<rect id="rect1004" x="201.16" y="239.48" width="92.806" height="78.636" fill="#ffffff"/><rect id="rect1006" x="201.16" y="239.48" width="92.806" height="8.641" fill="#e0e0e0"/><path id="path1008" d="m208.05 243.95c0 1.049-0.851 1.9-1.9 1.9s-1.9-0.851-1.9-1.9 0.851-1.9 1.9-1.9 1.9 0.851 1.9 1.9z" fill="#ffffff"/><path id="path1010" d="m213.16 243.95c0 1.049-0.851 1.9-1.9 1.9s-1.9-0.851-1.9-1.9 0.851-1.9 1.9-1.9 1.9 0.851 1.9 1.9z" fill="#ffffff"/><path id="path1012" d="m218.27 243.95c0 1.049-0.85 1.9-1.9 1.9-1.049 0-1.9-0.851-1.9-1.9s0.851-1.9 1.9-1.9c1.05 0 1.9 0.851 1.9 1.9z" fill="#ffffff"/><rect id="rect1015" x="201.16" y="254.53" width="92.806" height="27" fill="#8a6f91"/><rect id="rect1017" x="208.45" y="291.3" width="14.229" height="14.229" fill="#4c6371"/><path id="path1019" d="m234.12 293.82h-7.672c-0.696 0-1.26-0.564-1.26-1.26s0.564-1.26 1.26-1.26h7.672c0.696 0 1.26 0.564 1.26 1.26s-0.564 1.26-1.26 1.26z" fill="#e0e0e0"/><path id="path1021" d="m231.31 303.97h-4.054c-0.696 0-1.26-0.564-1.26-1.26s0.564-1.26 1.26-1.26h4.054c0.696 0 1.26 0.564 1.26 1.26s-0.564 1.26-1.26 1.26z" fill="#ff725e"/><path id="path1023" d="m242.58 298.41h-15.971c-0.696 0-1.26-0.564-1.26-1.26s0.564-1.26 1.26-1.26h15.971c0.696 0 1.26 0.564 1.26 1.26-1e-3 0.696-0.565 1.26-1.26 1.26z" fill="#e0e0e0"/><rect id="rect1026" x="252.59" y="291.3" width="14.228" height="14.229" fill="#4c6371"/><path id="path1028" d="m278.26 293.82h-7.672c-0.696 0-1.26-0.564-1.26-1.26s0.564-1.26 1.26-1.26h7.672c0.696 0 1.26 0.564 1.26 1.26s-0.564 1.26-1.26 1.26z" fill="#e0e0e0"/><path id="path1030" d="m275.45 303.97h-4.054c-0.696 0-1.26-0.564-1.26-1.26s0.564-1.26 1.26-1.26h4.054c0.696 0 1.26 0.564 1.26 1.26s-0.564 1.26-1.26 1.26z" fill="#ff725e"/><path id="path1032" d="m286.72 298.41h-15.971c-0.696 0-1.26-0.564-1.26-1.26s0.564-1.26 1.26-1.26h15.971c0.696 0 1.26 0.564 1.26 1.26-1e-3 0.696-0.565 1.26-1.26 1.26z" fill="#e0e0e0"/><rect id="rect1035" x="201.16" y="314.31" width="92.806" height="3.804" fill="#e0e0e0"/><path id="path1037" d="m248.78 265.14h-36.977c-0.903 0-1.635-0.732-1.635-1.635s0.732-1.635 1.635-1.635h36.977c0.903 0 1.635 0.732 1.635 1.635s-0.732 1.635-1.635 1.635z" fill="#ffffff"/><path id="path1039" d="m221.55 271.24h-9.222c-0.903 0-1.635-0.732-1.635-1.635s0.732-1.635 1.635-1.635h9.222c0.903 0 1.635 0.732 1.635 1.635s-0.732 1.635-1.635 1.635z" fill="#ffffff"/><path id="path1041" d="m289.54 261.52h-0.983c-0.903 0-1.635-0.732-1.635-1.635s0.732-1.635 1.635-1.635h0.983c0.903 0 1.635 0.732 1.635 1.635s-0.732 1.635-1.635 1.635z" fill="#ffffff"/><path id="path1043" d="m283.16 261.52h-0.983c-0.903 0-1.635-0.732-1.635-1.635s0.732-1.635 1.635-1.635h0.983c0.903 0 1.635 0.732 1.635 1.635s-0.732 1.635-1.635 1.635z" fill="#ffffff"/><path id="path1045" d="m293.96 318.12s-0.016-0.504-0.024-1.459c-6e-3 -0.966-0.014-2.375-0.025-4.209-0.013-3.69-0.032-9.081-0.057-15.951-0.027-13.733-0.066-33.362-0.113-57.017l0.219 0.219c-26.622 0.012-58.537 0.026-92.798 0.042h-8e-3l0.26-0.26c-0.011 28.51-0.021 55.391-0.029 78.635l-0.231-0.231c27.62 0.048 50.79 0.088 67.072 0.116 8.145 0.026 14.564 0.047 18.963 0.061 2.19 0.012 3.873 0.021 5.026 0.027 0.563 6e-3 0.993 0.01 1.297 0.013 0.292 5e-3 0.448 0.014 0.448 0.014s-0.138 9e-3 -0.421 0.013c-0.298 3e-3 -0.72 7e-3 -1.272 0.013-1.142 6e-3 -2.811 0.015-4.981 0.027-4.387 0.014-10.788 0.035-18.911 0.061-16.318 0.028-39.54 0.068-67.221 0.116h-0.231v-0.232c-9e-3 -23.244-0.019-50.126-0.029-78.635v-0.26h0.269c34.261 0.015 66.176 0.03 92.798 0.042h0.219v0.219c-0.047 23.712-0.086 43.389-0.113 57.155-0.024 6.848-0.043 12.223-0.057 15.901-0.011 1.816-0.019 3.211-0.025 4.168-9e-3 0.94-0.025 1.412-0.025 1.412z" fill="#263238"/>
<path id="path757" d="m117.42 343.65c0.746 5.129-2.808 9.892-7.938 10.637-5.129 0.745-9.892-2.808-10.637-7.938-0.745-5.129 2.808-9.892 7.938-10.637 5.129-0.745 9.891 2.809 10.637 7.938z" fill="#ffffff" opacity=".3"/><path id="path760" d="m140.3 340.7c0.745 5.129-2.808 9.892-7.938 10.637-5.129 0.745-9.892-2.808-10.637-7.938-0.745-5.129 2.808-9.892 7.938-10.637s9.892 2.809 10.637 7.938z" fill="#ffffff" opacity=".3"/></svg>
