<?xml version="1.0" encoding="UTF-8"?>
<svg id="svg1" width="512" height="512" version="1.1" viewBox="0 0 512 512" xmlns="http://www.w3.org/2000/svg">
    <g id="layer1">
        <g id="g1" transform="matrix(5.994 0 0 5.994 -1899.7 -1621.7)">
            <path id="path119"
                d="m321.21 345.82 14.142-3.092c5.315 4.301 11.859 7.247 19.164 8.217 21.006 2.787 40.318-11.805 43.134-32.591 2.816-20.787-11.929-39.898-32.935-42.685s-40.318 11.805-43.134 32.592c-1.176 8.68 0.718 17.062 4.844 24.091l-0.015-0.015z"
                fill="#ffffff" />
            <path id="path120"
                d="m321.21 345.82s0.135-0.313 0.37-0.898c0.244-0.609 0.588-1.469 1.035-2.588 0.905-2.282 2.228-5.614 3.945-9.942l-0.264 0.055 0.015 0.015c0.062 0.063 0.164 0.063 0.227 2e-3 0.053-0.052 0.061-0.133 0.026-0.194-2.544-4.415-4.993-10.683-5.075-18.332-0.135-7.567 2.262-16.512 8.35-24.056 3.025-3.752 6.94-7.101 11.568-9.598 4.619-2.5 9.952-4.136 15.568-4.536 5.612-0.348 11.476 0.529 16.957 2.736 2.774 1.033 5.353 2.58 7.849 4.254 0.621 0.425 1.186 0.929 1.784 1.391 0.576 0.488 1.217 0.906 1.737 1.461 1.077 1.068 2.231 2.074 3.174 3.283 0.49 0.589 1.007 1.154 1.472 1.758l1.306 1.871 0.651 0.932 0.557 0.987 1.11 1.967c0.346 0.665 0.618 1.365 0.93 2.043 0.283 0.69 0.651 1.346 0.85 2.064 0.441 1.416 1.003 2.792 1.258 4.242 1.35 5.715 1.298 11.593 0.056 17.031-1.216 5.455-3.738 10.409-6.956 14.537-3.23 4.134-7.201 7.43-11.428 9.795-4.23 2.374-8.71 3.817-13.038 4.478-4.338 0.73-8.515 0.433-12.308-0.12-7.616-1.312-13.494-4.658-17.481-7.854-0.038-0.032-0.091-0.042-0.136-0.032-4.546 1.039-8.046 1.84-10.443 2.387-1.176 0.272-2.079 0.481-2.719 0.63-0.617 0.145-0.947 0.231-0.947 0.231s0.286-0.049 0.884-0.171c0.632-0.13 1.525-0.313 2.685-0.552 2.435-0.508 5.99-1.251 10.607-2.214l-0.135-0.032c3.984 3.266 9.898 6.698 17.601 8.072 3.835 0.584 8.067 0.905 12.47 0.186 4.393-0.65 8.947-2.096 13.252-4.493 4.302-2.388 8.348-5.725 11.643-9.921 3.283-4.189 5.86-9.227 7.107-14.776 1.273-5.531 1.335-11.515-0.036-17.337-0.26-1.477-0.829-2.879-1.279-4.321-0.204-0.731-0.576-1.4-0.864-2.103-0.317-0.691-0.595-1.403-0.947-2.081l-1.129-2.004-0.568-1.005-0.662-0.95-1.33-1.905c-0.473-0.615-0.999-1.191-1.498-1.791-0.961-1.23-2.135-2.256-3.233-3.342-0.531-0.564-1.183-0.991-1.77-1.488-0.609-0.471-1.185-0.982-1.818-1.415-2.542-1.706-5.171-3.278-7.996-4.329-5.585-2.244-11.553-3.129-17.265-2.765-5.716 0.415-11.14 2.092-15.83 4.645-4.7 2.551-8.669 5.966-11.727 9.787-6.159 7.684-8.543 16.772-8.36 24.432 0.131 7.745 2.661 14.061 5.274 18.484l0.253-0.192-0.015-0.015c-0.062-0.062-0.163-0.063-0.226-3e-3 -0.017 0.016-0.03 0.038-0.038 0.058-1.652 4.408-2.924 7.804-3.795 10.128-0.412 1.109-0.728 1.962-0.952 2.566-0.211 0.571-0.303 0.847-0.303 0.847z"
                fill="#33434c" />
            <path id="path126"
                d="m374.59 307.77c0.039-8.19-6.638-14.861-14.914-14.9s-15.018 6.569-15.057 14.759c-0.028 5.93 3.465 11.061 8.536 13.457-8e-3 1.757-0.018 3.741-0.018 3.741l13.134 0.062s0.089-2.099 0.128-3.973c4.838-2.441 8.164-7.402 8.191-13.146z"
                fill="#ff725e" />
            <path id="path129"
                d="m361.52 324.81s2e-3 -0.062 0.016-0.183c0.015-0.128 0.036-0.305 0.064-0.535 0.06-0.469 0.148-1.162 0.284-2.051 0.137-0.889 0.32-1.975 0.611-3.221 0.298-1.242 0.702-2.652 1.38-4.12 0.339-0.734 0.731-1.484 1.243-2.213 0.263-0.357 0.591-0.704 1.029-0.906 0.437-0.204 0.982-0.202 1.423 0.053 0.218 0.126 0.402 0.338 0.472 0.589 0.078 0.248 0.051 0.529-0.066 0.761-0.234 0.468-0.677 0.793-1.162 0.982-0.991 0.338-2.131 0.247-3.114-0.233-0.986-0.479-1.772-1.396-2.104-2.484-0.159-0.541-0.244-1.133-0.08-1.711 0.144-0.574 0.712-1.087 1.367-1.024 0.324 0.025 0.618 0.246 0.76 0.527 0.149 0.279 0.185 0.609 0.116 0.915-0.148 0.618-0.601 1.079-1.061 1.469-0.948 0.768-2.237 1.191-3.498 0.986-1.253-0.204-2.375-1.03-2.887-2.151-0.269-0.551-0.331-1.22-0.093-1.797 0.12-0.285 0.35-0.55 0.66-0.653 0.306-0.115 0.651-0.058 0.922 0.088 0.275 0.145 0.497 0.383 0.629 0.654 0.138 0.27 0.2 0.565 0.225 0.855 0.04 0.581-0.047 1.159-0.236 1.694-0.371 1.073-1.151 1.977-2.124 2.477-0.969 0.506-2.093 0.636-3.103 0.407-0.499-0.112-1.009-0.311-1.346-0.714-0.33-0.393-0.42-1.014-0.076-1.429 0.171-0.199 0.427-0.305 0.675-0.323 0.249-0.016 0.497 0.035 0.714 0.141 0.444 0.22 0.714 0.629 0.912 1.022 0.373 0.806 0.671 1.589 0.974 2.337 1.184 2.995 2.022 5.461 2.584 7.171 0.28 0.855 0.487 1.522 0.626 1.975 0.066 0.221 0.117 0.393 0.154 0.516 0.034 0.117 0.046 0.178 0.046 0.178s-0.025-0.057-0.064-0.172c-0.041-0.122-0.098-0.292-0.171-0.511-0.153-0.456-0.375-1.117-0.659-1.964-0.582-1.701-1.439-4.16-2.637-7.145-0.304-0.742-0.612-1.534-0.98-2.321-0.193-0.381-0.456-0.763-0.85-0.953-0.382-0.189-0.919-0.19-1.208 0.148-0.284 0.335-0.213 0.888 0.081 1.232 0.301 0.36 0.778 0.552 1.26 0.657 0.972 0.218 2.057 0.09 2.988-0.4 0.934-0.482 1.682-1.352 2.037-2.385 0.181-0.514 0.263-1.072 0.224-1.623-0.037-0.542-0.264-1.11-0.761-1.366-0.238-0.127-0.525-0.172-0.776-0.077-0.255 0.085-0.446 0.301-0.554 0.555-0.212 0.518-0.163 1.133 0.092 1.652 0.484 1.061 1.559 1.854 2.75 2.046 1.2 0.196 2.441-0.209 3.352-0.947 0.445-0.374 0.872-0.821 0.999-1.368 0.061-0.267 0.028-0.554-0.099-0.792-0.123-0.238-0.355-0.411-0.619-0.433-0.263-0.027-0.536 0.069-0.746 0.234-0.213 0.163-0.354 0.403-0.43 0.662-0.151 0.523-0.075 1.093 0.078 1.611 0.316 1.043 1.069 1.925 2.011 2.384 0.938 0.463 2.047 0.55 2.981 0.233 0.455-0.173 0.872-0.485 1.078-0.898 0.219-0.411 0.053-0.938-0.342-1.154-0.386-0.227-0.889-0.234-1.282-0.049-0.404 0.184-0.719 0.51-0.977 0.857-0.503 0.71-0.9 1.46-1.239 2.184-0.68 1.454-1.092 2.855-1.398 4.09-0.301 1.239-0.493 2.322-0.641 3.208-0.137 0.882-0.245 1.57-0.319 2.045-0.035 0.228-0.062 0.405-0.082 0.532-0.018 0.119-0.033 0.179-0.033 0.179z"
                fill="#33434c" />
            <path id="path133"
                d="m365.24 327.29-11.277-0.053c-0.467-2e-3 -0.845-0.379-0.842-0.841 2e-3 -0.463 0.383-0.836 0.85-0.834l11.277 0.053c0.467 2e-3 0.845 0.379 0.842 0.842-2e-3 0.462-0.383 0.835-0.85 0.833z"
                fill="#33434c" />
            <path id="path136"
                d="m365.24 328.03-11.277-0.053c-0.467-2e-3 -0.848 0.371-0.85 0.833s0.375 0.839 0.842 0.841l1.238 6e-3 1.628 3.101c0.186 0.355 0.556 0.578 0.96 0.58l4.03 0.019c0.408 2e-3 0.783-0.222 0.97-0.581l1.611-3.076 0.842 4e-3c0.467 2e-3 0.848-0.371 0.85-0.834 1e-3 -0.461-0.376-0.838-0.844-0.84z"
                fill="#33434c" />
            <path id="path148"
                d="m362.57 333.04c-0.014 0.028-0.296-0.102-0.774-0.24-0.476-0.139-1.156-0.264-1.912-0.248-0.757 0.02-1.429 0.177-1.898 0.339-0.47 0.16-0.746 0.303-0.761 0.276-0.01-0.017 0.245-0.201 0.715-0.397 0.467-0.197 1.159-0.38 1.939-0.4 0.781-0.017 1.48 0.133 1.956 0.307 0.48 0.174 0.744 0.346 0.735 0.363z"
                fill="#455a64" />
            <path id="path152"
                d="m364.42 329.73c0 0.05-2.039 0.081-4.554 0.07-2.515-0.012-4.553-0.062-4.553-0.112s2.039-0.082 4.554-0.07c2.514 0.012 4.553 0.062 4.553 0.112z"
                fill="#455a64" />
            <path id="path156"
                d="m363.7 331.06c1e-3 0.025-0.423 0.067-1.111 0.107s-1.639 0.074-2.69 0.084-2.003-7e-3 -2.691-0.034-1.113-0.061-1.113-0.086c1e-3 -0.025 0.427-0.037 1.115-0.043 0.743-5e-3 1.667-0.012 2.688-0.019 1.021-0.012 1.944-0.022 2.687-0.031 0.687-7e-3 1.113-4e-3 1.115 0.022z"
                fill="#455a64" />
        </g>
    </g>
</svg>