<svg id="SVGRoot" version="1.1" viewBox="0 0 16 16" xmlns="http://www.w3.org/2000/svg">
  <path
    d="m6.2768 3.423e-4a0.87578 0.87578 0 0 0-0.87578 0.87578 0.87578 0.87578 0 0 0 0.87578 0.87578c4.1126 3e-7 7.4445 3.1025 7.884 7.0951h-1.6954c-0.43181-3.0409-3.032-5.4011-6.1886-5.4011a0.87586 0.87586 0 0 0-0.87578 0.87578v5.4011a0.87586 0.87586 0 0 0 0.87578 0.87578h4.4384c-0.40553 2.0862-2.229 3.6495-4.4384 3.6495-1.2006 0-2.3511-0.47635-3.2-1.3253-0.84894-0.84894-1.3253-1.9994-1.3253-3.2a0.87578 0.87578 0 0 0-0.87578-0.87578 0.87578 0.87578 0 0 0-0.87578 0.87578c0 1.6645 0.6615 3.2615 1.8384 4.4384 1.1769 1.1769 2.7739 1.8384 4.4384 1.8384 3.1566 0 5.7568-2.3601 6.1886-5.4011h2.6588a0.87586 0.87586 0 0 0 0.87578-0.87578c0-5.3594-4.3638-9.7225-9.7232-9.7225zm0.87578 5.2841c1.8029 0.3502 3.2122 1.7598 3.5626 3.5626h-3.5626z"
    fill="#ff725e" stroke-linecap="round" stroke-linejoin="round" style="paint-order:stroke markers fill" />
</svg>