<svg width="82.021mm" height="21.167mm" version="1.1" viewBox="0 0 82.021 21.167" xmlns="http://www.w3.org/2000/svg">
  <g stroke-linecap="round" stroke-linejoin="round">
    <path d="m8.6522 2.265c5.705 0 10.33 4.6249 10.33 10.33h-10.33v-6.3067c3.4831 0 6.3067 2.8236 6.3067 6.3067 0 3.4831-2.8236 6.3067-6.3067 6.3067-1.6726 0-3.2768-0.66445-4.4595-1.8472-1.1827-1.1827-1.8472-2.7869-1.8472-4.4595" fill="none" stroke="#2c2ca0" stroke-width="2.0451" style="paint-order:stroke markers fill"/>
    <g fill="#333" stroke-dasharray="8.18054, 4.09027, 2.04514, 4.09027" stroke-width="2.0451" style="paint-order:stroke markers fill" aria-label="Dezigneur">
      <path d="m26.502 15.948h-3.2253v-8.7259h3.2211q1.3336 0 2.2965 0.52406 0.96718 0.5198 1.4912 1.4998 0.52406 0.9757 0.52406 2.3349 0 1.3634-0.52406 2.3434-0.5198 0.97996-1.487 1.504-0.96718 0.5198-2.2965 0.5198zm-1.1163-1.798h1.0353q0.73284 0 1.2399-0.24712 0.51128-0.25138 0.77118-0.81379 0.26416-0.56667 0.26416-1.5083 0-0.94161-0.26416-1.4998-0.26416-0.56241-0.77971-0.80953-0.51128-0.25138-1.2612-0.25138h-1.0055z"/>
      <path d="m34.429 16.072q-1.0268 0-1.7724-0.40477-0.74136-0.40903-1.1419-1.1632-0.39624-0.7584-0.39624-1.8023 0-1.014 0.4005-1.7724 0.4005-0.76266 1.1291-1.1845 0.72858-0.42607 1.7171-0.42607 0.69875 0 1.2782 0.2173 0.57945 0.2173 1.0013 0.64336 0.42181 0.42607 0.65615 1.0524 0.23434 0.62206 0.23434 1.4273v0.5198h-5.688v-1.21h3.7494q-0.0043-0.33233-0.15764-0.59224-0.15338-0.2599-0.42181-0.40476-0.26416-0.14912-0.60928-0.14912-0.34938 0-0.62632 0.15764-0.27694 0.15338-0.43885 0.42181-0.16191 0.26416-0.17043 0.60076v1.2313q0 0.4005 0.15765 0.70301 0.15764 0.29825 0.44737 0.46442 0.28973 0.16617 0.69023 0.16617 0.27694 0 0.50276-0.07669 0.22582-0.07669 0.38772-0.22582 0.16191-0.14912 0.24286-0.36642l1.913 0.05539q-0.1193 0.64336-0.52406 1.1206-0.4005 0.47294-1.0524 0.7371-0.65188 0.2599-1.5083 0.2599z"/>
      <path d="m37.954 15.948v-1.1887l3.0336-3.694v-0.04261h-2.9271v-1.6191h5.4111v1.3038l-2.8121 3.579v0.04261h2.9143v1.6191z"/>
      <path d="m44.254 15.948v-6.5444h2.0835v6.5444zm1.0439-7.3071q-0.43885 0-0.75414-0.28973-0.31529-0.29399-0.31529-0.70727 0-0.40903 0.31529-0.69875 0.31529-0.29399 0.75414-0.29399 0.44311 0 0.75414 0.29399 0.31529 0.28973 0.31529 0.69875 0 0.41329-0.31529 0.70727-0.31103 0.28973-0.75414 0.28973z"/>
      <path d="m50.042 18.539q-0.93309 0-1.5978-0.2599-0.66467-0.2599-1.0439-0.71154-0.3792-0.45163-0.45589-1.0226l1.9727-0.11078q0.05539 0.20025 0.20451 0.34938 0.15338 0.14912 0.39624 0.23008 0.24712 0.08095 0.57945 0.08095 0.52406 0 0.86492-0.25564 0.34512-0.25138 0.34512-0.88196v-1.1504h-0.07243q-0.12356 0.30251-0.37494 0.54111-0.25138 0.2386-0.62632 0.37494-0.37068 0.13634-0.85214 0.13634-0.7158 0-1.3123-0.33233-0.59224-0.33659-0.95013-1.0396-0.35364-0.70727-0.35364-1.8193 0-1.1461 0.36642-1.8875 0.36642-0.74562 0.95866-1.1035 0.5965-0.3579 1.2825-0.3579 0.51554 0 0.88196 0.17895 0.37068 0.17469 0.60928 0.45163 0.2386 0.27694 0.36216 0.57519h0.05965v-1.1206h2.075v6.57q0 0.83083-0.41755 1.4018-0.41755 0.57093-1.1674 0.86492-0.74988 0.29825-1.7341 0.29825zm0.06391-4.1968q0.3792 0 0.64762-0.20025 0.26842-0.20025 0.41329-0.57519 0.14486-0.37494 0.14486-0.899 0-0.53259-0.14486-0.91605-0.1406-0.38772-0.41329-0.5965-0.26842-0.20877-0.64762-0.20877-0.38772 0-0.65615 0.21303-0.26842 0.21304-0.40903 0.60076-0.13634 0.38346-0.13634 0.90753t0.1406 0.899q0.1406 0.37494 0.40477 0.57519 0.26842 0.20025 0.65615 0.20025z"/>
      <path d="m56.102 12.216v3.7324h-2.0835v-6.5444h1.9812v1.2015h0.07243q0.2173-0.60076 0.74136-0.94161 0.52406-0.34512 1.2484-0.34512 0.69023 0 1.1973 0.31103 0.51128 0.30677 0.79249 0.86066 0.28547 0.54963 0.2812 1.2867v4.1712h-2.0835v-3.7622q0.0043-0.54537-0.27694-0.85214-0.27694-0.30677-0.77118-0.30677-0.32807 0-0.57945 0.14486-0.24712 0.1406-0.38346 0.40477-0.13208 0.26416-0.13634 0.6391z"/>
      <path d="m64.02 16.072q-1.0268 0-1.7724-0.40477-0.74136-0.40903-1.1419-1.1632-0.39624-0.7584-0.39624-1.8023 0-1.014 0.4005-1.7724 0.4005-0.76266 1.1291-1.1845 0.72858-0.42607 1.7171-0.42607 0.69875 0 1.2782 0.2173t1.0013 0.64336q0.42181 0.42607 0.65615 1.0524 0.23434 0.62206 0.23434 1.4273v0.5198h-5.688v-1.21h3.7494q-0.0043-0.33233-0.15764-0.59224-0.15338-0.2599-0.42181-0.40476-0.26416-0.14912-0.60928-0.14912-0.34938 0-0.62632 0.15764-0.27694 0.15338-0.43885 0.42181-0.16191 0.26416-0.17043 0.60076v1.2313q0 0.4005 0.15765 0.70301 0.15764 0.29825 0.44737 0.46442 0.28973 0.16617 0.69023 0.16617 0.27694 0 0.50276-0.07669 0.22582-0.07669 0.38772-0.22582 0.16191-0.14912 0.24286-0.36642l1.913 0.05539q-0.1193 0.64336-0.52406 1.1206-0.4005 0.47294-1.0524 0.7371-0.65188 0.2599-1.5083 0.2599z"/>
      <path d="m71.751 13.123v-3.7196h2.0792v6.5444h-1.9855v-1.2186h-0.06817q-0.2173 0.60076-0.74136 0.95439-0.5198 0.34938-1.2569 0.34938-0.66893 0-1.176-0.30677-0.50702-0.30677-0.78823-0.8564-0.2812-0.55389-0.28547-1.2952v-4.1712h2.0835v3.7622q0.0043 0.53259 0.28121 0.83936 0.27694 0.30677 0.75414 0.30677 0.31103 0 0.55815-0.13634 0.25138-0.1406 0.39624-0.40477 0.14912-0.26842 0.14912-0.64762z"/>
      <path d="m74.488 15.948v-6.5444h2.0238v1.193h0.06817q0.17895-0.64762 0.58372-0.96292 0.40476-0.31955 0.94161-0.31955 0.14486 0 0.29825 0.021303 0.15338 0.017043 0.28547 0.055389v1.8108q-0.14912-0.05113-0.39198-0.08095-0.2386-0.02982-0.42607-0.02982-0.37068 0-0.66893 0.16617-0.29399 0.16191-0.46442 0.45589-0.16617 0.28973-0.16617 0.68171v3.5534z"/>
    </g>
    <g fill="#333" stroke-width="1.1117" style="paint-order:stroke markers fill" aria-label="®">
      <path d="m79.551 10.602v-0.77695h0.38005q0.0737 0 0.13476 0.030531 0.06211 0.030531 0.09791 0.088434 0.03685 0.05685 0.03685 0.13897 0 0.08212-0.0379 0.14002-0.0379 0.0579-0.10107 0.08843-0.06317 0.02948-0.14002 0.02948h-0.26004v-0.14634h0.21792q0.04422 0 0.0758-0.02842 0.03264-0.02843 0.03264-0.08422 0-0.0579-0.03264-0.082117-0.03158-0.025267-0.07475-0.025267h-0.12739v0.62746zm0.49586-0.359 0.17687 0.359h-0.22108l-0.16529-0.359zm-0.19161 0.82222q-0.17476 0-0.32742-0.06527-0.15265-0.06527-0.26846-0.18108-0.1158-0.11581-0.18108-0.26846-0.06527-0.15265-0.06527-0.32742 0-0.17476 0.06527-0.32741 0.06527-0.15265 0.18108-0.26846 0.11581-0.11581 0.26846-0.18108 0.15265-0.065272 0.32742-0.065272 0.17476 0 0.32742 0.065272t0.26846 0.18108q0.11581 0.11581 0.18108 0.26846 0.06527 0.15265 0.06527 0.32741 0 0.17476-0.06527 0.32742t-0.18108 0.26846q-0.11581 0.11581-0.26846 0.18108-0.15265 0.06527-0.32742 0.06527zm0-0.22214q0.17266 0 0.31268-0.08317 0.14107-0.08422 0.22424-0.22424 0.08317-0.14107 0.08317-0.31268 0-0.1716-0.08422-0.31162-0.08317-0.14107-0.22424-0.22424-0.14002-0.084223-0.31162-0.084223-0.17055 0-0.31162 0.084223-0.14107 0.08317-0.22424 0.22424-0.08317 0.14002-0.08317 0.31162 0 0.1716 0.08317 0.31268 0.08317 0.14002 0.22424 0.22424 0.14107 0.08317 0.31162 0.08317z"/>
    </g>
  </g>
</svg>
